<svg xmlns="http://www.w3.org/2000/svg" width="158.344" height="40.359" viewBox="0 0 158.344 40.359">
  <g id="Grupo_980850" data-name="Grupo 980850" transform="translate(5953.844 9889.742)">
    <path id="Trazado_656377" data-name="Trazado 656377" d="M3.133,10.781V15H1.156V3.625H5.508a4.4,4.4,0,0,1,3.027.993A3.34,3.34,0,0,1,9.656,7.246a3.229,3.229,0,0,1-1.1,2.6,4.613,4.613,0,0,1-3.074.931Zm0-1.594H5.508a2.339,2.339,0,0,0,1.609-.5,1.823,1.823,0,0,0,.555-1.434,1.967,1.967,0,0,0-.562-1.473,2.168,2.168,0,0,0-1.547-.566H3.133Zm12.078,1.188A11.9,11.9,0,0,1,15.7,6.949a9.4,9.4,0,0,1,1.422-2.9A5.646,5.646,0,0,1,19.1,2.258l.375,1.109a5.8,5.8,0,0,0-1.785,2.551,11.424,11.424,0,0,0-.746,3.926l-.008.672a12.42,12.42,0,0,0,.668,4.223,6.224,6.224,0,0,0,1.871,2.824L19.1,18.617a5.655,5.655,0,0,1-1.988-1.8,9.4,9.4,0,0,1-1.422-2.9A12.374,12.374,0,0,1,15.211,10.375Zm12.1,1.977H22.906L21.984,15H19.93l4.3-11.375H26L30.3,15H28.242Zm-3.852-1.594h3.3L25.109,6.039Zm8.484,5.219H30.453L34.93,3.625h1.492ZM37.922,15V3.625h3.9a4.76,4.76,0,0,1,2.938.773,2.724,2.724,0,0,1,1.008,2.3,2.456,2.456,0,0,1-.422,1.406,2.715,2.715,0,0,1-1.234.969,2.511,2.511,0,0,1,1.426.941,2.742,2.742,0,0,1,.5,1.66,3.028,3.028,0,0,1-1.027,2.461A4.467,4.467,0,0,1,42.07,15ZM39.9,9.867v3.555h2.2a2.124,2.124,0,0,0,1.453-.461,1.618,1.618,0,0,0,.523-1.281,1.623,1.623,0,0,0-1.812-1.812Zm0-1.453h1.938A2.241,2.241,0,0,0,43.277,8a1.432,1.432,0,0,0,.52-1.184,1.452,1.452,0,0,0-.48-1.219,2.426,2.426,0,0,0-1.5-.375H39.9ZM51.492,10.5a11.755,11.755,0,0,1-.477,3.348,9.485,9.485,0,0,1-1.445,2.938,5.66,5.66,0,0,1-2.023,1.832l-.375-1.055a6,6,0,0,0,1.855-2.77,12.3,12.3,0,0,0,.684-4.254v-.18A12.484,12.484,0,0,0,49.117,6.4a6.98,6.98,0,0,0-1.7-2.863l-.242-.219.375-1.062a5.6,5.6,0,0,1,1.938,1.719,9.326,9.326,0,0,1,1.438,2.762,11.5,11.5,0,0,1,.563,3.152ZM64.352,8.906H57.617V7.328h6.734Zm0,3.313H57.617v-1.57h6.734Zm8.2-1.437V15H70.578V3.625H74.93a4.4,4.4,0,0,1,3.027.993,3.34,3.34,0,0,1,1.121,2.628,3.229,3.229,0,0,1-1.1,2.6,4.613,4.613,0,0,1-3.074.931Zm0-1.594H74.93a2.339,2.339,0,0,0,1.609-.5,1.823,1.823,0,0,0,.555-1.434,1.967,1.967,0,0,0-.562-1.473,2.168,2.168,0,0,0-1.547-.566h-2.43Zm12.078,1.188a11.9,11.9,0,0,1,.484-3.426,9.4,9.4,0,0,1,1.422-2.9,5.646,5.646,0,0,1,1.984-1.793L88.9,3.367a5.8,5.8,0,0,0-1.785,2.551,11.424,11.424,0,0,0-.746,3.926l-.008.672a12.42,12.42,0,0,0,.668,4.223A6.224,6.224,0,0,0,88.9,17.563l-.375,1.055a5.655,5.655,0,0,1-1.988-1.8,9.4,9.4,0,0,1-1.422-2.9A12.374,12.374,0,0,1,84.633,10.375ZM90.367,15V3.625h3.9A4.76,4.76,0,0,1,97.2,4.4a2.724,2.724,0,0,1,1.008,2.3,2.456,2.456,0,0,1-.422,1.406,2.715,2.715,0,0,1-1.234.969,2.511,2.511,0,0,1,1.426.941,2.742,2.742,0,0,1,.5,1.66,3.028,3.028,0,0,1-1.027,2.461A4.467,4.467,0,0,1,94.516,15Zm1.977-5.133v3.555h2.2a2.124,2.124,0,0,0,1.453-.461,1.618,1.618,0,0,0,.523-1.281A1.623,1.623,0,0,0,94.7,9.867Zm0-1.453h1.938A2.241,2.241,0,0,0,95.723,8a1.432,1.432,0,0,0,.52-1.184,1.452,1.452,0,0,0-.48-1.219,2.426,2.426,0,0,0-1.5-.375H92.344Zm8.469,7.563H99.32L103.8,3.625h1.492Zm12.344-3.625H108.75L107.828,15h-2.055l4.3-11.375h1.773L116.148,15h-2.062ZM109.3,10.758h3.3l-1.648-4.719Zm11.609-.258a11.754,11.754,0,0,1-.477,3.348,9.485,9.485,0,0,1-1.445,2.938,5.66,5.66,0,0,1-2.023,1.832l-.375-1.055a6,6,0,0,0,1.855-2.77,12.3,12.3,0,0,0,.684-4.254v-.18a12.484,12.484,0,0,0-.594-3.957,6.98,6.98,0,0,0-1.7-2.863l-.242-.219.375-1.062a5.6,5.6,0,0,1,1.938,1.719,9.326,9.326,0,0,1,1.438,2.762,11.5,11.5,0,0,1,.563,3.152Zm8.125.281V15h-1.977V3.625h4.352a4.4,4.4,0,0,1,3.027.993,3.34,3.34,0,0,1,1.121,2.628,3.229,3.229,0,0,1-1.1,2.6,4.613,4.613,0,0,1-3.074.931Zm0-1.594h2.375a2.339,2.339,0,0,0,1.609-.5,1.823,1.823,0,0,0,.555-1.434,1.967,1.967,0,0,0-.562-1.473,2.168,2.168,0,0,0-1.547-.566h-2.43Zm8.094,1.188a11.9,11.9,0,0,1,.484-3.426,9.4,9.4,0,0,1,1.422-2.9,5.646,5.646,0,0,1,1.984-1.793l.375,1.109a5.8,5.8,0,0,0-1.785,2.551,11.424,11.424,0,0,0-.746,3.926l-.008.672a12.42,12.42,0,0,0,.668,4.223,6.224,6.224,0,0,0,1.871,2.824l-.375,1.055a5.655,5.655,0,0,1-1.988-1.8,9.4,9.4,0,0,1-1.422-2.9A12.374,12.374,0,0,1,137.133,10.375Zm12.1,1.977h-4.406L143.906,15h-2.055l4.3-11.375h1.773L152.227,15h-2.062Zm-3.852-1.594h3.3l-1.648-4.719Zm11.609-.258a11.755,11.755,0,0,1-.477,3.348,9.485,9.485,0,0,1-1.445,2.938,5.66,5.66,0,0,1-2.023,1.832l-.375-1.055a6,6,0,0,0,1.855-2.77,12.3,12.3,0,0,0,.684-4.254v-.18a12.484,12.484,0,0,0-.594-3.957,6.98,6.98,0,0,0-1.7-2.863l-.242-.219.375-1.062a5.6,5.6,0,0,1,1.938,1.719,9.326,9.326,0,0,1,1.438,2.762,11.5,11.5,0,0,1,.563,3.152ZM106.727,34.781V39H104.75V27.625H109.1a4.4,4.4,0,0,1,3.027.993,3.34,3.34,0,0,1,1.121,2.628,3.229,3.229,0,0,1-1.1,2.6,4.613,4.613,0,0,1-3.074.931Zm0-1.594H109.1a2.339,2.339,0,0,0,1.609-.5,1.823,1.823,0,0,0,.555-1.434,1.967,1.967,0,0,0-.562-1.473,2.168,2.168,0,0,0-1.547-.566h-2.43Zm8.094,1.188a11.9,11.9,0,0,1,.484-3.426,9.4,9.4,0,0,1,1.422-2.9,5.646,5.646,0,0,1,1.984-1.793l.375,1.109a5.8,5.8,0,0,0-1.785,2.551,11.424,11.424,0,0,0-.746,3.926l-.008.672a12.42,12.42,0,0,0,.668,4.223,6.224,6.224,0,0,0,1.871,2.824l-.375,1.055a5.655,5.655,0,0,1-1.988-1.8,9.4,9.4,0,0,1-1.422-2.9A12.374,12.374,0,0,1,114.82,34.375ZM120.555,39V27.625h3.9a4.76,4.76,0,0,1,2.938.773,2.724,2.724,0,0,1,1.008,2.3,2.456,2.456,0,0,1-.422,1.406,2.715,2.715,0,0,1-1.234.969,2.511,2.511,0,0,1,1.426.941,2.742,2.742,0,0,1,.5,1.66,3.028,3.028,0,0,1-1.027,2.461A4.467,4.467,0,0,1,124.7,39Zm1.977-5.133v3.555h2.2a2.124,2.124,0,0,0,1.453-.461,1.818,1.818,0,0,0-1.289-3.094Zm0-1.453h1.938A2.241,2.241,0,0,0,125.91,32a1.432,1.432,0,0,0,.52-1.184,1.452,1.452,0,0,0-.48-1.219,2.426,2.426,0,0,0-1.5-.375h-1.922ZM134.125,34.5a11.755,11.755,0,0,1-.477,3.348,9.485,9.485,0,0,1-1.445,2.938,5.66,5.66,0,0,1-2.023,1.832l-.375-1.055a6,6,0,0,0,1.855-2.77,12.3,12.3,0,0,0,.684-4.254v-.18a12.484,12.484,0,0,0-.594-3.957,6.98,6.98,0,0,0-1.7-2.863l-.242-.219.375-1.062a5.6,5.6,0,0,1,1.938,1.719,9.326,9.326,0,0,1,1.438,2.762,11.5,11.5,0,0,1,.563,3.152Z" transform="translate(-5955 -9892)" fill="#12263f"/>
    <path id="Trazado_656378" data-name="Trazado 656378" d="M0,0H91" transform="translate(-5886.5 -9866.5)" fill="none" stroke="#0f2440" stroke-width="1"/>
  </g>
</svg>
