<svg xmlns="http://www.w3.org/2000/svg" width="86.555" height="19.375" viewBox="0 0 86.555 19.375">
  <g id="Grupo_980851" data-name="Grupo 980851" transform="translate(4671.055 9918.375)">
    <path id="Trazado_656380" data-name="Trazado 656380" d="M2.734,6.547l.055.977A3.039,3.039,0,0,1,5.25,6.391q2.641,0,2.688,3.023V15h-1.9V9.523a1.741,1.741,0,0,0-.348-1.191,1.462,1.462,0,0,0-1.137-.387A1.829,1.829,0,0,0,2.844,8.984V15H.945V6.547Zm9.3,4.234V15H10.055V3.625h4.352a4.4,4.4,0,0,1,3.027.993,3.34,3.34,0,0,1,1.121,2.628,3.229,3.229,0,0,1-1.1,2.6,4.613,4.613,0,0,1-3.074.931Zm0-1.594h2.375a2.339,2.339,0,0,0,1.609-.5,1.823,1.823,0,0,0,.555-1.434,1.967,1.967,0,0,0-.562-1.473,2.168,2.168,0,0,0-1.547-.566h-2.43Zm12.492-.906a4.7,4.7,0,0,0-.773-.062,1.741,1.741,0,0,0-1.758,1V15h-1.9V6.547h1.813l.047.945a2.139,2.139,0,0,1,1.906-1.1,1.777,1.777,0,0,1,.672.109ZM36.6,8.906H29.867V7.328H36.6Zm0,3.313H29.867v-1.57H36.6ZM52.375,6.547l.055.977a3.039,3.039,0,0,1,2.461-1.133q2.641,0,2.688,3.023V15h-1.9V9.523a1.741,1.741,0,0,0-.348-1.191A1.462,1.462,0,0,0,54.2,7.945a1.829,1.829,0,0,0-1.711,1.039V15h-1.9V6.547Zm9.148,5.109H59.891l-.18-8.031h2Zm-1.867,2.449a1,1,0,0,1,.289-.735,1.213,1.213,0,0,1,1.578,0,1,1,0,0,1,.289.735.984.984,0,0,1-.281.716,1.247,1.247,0,0,1-1.594,0A.984.984,0,0,1,59.656,14.105ZM80.922,13a1.084,1.084,0,0,1,.82.3,1.045,1.045,0,0,1,.289.754,1.008,1.008,0,0,1-.289.738,1.28,1.28,0,0,1-1.625,0,.991.991,0,0,1-.3-.742,1.045,1.045,0,0,1,.289-.754A1.074,1.074,0,0,1,80.922,13Z" transform="translate(-4672 -9922)" fill="#12263f"/>
    <path id="Trazado_656379" data-name="Trazado 656379" d="M0,0H49" transform="translate(-4633.5 -9899.5)" fill="none" stroke="#0f2440" stroke-width="1"/>
  </g>
</svg>
