<svg xmlns="http://www.w3.org/2000/svg" width="110.555" height="39.148" viewBox="0 0 110.555 39.148">
  <g id="Grupo_980852" data-name="Grupo 980852" transform="translate(7237.055 9394.531)">
    <path id="Trazado_656381" data-name="Trazado 656381" d="M2.734,6.547l.055.977A3.039,3.039,0,0,1,5.25,6.391q2.641,0,2.688,3.023V15h-1.9V9.523a1.741,1.741,0,0,0-.348-1.191,1.462,1.462,0,0,0-1.137-.387A1.829,1.829,0,0,0,2.844,8.984V15H.945V6.547Zm16,4.75a4.107,4.107,0,0,1-1.344,2.84,4.581,4.581,0,0,1-3.117,1.02,4.436,4.436,0,0,1-2.395-.645,4.231,4.231,0,0,1-1.6-1.832A6.611,6.611,0,0,1,9.7,9.922V8.859a6.659,6.659,0,0,1,.57-2.836A4.3,4.3,0,0,1,11.9,4.133a4.566,4.566,0,0,1,2.465-.664A4.4,4.4,0,0,1,17.4,4.488a4.26,4.26,0,0,1,1.336,2.887H16.766a2.81,2.81,0,0,0-.715-1.77,2.363,2.363,0,0,0-1.684-.543A2.308,2.308,0,0,0,12.387,6a4.709,4.709,0,0,0-.707,2.764V9.778a5,5,0,0,0,.66,2.815,2.191,2.191,0,0,0,1.934.97,2.555,2.555,0,0,0,1.75-.523,2.729,2.729,0,0,0,.742-1.742Zm6.008-3.016a4.7,4.7,0,0,0-.773-.062,1.741,1.741,0,0,0-1.758,1V15h-1.9V6.547h1.813l.047.945a2.139,2.139,0,0,1,1.906-1.1,1.777,1.777,0,0,1,.672.109Zm12.078.625H30.086V7.328H36.82Zm0,3.313H30.086v-1.57H36.82ZM68.531,6.547l.055.977a3.039,3.039,0,0,1,2.461-1.133q2.641,0,2.688,3.023V15h-1.9V9.523a1.741,1.741,0,0,0-.348-1.191,1.462,1.462,0,0,0-1.137-.387,1.829,1.829,0,0,0-1.711,1.039V15h-1.9V6.547Zm9.148,5.109H76.047l-.18-8.031h2Zm-1.867,2.449a1,1,0,0,1,.289-.735,1.213,1.213,0,0,1,1.578,0,1,1,0,0,1,.289.735.984.984,0,0,1-.281.716,1.247,1.247,0,0,1-1.594,0A.984.984,0,0,1,75.813,14.105ZM101.063,13a1.084,1.084,0,0,1,.82.3,1.045,1.045,0,0,1,.289.754,1.008,1.008,0,0,1-.289.738,1.28,1.28,0,0,1-1.625,0,.991.991,0,0,1-.3-.742,1.045,1.045,0,0,1,.289-.754A1.074,1.074,0,0,1,101.063,13ZM56.781,34.375a11.9,11.9,0,0,1,.484-3.426,9.4,9.4,0,0,1,1.422-2.9,5.646,5.646,0,0,1,1.984-1.793l.375,1.109a5.8,5.8,0,0,0-1.785,2.551,11.424,11.424,0,0,0-.746,3.926l-.008.672a12.42,12.42,0,0,0,.668,4.223,6.224,6.224,0,0,0,1.871,2.824l-.375,1.055a5.655,5.655,0,0,1-1.988-1.8,9.4,9.4,0,0,1-1.422-2.9A12.374,12.374,0,0,1,56.781,34.375Zm7.313-3.828.055.977a3.039,3.039,0,0,1,2.461-1.133q2.641,0,2.688,3.023V39H67.4V33.523a1.741,1.741,0,0,0-.348-1.191,1.462,1.462,0,0,0-1.137-.387A1.829,1.829,0,0,0,64.2,32.984V39H62.3V30.547Zm10.82,4.383h-4.1V33.4h4.1Zm5.992-2.648a4.7,4.7,0,0,0-.773-.062,1.741,1.741,0,0,0-1.758,1V39h-1.9V30.547h1.813l.047.945a2.139,2.139,0,0,1,1.906-1.1,1.777,1.777,0,0,1,.672.109ZM85.766,34.5a11.754,11.754,0,0,1-.477,3.348,9.485,9.485,0,0,1-1.445,2.938,5.66,5.66,0,0,1-2.023,1.832l-.375-1.055a6,6,0,0,0,1.855-2.77,12.3,12.3,0,0,0,.684-4.254v-.18a12.484,12.484,0,0,0-.594-3.957,6.98,6.98,0,0,0-1.7-2.863l-.242-.219.375-1.062a5.6,5.6,0,0,1,1.938,1.719A9.326,9.326,0,0,1,85.2,30.738a11.5,11.5,0,0,1,.563,3.152Zm3.992,1.156H88.125l-.18-8.031h2Zm-1.867,2.449a1,1,0,0,1,.289-.735,1.213,1.213,0,0,1,1.578,0,1,1,0,0,1,.289.735.984.984,0,0,1-.281.716,1.247,1.247,0,0,1-1.594,0A.984.984,0,0,1,87.891,38.105Zm12.555-5.824a4.7,4.7,0,0,0-.773-.062,1.741,1.741,0,0,0-1.758,1V39h-1.9V30.547h1.813l.047.945a2.139,2.139,0,0,1,1.906-1.1,1.777,1.777,0,0,1,.672.109Zm3.211,3.375h-1.633l-.18-8.031h2Zm-1.867,2.449a1,1,0,0,1,.289-.735,1.213,1.213,0,0,1,1.578,0,1,1,0,0,1,.289.735.984.984,0,0,1-.281.716,1.247,1.247,0,0,1-1.594,0A.984.984,0,0,1,101.789,38.105Z" transform="translate(-7238 -9398)" fill="#12263f"/>
    <path id="Trazado_656382" data-name="Trazado 656382" d="M0,0H68" transform="translate(-7194.5 -9373.5)" fill="none" stroke="#0f2440" stroke-width="1"/>
  </g>
</svg>
