<svg xmlns="http://www.w3.org/2000/svg" width="85" height="135" viewBox="0 0 85 135">
  <g id="Grupo_980853" data-name="Grupo 980853" transform="translate(-180 -11815)">
    <rect id="Rectángulo_340934" data-name="Rectángulo 340934" width="85" height="135" transform="translate(180 11815)" fill="#fed5b1"/>
    <g id="Grupo_925571" data-name="Grupo 925571" transform="translate(-258.188 11730.412)">
      <path id="Trazado_128737" data-name="Trazado 128737" d="M497.077,185.572c-.434.522-.878,1.036-1.3,1.571-.207.265-.342.262-.548,0-.418-.535-.863-1.048-1.3-1.571a2.648,2.648,0,0,1-.815-.717c-.771-.974-1.573-1.925-2.315-2.92a1.882,1.882,0,0,0-1.682-.8c-3.9.023-7.8,0-11.692.02a4.485,4.485,0,0,1-3.012-.889,2.041,2.041,0,0,0-1.4-.288q-12.021,0-24.043,0c-.122,0-.244.01-.365,0-.579-.046-.864.191-.833.8.025.486-.024.975.03,1.46a2.128,2.128,0,0,0,1.891,1.928,8.762,8.762,0,0,0,1.168.033h37.051c.292,0,.585-.006.877,0,1.044.035,1.285.419.886,1.4-.057,1.162-.057,1.162-1.27,1.162-12.622,0-25.244-.05-37.866.036-3.125.021-5.6-2.114-5.338-5.4.039-.484,0-.974.006-1.461a2.362,2.362,0,0,1,2.57-2.527c1.267-.005,2.536-.037,3.8.015.576.024.66-.169.658-.688q-.026-11.4-.012-22.807,0-16.667,0-33.334c0-2.641,1.364-4.007,4-4.007H510.25c3.22,0,5.137,1.911,5.139,5.122,0,2.12.005,4.24,0,6.36a2.353,2.353,0,0,1-2.544,2.552c-1.316.007-2.632.016-3.947-.007-.4-.007-.536.079-.535.51q.023,8.26,0,16.52c0,.4.081.548.511.533.974-.033,1.949-.019,2.924-.008a3.48,3.48,0,0,1,3.585,3.537q.019,12.829,0,25.658a3.483,3.483,0,0,1-3.574,3.549c-1.535.018-3.069.018-4.6.027a1.476,1.476,0,0,1-.979.193q-2.257.009-4.513,0a1.452,1.452,0,0,0-1.244.459c-.933,1.055-1.777,2.183-2.662,3.278A2.543,2.543,0,0,1,497.077,185.572Z" transform="translate(0)"/>
      <path id="Trazado_128738" data-name="Trazado 128738" d="M499.08,445.473c-.058-1.177-.058-1.177-1.265-1.177H459.885c-2.1,0-2.943-.82-2.929-2.9,0-.576-.261-1.361.115-1.671.354-.291,1.11-.109,1.689-.109q12.022-.005,24.044-.009a1.7,1.7,0,0,1,1.25.419,3.413,3.413,0,0,0,2.376.762c4.19-.01,8.38,0,12.57-.016a1.219,1.219,0,0,1,1.094.531c1.063,1.391,2.158,2.758,3.24,4.134Z" transform="translate(-9.399 -259.869)" fill="silver"/>
      <path id="Trazado_128739" data-name="Trazado 128739" d="M725.9,446.494a1.278,1.278,0,0,1,1.393-.764c1.873.057,3.748.033,5.622.041a9.617,9.617,0,0,1-.082,1.88,3.521,3.521,0,0,1-3.669,2.774c-.218,0-.436-.007-.654-.011a3.22,3.22,0,0,1-2.61-2.239A1.95,1.95,0,0,1,725.9,446.494Z" transform="translate(-225.711 -264.83)" fill="#e4e0db"/>
      <path id="Trazado_128740" data-name="Trazado 128740" d="M713.87,449.645a3.629,3.629,0,0,0,2.609,3.921l-5.723-.013C711.736,452.2,712.794,450.917,713.87,449.645Z" transform="translate(-213.679 -267.981)" fill="silver"/>
      <path id="Trazado_128741" data-name="Trazado 128741" d="M545.227,128.585a5.755,5.755,0,0,0-.623,2.9c.01,8.527,0,17.054.021,25.581,0,.608-.142.75-.749.749-9.307-.022-18.613.031-27.92-.046a3.869,3.869,0,0,0-4.128,4.162c.088,8.136.026,16.274.046,24.411,0,.569-.137.714-.71.712q-8.661-.034-17.322,0c-.575,0-.709-.147-.708-.713q.023-28.1.013-56.206c0-1.145.377-1.575,1.415-1.575q25.142,0,50.285,0C544.944,128.562,545.041,128.573,545.227,128.585Z" transform="translate(-38.578 -9.634)" fill="#e4e0db"/>
      <path id="Trazado_128742" data-name="Trazado 128742" d="M619.687,290.185h16.954c1.411,0,1.736.317,1.736,1.7q0,12.35,0,24.7c0,1.339-.338,1.674-1.686,1.674-3.7,0-7.4.009-11.108-.011a1.165,1.165,0,0,0-1.041.5c-1.091,1.4-2.222,2.775-3.314,4.178-.293.376-.452.444-.78.018-1.054-1.37-2.169-2.694-3.223-4.063a1.418,1.418,0,0,0-1.267-.636c-4.458.027-8.915.016-13.373.014-1.291,0-1.636-.348-1.636-1.65q0-12.386,0-24.773c0-1.3.343-1.647,1.637-1.647Z" transform="translate(-125.327 -139.677)" fill="#b4dd7f"/>
      <path id="Trazado_128743" data-name="Trazado 128743" d="M773.208,134.1c0,1.094-.012,2.188.008,3.281.007.377-.044.568-.5.556-1.239-.031-2.479-.027-3.718,0-.4.008-.478-.141-.476-.5.015-2.187-.01-4.375.016-6.562a2.31,2.31,0,0,1,2.339-2.3,2.335,2.335,0,0,1,2.324,2.32C773.227,131.96,773.208,133.03,773.208,134.1Z" transform="translate(-260.159 -9.642)" fill="#aeaeae"/>
      <path id="Trazado_128744" data-name="Trazado 128744" d="M624.9,158.2a11.695,11.695,0,1,1,11.541,11.721A11.7,11.7,0,0,1,624.9,158.2Z" transform="translate(-144.598 -24.099)"/>
      <path id="Trazado_128745" data-name="Trazado 128745" d="M515.607,189.114c-3.264,0-6.528-.01-9.792.01-.525,0-.755-.066-.737-.686.046-1.659.011-1.683,1.648-1.651.547.01.745-.1.726-.7-.049-1.533,0-3.069-.027-4.6-.008-.437.087-.573.554-.573,1.8,0,1.8-.021,1.8,1.8,0,1.194.016,2.388-.009,3.581-.008.385.109.479.488.487,1.861.042,1.861.055,1.861-1.81,0-2.314.018-4.628-.014-6.942-.007-.527.148-.634.647-.628,1.706.021,1.706,0,1.706,1.674,0,2.339.014,4.677-.012,7.016-.006.508.065.711.653.7,1.7-.038,1.7-.006,1.7-1.687,0-3.508.011-7.016-.012-10.523,0-.521.086-.7.66-.69,1.69.037,1.691.006,1.691,1.693,0,3.508.012,7.016-.013,10.523,0,.535.109.694.668.682,1.684-.034,1.684-.006,1.684-1.7,0-4.677.01-9.354-.014-14.031,0-.545.125-.687.674-.676,1.679.032,1.679.006,1.679,1.7,0,4.677.011,9.354-.015,14.031,0,.556.143.68.681.67,1.683-.031,1.653-.005,1.69,1.679.013.579-.177.661-.693.658C522.184,189.1,518.9,189.114,515.607,189.114Z" transform="translate(-48.187 -43.285)"/>
      <path id="Trazado_128746" data-name="Trazado 128746" d="M512.1,154.794c-2.143,0-4.286-.012-6.428.011-.438,0-.571-.09-.572-.554,0-1.8-.02-1.8,1.8-1.8,3.871,0,7.743.01,11.615-.012.5,0,.652.105.645.629-.024,1.722,0,1.722-1.731,1.722Z" transform="translate(-48.208 -28.849)"/>
      <path id="Trazado_128747" data-name="Trazado 128747" d="M533.811,284.16c1.363,0,2.726.015,4.089-.009.406-.007.525.1.531.518.025,1.83.04,1.83-1.766,1.83-2.337,0-4.674-.013-7.01.011-.468,0-.608-.107-.605-.593.01-1.757-.011-1.757,1.767-1.757Z" transform="translate(-67.476 -134.822)"/>
      <path id="Trazado_128748" data-name="Trazado 128748" d="M533.8,320.072c1.339,0,2.678.018,4.016-.01.454-.01.618.082.615.584-.011,1.765.011,1.765-1.76,1.765-2.337,0-4.674-.011-7.011.01-.453,0-.618-.082-.615-.584.011-1.765-.011-1.765,1.76-1.765Z" transform="translate(-67.471 -163.717)"/>
      <path id="Trazado_128749" data-name="Trazado 128749" d="M533.817,355.992c1.363,0,2.727.016,4.089-.009.411-.008.521.109.527.522.024,1.827.039,1.827-1.769,1.827-2.337,0-4.674-.014-7.01.011-.474.005-.6-.118-.6-.6.009-1.753-.01-1.753,1.77-1.753Z" transform="translate(-67.478 -192.619)"/>
      <path id="Trazado_128750" data-name="Trazado 128750" d="M533.655,394.24c-1.363,0-2.726-.016-4.089.01-.413.008-.52-.113-.525-.524-.023-1.825-.038-1.825,1.77-1.825,2.337,0,4.674.014,7.01-.012.478-.005.6.123.6.6-.009,1.752.01,1.752-1.772,1.752Z" transform="translate(-67.465 -221.51)"/>
      <path id="Trazado_128751" data-name="Trazado 128751" d="M507.512,285.417c0,1.121,0,1.121-1.145,1.121-1.194,0-1.194,0-1.194-1.218,0-1.121,0-1.121,1.145-1.121C507.512,284.2,507.512,284.2,507.512,285.417Z" transform="translate(-48.265 -134.861)"/>
      <path id="Trazado_128752" data-name="Trazado 128752" d="M506.373,320.116c1.14,0,1.14,0,1.14,1.127,0,1.213,0,1.213-1.2,1.213-1.14,0-1.14,0-1.14-1.127C505.173,320.116,505.173,320.116,506.373,320.116Z" transform="translate(-48.265 -163.761)"/>
      <path id="Trazado_128753" data-name="Trazado 128753" d="M506.385,356.032c1.127,0,1.127,0,1.127,1.14,0,1.2,0,1.2-1.213,1.2-1.127,0-1.127,0-1.127-1.139C505.173,356.032,505.173,356.032,506.385,356.032Z" transform="translate(-48.265 -192.659)"/>
      <path id="Trazado_128754" data-name="Trazado 128754" d="M506.29,394.288c-1.117,0-1.117,0-1.117-1.15,0-1.19,0-1.19,1.222-1.19,1.117,0,1.117,0,1.117,1.15C507.512,394.288,507.512,394.288,506.29,394.288Z" transform="translate(-48.265 -221.558)"/>
      <path id="Trazado_128755" data-name="Trazado 128755" d="M617.542,326.733c-.877,0-1.757-.046-2.629.015-.679.047-.922-.111-.892-.852.065-1.6-.009-3.215.035-4.821a1.417,1.417,0,0,0-.65-1.419,1.174,1.174,0,0,1-.546-1.168c.031-1.7.026-3.41.008-5.115a3.48,3.48,0,0,1,1.653-3.213c.394-.246.252-.39.084-.663a3.809,3.809,0,0,1,2.05-5.748,3.5,3.5,0,0,1,4.4,3.168,3.9,3.9,0,0,1-.644,2.708c-.194.257-.1.347.128.493a3.647,3.647,0,0,1,1.7,3.416c-.033,1.656-.027,3.313,0,4.968a1.171,1.171,0,0,1-.55,1.169,1.392,1.392,0,0,0-.644,1.418c.038,1.68,0,3.361.024,5.042.007.471-.117.632-.6.614C619.492,326.706,618.516,326.733,617.542,326.733Z" transform="translate(-134.909 -150.494)"/>
      <path id="Trazado_128756" data-name="Trazado 128756" d="M677.43,326.753c-.95,0-1.9-.031-2.849.012-.53.024-.712-.1-.7-.672.041-1.68-.013-3.362.03-5.041a1.366,1.366,0,0,0-.628-1.356,1.236,1.236,0,0,1-.569-1.231c.034-1.753.009-3.507.015-5.261a3.368,3.368,0,0,1,1.56-2.968c.38-.25.386-.376.157-.761a3.935,3.935,0,0,1-.085-4.039,3.493,3.493,0,0,1,6.066-.046,3.92,3.92,0,0,1,0,3.978c-.249.448-.307.615.173.93a3.263,3.263,0,0,1,1.48,2.859c.012,1.851-.019,3.7.019,5.553a1.114,1.114,0,0,1-.59,1A1.37,1.37,0,0,0,680.9,321c.039,1.728,0,3.459.025,5.187.007.454-.124.586-.573.57C679.379,326.73,678.4,326.753,677.43,326.753Z" transform="translate(-183.071 -150.513)"/>
      <path id="Trazado_128757" data-name="Trazado 128757" d="M737.235,326.727c-.95,0-1.9-.032-2.849.013-.535.025-.64-.169-.632-.661.029-1.656-.017-3.313.026-4.968a1.5,1.5,0,0,0-.673-1.482,1.127,1.127,0,0,1-.522-1.105c.029-1.753.015-3.507.01-5.261a3.4,3.4,0,0,1,1.617-3.083c.416-.26.288-.41.1-.716a3.807,3.807,0,0,1,2.1-5.729,3.5,3.5,0,0,1,4.358,3.063,3.9,3.9,0,0,1-.611,2.788c-.213.285-.126.381.13.546a3.57,3.57,0,0,1,1.672,3.282c-.022,1.7-.023,3.41.007,5.115a1.133,1.133,0,0,1-.519,1.11,1.481,1.481,0,0,0-.676,1.477c.04,1.68,0,3.361.023,5.041.006.435-.093.6-.562.582C739.234,326.7,738.234,326.727,737.235,326.727Z" transform="translate(-231.242 -150.488)"/>
      <path id="Trazado_128758" data-name="Trazado 128758" d="M698.876,168.293a10.16,10.16,0,0,1-.615,3.468c-.15.433-.294.574-.754.279-2.106-1.352-4.233-2.671-6.362-3.989a.823.823,0,0,1-.468-.8q.035-3.758,0-7.517c-.006-.529.179-.6.629-.519a9.418,9.418,0,0,1,7.428,7.6A7.485,7.485,0,0,1,698.876,168.293Z" transform="translate(-197.523 -34.275)" fill="#e49035"/>
      <path id="Trazado_128759" data-name="Trazado 128759" d="M644.981,163.545c0,1.217-.013,2.433.008,3.65a.868.868,0,0,1-.456.88q-3.2,1.958-6.365,3.983c-.448.287-.587.17-.761-.267a9.419,9.419,0,0,1,6.887-12.54c.513-.1.729-.037.7.573C644.944,161.062,644.981,162.3,644.981,163.545Z" transform="translate(-154.153 -34.295)" fill="#f19c35"/>
      <path id="Trazado_128760" data-name="Trazado 128760" d="M655.584,221.932a9.524,9.524,0,0,1-6.84-2.949c-.34-.348-.436-.541.069-.848,2.1-1.274,4.179-2.579,6.25-3.9a.786.786,0,0,1,.982,0c2.072,1.317,4.15,2.626,6.249,3.9.508.308.406.5.068.848A9.459,9.459,0,0,1,655.584,221.932Z" transform="translate(-163.556 -78.43)" fill="#d78535"/>
      <path id="Trazado_128761" data-name="Trazado 128761" d="M629.535,348.067c0,.462-.036.928.008,1.386a1.824,1.824,0,0,1-.817,1.992.9.9,0,0,0-.367.89c.015,1.362,0,2.724.012,4.086,0,.392-.1.55-.527.568-1.819.076-1.818.09-1.818-1.752,0-.876-.052-1.755.017-2.625a1.469,1.469,0,0,0-.709-1.477,1.049,1.049,0,0,1-.486-1.041c.023-1.386.026-2.773,0-4.159a1.459,1.459,0,0,1,.914-1.416,2.851,2.851,0,0,1,3.007.074,1.279,1.279,0,0,1,.766,1.212C629.528,346.559,629.535,347.313,629.535,348.067Z" transform="translate(-144.556 -183.078)" fill="#1c3b54"/>
      <path id="Trazado_128762" data-name="Trazado 128762" d="M633.219,317.013a1.2,1.2,0,1,1-2.339.025c0-.913.432-1.431,1.193-1.416C632.8,315.636,633.219,316.14,633.219,317.013Z" transform="translate(-149.41 -160.144)" fill="#1c3a53"/>
      <path id="Trazado_128763" data-name="Trazado 128763" d="M689.4,348.015c0,.462-.029.927.007,1.386a1.881,1.881,0,0,1-.834,2.057.831.831,0,0,0-.348.825c.014,1.338-.01,2.676.015,4.013.009.474-.084.688-.63.69-1.718.005-1.718.029-1.718-1.709,0-.876-.047-1.754.015-2.626a1.531,1.531,0,0,0-.727-1.541.984.984,0,0,1-.466-.977q.032-2.116,0-4.232a1.428,1.428,0,0,1,.872-1.37,2.843,2.843,0,0,1,3.008.034,1.315,1.315,0,0,1,.807,1.261C689.389,346.556,689.4,347.286,689.4,348.015Z" transform="translate(-192.724 -183.072)" fill="#1c3b54"/>
      <path id="Trazado_128764" data-name="Trazado 128764" d="M693.08,317.051a1.2,1.2,0,1,1-2.339-.049c0-.868.426-1.372,1.157-1.379C692.656,315.615,693.087,316.137,693.08,317.051Z" transform="translate(-197.575 -160.145)" fill="#1c3a53"/>
      <path id="Trazado_128765" data-name="Trazado 128765" d="M749.259,348.018c0,.462-.03.927.007,1.386a1.866,1.866,0,0,1-.844,2.053c-.309.172-.34.492-.337.829.013,1.362-.008,2.724.013,4.086.007.429-.109.589-.57.6-1.777.042-1.777.059-1.777-1.721,0-.876-.052-1.755.016-2.625a1.548,1.548,0,0,0-.739-1.537.943.943,0,0,1-.455-.908q.033-2.152,0-4.3a1.439,1.439,0,0,1,.884-1.362,2.856,2.856,0,0,1,3.073.082,1.241,1.241,0,0,1,.728,1.161C749.256,346.51,749.258,347.264,749.259,348.018Z" transform="translate(-240.887 -183.06)" fill="#1c3b54"/>
      <path id="Trazado_128766" data-name="Trazado 128766" d="M752.941,317.012a1.2,1.2,0,1,1-2.339.029c0-.913.431-1.431,1.192-1.418C752.523,315.635,752.94,316.14,752.941,317.012Z" transform="translate(-245.739 -160.144)" fill="#1c3a53"/>
    </g>
  </g>
</svg>
