<svg xmlns="http://www.w3.org/2000/svg" width="315" height="268.219" viewBox="0 0 315 268.219">
  <g id="Grupo_973731" data-name="Grupo 973731" transform="translate(-697.957 -5121.203)">
    <g id="Grupo_973258" data-name="Grupo 973258" transform="translate(922.775 5147.114)">
      <g id="Grupo_973254" data-name="Grupo 973254">
        <g id="Grupo_973250" data-name="Grupo 973250">
          <path id="Trazado_650923" data-name="Trazado 650923" d="M1106.65,5177.161a14.177,14.177,0,1,1-16.064-11.956A14.161,14.161,0,0,1,1106.65,5177.161Z" transform="translate(-1078.442 -5165.056)" fill="#f5f5f5"/>
        </g>
        <g id="Grupo_973251" data-name="Grupo 973251" transform="translate(3.374 3.366)">
          <path id="Trazado_650924" data-name="Trazado 650924" d="M1105.648,5179.979a10.8,10.8,0,1,1-12.242-9.114A10.792,10.792,0,0,1,1105.648,5179.979Z" transform="translate(-1084.151 -5170.752)" fill="#ebebeb"/>
        </g>
        <g id="Grupo_973253" data-name="Grupo 973253" transform="translate(3.178 2.956)">
          <g id="Grupo_973252" data-name="Grupo 973252">
            <path id="Trazado_650925" data-name="Trazado 650925" d="M1105.461,5179.36a6.378,6.378,0,0,1-.47-1.245,11.453,11.453,0,0,0-1.71-3.1,10.948,10.948,0,0,0-1.7-1.737,10.766,10.766,0,0,0-2.36-1.459,10.682,10.682,0,0,0-2.938-.846,10.45,10.45,0,0,0-1.616-.094,11.608,11.608,0,0,0-1.659.161,11.475,11.475,0,0,0-1.614.421,10.308,10.308,0,0,0-1.486.643,10.176,10.176,0,0,0-1.324.832,10.033,10.033,0,0,0-1.142.974,10.768,10.768,0,0,0-1.714,2.182,11.049,11.049,0,0,0-1,2.215,11.49,11.49,0,0,0-.538,3.5,6.309,6.309,0,0,1-.011,1.33,3.154,3.154,0,0,1-.31-1.312,10,10,0,0,1,.3-3.678,10.83,10.83,0,0,1,2.731-4.772,10.344,10.344,0,0,1,1.208-1.066,10.624,10.624,0,0,1,1.416-.914,10.827,10.827,0,0,1,1.6-.708,11.062,11.062,0,0,1,3.53-.627,10.76,10.76,0,0,1,1.744.115,10.312,10.312,0,0,1,1.643.371,10.544,10.544,0,0,1,1.5.585,11.113,11.113,0,0,1,2.482,1.626,11,11,0,0,1,1.725,1.913,10.005,10.005,0,0,1,1.546,3.35A3.171,3.171,0,0,1,1105.461,5179.36Z" transform="translate(-1083.82 -5170.058)" fill="#e0e0e0"/>
          </g>
        </g>
      </g>
      <g id="Grupo_973257" data-name="Grupo 973257" transform="translate(9.379 6.61)">
        <g id="Grupo_973256" data-name="Grupo 973256">
          <g id="Grupo_973255" data-name="Grupo 973255">
            <path id="Trazado_650926" data-name="Trazado 650926" d="M1101.25,5189.98l.3,1.857-1.659.266-.289-1.808a7.965,7.965,0,0,1-4.344-.667l.588-2.169a6.776,6.776,0,0,0,3.408.662l-.445-2.771c-1.913-.152-4.069-.437-4.448-2.811-.282-1.758.754-3.472,3.327-4.19l-.295-1.843,1.659-.266.289,1.809a7.625,7.625,0,0,1,3.53.473l-.5,2.174a6.894,6.894,0,0,0-2.677-.456l.452,2.82c1.91.137,4.033.427,4.408,2.767C1104.826,5187.552,1103.8,5189.248,1101.25,5189.98Zm-2.833-7.068-.377-2.354c-.847.34-1.119.876-1.031,1.424C1097.1,5182.563,1097.65,5182.8,1098.417,5182.912Zm3.494,3.543c-.092-.582-.625-.819-1.378-.954l.367,2.289C1101.7,5187.475,1102,5186.985,1101.911,5186.455Z" transform="translate(-1094.314 -5176.242)" fill="#e0e0e0"/>
          </g>
        </g>
      </g>
    </g>
    <g id="Grupo_973267" data-name="Grupo 973267" transform="translate(857.841 5140.714)">
      <g id="Grupo_973263" data-name="Grupo 973263">
        <g id="Grupo_973259" data-name="Grupo 973259">
          <path id="Trazado_650927" data-name="Trazado 650927" d="M1017.511,5175.241a24.61,24.61,0,1,1-27.885-20.757A24.582,24.582,0,0,1,1017.511,5175.241Z" transform="translate(-968.545 -5154.225)" fill="#f5f5f5"/>
        </g>
        <g id="Grupo_973260" data-name="Grupo 973260" transform="translate(5.856 5.843)">
          <path id="Trazado_650928" data-name="Trazado 650928" d="M1015.771,5180.13a18.754,18.754,0,1,1-21.25-15.819A18.735,18.735,0,0,1,1015.771,5180.13Z" transform="translate(-978.456 -5164.113)" fill="#ebebeb"/>
        </g>
        <g id="Grupo_973262" data-name="Grupo 973262" transform="translate(5.516 5.131)">
          <g id="Grupo_973261" data-name="Grupo 973261">
            <path id="Trazado_650929" data-name="Trazado 650929" d="M1015.446,5179.056a11.117,11.117,0,0,1-.815-2.159,19.887,19.887,0,0,0-2.967-5.378,19.256,19.256,0,0,0-2.947-3.016,18.787,18.787,0,0,0-4.1-2.533,17.355,17.355,0,0,0-2.444-.9,17.541,17.541,0,0,0-2.655-.562,18.1,18.1,0,0,0-2.8-.165,20.017,20.017,0,0,0-2.881.279,20.242,20.242,0,0,0-2.8.729,18.155,18.155,0,0,0-2.578,1.119,18.4,18.4,0,0,0-4.282,3.134,18.76,18.76,0,0,0-2.974,3.788,19.25,19.25,0,0,0-1.729,3.847,19.9,19.9,0,0,0-.934,6.069,10.969,10.969,0,0,1-.021,2.308,5.518,5.518,0,0,1-.538-2.279,17.347,17.347,0,0,1,.516-6.384,18.785,18.785,0,0,1,4.741-8.281,18.194,18.194,0,0,1,2.1-1.854,18.384,18.384,0,0,1,2.457-1.586,18.851,18.851,0,0,1,2.774-1.228,19.28,19.28,0,0,1,6.129-1.09,19.331,19.331,0,0,1,3.026.2,18.414,18.414,0,0,1,2.853.644,18.146,18.146,0,0,1,2.608,1.019,18.751,18.751,0,0,1,7.3,6.144,17.374,17.374,0,0,1,2.684,5.814A5.488,5.488,0,0,1,1015.446,5179.056Z" transform="translate(-977.88 -5162.907)" fill="#e0e0e0"/>
          </g>
        </g>
      </g>
      <g id="Grupo_973266" data-name="Grupo 973266" transform="translate(16.279 11.474)">
        <g id="Grupo_973265" data-name="Grupo 973265">
          <g id="Grupo_973264" data-name="Grupo 973264">
            <path id="Trazado_650930" data-name="Trazado 650930" d="M1008.137,5197.492l.517,3.226-2.881.46-.5-3.138a13.824,13.824,0,0,1-7.54-1.157l1.021-3.767a11.788,11.788,0,0,0,5.915,1.151l-.771-4.811c-3.321-.264-7.063-.759-7.723-4.878-.488-3.054,1.309-6.029,5.776-7.274l-.512-3.2,2.88-.461.5,3.14a13.2,13.2,0,0,1,6.128.82l-.872,3.773a11.957,11.957,0,0,0-4.647-.793l.784,4.9c3.316.236,7,.74,7.651,4.8C1014.345,5193.279,1012.571,5196.221,1008.137,5197.492Zm-4.918-12.269-.655-4.09c-1.471.59-1.942,1.523-1.79,2.474C1000.935,5184.614,1001.887,5185.024,1003.219,5185.223Zm6.065,6.148c-.162-1.009-1.084-1.421-2.393-1.656l.636,3.975C1008.918,5193.144,1009.432,5192.292,1009.285,5191.371Z" transform="translate(-996.096 -5173.645)" fill="#e0e0e0"/>
          </g>
        </g>
      </g>
    </g>
    <g id="Grupo_973276" data-name="Grupo 973276" transform="translate(708.17 5306.62)">
      <g id="Grupo_973272" data-name="Grupo 973272">
        <g id="Grupo_973268" data-name="Grupo 973268">
          <path id="Trazado_650931" data-name="Trazado 650931" d="M743.45,5447.113a14.177,14.177,0,1,1-16.064-11.958A14.162,14.162,0,0,1,743.45,5447.113Z" transform="translate(-715.241 -5435.005)" fill="#f5f5f5"/>
        </g>
        <g id="Grupo_973269" data-name="Grupo 973269" transform="translate(3.373 3.366)">
          <path id="Trazado_650932" data-name="Trazado 650932" d="M742.447,5449.927a10.8,10.8,0,1,1-12.242-9.112A10.791,10.791,0,0,1,742.447,5449.927Z" transform="translate(-720.951 -5440.702)" fill="#ebebeb"/>
        </g>
        <g id="Grupo_973271" data-name="Grupo 973271" transform="translate(3.177 2.956)">
          <g id="Grupo_973270" data-name="Grupo 973270">
            <path id="Trazado_650933" data-name="Trazado 650933" d="M742.26,5449.31a6.4,6.4,0,0,1-.469-1.245,11.483,11.483,0,0,0-1.71-3.1,11.006,11.006,0,0,0-1.7-1.737,10.826,10.826,0,0,0-2.36-1.459,10.139,10.139,0,0,0-1.407-.521,10.014,10.014,0,0,0-1.53-.324,10.212,10.212,0,0,0-1.616-.094,10.506,10.506,0,0,0-3.273.579,10.7,10.7,0,0,0-1.485.645,10.243,10.243,0,0,0-1.324.832,9.98,9.98,0,0,0-1.143.974,10.817,10.817,0,0,0-1.713,2.183,11.127,11.127,0,0,0-1,2.216,11.469,11.469,0,0,0-.537,3.5,6.331,6.331,0,0,1-.012,1.33,3.172,3.172,0,0,1-.31-1.312,9.994,9.994,0,0,1,.3-3.677,10.809,10.809,0,0,1,2.731-4.771,11,11,0,0,1,2.624-1.981,10.969,10.969,0,0,1,1.6-.709,11.063,11.063,0,0,1,3.531-.625,10.756,10.756,0,0,1,1.743.114,11.086,11.086,0,0,1,3.146.956,10.842,10.842,0,0,1,4.207,3.54,10.009,10.009,0,0,1,1.547,3.35A3.175,3.175,0,0,1,742.26,5449.31Z" transform="translate(-720.619 -5440.009)" fill="#e0e0e0"/>
          </g>
        </g>
      </g>
      <g id="Grupo_973275" data-name="Grupo 973275" transform="translate(9.378 6.61)">
        <g id="Grupo_973274" data-name="Grupo 973274">
          <g id="Grupo_973273" data-name="Grupo 973273">
            <path id="Trazado_650934" data-name="Trazado 650934" d="M738.049,5459.93l.3,1.857-1.659.265-.29-1.808a7.96,7.96,0,0,1-4.344-.667l.588-2.17a6.8,6.8,0,0,0,3.408.664l-.444-2.771c-1.913-.153-4.069-.437-4.449-2.81-.281-1.759.754-3.474,3.328-4.191l-.295-1.842,1.659-.266.29,1.809a7.6,7.6,0,0,1,3.53.474l-.5,2.174a6.849,6.849,0,0,0-2.677-.458l.452,2.821c1.91.137,4.033.426,4.407,2.765C741.625,5457.5,740.6,5459.2,738.049,5459.93Zm-2.833-7.069-.378-2.356c-.847.34-1.118.877-1.031,1.424C733.9,5452.51,734.449,5452.747,735.216,5452.861Zm3.494,3.542c-.094-.581-.625-.818-1.379-.954l.367,2.289C738.5,5457.424,738.795,5456.933,738.711,5456.4Z" transform="translate(-731.113 -5446.191)" fill="#e0e0e0"/>
          </g>
        </g>
      </g>
    </g>
    <g id="Grupo_973285" data-name="Grupo 973285" transform="translate(697.957 5270.496)">
      <g id="Grupo_973281" data-name="Grupo 973281">
        <g id="Grupo_973277" data-name="Grupo 973277">
          <path id="Trazado_650935" data-name="Trazado 650935" d="M712.086,5390.888a9.224,9.224,0,1,1,2.864-12.711A9.215,9.215,0,0,1,712.086,5390.888Z" transform="translate(-697.957 -5373.866)" fill="#f5f5f5"/>
        </g>
        <g id="Grupo_973278" data-name="Grupo 973278" transform="translate(2.192 2.193)">
          <path id="Trazado_650936" data-name="Trazado 650936" d="M712.433,5390.549a7.029,7.029,0,1,1,2.183-9.686A7.02,7.02,0,0,1,712.433,5390.549Z" transform="translate(-701.666 -5377.578)" fill="#ebebeb"/>
        </g>
        <g id="Grupo_973280" data-name="Grupo 973280" transform="translate(5.276 1.985)">
          <g id="Grupo_973279" data-name="Grupo 973279">
            <path id="Trazado_650937" data-name="Trazado 650937" d="M714.754,5390.287c-.024-.036.221-.225.616-.608a7.449,7.449,0,0,0,1.39-1.835,7.205,7.205,0,0,0,.584-1.468,7.042,7.042,0,0,0,.244-1.789,6.908,6.908,0,0,0-.274-1.971,6.89,6.89,0,0,0-.371-.985,6.9,6.9,0,0,0-1.21-1.792,6.878,6.878,0,0,0-1.62-1.281,6.588,6.588,0,0,0-.881-.421,7.074,7.074,0,0,0-1.751-.442,7.194,7.194,0,0,0-1.58-.007,7.5,7.5,0,0,0-2.22.6,4.036,4.036,0,0,1-.794.345c-.018-.025.21-.241.7-.53a6.485,6.485,0,0,1,2.266-.795,7.023,7.023,0,0,1,3.558.363,6.605,6.605,0,0,1,.954.436,6.771,6.771,0,0,1,.918.6,7.331,7.331,0,0,1,.843.763,7.26,7.26,0,0,1,1.305,1.934,7.223,7.223,0,0,1,.392,1.068,7.178,7.178,0,0,1,.263,2.122,7.037,7.037,0,0,1-.993,3.437,6.512,6.512,0,0,1-1.583,1.8A2.082,2.082,0,0,1,714.754,5390.287Z" transform="translate(-706.885 -5377.226)" fill="#e0e0e0"/>
          </g>
        </g>
      </g>
      <g id="Grupo_973284" data-name="Grupo 973284" transform="translate(4.465 5.709)">
        <g id="Grupo_973283" data-name="Grupo 973283">
          <g id="Grupo_973282" data-name="Grupo 973282">
            <path id="Trazado_650938" data-name="Trazado 650938" d="M707.136,5389.946l-1.026.668-.6-.917,1-.649a5.182,5.182,0,0,1-.752-2.759l1.445-.224a4.418,4.418,0,0,0,.507,2.2l1.53-1c-.415-1.179-.815-2.536.5-3.388.971-.631,2.264-.469,3.371.87l1.018-.661.6.916-1,.65a4.953,4.953,0,0,1,.652,2.224l-1.425.276a4.493,4.493,0,0,0-.436-1.712l-1.558,1.013c.424,1.173.812,2.512-.479,3.353C709.524,5391.431,708.246,5391.271,707.136,5389.946Zm3.454-3.552,1.3-.847c-.426-.414-.817-.434-1.119-.236C710.45,5385.519,710.455,5385.908,710.589,5386.394Zm-1.183,3.015c.321-.209.322-.588.2-1.072l-1.264.824C708.744,5389.551,709.113,5389.6,709.406,5389.409Z" transform="translate(-705.513 -5383.528)" fill="#e0e0e0"/>
          </g>
        </g>
      </g>
    </g>
    <g id="Grupo_973294" data-name="Grupo 973294" transform="translate(898.206 5121.203)">
      <g id="Grupo_973290" data-name="Grupo 973290">
        <g id="Grupo_973286" data-name="Grupo 973286">
          <path id="Trazado_650939" data-name="Trazado 650939" d="M1050.99,5138.223a9.223,9.223,0,1,1,2.865-12.709A9.211,9.211,0,0,1,1050.99,5138.223Z" transform="translate(-1036.86 -5121.202)" fill="#f5f5f5"/>
        </g>
        <g id="Grupo_973287" data-name="Grupo 973287" transform="translate(2.191 2.194)">
          <path id="Trazado_650940" data-name="Trazado 650940" d="M1051.337,5137.886a7.029,7.029,0,1,1,2.183-9.687A7.02,7.02,0,0,1,1051.337,5137.886Z" transform="translate(-1040.569 -5124.916)" fill="#ebebeb"/>
        </g>
        <g id="Grupo_973289" data-name="Grupo 973289" transform="translate(5.276 1.985)">
          <g id="Grupo_973288" data-name="Grupo 973288">
            <path id="Trazado_650941" data-name="Trazado 650941" d="M1053.658,5137.623c-.024-.034.221-.225.616-.608a7.463,7.463,0,0,0,1.39-1.834,7.213,7.213,0,0,0,.584-1.469,7.045,7.045,0,0,0,.244-1.79,6.883,6.883,0,0,0-.274-1.969,6.734,6.734,0,0,0-.371-.985,6.856,6.856,0,0,0-1.21-1.792,6.744,6.744,0,0,0-.776-.713,6.562,6.562,0,0,0-.845-.568,6.462,6.462,0,0,0-.88-.422,7.013,7.013,0,0,0-1.751-.442,7.224,7.224,0,0,0-1.58-.007,7.443,7.443,0,0,0-2.22.6,4.145,4.145,0,0,1-.794.344c-.018-.026.21-.241.7-.531a6.5,6.5,0,0,1,2.265-.8,7.035,7.035,0,0,1,1.675-.06,7.181,7.181,0,0,1,1.884.422,6.747,6.747,0,0,1,.954.437,6.9,6.9,0,0,1,.918.6,7.144,7.144,0,0,1,.843.763,7.171,7.171,0,0,1,1.306,1.935,7.088,7.088,0,0,1,.392,1.066,7.156,7.156,0,0,1,.262,2.122,7.033,7.033,0,0,1-.992,3.437,6.512,6.512,0,0,1-1.583,1.805A2.075,2.075,0,0,1,1053.658,5137.623Z" transform="translate(-1045.79 -5124.563)" fill="#e0e0e0"/>
          </g>
        </g>
      </g>
      <g id="Grupo_973293" data-name="Grupo 973293" transform="translate(4.465 5.709)">
        <g id="Grupo_973292" data-name="Grupo 973292">
          <g id="Grupo_973291" data-name="Grupo 973291">
            <path id="Trazado_650942" data-name="Trazado 650942" d="M1046.039,5137.282l-1.026.668-.6-.916,1-.651a5.18,5.18,0,0,1-.752-2.758l1.446-.224a4.409,4.409,0,0,0,.507,2.2l1.53-1c-.415-1.178-.815-2.534.495-3.387.971-.633,2.264-.469,3.371.87l1.018-.662.6.917-1,.649a4.958,4.958,0,0,1,.652,2.223l-1.425.276a4.5,4.5,0,0,0-.436-1.711l-1.558,1.014c.424,1.171.812,2.511-.479,3.352C1048.428,5138.767,1047.15,5138.607,1046.039,5137.282Zm3.453-3.552,1.3-.847c-.426-.414-.817-.435-1.12-.237C1049.354,5132.856,1049.359,5133.244,1049.493,5133.73Zm-1.182,3.013c.321-.208.322-.587.2-1.071l-1.265.822C1047.648,5136.888,1048.017,5136.935,1048.31,5136.744Z" transform="translate(-1044.417 -5130.864)" fill="#e0e0e0"/>
          </g>
        </g>
      </g>
    </g>
    <g id="Grupo_973298" data-name="Grupo 973298" transform="translate(705.833 5381.046)">
      <g id="Grupo_973295" data-name="Grupo 973295" transform="translate(0 0.154)">
        <line id="Línea_351" data-name="Línea 351" x2="307.124" fill="#263238"/>
      </g>
      <g id="Grupo_973297" data-name="Grupo 973297" transform="translate(0)">
        <g id="Grupo_973296" data-name="Grupo 973296">
          <path id="Trazado_650943" data-name="Trazado 650943" d="M1018.41,5561.118c0,.085-68.758.153-153.555.153-84.827,0-153.569-.067-153.569-.153s68.742-.153,153.569-.153C949.653,5560.965,1018.41,5561.034,1018.41,5561.118Z" transform="translate(-711.287 -5560.965)" fill="#263238"/>
        </g>
      </g>
    </g>
    <g id="Grupo_973442" data-name="Grupo 973442" transform="translate(710.508 5142.584)">
      <g id="Grupo_973307" data-name="Grupo 973307" transform="translate(46.092 40.253)">
        <g id="Grupo_973305" data-name="Grupo 973305">
          <g id="Grupo_973301" data-name="Grupo 973301">
            <g id="Grupo_973300" data-name="Grupo 973300">
              <g id="Grupo_973299" data-name="Grupo 973299">
                <path id="Trazado_650944" data-name="Trazado 650944" d="M1029.183,5225.512H804.226a7.021,7.021,0,0,0-7.022,7.02v158.894a7.022,7.022,0,0,0,7.022,7.023h86.338s5.492,16.982-11.533,25.769h80.731s-19.222-6.59-14.28-25.769h83.7a7.022,7.022,0,0,0,7.021-7.022V5232.534A7.022,7.022,0,0,0,1029.183,5225.512Z" transform="translate(-797.204 -5225.512)" fill="#263238"/>
              </g>
            </g>
          </g>
          <g id="Grupo_973304" data-name="Grupo 973304" transform="translate(115.06 154.884)">
            <g id="Grupo_973303" data-name="Grupo 973303">
              <g id="Grupo_973302" data-name="Grupo 973302">
                <path id="Trazado_650945" data-name="Trazado 650945" d="M999.376,5488.98c3.06,4.374-1.729,9.163-6.1,6.1a1.6,1.6,0,0,1-.376-.376c-3.051-4.373,1.732-9.155,6.1-6.1A1.563,1.563,0,0,1,999.376,5488.98Z" transform="translate(-991.932 -5487.639)" fill="#455a64"/>
              </g>
            </g>
          </g>
        </g>
        <g id="Grupo_973306" data-name="Grupo 973306" transform="translate(3.873 2.911)">
          <path id="Rectángulo_308762" data-name="Rectángulo 308762" d="M9.7,0h211.86a9.7,9.7,0,0,1,9.7,9.7v131.26a0,0,0,0,1,0,0H0a0,0,0,0,1,0,0V9.7A9.7,9.7,0,0,1,9.7,0Z" fill="#fff"/>
        </g>
      </g>
      <g id="Grupo_973390" data-name="Grupo 973390" transform="translate(60.897 57.699)">
        <g id="Grupo_973309" data-name="Grupo 973309" transform="translate(8.66 17.285)">
          <g id="Grupo_973308" data-name="Grupo 973308">
            <rect id="Rectángulo_308763" data-name="Rectángulo 308763" width="7.585" height="84.706" fill="#449c6e"/>
          </g>
        </g>
        <g id="Grupo_973311" data-name="Grupo 973311" transform="translate(23.303 46.055)">
          <g id="Grupo_973310" data-name="Grupo 973310">
            <rect id="Rectángulo_308764" data-name="Rectángulo 308764" width="7.585" height="55.937" fill="#449c6e"/>
          </g>
        </g>
        <g id="Grupo_973313" data-name="Grupo 973313" transform="translate(37.946 27.814)">
          <g id="Grupo_973312" data-name="Grupo 973312">
            <rect id="Rectángulo_308765" data-name="Rectángulo 308765" width="7.585" height="74.608" fill="#449c6e"/>
          </g>
        </g>
        <g id="Grupo_973315" data-name="Grupo 973315" transform="translate(52.589 20.557)">
          <g id="Grupo_973314" data-name="Grupo 973314">
            <rect id="Rectángulo_308766" data-name="Rectángulo 308766" width="7.585" height="81.435" fill="#449c6e"/>
          </g>
        </g>
        <g id="Grupo_973317" data-name="Grupo 973317" transform="translate(67.232 47.777)">
          <g id="Grupo_973316" data-name="Grupo 973316">
            <rect id="Rectángulo_308767" data-name="Rectángulo 308767" width="7.585" height="54.215" fill="#449c6e"/>
          </g>
        </g>
        <g id="Grupo_973319" data-name="Grupo 973319" transform="translate(81.875 58.409)">
          <g id="Grupo_973318" data-name="Grupo 973318">
            <rect id="Rectángulo_308768" data-name="Rectángulo 308768" width="7.585" height="43.582" fill="#449c6e"/>
          </g>
        </g>
        <g id="Grupo_973321" data-name="Grupo 973321" transform="translate(96.518 25.979)">
          <g id="Grupo_973320" data-name="Grupo 973320">
            <rect id="Rectángulo_308769" data-name="Rectángulo 308769" width="7.585" height="76.012" fill="#449c6e"/>
          </g>
        </g>
        <g id="Grupo_973323" data-name="Grupo 973323" transform="translate(111.161 39.684)">
          <g id="Grupo_973322" data-name="Grupo 973322">
            <rect id="Rectángulo_308770" data-name="Rectángulo 308770" width="7.585" height="62.308" fill="#449c6e"/>
          </g>
        </g>
        <g id="Grupo_973325" data-name="Grupo 973325" transform="translate(125.803 28.733)">
          <g id="Grupo_973324" data-name="Grupo 973324">
            <rect id="Rectángulo_308771" data-name="Rectángulo 308771" width="7.585" height="73.258" fill="#449c6e"/>
          </g>
        </g>
        <g id="Grupo_973327" data-name="Grupo 973327" transform="translate(140.446 52.081)">
          <g id="Grupo_973326" data-name="Grupo 973326">
            <rect id="Rectángulo_308772" data-name="Rectángulo 308772" width="7.585" height="49.91" fill="#449c6e"/>
          </g>
        </g>
        <g id="Grupo_973329" data-name="Grupo 973329" transform="translate(169.653 25.979)">
          <g id="Grupo_973328" data-name="Grupo 973328">
            <rect id="Rectángulo_308773" data-name="Rectángulo 308773" width="7.585" height="76.012" fill="#449c6e"/>
          </g>
        </g>
        <g id="Grupo_973331" data-name="Grupo 973331" transform="translate(200.751 74.884)">
          <g id="Grupo_973330" data-name="Grupo 973330">
            <rect id="Rectángulo_308774" data-name="Rectángulo 308774" width="7.585" height="26.009" fill="#449c6e"/>
          </g>
        </g>
        <g id="Grupo_973333" data-name="Grupo 973333" transform="translate(185.592 52.081)">
          <g id="Grupo_973332" data-name="Grupo 973332">
            <rect id="Rectángulo_308775" data-name="Rectángulo 308775" width="7.585" height="49.91" fill="#449c6e"/>
          </g>
        </g>
        <g id="Grupo_973335" data-name="Grupo 973335" transform="translate(155.089 42.584)">
          <g id="Grupo_973334" data-name="Grupo 973334">
            <rect id="Rectángulo_308776" data-name="Rectángulo 308776" width="7.585" height="59.407" fill="#449c6e"/>
          </g>
        </g>
        <g id="Grupo_973338" data-name="Grupo 973338" transform="translate(12.862 26.335)">
          <g id="Grupo_973337" data-name="Grupo 973337">
            <g id="Grupo_973336" data-name="Grupo 973336">
              <path id="Trazado_650946" data-name="Trazado 650946" d="M1041.636,5301.355a3.621,3.621,0,0,1-.666-.107c-.474-.1-1.114-.229-1.93-.394a29.555,29.555,0,0,0-3.157-.5,39.461,39.461,0,0,0-4.344-.363,50.238,50.238,0,0,0-11.872,1.02,52.431,52.431,0,0,0-14.729,5.576,60.26,60.26,0,0,0-14.914,11.875c-4.649,5.093-8.566,11.386-12.572,18.047-4.047,6.618-8.163,13.808-14.126,19.967a36.968,36.968,0,0,1-10.409,7.784,21.91,21.91,0,0,1-6.415,1.961,20.725,20.725,0,0,1-6.8-.23,27.76,27.76,0,0,1-11.846-6.213,55.237,55.237,0,0,1-8.775-9.575c-5.09-6.856-8.709-14.245-12.58-20.974-3.821-6.753-7.752-13.066-12.567-17.995a34.162,34.162,0,0,0-7.77-6.111,32.891,32.891,0,0,0-4.2-2.039,33.417,33.417,0,0,0-4.285-1.268,31.1,31.1,0,0,0-15.573.435,35.054,35.054,0,0,0-10.688,5.14,38.951,38.951,0,0,0-5.613,5.032l-1.307,1.473a3.989,3.989,0,0,1-.469.484,3.9,3.9,0,0,1,.4-.539l1.246-1.532a36.414,36.414,0,0,1,5.547-5.185,34.961,34.961,0,0,1,10.752-5.33,31.468,31.468,0,0,1,15.834-.564,32.7,32.7,0,0,1,16.625,9.513c4.911,4.983,8.893,11.34,12.743,18.1,3.9,6.739,7.528,14.1,12.568,20.866a54.6,54.6,0,0,0,8.65,9.424,26.956,26.956,0,0,0,11.478,6.029,19.948,19.948,0,0,0,6.51.222,21.047,21.047,0,0,0,6.173-1.886,36.241,36.241,0,0,0,10.174-7.6c5.874-6.046,9.987-13.179,14.053-19.792,4.025-6.65,7.992-12.979,12.72-18.115a60.507,60.507,0,0,1,15.144-11.927,52.388,52.388,0,0,1,14.923-5.515,49.411,49.411,0,0,1,11.983-.884,37.443,37.443,0,0,1,4.364.441,27.324,27.324,0,0,1,3.158.585c.811.2,1.445.362,1.916.479A4.171,4.171,0,0,1,1041.636,5301.355Z" transform="translate(-844.029 -5299.608)" fill="#263238"/>
            </g>
          </g>
        </g>
        <g id="Grupo_973341" data-name="Grupo 973341">
          <g id="Grupo_973340" data-name="Grupo 973340">
            <g id="Grupo_973339" data-name="Grupo 973339">
              <path id="Trazado_650947" data-name="Trazado 650947" d="M822.572,5362.929c-.172,0-.311-24.154-.311-53.943s.139-53.948.311-53.948.311,24.15.311,53.948S822.744,5362.929,822.572,5362.929Z" transform="translate(-822.261 -5255.038)" fill="#263238"/>
            </g>
          </g>
        </g>
        <g id="Grupo_973344" data-name="Grupo 973344" transform="translate(5.069 107.58)">
          <g id="Grupo_973343" data-name="Grupo 973343">
            <g id="Grupo_973342" data-name="Grupo 973342">
              <path id="Trazado_650948" data-name="Trazado 650948" d="M1034.107,5437.418c0,.172-45.507.312-101.629.312-56.141,0-101.638-.14-101.638-.312s45.5-.311,101.638-.311C988.6,5437.107,1034.107,5437.246,1034.107,5437.418Z" transform="translate(-830.84 -5437.107)" fill="#263238"/>
            </g>
          </g>
        </g>
        <g id="Grupo_973347" data-name="Grupo 973347" transform="translate(8.222 114.247)">
          <g id="Grupo_973346" data-name="Grupo 973346">
            <g id="Grupo_973345" data-name="Grupo 973345">
              <path id="Trazado_650949" data-name="Trazado 650949" d="M847.433,5448.7c0,.172-2.521.312-5.629.312s-5.629-.14-5.629-.312,2.519-.311,5.629-.311S847.433,5448.529,847.433,5448.7Z" transform="translate(-836.176 -5448.391)" fill="#263238"/>
            </g>
          </g>
        </g>
        <g id="Grupo_973350" data-name="Grupo 973350" transform="translate(24.696 114.586)">
          <g id="Grupo_973349" data-name="Grupo 973349">
            <g id="Grupo_973348" data-name="Grupo 973348">
              <path id="Trazado_650950" data-name="Trazado 650950" d="M877.51,5449.276c0,.172-3.012.313-6.727.313s-6.728-.141-6.728-.313,3.012-.311,6.728-.311S877.51,5449.1,877.51,5449.276Z" transform="translate(-864.056 -5448.965)" fill="#263238"/>
            </g>
          </g>
        </g>
        <g id="Grupo_973353" data-name="Grupo 973353" transform="translate(40.621 114.586)">
          <g id="Grupo_973352" data-name="Grupo 973352">
            <g id="Grupo_973351" data-name="Grupo 973351">
              <path id="Trazado_650951" data-name="Trazado 650951" d="M904.461,5449.276c0,.172-3.012.313-6.727.313s-6.727-.141-6.727-.313,3.011-.311,6.727-.311S904.461,5449.1,904.461,5449.276Z" transform="translate(-891.008 -5448.965)" fill="#263238"/>
            </g>
          </g>
        </g>
        <g id="Grupo_973356" data-name="Grupo 973356" transform="translate(56.545 114.586)">
          <g id="Grupo_973355" data-name="Grupo 973355">
            <g id="Grupo_973354" data-name="Grupo 973354">
              <path id="Trazado_650952" data-name="Trazado 650952" d="M931.413,5449.276c0,.172-3.012.313-6.727.313s-6.728-.141-6.728-.313,3.012-.311,6.728-.311S931.413,5449.1,931.413,5449.276Z" transform="translate(-917.959 -5448.965)" fill="#263238"/>
            </g>
          </g>
        </g>
        <g id="Grupo_973359" data-name="Grupo 973359" transform="translate(72.471 114.586)">
          <g id="Grupo_973358" data-name="Grupo 973358">
            <g id="Grupo_973357" data-name="Grupo 973357">
              <path id="Trazado_650953" data-name="Trazado 650953" d="M958.365,5449.276c0,.172-3.012.313-6.726.313s-6.727-.141-6.727-.313,3.011-.311,6.727-.311S958.365,5449.1,958.365,5449.276Z" transform="translate(-944.911 -5448.965)" fill="#263238"/>
            </g>
          </g>
        </g>
        <g id="Grupo_973362" data-name="Grupo 973362" transform="translate(88.395 114.586)">
          <g id="Grupo_973361" data-name="Grupo 973361">
            <g id="Grupo_973360" data-name="Grupo 973360">
              <path id="Trazado_650954" data-name="Trazado 650954" d="M985.315,5449.276c0,.172-3.012.313-6.726.313s-6.727-.141-6.727-.313,3.012-.311,6.727-.311S985.315,5449.1,985.315,5449.276Z" transform="translate(-971.862 -5448.965)" fill="#263238"/>
            </g>
          </g>
        </g>
        <g id="Grupo_973365" data-name="Grupo 973365" transform="translate(104.321 114.586)">
          <g id="Grupo_973364" data-name="Grupo 973364">
            <g id="Grupo_973363" data-name="Grupo 973363">
              <path id="Trazado_650955" data-name="Trazado 650955" d="M1012.268,5449.276c0,.172-3.012.313-6.727.313s-6.727-.141-6.727-.313,3.011-.311,6.727-.311S1012.268,5449.1,1012.268,5449.276Z" transform="translate(-998.814 -5448.965)" fill="#263238"/>
            </g>
          </g>
        </g>
        <g id="Grupo_973368" data-name="Grupo 973368" transform="translate(120.245 114.586)">
          <g id="Grupo_973367" data-name="Grupo 973367">
            <g id="Grupo_973366" data-name="Grupo 973366">
              <path id="Trazado_650956" data-name="Trazado 650956" d="M1039.219,5449.276c0,.172-3.011.313-6.727.313s-6.727-.141-6.727-.313,3.011-.311,6.727-.311S1039.219,5449.1,1039.219,5449.276Z" transform="translate(-1025.765 -5448.965)" fill="#263238"/>
            </g>
          </g>
        </g>
        <g id="Grupo_973371" data-name="Grupo 973371" transform="translate(136.171 114.586)">
          <g id="Grupo_973370" data-name="Grupo 973370">
            <g id="Grupo_973369" data-name="Grupo 973369">
              <path id="Trazado_650957" data-name="Trazado 650957" d="M1066.171,5449.276c0,.172-3.012.313-6.726.313s-6.727-.141-6.727-.313,3.011-.311,6.727-.311S1066.171,5449.1,1066.171,5449.276Z" transform="translate(-1052.717 -5448.965)" fill="#263238"/>
            </g>
          </g>
        </g>
        <g id="Grupo_973374" data-name="Grupo 973374" transform="translate(152.095 114.586)">
          <g id="Grupo_973373" data-name="Grupo 973373">
            <g id="Grupo_973372" data-name="Grupo 973372">
              <path id="Trazado_650958" data-name="Trazado 650958" d="M1093.122,5449.276c0,.172-3.012.313-6.727.313s-6.727-.141-6.727-.313,3.011-.311,6.727-.311S1093.122,5449.1,1093.122,5449.276Z" transform="translate(-1079.668 -5448.965)" fill="#263238"/>
            </g>
          </g>
        </g>
        <g id="Grupo_973377" data-name="Grupo 973377" transform="translate(166.907 114.592)">
          <g id="Grupo_973376" data-name="Grupo 973376">
            <g id="Grupo_973375" data-name="Grupo 973375">
              <path id="Trazado_650959" data-name="Trazado 650959" d="M1118.189,5449.287c0,.172-3.012.311-6.727.311s-6.727-.139-6.727-.311,3.011-.312,6.727-.312S1118.189,5449.114,1118.189,5449.287Z" transform="translate(-1104.735 -5448.975)" fill="#263238"/>
            </g>
          </g>
        </g>
        <g id="Grupo_973380" data-name="Grupo 973380" transform="translate(181.718 114.597)">
          <g id="Grupo_973379" data-name="Grupo 973379">
            <g id="Grupo_973378" data-name="Grupo 973378">
              <path id="Trazado_650960" data-name="Trazado 650960" d="M1143.256,5449.295c0,.173-3.012.312-6.727.312s-6.727-.139-6.727-.312,3.011-.312,6.727-.312S1143.256,5449.123,1143.256,5449.295Z" transform="translate(-1129.802 -5448.983)" fill="#263238"/>
            </g>
          </g>
        </g>
        <g id="Grupo_973383" data-name="Grupo 973383" transform="translate(196.53 114.603)">
          <g id="Grupo_973382" data-name="Grupo 973382">
            <g id="Grupo_973381" data-name="Grupo 973381">
              <path id="Trazado_650961" data-name="Trazado 650961" d="M1168.323,5449.3c0,.172-3.012.312-6.727.312s-6.727-.14-6.727-.312,3.012-.311,6.727-.311S1168.323,5449.131,1168.323,5449.3Z" transform="translate(-1154.869 -5448.993)" fill="#263238"/>
            </g>
          </g>
        </g>
        <g id="Grupo_973386" data-name="Grupo 973386" transform="translate(74.748 56.356)">
          <g id="Grupo_973385" data-name="Grupo 973385">
            <g id="Grupo_973384" data-name="Grupo 973384">
              <path id="Trazado_650962" data-name="Trazado 650962" d="M951.745,5350.783c.006-.13.93.194,1.227,1.466a3.119,3.119,0,0,1-.235,2.187,1.891,1.891,0,0,1-1.1.934,2.011,2.011,0,0,1-1.542-.183,2.577,2.577,0,0,1-1.317-2.417,2.687,2.687,0,0,1,1.056-1.952,1.746,1.746,0,0,1,1.449-.358c.351.106.471.277.447.313-.037.117-.77-.234-1.512.505a2.213,2.213,0,0,0-.66,1.525,1.861,1.861,0,0,0,.939,1.639,1.113,1.113,0,0,0,1.567-.4,2.76,2.76,0,0,0,.321-1.687A3.823,3.823,0,0,0,951.745,5350.783Z" transform="translate(-948.765 -5350.417)" fill="#263238"/>
            </g>
          </g>
        </g>
        <g id="Grupo_973389" data-name="Grupo 973389" transform="translate(174.857 28.603)">
          <g id="Grupo_973388" data-name="Grupo 973388">
            <g id="Grupo_973387" data-name="Grupo 973387">
              <path id="Trazado_650963" data-name="Trazado 650963" d="M1120.885,5303.719c0-.048.239-.126.657,0a2.543,2.543,0,0,1,1.353,1.171,3.353,3.353,0,0,1,.335,2.659,2.8,2.8,0,0,1-2.595,2.074,2.233,2.233,0,0,1-1.651-.863,3.571,3.571,0,0,1-.7-1.475,3.4,3.4,0,0,1,.428-2.638c.933-1.321,2.088-1.253,2.045-1.156.055.123-.91.31-1.529,1.462a2.927,2.927,0,0,0-.184,2.145c.2.781.8,1.671,1.617,1.677a2.085,2.085,0,0,0,1.826-1.47,2.9,2.9,0,0,0-.124-2.138A3.061,3.061,0,0,0,1120.885,5303.719Z" transform="translate(-1118.191 -5303.445)" fill="#263238"/>
            </g>
          </g>
        </g>
      </g>
      <g id="Grupo_973441" data-name="Grupo 973441">
        <g id="Grupo_973440" data-name="Grupo 973440">
          <g id="Grupo_973431" data-name="Grupo 973431">
            <g id="Grupo_973396" data-name="Grupo 973396">
              <g id="Grupo_973392" data-name="Grupo 973392" transform="translate(0.172 0.172)">
                <g id="Grupo_973391" data-name="Grupo 973391">
                  <rect id="Rectángulo_308777" data-name="Rectángulo 308777" width="152.215" height="118.465" fill="#fff"/>
                </g>
              </g>
              <g id="Grupo_973395" data-name="Grupo 973395">
                <g id="Grupo_973394" data-name="Grupo 973394">
                  <g id="Grupo_973393" data-name="Grupo 973393">
                    <path id="Trazado_650964" data-name="Trazado 650964" d="M871.586,5276.024c0-1.182-.057-46.974-.142-118.463l.142.142-152.2.03h-.013l.172-.172c-.006,42.7-.012,83.089-.018,118.463l-.154-.153c90.332.092,150.858.153,152.215.153l-152.215.156h-.155v-.156c-.005-35.375-.011-75.762-.018-118.463v-.172h.186l152.2.028h.143v.144C871.642,5229.05,871.587,5274.844,871.586,5276.024Z" transform="translate(-719.198 -5157.389)" fill="#263238"/>
                  </g>
                </g>
              </g>
            </g>
            <g id="Grupo_973430" data-name="Grupo 973430" transform="translate(7.597 15.736)">
              <g id="Grupo_973398" data-name="Grupo 973398">
                <g id="Grupo_973397" data-name="Grupo 973397">
                  <rect id="Rectángulo_308778" data-name="Rectángulo 308778" width="24.641" height="1.371" fill="#263238"/>
                </g>
              </g>
              <g id="Grupo_973400" data-name="Grupo 973400" transform="translate(0 3.209)">
                <g id="Grupo_973399" data-name="Grupo 973399">
                  <rect id="Rectángulo_308779" data-name="Rectángulo 308779" width="12.177" height="1.371" fill="#263238"/>
                </g>
              </g>
              <g id="Grupo_973429" data-name="Grupo 973429" transform="translate(14.049 10.007)">
                <g id="Grupo_973423" data-name="Grupo 973423">
                  <g id="Grupo_973401" data-name="Grupo 973401" transform="translate(0 75.872)">
                    <rect id="Rectángulo_308780" data-name="Rectángulo 308780" width="4.464" height="1.286" fill="#263238"/>
                  </g>
                  <g id="Grupo_973402" data-name="Grupo 973402" transform="translate(10.098 82.748)">
                    <rect id="Rectángulo_308781" data-name="Rectángulo 308781" width="5.708" height="1.286" fill="#263238"/>
                  </g>
                  <g id="Grupo_973403" data-name="Grupo 973403" transform="translate(29.969 82.748)">
                    <rect id="Rectángulo_308782" data-name="Rectángulo 308782" width="5.708" height="1.286" fill="#263238"/>
                  </g>
                  <g id="Grupo_973404" data-name="Grupo 973404" transform="translate(49.84 82.748)">
                    <rect id="Rectángulo_308783" data-name="Rectángulo 308783" width="5.708" height="1.286" fill="#263238"/>
                  </g>
                  <g id="Grupo_973405" data-name="Grupo 973405" transform="translate(69.71 82.748)">
                    <rect id="Rectángulo_308784" data-name="Rectángulo 308784" width="5.708" height="1.286" fill="#263238"/>
                  </g>
                  <g id="Grupo_973406" data-name="Grupo 973406" transform="translate(89.581 82.748)">
                    <rect id="Rectángulo_308785" data-name="Rectángulo 308785" width="5.708" height="1.286" fill="#263238"/>
                  </g>
                  <g id="Grupo_973407" data-name="Grupo 973407" transform="translate(109.452 82.748)">
                    <rect id="Rectángulo_308786" data-name="Rectángulo 308786" width="5.708" height="1.286" fill="#263238"/>
                  </g>
                  <g id="Grupo_973408" data-name="Grupo 973408" transform="translate(0 58.693)">
                    <rect id="Rectángulo_308787" data-name="Rectángulo 308787" width="4.464" height="1.286" fill="#263238"/>
                  </g>
                  <g id="Grupo_973409" data-name="Grupo 973409" transform="translate(0 26.361)">
                    <rect id="Rectángulo_308788" data-name="Rectángulo 308788" width="4.464" height="1.286" fill="#263238"/>
                  </g>
                  <g id="Grupo_973410" data-name="Grupo 973410" transform="translate(0 10.113)">
                    <rect id="Rectángulo_308789" data-name="Rectángulo 308789" width="4.464" height="1.286" fill="#263238"/>
                  </g>
                  <g id="Grupo_973411" data-name="Grupo 973411" transform="translate(0.226 42.527)">
                    <rect id="Rectángulo_308790" data-name="Rectángulo 308790" width="4.464" height="1.286" fill="#263238"/>
                  </g>
                  <g id="Grupo_973413" data-name="Grupo 973413" transform="translate(6.64)">
                    <g id="Grupo_973412" data-name="Grupo 973412">
                      <path id="Trazado_650965" data-name="Trazado 650965" d="M875.428,5278.114s-.163.011-.479.016-.794.009-1.4.015c-1.244.008-3.062.018-5.4.029l-19.863.05-65.532.044H767.068v-.152c.021-21.917.039-41.2.052-55.02.019-6.9.035-12.432.045-16.248.011-1.9.02-3.367.027-4.374.006-.492.01-.868.014-1.132s.014-.385.014-.385.01.13.014.385.008.64.014,1.132c.006,1.007.015,2.476.026,4.374.01,3.816.026,9.349.046,16.248.013,13.816.031,33.1.051,55.02l-.151-.151c4.995,0,10.21,0,15.529,0l65.532.045,19.863.05c2.339.012,4.157.022,5.4.027.611.009,1.079.013,1.4.016S875.428,5278.114,875.428,5278.114Z" transform="translate(-767.068 -5200.956)" fill="#263238"/>
                    </g>
                  </g>
                  <g id="Grupo_973415" data-name="Grupo 973415" transform="translate(11.109 43.016)">
                    <g id="Grupo_973414" data-name="Grupo 973414">
                      <path id="Trazado_650966" data-name="Trazado 650966" d="M879.781,5273.911c0,.085-23.541.154-52.572.154s-52.577-.069-52.577-.154,23.535-.154,52.577-.154S879.781,5273.826,879.781,5273.911Z" transform="translate(-774.632 -5273.757)" fill="#263238"/>
                    </g>
                  </g>
                  <g id="Grupo_973417" data-name="Grupo 973417" transform="translate(11.109 26.85)">
                    <g id="Grupo_973416" data-name="Grupo 973416">
                      <path id="Trazado_650967" data-name="Trazado 650967" d="M879.781,5246.551c0,.085-23.541.154-52.572.154s-52.577-.068-52.577-.154,23.535-.153,52.577-.153S879.781,5246.467,879.781,5246.551Z" transform="translate(-774.632 -5246.397)" fill="#263238"/>
                    </g>
                  </g>
                  <g id="Grupo_973419" data-name="Grupo 973419" transform="translate(11.109 10.602)">
                    <g id="Grupo_973418" data-name="Grupo 973418">
                      <path id="Trazado_650968" data-name="Trazado 650968" d="M879.781,5219.052c0,.085-23.541.154-52.572.154s-52.577-.069-52.577-.154,23.535-.153,52.577-.153S879.781,5218.969,879.781,5219.052Z" transform="translate(-774.632 -5218.899)" fill="#263238"/>
                    </g>
                  </g>
                  <g id="Grupo_973421" data-name="Grupo 973421" transform="translate(11.109 59.183)">
                    <g id="Grupo_973420" data-name="Grupo 973420">
                      <path id="Trazado_650969" data-name="Trazado 650969" d="M879.781,5301.271c0,.084-23.541.153-52.572.153s-52.577-.068-52.577-.153,23.535-.154,52.577-.154S879.781,5301.186,879.781,5301.271Z" transform="translate(-774.632 -5301.117)" fill="#263238"/>
                    </g>
                  </g>
                  <g id="Grupo_973422" data-name="Grupo 973422" transform="translate(12.193 1.192)">
                    <path id="Trazado_650970" data-name="Trazado 650970" d="M776.466,5275.462v-14.344l8.94-13.878,6.066,4.654,12.452-19.341,7.343,5.171,10.217-17.843,8.3,6.764,12.452-23.67,13.409,26.455,10.856-13.237,12.771-3.654v62.925Z" transform="translate(-776.466 -5202.974)" fill="#455a64"/>
                  </g>
                </g>
                <g id="Grupo_973425" data-name="Grupo 973425" transform="translate(12.193 5.578)">
                  <g id="Grupo_973424" data-name="Grupo 973424">
                    <path id="Trazado_650971" data-name="Trazado 650971" d="M880.531,5210.481s-.076.008-.225.012l-.666.011-2.591.024-9.8.038.067-.034L856.8,5224.251l-.036.048h-.06l-26.293.026.126-.071c-3.461,5.762-7.194,11.976-11.055,18.4l-10.851,18.039-.115.192-.132-.18-14.248-19.581.207-.006-12.976,20.253c-1.556,2.415-2.776,4.305-3.613,5.6l-.955,1.465c-.218.329-.338.494-.338.494s.1-.178.305-.515l.924-1.484,3.555-5.639,12.885-20.31.1-.157.109.15,14.286,19.551-.247.012c3.438-5.724,7.08-11.784,10.842-18.045,3.864-6.424,7.6-12.637,11.065-18.4l.043-.072h.084c9.721.009,18.663.019,26.293.025l-.1.048,10.568-13.674.026-.035h.042l9.8.041,2.591.021.666.013C880.455,5210.474,880.531,5210.481,880.531,5210.481Z" transform="translate(-776.466 -5210.395)" fill="#263238"/>
                  </g>
                </g>
                <g id="Grupo_973426" data-name="Grupo 973426" transform="translate(32.261 39.86)">
                  <path id="Trazado_650972" data-name="Trazado 650972" d="M812.447,5269.387a1.01,1.01,0,1,1-1.009-.972A.991.991,0,0,1,812.447,5269.387Z" transform="translate(-810.429 -5268.415)" fill="#263238"/>
                </g>
                <g id="Grupo_973427" data-name="Grupo 973427" transform="translate(62.588 22.623)">
                  <path id="Trazado_650973" data-name="Trazado 650973" d="M863.772,5240.215a1.009,1.009,0,1,1-1.008-.972A.989.989,0,0,1,863.772,5240.215Z" transform="translate(-861.755 -5239.243)" fill="#263238"/>
                </g>
                <g id="Grupo_973428" data-name="Grupo 973428" transform="translate(86.164 18.388)">
                  <ellipse id="Elipse_7769" data-name="Elipse 7769" cx="1.009" cy="0.971" rx="1.009" ry="0.971" fill="#263238"/>
                </g>
              </g>
            </g>
          </g>
          <g id="Grupo_973435" data-name="Grupo 973435" transform="translate(4.189 3.875)">
            <g id="Grupo_973432" data-name="Grupo 973432">
              <path id="Trazado_650974" data-name="Trazado 650974" d="M728.631,5165.12a1.172,1.172,0,1,1-1.172-1.172A1.171,1.171,0,0,1,728.631,5165.12Z" transform="translate(-726.287 -5163.947)" fill="#263238"/>
            </g>
            <g id="Grupo_973433" data-name="Grupo 973433" transform="translate(3.408)">
              <path id="Trazado_650975" data-name="Trazado 650975" d="M734.4,5165.12a1.172,1.172,0,1,1-1.172-1.172A1.171,1.171,0,0,1,734.4,5165.12Z" transform="translate(-732.055 -5163.947)" fill="#263238"/>
            </g>
            <g id="Grupo_973434" data-name="Grupo 973434" transform="translate(6.816)">
              <path id="Trazado_650976" data-name="Trazado 650976" d="M740.166,5165.12a1.172,1.172,0,1,1-1.172-1.172A1.171,1.171,0,0,1,740.166,5165.12Z" transform="translate(-737.822 -5163.947)" fill="#263238"/>
            </g>
          </g>
          <g id="Grupo_973439" data-name="Grupo 973439" transform="translate(0.343 9.506)">
            <g id="Grupo_973436" data-name="Grupo 973436" transform="translate(0 0.154)">
              <line id="Línea_352" data-name="Línea 352" x2="151.918" fill="#263238"/>
            </g>
            <g id="Grupo_973438" data-name="Grupo 973438" transform="translate(0)">
              <g id="Grupo_973437" data-name="Grupo 973437">
                <path id="Trazado_650977" data-name="Trazado 650977" d="M871.7,5173.629c0,.085-34.011.154-75.955.154s-75.962-.069-75.962-.154,34-.153,75.962-.153S871.7,5173.544,871.7,5173.629Z" transform="translate(-719.778 -5173.477)" fill="#263238"/>
              </g>
            </g>
          </g>
        </g>
      </g>
    </g>
    <g id="Grupo_973727" data-name="Grupo 973727" transform="translate(730.556 5191.428)">
      <g id="Grupo_973482" data-name="Grupo 973482" transform="translate(1.107 185.053)">
        <g id="Grupo_973445" data-name="Grupo 973445">
          <g id="Grupo_973444" data-name="Grupo 973444">
            <g id="Grupo_973443" data-name="Grupo 973443">
              <path id="Trazado_650978" data-name="Trazado 650978" d="M765.681,5553.237l-1.019,4.279s-7,9.09-9.157,8.646c-1.415-.291.324-2.663,2.986-9.567l.559-2.852Z" transform="translate(-755.001 -5553.237)" fill="#455a64"/>
            </g>
          </g>
        </g>
        <g id="Grupo_973449" data-name="Grupo 973449" transform="translate(0.22 3.251)">
          <g id="Grupo_973448" data-name="Grupo 973448">
            <g id="Grupo_973447" data-name="Grupo 973447">
              <g id="Grupo_973446" data-name="Grupo 973446">
                <path id="Trazado_650979" data-name="Trazado 650979" d="M755.373,5567.07a.9.9,0,0,0,.373.358,1.3,1.3,0,0,0,1.34-.186,39.226,39.226,0,0,0,3.482-3.3c1.3-1.359,2.385-2.667,3.15-3.631l.894-1.152c.086-.113.167-.217.242-.314.057-.071.088-.107.092-.1a.6.6,0,0,1-.071.119l-.223.328c-.2.284-.49.687-.863,1.178a45.069,45.069,0,0,1-3.129,3.664,34.123,34.123,0,0,1-3.525,3.288,1.664,1.664,0,0,1-.791.292,1.157,1.157,0,0,1-.622-.137.786.786,0,0,1-.294-.272A.391.391,0,0,1,755.373,5567.07Z" transform="translate(-755.373 -5558.741)" fill="#263238"/>
              </g>
            </g>
          </g>
        </g>
        <g id="Grupo_973453" data-name="Grupo 973453" transform="translate(1.211 8.591)">
          <g id="Grupo_973452" data-name="Grupo 973452">
            <g id="Grupo_973451" data-name="Grupo 973451">
              <g id="Grupo_973450" data-name="Grupo 973450">
                <path id="Trazado_650980" data-name="Trazado 650980" d="M757.05,5567.847a1.119,1.119,0,0,1,.576-.064,2.994,2.994,0,0,1,1.319.458,2.426,2.426,0,0,1,.958,1.012,1.254,1.254,0,0,1,.151.561c-.022,0-.066-.213-.23-.519a2.577,2.577,0,0,0-.946-.947,3.342,3.342,0,0,0-1.262-.476C757.271,5567.823,757.054,5567.868,757.05,5567.847Z" transform="translate(-757.05 -5567.777)" fill="#263238"/>
              </g>
            </g>
          </g>
        </g>
        <g id="Grupo_973457" data-name="Grupo 973457" transform="translate(7.577 2.218)">
          <g id="Grupo_973456" data-name="Grupo 973456">
            <g id="Grupo_973455" data-name="Grupo 973455">
              <g id="Grupo_973454" data-name="Grupo 973454">
                <path id="Trazado_650981" data-name="Trazado 650981" d="M768.083,5561.3a.707.707,0,0,1-.084-.2,3.816,3.816,0,0,1-.138-.587,3.182,3.182,0,0,1,.326-1.945,3.005,3.005,0,0,1,1.414-1.375,2.3,2.3,0,0,1,.578-.179.611.611,0,0,1,.221-.014,5.016,5.016,0,0,0-.76.272,3.094,3.094,0,0,0-1.341,1.353,3.287,3.287,0,0,0-.35,1.877C768.007,5560.995,768.106,5561.294,768.083,5561.3Z" transform="translate(-767.824 -5556.992)" fill="#263238"/>
              </g>
            </g>
          </g>
        </g>
        <g id="Grupo_973461" data-name="Grupo 973461" transform="translate(9.609 0.725)">
          <g id="Grupo_973460" data-name="Grupo 973460">
            <g id="Grupo_973459" data-name="Grupo 973459">
              <g id="Grupo_973458" data-name="Grupo 973458">
                <path id="Trazado_650982" data-name="Trazado 650982" d="M771.889,5554.466c.031.011-.128.609-.258,1.365a4.668,4.668,0,0,1-.364,1.346c-.028-.01.113-.609.24-1.369A4.519,4.519,0,0,1,771.889,5554.466Z" transform="translate(-771.263 -5554.466)" fill="#263238"/>
              </g>
            </g>
          </g>
        </g>
        <g id="Grupo_973465" data-name="Grupo 973465" transform="translate(3.366 3.909)">
          <g id="Grupo_973464" data-name="Grupo 973464">
            <g id="Grupo_973463" data-name="Grupo 973463">
              <g id="Grupo_973462" data-name="Grupo 973462">
                <path id="Trazado_650983" data-name="Trazado 650983" d="M760.7,5559.9a1.623,1.623,0,0,1,.9.011,1.6,1.6,0,0,1,.811.384c-.018.033-.369-.155-.839-.261S760.7,5559.943,760.7,5559.9Z" transform="translate(-760.698 -5559.853)" fill="#263238"/>
              </g>
            </g>
          </g>
        </g>
        <g id="Grupo_973469" data-name="Grupo 973469" transform="translate(3.223 4.622)">
          <g id="Grupo_973468" data-name="Grupo 973468">
            <g id="Grupo_973467" data-name="Grupo 973467">
              <g id="Grupo_973466" data-name="Grupo 973466">
                <path id="Trazado_650984" data-name="Trazado 650984" d="M760.455,5561.132a1.419,1.419,0,0,1,1.42.337c-.022.03-.3-.152-.693-.243S760.46,5561.169,760.455,5561.132Z" transform="translate(-760.455 -5561.06)" fill="#263238"/>
              </g>
            </g>
          </g>
        </g>
        <g id="Grupo_973473" data-name="Grupo 973473" transform="translate(2.663 5.48)">
          <g id="Grupo_973472" data-name="Grupo 973472">
            <g id="Grupo_973471" data-name="Grupo 973471">
              <g id="Grupo_973470" data-name="Grupo 973470">
                <path id="Trazado_650985" data-name="Trazado 650985" d="M759.508,5562.646a1.146,1.146,0,0,1,1.446.329,3.191,3.191,0,0,0-.691-.308A3.247,3.247,0,0,0,759.508,5562.646Z" transform="translate(-759.508 -5562.512)" fill="#263238"/>
              </g>
            </g>
          </g>
        </g>
        <g id="Grupo_973477" data-name="Grupo 973477" transform="translate(3.848 1.893)">
          <g id="Grupo_973476" data-name="Grupo 973476">
            <g id="Grupo_973475" data-name="Grupo 973475">
              <g id="Grupo_973474" data-name="Grupo 973474">
                <path id="Trazado_650986" data-name="Trazado 650986" d="M761.513,5558.2c0-.021.323-.087.822-.281a6.278,6.278,0,0,0,.844-.405c.152-.089.31-.188.464-.3s.3-.26.294-.426-.213-.257-.373-.215a1.033,1.033,0,0,0-.432.289c-.258.242-.478.474-.656.673-.357.4-.556.668-.572.656a.821.821,0,0,1,.119-.2c.085-.125.214-.3.386-.512a8.747,8.747,0,0,1,.644-.7,1.105,1.105,0,0,1,.485-.325.408.408,0,0,1,.526.328.7.7,0,0,1-.347.534,5.04,5.04,0,0,1-.48.3,5.549,5.549,0,0,1-.87.389,4.887,4.887,0,0,1-.619.169A.767.767,0,0,1,761.513,5558.2Z" transform="translate(-761.513 -5556.44)" fill="#263238"/>
              </g>
            </g>
          </g>
        </g>
        <g id="Grupo_973481" data-name="Grupo 973481" transform="translate(2.928 1.263)">
          <g id="Grupo_973480" data-name="Grupo 973480">
            <g id="Grupo_973479" data-name="Grupo 973479">
              <g id="Grupo_973478" data-name="Grupo 973478">
                <path id="Trazado_650987" data-name="Trazado 650987" d="M761.244,5557.678a7.887,7.887,0,0,1-.128-.782,3.251,3.251,0,0,0-.238-.808,1.767,1.767,0,0,0-.261-.414c-.107-.119-.269-.224-.4-.148s-.149.269-.129.427a1.927,1.927,0,0,0,.136.47,2.681,2.681,0,0,0,.457.7c.324.36.578.534.564.551a.638.638,0,0,1-.185-.108,3.2,3.2,0,0,1-.444-.382,2.568,2.568,0,0,1-.5-.718,1.966,1.966,0,0,1-.152-.5.534.534,0,0,1,.191-.552.463.463,0,0,1,.553.175,1.8,1.8,0,0,1,.275.447,3.08,3.08,0,0,1,.221.844c.031.244.04.444.046.582A.684.684,0,0,1,761.244,5557.678Z" transform="translate(-759.957 -5555.376)" fill="#263238"/>
              </g>
            </g>
          </g>
        </g>
      </g>
      <g id="Grupo_973580" data-name="Grupo 973580" transform="translate(34.379 181.203)">
        <g id="Grupo_973579" data-name="Grupo 973579">
          <g id="Grupo_973488" data-name="Grupo 973488" transform="translate(0.148)">
            <g id="Grupo_973487" data-name="Grupo 973487">
              <g id="Grupo_973486" data-name="Grupo 973486">
                <g id="Grupo_973485" data-name="Grupo 973485">
                  <g id="Grupo_973484" data-name="Grupo 973484">
                    <g id="Grupo_973483" data-name="Grupo 973483">
                      <path id="Trazado_650988" data-name="Trazado 650988" d="M822.353,5552.557l.032-5.706-10.69-.129-.136,8.348.662.051c2.947.2,15,.807,16.981.233C831.41,5554.713,822.353,5552.557,822.353,5552.557Z" transform="translate(-811.56 -5546.722)" fill="#455a64"/>
                    </g>
                  </g>
                </g>
              </g>
            </g>
          </g>
          <g id="Grupo_973494" data-name="Grupo 973494" transform="translate(0 8.096)">
            <g id="Grupo_973493" data-name="Grupo 973493">
              <g id="Grupo_973492" data-name="Grupo 973492">
                <g id="Grupo_973491" data-name="Grupo 973491">
                  <g id="Grupo_973490" data-name="Grupo 973490">
                    <g id="Grupo_973489" data-name="Grupo 973489">
                      <path id="Trazado_650989" data-name="Trazado 650989" d="M811.31,5560.429a.926.926,0,0,0,.183.023l.528.038,1.942.109c1.64.079,3.907.16,6.413.194s4.775.014,6.417-.022c.766-.022,1.416-.041,1.944-.055l.528-.025a.093.093,0,1,0,0-.026h-.529c-.528,0-1.178.01-1.944.014-1.641.013-3.909.016-6.414-.015s-4.771-.1-6.411-.157l-1.943-.068-.528-.014A1.033,1.033,0,0,0,811.31,5560.429Z" transform="translate(-811.31 -5560.424)" fill="#263238"/>
                    </g>
                  </g>
                </g>
              </g>
            </g>
          </g>
          <g id="Grupo_973500" data-name="Grupo 973500" transform="translate(14.379 6.917)">
            <g id="Grupo_973499" data-name="Grupo 973499">
              <g id="Grupo_973498" data-name="Grupo 973498">
                <g id="Grupo_973497" data-name="Grupo 973497">
                  <g id="Grupo_973496" data-name="Grupo 973496">
                    <g id="Grupo_973495" data-name="Grupo 973495">
                      <path id="Trazado_650990" data-name="Trazado 650990" d="M835.663,5560.09a4.4,4.4,0,0,1,.375-.923,4.344,4.344,0,0,1,.672-.734,1.427,1.427,0,0,0-.781.665A1.443,1.443,0,0,0,835.663,5560.09Z" transform="translate(-835.646 -5558.429)" fill="#263238"/>
                    </g>
                  </g>
                </g>
              </g>
            </g>
          </g>
          <g id="Grupo_973506" data-name="Grupo 973506" transform="translate(11.258 6.054)">
            <g id="Grupo_973505" data-name="Grupo 973505">
              <g id="Grupo_973504" data-name="Grupo 973504">
                <g id="Grupo_973503" data-name="Grupo 973503">
                  <g id="Grupo_973502" data-name="Grupo 973502">
                    <g id="Grupo_973501" data-name="Grupo 973501">
                      <path id="Trazado_650991" data-name="Trazado 650991" d="M830.369,5557.852c.03.019.183-.162.342-.406s.263-.457.234-.476-.183.162-.343.4S830.338,5557.833,830.369,5557.852Z" transform="translate(-830.363 -5556.969)" fill="#263238"/>
                    </g>
                  </g>
                </g>
              </g>
            </g>
          </g>
          <g id="Grupo_973512" data-name="Grupo 973512" transform="translate(10.401 5.874)">
            <g id="Grupo_973511" data-name="Grupo 973511">
              <g id="Grupo_973510" data-name="Grupo 973510">
                <g id="Grupo_973509" data-name="Grupo 973509">
                  <g id="Grupo_973508" data-name="Grupo 973508">
                    <g id="Grupo_973507" data-name="Grupo 973507">
                      <path id="Trazado_650992" data-name="Trazado 650992" d="M828.915,5557.259c.024.026.194-.083.38-.247s.318-.317.295-.344-.194.084-.38.247S828.891,5557.231,828.915,5557.259Z" transform="translate(-828.912 -5556.664)" fill="#263238"/>
                    </g>
                  </g>
                </g>
              </g>
            </g>
          </g>
          <g id="Grupo_973518" data-name="Grupo 973518" transform="translate(9.869 5.401)">
            <g id="Grupo_973517" data-name="Grupo 973517">
              <g id="Grupo_973516" data-name="Grupo 973516">
                <g id="Grupo_973515" data-name="Grupo 973515">
                  <g id="Grupo_973514" data-name="Grupo 973514">
                    <g id="Grupo_973513" data-name="Grupo 973513">
                      <path id="Trazado_650993" data-name="Trazado 650993" d="M828.013,5555.915a1.227,1.227,0,0,0,.557.078.283.283,0,1,0,0-.127A1.261,1.261,0,0,0,828.013,5555.915Z" transform="translate(-828.013 -5555.863)" fill="#263238"/>
                    </g>
                  </g>
                </g>
              </g>
            </g>
          </g>
          <g id="Grupo_973524" data-name="Grupo 973524" transform="translate(9.69 4.73)">
            <g id="Grupo_973523" data-name="Grupo 973523">
              <g id="Grupo_973522" data-name="Grupo 973522">
                <g id="Grupo_973521" data-name="Grupo 973521">
                  <g id="Grupo_973520" data-name="Grupo 973520">
                    <g id="Grupo_973519" data-name="Grupo 973519">
                      <path id="Trazado_650994" data-name="Trazado 650994" d="M827.71,5554.738a1.108,1.108,0,0,0,.62.187,1.072,1.072,0,0,0,.644-.078,3.578,3.578,0,0,0-.632-.05A3.308,3.308,0,0,0,827.71,5554.738Z" transform="translate(-827.709 -5554.727)" fill="#263238"/>
                    </g>
                  </g>
                </g>
              </g>
            </g>
          </g>
          <g id="Grupo_973530" data-name="Grupo 973530" transform="translate(11.638 5.066)">
            <g id="Grupo_973529" data-name="Grupo 973529">
              <g id="Grupo_973528" data-name="Grupo 973528">
                <g id="Grupo_973527" data-name="Grupo 973527">
                  <g id="Grupo_973526" data-name="Grupo 973526">
                    <g id="Grupo_973525" data-name="Grupo 973525">
                      <path id="Trazado_650995" data-name="Trazado 650995" d="M831.006,5556.241a2.037,2.037,0,0,0,.687,0,4.058,4.058,0,0,0,.733-.152,2.037,2.037,0,0,0,.421-.167.374.374,0,0,0,.173-.21.269.269,0,0,0-.1-.276,1.259,1.259,0,0,0-1.562.348,1.232,1.232,0,0,0-.23.456.377.377,0,0,0-.02.185,1.941,1.941,0,0,1,.32-.582,1.237,1.237,0,0,1,.591-.374,1.062,1.062,0,0,1,.818.066c.108.083.064.21-.059.281a2.057,2.057,0,0,1-.388.16,4.878,4.878,0,0,1-.71.175C831.268,5556.222,831.006,5556.218,831.006,5556.241Z" transform="translate(-831.006 -5555.297)" fill="#263238"/>
                    </g>
                  </g>
                </g>
              </g>
            </g>
          </g>
          <g id="Grupo_973536" data-name="Grupo 973536" transform="translate(10.932 4.709)">
            <g id="Grupo_973535" data-name="Grupo 973535">
              <g id="Grupo_973534" data-name="Grupo 973534">
                <g id="Grupo_973533" data-name="Grupo 973533">
                  <g id="Grupo_973532" data-name="Grupo 973532">
                    <g id="Grupo_973531" data-name="Grupo 973531">
                      <path id="Trazado_650996" data-name="Trazado 650996" d="M830.694,5556.029a.679.679,0,0,0,.085-.476,1.12,1.12,0,0,0-.181-.5.686.686,0,0,0-.568-.358.273.273,0,0,0-.216.314.746.746,0,0,0,.113.308,2.079,2.079,0,0,0,.319.42.969.969,0,0,0,.39.282c.012-.017-.135-.124-.322-.344a2.461,2.461,0,0,1-.282-.416c-.093-.146-.154-.408.019-.437.172-.014.346.157.448.3a1.129,1.129,0,0,1,.189.449A2.526,2.526,0,0,1,830.694,5556.029Z" transform="translate(-829.811 -5554.692)" fill="#263238"/>
                    </g>
                  </g>
                </g>
              </g>
            </g>
          </g>
          <g id="Grupo_973542" data-name="Grupo 973542" transform="translate(0.255 5.114)">
            <g id="Grupo_973541" data-name="Grupo 973541">
              <g id="Grupo_973540" data-name="Grupo 973540">
                <g id="Grupo_973539" data-name="Grupo 973539">
                  <g id="Grupo_973538" data-name="Grupo 973538">
                    <g id="Grupo_973537" data-name="Grupo 973537">
                      <path id="Trazado_650997" data-name="Trazado 650997" d="M811.742,5555.442c0,.025.307-.024.789.04a3.347,3.347,0,0,1,2.772,2.267c.157.46.169.768.193.765a.631.631,0,0,0,0-.215,2.808,2.808,0,0,0-.109-.578,3.249,3.249,0,0,0-2.849-2.331,2.858,2.858,0,0,0-.588.008A.664.664,0,0,0,811.742,5555.442Z" transform="translate(-811.742 -5555.378)" fill="#263238"/>
                    </g>
                  </g>
                </g>
              </g>
            </g>
          </g>
          <g id="Grupo_973548" data-name="Grupo 973548" transform="translate(1.279 0.745)">
            <g id="Grupo_973547" data-name="Grupo 973547">
              <g id="Grupo_973546" data-name="Grupo 973546">
                <g id="Grupo_973545" data-name="Grupo 973545">
                  <g id="Grupo_973544" data-name="Grupo 973544">
                    <g id="Grupo_973543" data-name="Grupo 973543">
                      <path id="Trazado_650998" data-name="Trazado 650998" d="M813.615,5547.984a37.258,37.258,0,0,0-.112,4.391,37.279,37.279,0,0,0,.112-4.391Z" transform="translate(-813.474 -5547.984)" fill="#263238"/>
                    </g>
                  </g>
                </g>
              </g>
            </g>
          </g>
          <g id="Grupo_973554" data-name="Grupo 973554" transform="translate(5.383 7.275)">
            <g id="Grupo_973553" data-name="Grupo 973553">
              <g id="Grupo_973552" data-name="Grupo 973552">
                <g id="Grupo_973551" data-name="Grupo 973551">
                  <g id="Grupo_973550" data-name="Grupo 973550">
                    <g id="Grupo_973549" data-name="Grupo 973549">
                      <path id="Trazado_650999" data-name="Trazado 650999" d="M820.42,5559.046a6.12,6.12,0,0,0,1.558.175,6.2,6.2,0,0,0,1.565-.1c0-.039-.7,0-1.562-.025S820.425,5559.01,820.42,5559.046Z" transform="translate(-820.42 -5559.035)" fill="#263238"/>
                    </g>
                  </g>
                </g>
              </g>
            </g>
          </g>
          <g id="Grupo_973560" data-name="Grupo 973560" transform="translate(3.283 7.252)">
            <g id="Grupo_973559" data-name="Grupo 973559">
              <g id="Grupo_973558" data-name="Grupo 973558">
                <g id="Grupo_973557" data-name="Grupo 973557">
                  <g id="Grupo_973556" data-name="Grupo 973556">
                    <g id="Grupo_973555" data-name="Grupo 973555">
                      <path id="Trazado_651000" data-name="Trazado 651000" d="M816.871,5559c-.026.025.055.148.125.309s.106.3.144.3.057-.17-.025-.355S816.894,5558.975,816.871,5559Z" transform="translate(-816.866 -5558.997)" fill="#263238"/>
                    </g>
                  </g>
                </g>
              </g>
            </g>
          </g>
          <g id="Grupo_973566" data-name="Grupo 973566" transform="translate(2.505 6.26)">
            <g id="Grupo_973565" data-name="Grupo 973565">
              <g id="Grupo_973564" data-name="Grupo 973564">
                <g id="Grupo_973563" data-name="Grupo 973563">
                  <g id="Grupo_973562" data-name="Grupo 973562">
                    <g id="Grupo_973561" data-name="Grupo 973561">
                      <path id="Trazado_651001" data-name="Trazado 651001" d="M815.555,5557.322c-.025.024.042.136.151.249s.219.187.244.162-.041-.137-.151-.251S815.581,5557.3,815.555,5557.322Z" transform="translate(-815.55 -5557.316)" fill="#263238"/>
                    </g>
                  </g>
                </g>
              </g>
            </g>
          </g>
          <g id="Grupo_973572" data-name="Grupo 973572" transform="translate(1.386 5.742)">
            <g id="Grupo_973571" data-name="Grupo 973571">
              <g id="Grupo_973570" data-name="Grupo 973570">
                <g id="Grupo_973569" data-name="Grupo 973569">
                  <g id="Grupo_973568" data-name="Grupo 973568">
                    <g id="Grupo_973567" data-name="Grupo 973567">
                      <path id="Trazado_651002" data-name="Trazado 651002" d="M813.657,5556.5c.007.037.149.037.306.094s.268.143.3.119-.059-.172-.253-.241S813.646,5556.465,813.657,5556.5Z" transform="translate(-813.656 -5556.439)" fill="#263238"/>
                    </g>
                  </g>
                </g>
              </g>
            </g>
          </g>
          <g id="Grupo_973578" data-name="Grupo 973578" transform="translate(0.583 5.555)">
            <g id="Grupo_973577" data-name="Grupo 973577">
              <g id="Grupo_973576" data-name="Grupo 973576">
                <g id="Grupo_973575" data-name="Grupo 973575">
                  <g id="Grupo_973574" data-name="Grupo 973574">
                    <g id="Grupo_973573" data-name="Grupo 973573">
                      <path id="Trazado_651003" data-name="Trazado 651003" d="M812.3,5556.147c-.013.034.048.088.136.125s.171.037.184,0-.047-.088-.135-.124S812.312,5556.115,812.3,5556.147Z" transform="translate(-812.297 -5556.124)" fill="#263238"/>
                    </g>
                  </g>
                </g>
              </g>
            </g>
          </g>
        </g>
      </g>
      <g id="Grupo_973603" data-name="Grupo 973603" transform="translate(0 77.746)">
        <g id="Grupo_973584" data-name="Grupo 973584">
          <g id="Grupo_973583" data-name="Grupo 973583">
            <g id="Grupo_973582" data-name="Grupo 973582">
              <g id="Grupo_973581" data-name="Grupo 973581">
                <path id="Trazado_651004" data-name="Trazado 651004" d="M805.658,5371.63l-4.1,107.13-16.646.35,2.764-92.825-18.723,93.534H753.128l20.388-107.972Z" transform="translate(-753.128 -5371.63)" fill="#263238"/>
              </g>
            </g>
          </g>
        </g>
        <g id="Grupo_973587" data-name="Grupo 973587" transform="translate(34.271 3.898)">
          <g id="Grupo_973586" data-name="Grupo 973586">
            <g id="Grupo_973585" data-name="Grupo 973585">
              <path id="Trazado_651005" data-name="Trazado 651005" d="M815.242,5378.229a10.641,10.641,0,0,1-.191,1.766c-.155,1.084-.39,2.58-.667,4.229a17.662,17.662,0,0,1-.475,2.325,3.305,3.305,0,0,1-1.087,1.637,2.569,2.569,0,0,1-1.208.539.987.987,0,0,1-.484-.008,2.992,2.992,0,0,0,2.522-2.249,20.733,20.733,0,0,0,.444-2.293c.276-1.648.544-3.139.751-4.215A10.686,10.686,0,0,1,815.242,5378.229Z" transform="translate(-811.128 -5378.229)" fill="#455a64"/>
            </g>
          </g>
        </g>
        <g id="Grupo_973590" data-name="Grupo 973590" transform="translate(34.692 4.134)">
          <g id="Grupo_973589" data-name="Grupo 973589">
            <g id="Grupo_973588" data-name="Grupo 973588">
              <path id="Trazado_651006" data-name="Trazado 651006" d="M812.07,5378.9c.036.027-.1.2-.022.481a.562.562,0,0,0,.278.358.5.5,0,0,0,.658-.578.564.564,0,0,0-.319-.322c-.27-.115-.458,0-.48-.041-.035-.016.154-.243.543-.157a.74.74,0,0,1,.509.426.753.753,0,0,1-1.037.91.738.738,0,0,1-.357-.56C811.808,5379.026,812.059,5378.869,812.07,5378.9Z" transform="translate(-811.84 -5378.627)" fill="#455a64"/>
            </g>
          </g>
        </g>
        <g id="Grupo_973593" data-name="Grupo 973593" transform="translate(25.74 2.964)">
          <g id="Grupo_973592" data-name="Grupo 973592">
            <g id="Grupo_973591" data-name="Grupo 973591">
              <path id="Trazado_651007" data-name="Trazado 651007" d="M796.931,5379.623a3.132,3.132,0,0,1,.318-2.973c.078.036-.163.667-.245,1.478S797.015,5379.6,796.931,5379.623Z" transform="translate(-796.691 -5376.648)" fill="#455a64"/>
            </g>
          </g>
        </g>
        <g id="Grupo_973596" data-name="Grupo 973596" transform="translate(27.732 2.711)">
          <g id="Grupo_973595" data-name="Grupo 973595">
            <g id="Grupo_973594" data-name="Grupo 973594">
              <path id="Trazado_651008" data-name="Trazado 651008" d="M800.312,5379.32a3.638,3.638,0,0,1,.217-3.1,22.068,22.068,0,0,0-.217,3.1Z" transform="translate(-800.061 -5376.219)" fill="#455a64"/>
            </g>
          </g>
        </g>
        <g id="Grupo_973599" data-name="Grupo 973599" transform="translate(45.161 3.029)">
          <g id="Grupo_973598" data-name="Grupo 973598">
            <g id="Grupo_973597" data-name="Grupo 973597">
              <path id="Trazado_651009" data-name="Trazado 651009" d="M829.585,5379.977a118.34,118.34,0,0,0,.166-3.218,4.415,4.415,0,0,1-.166,3.218Z" transform="translate(-829.559 -5376.758)" fill="#455a64"/>
            </g>
          </g>
        </g>
        <g id="Grupo_973602" data-name="Grupo 973602" transform="translate(47.346 2.843)">
          <g id="Grupo_973601" data-name="Grupo 973601">
            <g id="Grupo_973600" data-name="Grupo 973600">
              <path id="Trazado_651010" data-name="Trazado 651010" d="M833.272,5379.729c-.08-.035.18-.734.238-1.634s-.092-1.627-.008-1.651a3.464,3.464,0,0,1-.229,3.285Z" transform="translate(-833.256 -5376.443)" fill="#455a64"/>
            </g>
          </g>
        </g>
      </g>
      <g id="Grupo_973671" data-name="Grupo 973671" transform="translate(24.376)">
        <g id="Grupo_973659" data-name="Grupo 973659" transform="translate(3.295 6.274)">
          <g id="Grupo_973658" data-name="Grupo 973658">
            <g id="Grupo_973614" data-name="Grupo 973614">
              <g id="Grupo_973613" data-name="Grupo 973613">
                <g id="Grupo_973612" data-name="Grupo 973612">
                  <g id="Grupo_973607" data-name="Grupo 973607">
                    <g id="Grupo_973606" data-name="Grupo 973606">
                      <g id="Grupo_973605" data-name="Grupo 973605">
                        <g id="Grupo_973604" data-name="Grupo 973604">
                          <path id="Trazado_651011" data-name="Trazado 651011" d="M801.626,5277.573l10.277-.82c.064-1.2-.022-5.842-.022-5.842s4.276-.666,4.328-4.94-.688-14.092-.688-14.092h0a14.859,14.859,0,0,0-14.93,1.876l-.633.489Z" transform="translate(-799.958 -5250.671)" fill="#ffbf9d"/>
                        </g>
                      </g>
                    </g>
                  </g>
                  <g id="Grupo_973611" data-name="Grupo 973611" transform="translate(6.357 18.594)">
                    <g id="Grupo_973610" data-name="Grupo 973610">
                      <g id="Grupo_973609" data-name="Grupo 973609">
                        <g id="Grupo_973608" data-name="Grupo 973608">
                          <path id="Trazado_651012" data-name="Trazado 651012" d="M816.289,5283.723a9.932,9.932,0,0,1-5.573-1.584s1.317,3.077,5.583,2.691Z" transform="translate(-810.716 -5282.139)" fill="#ff9a6c"/>
                        </g>
                      </g>
                    </g>
                  </g>
                </g>
              </g>
            </g>
            <g id="Grupo_973657" data-name="Grupo 973657" transform="translate(5.468 4.277)">
              <g id="Grupo_973656" data-name="Grupo 973656">
                <g id="Grupo_973647" data-name="Grupo 973647" transform="translate(0.415 2.303)">
                  <g id="Grupo_973646" data-name="Grupo 973646">
                    <g id="Grupo_973645" data-name="Grupo 973645">
                      <g id="Grupo_973624" data-name="Grupo 973624" transform="translate(6.458)">
                        <g id="Grupo_973618" data-name="Grupo 973618" transform="translate(0.339 0.777)">
                          <g id="Grupo_973617" data-name="Grupo 973617">
                            <g id="Grupo_973616" data-name="Grupo 973616">
                              <g id="Grupo_973615" data-name="Grupo 973615">
                                <path id="Trazado_651013" data-name="Trazado 651013" d="M822.637,5263.673a.611.611,0,0,1-.589.616.584.584,0,0,1-.629-.551.611.611,0,0,1,.588-.616A.584.584,0,0,1,822.637,5263.673Z" transform="translate(-821.418 -5263.121)" fill="#263238"/>
                              </g>
                            </g>
                          </g>
                        </g>
                        <g id="Grupo_973623" data-name="Grupo 973623">
                          <g id="Grupo_973622" data-name="Grupo 973622">
                            <g id="Grupo_973621" data-name="Grupo 973621">
                              <g id="Grupo_973620" data-name="Grupo 973620">
                                <g id="Grupo_973619" data-name="Grupo 973619">
                                  <path id="Trazado_651014" data-name="Trazado 651014" d="M823.257,5262.449c-.076.08-.538-.263-1.2-.261s-1.138.33-1.21.249c-.035-.036.042-.179.252-.333a1.678,1.678,0,0,1,.968-.3,1.61,1.61,0,0,1,.951.307C823.227,5262.268,823.294,5262.413,823.257,5262.449Z" transform="translate(-820.844 -5261.807)" fill="#263238"/>
                                </g>
                              </g>
                            </g>
                          </g>
                        </g>
                      </g>
                      <g id="Grupo_973634" data-name="Grupo 973634" transform="translate(0 0.123)">
                        <g id="Grupo_973628" data-name="Grupo 973628" transform="translate(0.161 0.808)">
                          <g id="Grupo_973627" data-name="Grupo 973627">
                            <g id="Grupo_973626" data-name="Grupo 973626">
                              <g id="Grupo_973625" data-name="Grupo 973625">
                                <path id="Trazado_651015" data-name="Trazado 651015" d="M811.406,5263.934a.61.61,0,0,1-.588.616.583.583,0,0,1-.63-.55.61.61,0,0,1,.589-.616A.584.584,0,0,1,811.406,5263.934Z" transform="translate(-810.187 -5263.383)" fill="#263238"/>
                              </g>
                            </g>
                          </g>
                        </g>
                        <g id="Grupo_973633" data-name="Grupo 973633">
                          <g id="Grupo_973632" data-name="Grupo 973632">
                            <g id="Grupo_973631" data-name="Grupo 973631">
                              <g id="Grupo_973630" data-name="Grupo 973630">
                                <g id="Grupo_973629" data-name="Grupo 973629">
                                  <path id="Trazado_651016" data-name="Trazado 651016" d="M812.328,5262.657c-.076.08-.539-.262-1.2-.261s-1.139.33-1.21.25c-.035-.036.042-.18.252-.333a1.669,1.669,0,0,1,.968-.3,1.6,1.6,0,0,1,.951.306C812.3,5262.478,812.365,5262.621,812.328,5262.657Z" transform="translate(-809.914 -5262.016)" fill="#263238"/>
                                </g>
                              </g>
                            </g>
                          </g>
                        </g>
                      </g>
                      <g id="Grupo_973639" data-name="Grupo 973639" transform="translate(4.49 0.163)">
                        <g id="Grupo_973638" data-name="Grupo 973638">
                          <g id="Grupo_973637" data-name="Grupo 973637">
                            <g id="Grupo_973636" data-name="Grupo 973636">
                              <g id="Grupo_973635" data-name="Grupo 973635">
                                <path id="Trazado_651017" data-name="Trazado 651017" d="M817.821,5267.556a4.428,4.428,0,0,1,1.067-.191c.168-.018.327-.051.355-.166a.853.853,0,0,0-.112-.5q-.236-.609-.5-1.277a21.908,21.908,0,0,1-1.114-3.343,22.058,22.058,0,0,1,1.38,3.245c.166.448.324.875.475,1.284a.968.968,0,0,1,.088.658.423.423,0,0,1-.276.246,1.114,1.114,0,0,1-.285.039A4.2,4.2,0,0,1,817.821,5267.556Z" transform="translate(-817.514 -5262.082)" fill="#263238"/>
                              </g>
                            </g>
                          </g>
                        </g>
                      </g>
                      <g id="Grupo_973644" data-name="Grupo 973644" transform="translate(2.758 6.091)">
                        <g id="Grupo_973643" data-name="Grupo 973643">
                          <g id="Grupo_973642" data-name="Grupo 973642">
                            <g id="Grupo_973641" data-name="Grupo 973641">
                              <g id="Grupo_973640" data-name="Grupo 973640">
                                <path id="Trazado_651018" data-name="Trazado 651018" d="M814.688,5272.116c.107-.006.108.708.718,1.213s1.37.429,1.375.527c.01.045-.169.14-.49.147a1.77,1.77,0,0,1-1.148-.4,1.548,1.548,0,0,1-.557-1.018C814.56,5272.29,814.639,5272.112,814.688,5272.116Z" transform="translate(-814.582 -5272.116)" fill="#263238"/>
                              </g>
                            </g>
                          </g>
                        </g>
                      </g>
                    </g>
                  </g>
                </g>
                <g id="Grupo_973651" data-name="Grupo 973651">
                  <g id="Grupo_973650" data-name="Grupo 973650">
                    <g id="Grupo_973649" data-name="Grupo 973649">
                      <g id="Grupo_973648" data-name="Grupo 973648">
                        <path id="Trazado_651019" data-name="Trazado 651019" d="M812.21,5258.4c-.065.18-.721.095-1.491.188-.773.077-1.394.3-1.5.142-.046-.076.063-.244.314-.417a2.609,2.609,0,0,1,2.276-.252C812.1,5258.177,812.238,5258.318,812.21,5258.4Z" transform="translate(-809.212 -5257.909)" fill="#263238"/>
                      </g>
                    </g>
                  </g>
                </g>
                <g id="Grupo_973655" data-name="Grupo 973655" transform="translate(6.808 0.363)">
                  <g id="Grupo_973654" data-name="Grupo 973654">
                    <g id="Grupo_973653" data-name="Grupo 973653">
                      <g id="Grupo_973652" data-name="Grupo 973652">
                        <path id="Trazado_651020" data-name="Trazado 651020" d="M822.97,5259.2c-.115.149-.568-.006-1.112-.014-.544-.025-1.005.1-1.112-.055-.046-.076.026-.226.227-.368a1.611,1.611,0,0,1,1.792.056C822.958,5258.977,823.022,5259.13,822.97,5259.2Z" transform="translate(-820.733 -5258.522)" fill="#263238"/>
                      </g>
                    </g>
                  </g>
                </g>
              </g>
            </g>
          </g>
        </g>
        <g id="Grupo_973669" data-name="Grupo 973669" transform="translate(0.975 14.14)">
          <g id="Grupo_973663" data-name="Grupo 973663">
            <g id="Grupo_973662" data-name="Grupo 973662">
              <g id="Grupo_973661" data-name="Grupo 973661">
                <g id="Grupo_973660" data-name="Grupo 973660">
                  <path id="Trazado_651021" data-name="Trazado 651021" d="M798.879,5264.118c-.073-.032-2.938-.868-2.844,2.054a2.2,2.2,0,0,0,3.011,2.143C799.048,5268.228,798.879,5264.118,798.879,5264.118Z" transform="translate(-796.032 -5263.983)" fill="#ffbf9d"/>
                </g>
              </g>
            </g>
          </g>
          <g id="Grupo_973668" data-name="Grupo 973668" transform="translate(0.744 0.957)">
            <g id="Grupo_973667" data-name="Grupo 973667">
              <g id="Grupo_973666" data-name="Grupo 973666">
                <g id="Grupo_973665" data-name="Grupo 973665">
                  <g id="Grupo_973664" data-name="Grupo 973664">
                    <path id="Trazado_651022" data-name="Trazado 651022" d="M798.633,5267.9c-.013-.009-.05.037-.135.08a.513.513,0,0,1-.38.019,1.258,1.258,0,0,1-.619-1.11,1.69,1.69,0,0,1,.12-.735.582.582,0,0,1,.37-.4.257.257,0,0,1,.3.128c.041.081.025.14.041.144s.061-.05.034-.171a.325.325,0,0,0-.121-.178.383.383,0,0,0-.284-.066.715.715,0,0,0-.517.47,1.735,1.735,0,0,0-.151.82,1.324,1.324,0,0,0,.784,1.239.547.547,0,0,0,.463-.093C798.63,5267.969,798.643,5267.9,798.633,5267.9Z" transform="translate(-797.292 -5265.603)" fill="#ff9a6c"/>
                  </g>
                </g>
              </g>
            </g>
          </g>
        </g>
        <g id="Grupo_973670" data-name="Grupo 973670">
          <path id="Trazado_651023" data-name="Trazado 651023" d="M814.876,5243.841a4.522,4.522,0,0,0-7.021-1.35,4.425,4.425,0,0,0-7.272-.945c-.82.929-1.244,2.19-2.2,2.973-.831.676-1.958.9-2.793,1.572a3.227,3.227,0,0,0,1.151,5.625,3.467,3.467,0,0,0,1.706,4.708l.426-.177a6.083,6.083,0,0,0,.885-6.711c.053,0,.1-.007.154-.007a3.415,3.415,0,0,0,4.448-1.017,3.794,3.794,0,0,0,4.073.171,1.56,1.56,0,0,1,.614-.28,1.449,1.449,0,0,1,.765.23,3.61,3.61,0,0,0,2.069.417,2,2,0,0,0,1.554-1.112c.017,0,.033,0,.048-.006a2.3,2.3,0,0,0,1.712-1.658A3.418,3.418,0,0,0,814.876,5243.841Z" transform="translate(-794.382 -5240.052)" fill="#263238"/>
        </g>
      </g>
      <g id="Grupo_973714" data-name="Grupo 973714" transform="translate(9.161 26.931)">
        <g id="Grupo_973672" data-name="Grupo 973672" transform="translate(0.009)">
          <path id="Trazado_651024" data-name="Trazado 651024" d="M810.837,5313.8l.373-19.267c-3.419-3.36-5.245-4.365-10-4.929-.5-.058-.931-.1-1.3-.143l-.408-3.173-11.678-.662.584,3.766h0a28.7,28.7,0,0,0-4.537.869c-4.537.869-7.8,4.175-8.709,7.227-.747,2.511-5.541,21.13-5.541,21.13l-.975,5.62,10.708-3.888-.008,4.046.027,14.867H811.9C811.985,5335.726,810.837,5313.8,810.837,5313.8Z" transform="translate(-768.646 -5285.632)" fill="#449c6e"/>
        </g>
        <g id="Grupo_973673" data-name="Grupo 973673" transform="translate(0.009)" opacity="0.2">
          <path id="Trazado_651025" data-name="Trazado 651025" d="M810.837,5313.8l.373-19.267c-3.419-3.36-5.245-4.365-10-4.929-.5-.058-.931-.1-1.3-.143l-.408-3.173-11.678-.662.584,3.766h0a28.7,28.7,0,0,0-4.537.869c-4.537.869-7.8,4.175-8.709,7.227-.747,2.511-5.541,21.13-5.541,21.13l-.975,5.62,10.708-3.888-.008,4.046.027,14.867H811.9C811.985,5335.726,810.837,5313.8,810.837,5313.8Z" transform="translate(-768.646 -5285.632)"/>
        </g>
        <g id="Grupo_973675" data-name="Grupo 973675" transform="translate(0 30.982)">
          <g id="Grupo_973674" data-name="Grupo 973674">
            <path id="Trazado_651026" data-name="Trazado 651026" d="M773.533,5340.344l16.032-2.278,3.047,5.458-14.9,6.719a6.437,6.437,0,0,1-2.644.569h0a6.433,6.433,0,0,1-5.952-3.992l-.482-1.175Z" transform="translate(-768.631 -5338.066)" fill="#367c58"/>
          </g>
        </g>
        <g id="Grupo_973677" data-name="Grupo 973677" transform="translate(0 30.982)" opacity="0.2">
          <g id="Grupo_973676" data-name="Grupo 973676">
            <path id="Trazado_651027" data-name="Trazado 651027" d="M773.533,5340.344l16.032-2.278,3.047,5.458-14.9,6.719a6.437,6.437,0,0,1-2.644.569h0a6.433,6.433,0,0,1-5.952-3.992l-.482-1.175Z" transform="translate(-768.631 -5338.066)"/>
          </g>
        </g>
        <g id="Grupo_973679" data-name="Grupo 973679" transform="translate(35.194 5.154)">
          <g id="Grupo_973678" data-name="Grupo 973678">
            <path id="Trazado_651028" data-name="Trazado 651028" d="M830.66,5294.355a11.826,11.826,0,0,1,6.433,5.9c1.241,2.843,3.066,16.527,3.066,16.527l2.3,4.437a7.487,7.487,0,0,1,.84,3.444v.676a7.483,7.483,0,0,1-1.678,4.722h0a7.483,7.483,0,0,1-5.142,2.732c-2.3.2-5.075.3-5.668-.381a28.767,28.767,0,0,1-2.617-4.414l6.7-3.557-2.884-5.341Z" transform="translate(-828.194 -5294.355)" fill="#449c6e"/>
          </g>
        </g>
        <g id="Grupo_973681" data-name="Grupo 973681" transform="translate(35.194 5.154)" opacity="0.2">
          <g id="Grupo_973680" data-name="Grupo 973680">
            <path id="Trazado_651029" data-name="Trazado 651029" d="M830.66,5294.355a11.826,11.826,0,0,1,6.433,5.9c1.241,2.843,3.066,16.527,3.066,16.527l2.3,4.437a7.487,7.487,0,0,1,.84,3.444v.676a7.483,7.483,0,0,1-1.678,4.722h0a7.483,7.483,0,0,1-5.142,2.732c-2.3.2-5.075.3-5.668-.381a28.767,28.767,0,0,1-2.617-4.414l6.7-3.557-2.884-5.341Z" transform="translate(-828.194 -5294.355)"/>
          </g>
        </g>
        <g id="Grupo_973684" data-name="Grupo 973684" transform="translate(4.442 30.827)">
          <g id="Grupo_973683" data-name="Grupo 973683">
            <g id="Grupo_973682" data-name="Grupo 973682">
              <path id="Trazado_651030" data-name="Trazado 651030" d="M781.9,5349.632a1.314,1.314,0,0,1,.259-.146l.768-.373c.7-.331,1.677-.783,2.877-1.343l9.823-4.485-.066.2-1.881-3.364-1.168-2.094.142.075c-4.641.454-8.753.858-11.745,1.152l-3.49.312-.943.071a1.415,1.415,0,0,1-.33.006,1.612,1.612,0,0,1,.324-.06l.938-.122,3.482-.4c2.989-.318,7.1-.753,11.735-1.248l.095-.01.047.083,1.17,2.094c.643,1.152,1.27,2.279,1.876,3.366l.076.137-.143.063-9.865,4.392c-1.215.527-2.2.956-2.912,1.266l-.788.329A1.357,1.357,0,0,1,781.9,5349.632Z" transform="translate(-776.148 -5337.804)" fill="#263238"/>
            </g>
          </g>
        </g>
        <g id="Grupo_973687" data-name="Grupo 973687" transform="translate(12.895 18.874)">
          <g id="Grupo_973686" data-name="Grupo 973686">
            <g id="Grupo_973685" data-name="Grupo 973685">
              <path id="Trazado_651031" data-name="Trazado 651031" d="M790.6,5330.375c-.081,0-.147-2.866-.147-6.4s.066-6.4.147-6.4.147,2.866.147,6.4S790.683,5330.375,790.6,5330.375Z" transform="translate(-790.455 -5317.573)" fill="#263238"/>
            </g>
          </g>
        </g>
        <g id="Grupo_973690" data-name="Grupo 973690" transform="translate(36.732 35.862)">
          <g id="Grupo_973689" data-name="Grupo 973689">
            <g id="Grupo_973688" data-name="Grupo 973688">
              <path id="Trazado_651032" data-name="Trazado 651032" d="M834.7,5346.418a1.456,1.456,0,0,1,.488-.075,4.51,4.51,0,0,1,1.352.08,1.605,1.605,0,0,1,.848.48,2.216,2.216,0,0,1,.443,1.021,2.373,2.373,0,0,1-.109,1.222,2.269,2.269,0,0,1-.811,1.04,6.069,6.069,0,0,1-2.322.829,10.575,10.575,0,0,1-1.988.193,3.574,3.574,0,0,1-1.8-.315,9.357,9.357,0,0,0,1.8.108,11.992,11.992,0,0,0,1.938-.251,6.128,6.128,0,0,0,2.2-.8,2.09,2.09,0,0,0,.462-2.89,1.414,1.414,0,0,0-.716-.435,5.332,5.332,0,0,0-1.294-.167A1.707,1.707,0,0,1,834.7,5346.418Z" transform="translate(-830.796 -5346.326)" fill="#263238"/>
            </g>
          </g>
        </g>
        <g id="Grupo_973693" data-name="Grupo 973693" transform="translate(36.727 40.597)">
          <g id="Grupo_973692" data-name="Grupo 973692">
            <g id="Grupo_973691" data-name="Grupo 973691">
              <path id="Trazado_651033" data-name="Trazado 651033" d="M837.355,5357.449a3.388,3.388,0,0,1-1.152.135,7.318,7.318,0,0,1-2.769-.459,5.97,5.97,0,0,1-1.378-.734,3.292,3.292,0,0,1-.851-.962,2.512,2.512,0,0,1-.411-1.09c.047-.019.2.4.586.978a3.43,3.43,0,0,0,.837.856,6.528,6.528,0,0,0,1.325.679,8.68,8.68,0,0,0,2.667.525A6.785,6.785,0,0,1,837.355,5357.449Z" transform="translate(-830.788 -5354.338)" fill="#263238"/>
            </g>
          </g>
        </g>
        <g id="Grupo_973696" data-name="Grupo 973696" transform="translate(40.598 29.815)">
          <g id="Grupo_973695" data-name="Grupo 973695">
            <g id="Grupo_973694" data-name="Grupo 973694">
              <path id="Trazado_651034" data-name="Trazado 651034" d="M843.238,5336.1a5.534,5.534,0,0,1-.791.95c-.515.565-1.241,1.332-2.054,2.166s-1.563,1.581-2.115,2.109a5.276,5.276,0,0,1-.937.815,5.179,5.179,0,0,1,.788-.96c.514-.566,1.239-1.333,2.053-2.169A28.505,28.505,0,0,1,843.238,5336.1Z" transform="translate(-837.339 -5336.093)" fill="#263238"/>
            </g>
          </g>
        </g>
        <g id="Grupo_973699" data-name="Grupo 973699" transform="translate(39.049 19.51)">
          <g id="Grupo_973698" data-name="Grupo 973698">
            <g id="Grupo_973697" data-name="Grupo 973697">
              <path id="Trazado_651035" data-name="Trazado 651035" d="M834.864,5325.97a45.6,45.6,0,0,1,0-7.319,45.789,45.789,0,0,1,0,7.319Z" transform="translate(-834.717 -5318.651)" fill="#263238"/>
            </g>
          </g>
        </g>
        <g id="Grupo_973701" data-name="Grupo 973701" transform="translate(9.359 7.482)">
          <g id="Grupo_973700" data-name="Grupo 973700">
            <path id="Trazado_651036" data-name="Trazado 651036" d="M816.7,5298.449c0,.085-7.214.153-16.111.153s-16.113-.067-16.113-.153,7.213-.154,16.113-.154S816.7,5298.364,816.7,5298.449Z" transform="translate(-784.471 -5298.294)" fill="#fafafa"/>
          </g>
        </g>
        <g id="Grupo_973703" data-name="Grupo 973703" transform="translate(19.837 3.757)">
          <g id="Grupo_973702" data-name="Grupo 973702">
            <path id="Trazado_651037" data-name="Trazado 651037" d="M813.318,5292.179a100.617,100.617,0,0,1-11.114-.064,99.982,99.982,0,0,1,11.114.064Z" transform="translate(-802.204 -5291.989)" fill="#263238"/>
          </g>
        </g>
        <g id="Grupo_973705" data-name="Grupo 973705" transform="translate(5.954 13.992)">
          <g id="Grupo_973704" data-name="Grupo 973704">
            <path id="Trazado_651038" data-name="Trazado 651038" d="M817.843,5309.466c0,.084-8.761.154-19.567.154s-19.569-.069-19.569-.154,8.76-.155,19.569-.155S817.843,5309.381,817.843,5309.466Z" transform="translate(-778.707 -5309.312)" fill="#fafafa"/>
          </g>
        </g>
        <g id="Grupo_973707" data-name="Grupo 973707" transform="translate(4.001 20.686)">
          <g id="Grupo_973706" data-name="Grupo 973706">
            <path id="Trazado_651039" data-name="Trazado 651039" d="M817.7,5320.793c0,.086-9.469.154-21.147.154s-21.15-.068-21.15-.154,9.467-.153,21.15-.153S817.7,5320.708,817.7,5320.793Z" transform="translate(-775.403 -5320.64)" fill="#fafafa"/>
          </g>
        </g>
        <g id="Grupo_973709" data-name="Grupo 973709" transform="translate(2.421 27.193)">
          <g id="Grupo_973708" data-name="Grupo 973708">
            <path id="Trazado_651040" data-name="Trazado 651040" d="M817.364,5331.807c0,.085-9.993.153-22.317.153s-22.319-.068-22.319-.153,9.991-.154,22.319-.154S817.364,5331.722,817.364,5331.807Z" transform="translate(-772.729 -5331.653)" fill="#fafafa"/>
          </g>
        </g>
        <g id="Grupo_973711" data-name="Grupo 973711" transform="translate(0.469 37.79)">
          <g id="Grupo_973710" data-name="Grupo 973710">
            <path id="Trazado_651041" data-name="Trazado 651041" d="M819.032,5349.742c0,.084-11.106.154-24.8.154s-24.8-.069-24.8-.154,11.1-.154,24.8-.154S819.032,5349.657,819.032,5349.742Z" transform="translate(-769.425 -5349.588)" fill="#fafafa"/>
          </g>
        </g>
        <g id="Grupo_973713" data-name="Grupo 973713" transform="translate(10.23 45.227)">
          <g id="Grupo_973712" data-name="Grupo 973712">
            <path id="Trazado_651042" data-name="Trazado 651042" d="M818.666,5362.327c0,.085-7.326.154-16.36.154s-16.362-.069-16.362-.154,7.324-.153,16.362-.153S818.666,5362.242,818.666,5362.327Z" transform="translate(-785.944 -5362.174)" fill="#fafafa"/>
          </g>
        </g>
      </g>
      <g id="Grupo_973726" data-name="Grupo 973726" transform="translate(29.438 52.447)">
        <g id="Grupo_973716" data-name="Grupo 973716" transform="translate(0.782 0.98)">
          <g id="Grupo_973715" data-name="Grupo 973715">
            <path id="Trazado_651043" data-name="Trazado 651043" d="M818.59,5332.336l-.348-.261a8,8,0,0,0-6.309-1.458h0a10.978,10.978,0,0,0-4.913,2.306l-2.747,2.261,2.922,5.235,1.988-2.782s1.855,2.517,2.186,2.251a4.232,4.232,0,0,0,.729-1.06l-1.325-1.854,3.18.663,4.637-2.121L816.6,5333l1.987.663Z" transform="translate(-804.273 -5330.474)" fill="#ffbf9d"/>
          </g>
        </g>
        <g id="Grupo_973718" data-name="Grupo 973718">
          <g id="Grupo_973717" data-name="Grupo 973717">
            <path id="Trazado_651044" data-name="Trazado 651044" d="M813.152,5331.178l-10.2,12.357.782.847,16.558-2.524L828.5,5329.5l-.762-.685Z" transform="translate(-802.949 -5328.815)" fill="#263238"/>
          </g>
        </g>
        <g id="Grupo_973720" data-name="Grupo 973720" transform="translate(5.218 5.624)">
          <g id="Grupo_973719" data-name="Grupo 973719">
            <path id="Trazado_651045" data-name="Trazado 651045" d="M827.589,5338.333h0a1.572,1.572,0,0,0-1.472,1.005,3.414,3.414,0,0,1-1,1.605,3.563,3.563,0,0,1-2.676.393c-.669-.328-3.344-2.735-3.813-2.469s-.869.87-.4,1.407,2.943,2.14,2.475,2.674-5.686-1.819-6.488-1.612-1.271.7-.8,1.023,4.014,1.66,4.214,2.128c0,0-5.351-1.4-5.552-1.071s-.535.87,0,1.071,5.151,1.4,5.552,1.6a9.768,9.768,0,0,0,2.063.6,22.3,22.3,0,0,1,2.156.683,4.721,4.721,0,0,0,3.328-.088l.542-.221a2.128,2.128,0,0,0,1.319-2.1l-.11-1.825.584-1.5Z" transform="translate(-811.781 -5338.333)" fill="#ffbf9d"/>
          </g>
        </g>
        <g id="Grupo_973723" data-name="Grupo 973723" transform="translate(0.846 0.794)">
          <g id="Grupo_973722" data-name="Grupo 973722">
            <g id="Grupo_973721" data-name="Grupo 973721">
              <path id="Trazado_651046" data-name="Trazado 651046" d="M829.117,5330.163a1.276,1.276,0,0,1-.306.075l-.885.157-3.263.524-4.846.74-2.858.433a5.467,5.467,0,0,0-2.771,1.123,18.512,18.512,0,0,0-2.019,2.318l-1.812,2.259c-1.153,1.428-2.195,2.717-3.079,3.814l-2.1,2.554-.582.686a1.235,1.235,0,0,1-.219.227,1.332,1.332,0,0,1,.173-.263l.538-.72,2.023-2.613c.871-1.107,1.9-2.412,3.031-3.854l1.8-2.269a18.222,18.222,0,0,1,2.054-2.364,5.715,5.715,0,0,1,2.912-1.182l2.868-.417,4.855-.677,3.277-.432.893-.1A1.318,1.318,0,0,1,829.117,5330.163Z" transform="translate(-804.381 -5330.159)" fill="#455a64"/>
            </g>
          </g>
        </g>
        <g id="Grupo_973725" data-name="Grupo 973725" transform="translate(17.279 3.506)">
          <g id="Grupo_973724" data-name="Grupo 973724">
            <path id="Trazado_651047" data-name="Trazado 651047" d="M832.751,5334.749a1.388,1.388,0,0,0-.459.373.477.477,0,0,0-.02.554.512.512,0,0,0,.683.012.667.667,0,0,0,.265-.4.47.47,0,0,0-.142-.444.364.364,0,0,0-.449-.017" transform="translate(-832.191 -5334.749)" fill="#fafafa"/>
          </g>
        </g>
      </g>
    </g>
    <g id="Grupo_973730" data-name="Grupo 973730" transform="translate(700.315 5192.768)">
      <g id="Grupo_973728" data-name="Grupo 973728">
        <path id="Trazado_651048" data-name="Trazado 651048" d="M731.129,5269.147l-3-5.286a14.159,14.159,0,1,0-3.392,3.773l-.005.007Z" transform="translate(-701.948 -5242.32)" fill="#449c6e"/>
      </g>
      <g id="Grupo_973729" data-name="Grupo 973729" transform="translate(9.212 10.325)">
        <path id="Trazado_651049" data-name="Trazado 651049" d="M717.539,5261.883a1.867,1.867,0,1,1,1.859,2.089A1.876,1.876,0,0,1,717.539,5261.883Zm2.639,0c0-.812-.31-1.2-.781-1.2s-.779.4-.779,1.2.32,1.2.779,1.2S720.178,5262.7,720.178,5261.883Zm3.675-2h1.272l-5.107,7.58h-1.272Zm-1.229,5.577a1.867,1.867,0,1,1,1.848,2.09A1.874,1.874,0,0,1,722.625,5265.457Zm2.628,0c0-.8-.309-1.2-.78-1.2s-.78.389-.78,1.2.321,1.2.78,1.2S725.253,5266.257,725.253,5265.457Z" transform="translate(-717.539 -5259.793)" fill="#fff"/>
      </g>
    </g>
  </g>
</svg>
