<svg xmlns="http://www.w3.org/2000/svg" xmlns:xlink="http://www.w3.org/1999/xlink" width="400" height="148" viewBox="0 0 400 148">
  <defs>
    <clipPath id="clip-path">
      <rect id="Rectángulo_351073" data-name="Rectángulo 351073" width="400" height="148" transform="translate(285 16508)" fill="#fff" stroke="#707070" stroke-width="1"/>
    </clipPath>
  </defs>
  <g id="Enmascarar_grupo_924789" data-name="Enmascarar grupo 924789" transform="translate(-285 -16508)" clip-path="url(#clip-path)">
    <path id="Trazado_656385" data-name="Trazado 656385" d="M4.409,17.529h6.532V20H1.333V5.07H4.409Zm19.359-2.5a5.283,5.283,0,0,1-1.779,3.794,6.248,6.248,0,0,1-4.23,1.384,5.618,5.618,0,0,1-4.517-1.933A7.925,7.925,0,0,1,11.6,12.966v-.913a8.95,8.95,0,0,1,.759-3.794,5.686,5.686,0,0,1,2.169-2.517A6.075,6.075,0,0,1,17.8,4.865,6.087,6.087,0,0,1,21.964,6.25a5.677,5.677,0,0,1,1.825,3.886H20.713a3.118,3.118,0,0,0-.8-2.1A2.981,2.981,0,0,0,17.8,7.388a2.614,2.614,0,0,0-2.3,1.1,6.178,6.178,0,0,0-.784,3.42v1.128a6.612,6.612,0,0,0,.733,3.538,2.565,2.565,0,0,0,2.312,1.118,3.037,3.037,0,0,0,2.128-.651,2.941,2.941,0,0,0,.8-2.015Zm16.478-2.676H31.08V9.931h9.167Zm0,4.44H31.08v-2.42h9.167ZM50.8,8.905l.092,1.282A3.874,3.874,0,0,1,54.079,8.7,3.219,3.219,0,0,1,56.7,9.736a4.832,4.832,0,0,1,.882,3.1V20H54.623V12.9a1.923,1.923,0,0,0-.41-1.369,1.836,1.836,0,0,0-1.364-.426,2.039,2.039,0,0,0-1.876,1.066V20H48.009V8.905Zm19.021,5.65a6.654,6.654,0,0,1-1.164,4.107,3.731,3.731,0,0,1-3.143,1.543,3.456,3.456,0,0,1-2.717-1.169v5.229H59.832V8.905H62.58l.1,1.087A3.483,3.483,0,0,1,65.492,8.7a3.757,3.757,0,0,1,3.189,1.518A6.834,6.834,0,0,1,69.819,14.4Zm-2.963-.215a4.366,4.366,0,0,0-.549-2.389,1.787,1.787,0,0,0-1.594-.841,1.941,1.941,0,0,0-1.917,1.066v4.542a1.973,1.973,0,0,0,1.938,1.1Q66.855,17.816,66.855,14.34Z" transform="translate(446 16514)" fill="#12263f"/>
    <path id="Trazado_656386" data-name="Trazado 656386" d="M4.409,17.529h6.532V20H1.333V5.07H4.409Zm16.037-1.446a1.579,1.579,0,0,0-.615-1.338,8.07,8.07,0,0,0-2.215-.984,15.7,15.7,0,0,1-2.533-1.02,4.138,4.138,0,0,1-2.543-3.7,3.605,3.605,0,0,1,.682-2.158A4.448,4.448,0,0,1,15.181,5.4a7.372,7.372,0,0,1,2.866-.533,6.71,6.71,0,0,1,2.851.579A4.539,4.539,0,0,1,22.841,7.08a4.28,4.28,0,0,1,.692,2.4H20.457a2.013,2.013,0,0,0-.646-1.594A2.655,2.655,0,0,0,18,7.316a2.837,2.837,0,0,0-1.753.477,1.5,1.5,0,0,0-.625,1.256,1.44,1.44,0,0,0,.733,1.22,8.283,8.283,0,0,0,2.158.923,9.326,9.326,0,0,1,3.825,1.958,3.9,3.9,0,0,1,1.2,2.912,3.593,3.593,0,0,1-1.466,3.04,6.419,6.419,0,0,1-3.948,1.1,7.623,7.623,0,0,1-3.138-.631,4.965,4.965,0,0,1-2.158-1.728,4.425,4.425,0,0,1-.743-2.543h3.086q0,2.471,2.953,2.471a2.873,2.873,0,0,0,1.712-.446A1.451,1.451,0,0,0,20.446,16.083Zm16.888-1.056a5.283,5.283,0,0,1-1.779,3.794,6.248,6.248,0,0,1-4.23,1.384,5.618,5.618,0,0,1-4.517-1.933,7.925,7.925,0,0,1-1.646-5.306v-.913a8.95,8.95,0,0,1,.759-3.794,5.686,5.686,0,0,1,2.169-2.517,6.075,6.075,0,0,1,3.276-.877A6.087,6.087,0,0,1,35.53,6.25a5.677,5.677,0,0,1,1.825,3.886H34.279a3.118,3.118,0,0,0-.8-2.1,2.981,2.981,0,0,0-2.107-.651,2.614,2.614,0,0,0-2.3,1.1,6.178,6.178,0,0,0-.784,3.42v1.128a6.612,6.612,0,0,0,.733,3.538,2.565,2.565,0,0,0,2.312,1.118,3.037,3.037,0,0,0,2.128-.651,2.941,2.941,0,0,0,.8-2.015Zm16.478-2.676H44.646V9.931h9.167Zm0,4.44H44.646v-2.42h9.167ZM64.364,8.905l.092,1.282A3.874,3.874,0,0,1,67.645,8.7,3.219,3.219,0,0,1,70.27,9.736a4.832,4.832,0,0,1,.882,3.1V20H68.188V12.9a1.923,1.923,0,0,0-.41-1.369,1.836,1.836,0,0,0-1.364-.426,2.039,2.039,0,0,0-1.876,1.066V20H61.575V8.905Zm19.021,5.65a6.654,6.654,0,0,1-1.164,4.107,3.731,3.731,0,0,1-3.143,1.543,3.456,3.456,0,0,1-2.717-1.169v5.229H73.4V8.905h2.748l.1,1.087A3.483,3.483,0,0,1,79.058,8.7a3.757,3.757,0,0,1,3.189,1.518A6.834,6.834,0,0,1,83.385,14.4Zm-2.963-.215a4.366,4.366,0,0,0-.549-2.389,1.787,1.787,0,0,0-1.594-.841,1.941,1.941,0,0,0-1.917,1.066v4.542a1.973,1.973,0,0,0,1.938,1.1Q80.421,17.816,80.421,14.34Zm16.006-2.7h3.7v2.676h-3.7V18.5h-2.82V14.319H89.9V11.643h3.712V7.634h2.82Zm13.607-.42h1.579a2.225,2.225,0,0,0,1.671-.564,2.067,2.067,0,0,0,.543-1.5,1.827,1.827,0,0,0-.538-1.4,2.086,2.086,0,0,0-1.482-.5,2.187,2.187,0,0,0-1.425.467,1.492,1.492,0,0,0-.574,1.215h-2.963a3.644,3.644,0,0,1,.631-2.1,4.2,4.2,0,0,1,1.764-1.451,5.886,5.886,0,0,1,2.5-.523A5.582,5.582,0,0,1,115.449,6a3.866,3.866,0,0,1,1.343,3.122,3.141,3.141,0,0,1-.625,1.887,4.064,4.064,0,0,1-1.641,1.323,3.71,3.71,0,0,1,1.882,1.354,3.672,3.672,0,0,1,.62,2.133,3.93,3.93,0,0,1-1.451,3.189,5.834,5.834,0,0,1-3.84,1.2,5.531,5.531,0,0,1-3.656-1.179,3.851,3.851,0,0,1-1.42-3.117h2.963a1.717,1.717,0,0,0,.631,1.374,2.631,2.631,0,0,0,3.209-.026,1.929,1.929,0,0,0,.6-1.482q0-2.235-2.461-2.235h-1.569Z" transform="translate(355 16572)" fill="#12263f"/>
    <path id="Trazado_656387" data-name="Trazado 656387" d="M4.409,17.529h6.532V20H1.333V5.07H4.409ZM15.976,20H12.9V5.07h3.076Zm14.571-4.973a5.283,5.283,0,0,1-1.779,3.794,6.248,6.248,0,0,1-4.23,1.384,5.618,5.618,0,0,1-4.517-1.933,7.925,7.925,0,0,1-1.646-5.306v-.913a8.95,8.95,0,0,1,.759-3.794A5.686,5.686,0,0,1,21.3,5.742a6.075,6.075,0,0,1,3.276-.877A6.087,6.087,0,0,1,28.742,6.25a5.677,5.677,0,0,1,1.825,3.886H27.491a3.118,3.118,0,0,0-.8-2.1,2.981,2.981,0,0,0-2.107-.651,2.614,2.614,0,0,0-2.3,1.1,6.178,6.178,0,0,0-.784,3.42v1.128a6.612,6.612,0,0,0,.733,3.538,2.565,2.565,0,0,0,2.312,1.118,3.037,3.037,0,0,0,2.128-.651,2.941,2.941,0,0,0,.8-2.015Zm16.478-2.676H37.857V9.931h9.167Zm0,4.44H37.857v-2.42h9.167ZM57.576,8.905l.092,1.282A3.874,3.874,0,0,1,60.857,8.7a3.219,3.219,0,0,1,2.625,1.036,4.832,4.832,0,0,1,.882,3.1V20H61.4V12.9a1.923,1.923,0,0,0-.41-1.369,1.836,1.836,0,0,0-1.364-.426,2.039,2.039,0,0,0-1.876,1.066V20H54.787V8.905ZM76.6,14.555a6.654,6.654,0,0,1-1.164,4.107,3.731,3.731,0,0,1-3.143,1.543,3.456,3.456,0,0,1-2.717-1.169v5.229H66.609V8.905h2.748l.1,1.087A3.483,3.483,0,0,1,72.27,8.7a3.757,3.757,0,0,1,3.189,1.518A6.834,6.834,0,0,1,76.6,14.4Zm-2.963-.215a4.366,4.366,0,0,0-.549-2.389,1.787,1.787,0,0,0-1.594-.841,1.941,1.941,0,0,0-1.917,1.066v4.542a1.973,1.973,0,0,0,1.938,1.1Q73.633,17.816,73.633,14.34Zm15.791.461H83.651V12.412h5.773Zm10.5-3.579H101.5a2.225,2.225,0,0,0,1.671-.564,2.067,2.067,0,0,0,.543-1.5,1.827,1.827,0,0,0-.538-1.4,2.086,2.086,0,0,0-1.482-.5,2.187,2.187,0,0,0-1.425.467A1.492,1.492,0,0,0,99.7,8.936H96.735a3.644,3.644,0,0,1,.631-2.1A4.2,4.2,0,0,1,99.13,5.388a5.886,5.886,0,0,1,2.5-.523A5.582,5.582,0,0,1,105.338,6a3.866,3.866,0,0,1,1.343,3.122,3.141,3.141,0,0,1-.625,1.887,4.064,4.064,0,0,1-1.641,1.323,3.71,3.71,0,0,1,1.882,1.354,3.672,3.672,0,0,1,.62,2.133,3.93,3.93,0,0,1-1.451,3.189,5.834,5.834,0,0,1-3.84,1.2,5.531,5.531,0,0,1-3.656-1.179,3.851,3.851,0,0,1-1.42-3.117h2.963a1.717,1.717,0,0,0,.631,1.374,2.631,2.631,0,0,0,3.209-.026,1.929,1.929,0,0,0,.6-1.482q0-2.235-2.461-2.235H99.924Z" transform="translate(362 16618)" fill="#12263f"/>
    <path id="Trazado_656241" data-name="Trazado 656241" d="M-7819.9,4528.32l-7.495-18.081,1.848-.766,5.728,13.818,13.593-30.028H-7709v2h-95.933Z" transform="translate(8315 12071)" fill="#12263f"/>
    <path id="Trazado_656384" data-name="Trazado 656384" d="M3.866,8.905l.092,1.282A3.874,3.874,0,0,1,7.147,8.7,3.219,3.219,0,0,1,9.772,9.736a4.832,4.832,0,0,1,.882,3.1V20H7.69V12.9a1.923,1.923,0,0,0-.41-1.369,1.836,1.836,0,0,0-1.364-.426A2.039,2.039,0,0,0,4.04,12.176V20H1.077V8.905Zm19.021,5.65a6.654,6.654,0,0,1-1.164,4.107,3.731,3.731,0,0,1-3.143,1.543,3.456,3.456,0,0,1-2.717-1.169v5.229H12.9V8.905h2.748l.1,1.087A3.483,3.483,0,0,1,18.56,8.7a3.757,3.757,0,0,1,3.189,1.518A6.834,6.834,0,0,1,22.887,14.4Zm-2.963-.215a4.366,4.366,0,0,0-.549-2.389,1.787,1.787,0,0,0-1.594-.841,1.941,1.941,0,0,0-1.917,1.066v4.542a1.973,1.973,0,0,0,1.938,1.1Q19.923,17.816,19.923,14.34Zm10.162-.41a15.736,15.736,0,0,1,.625-4.471A11.8,11.8,0,0,1,32.556,5.7,6.892,6.892,0,0,1,35.2,3.43l.574,1.6a7.137,7.137,0,0,0-2.338,3.425,15.858,15.858,0,0,0-.841,5.414v.318a16.161,16.161,0,0,0,.831,5.435A7.276,7.276,0,0,0,35.776,23.1L35.2,24.666a6.9,6.9,0,0,1-2.6-2.21A11.6,11.6,0,0,1,30.762,18.8a15.643,15.643,0,0,1-.677-4.327ZM44.4,20H41.436V8.577L37.9,9.674V7.265L44.082,5.05H44.4Zm15.965-5.2H54.592V12.412h5.773Zm17.6-.246A6.654,6.654,0,0,1,76.8,18.662a3.731,3.731,0,0,1-3.143,1.543,3.456,3.456,0,0,1-2.717-1.169v5.229H67.973V8.905h2.748l.1,1.087A3.483,3.483,0,0,1,73.633,8.7a3.757,3.757,0,0,1,3.189,1.518A6.834,6.834,0,0,1,77.96,14.4ZM75,14.34a4.366,4.366,0,0,0-.549-2.389,1.787,1.787,0,0,0-1.594-.841,1.941,1.941,0,0,0-1.917,1.066v4.542a1.973,1.973,0,0,0,1.938,1.1Q75,17.816,75,14.34Zm9.905-.174a14.932,14.932,0,0,1-.667,4.46,12.108,12.108,0,0,1-1.917,3.784,6.908,6.908,0,0,1-2.676,2.256L79.068,23.1a7.21,7.21,0,0,0,2.3-3.384,15.669,15.669,0,0,0,.872-5.26v-.543a16.024,16.024,0,0,0-.836-5.4A7.516,7.516,0,0,0,79.068,5l.574-1.569a6.911,6.911,0,0,1,2.63,2.194,11.952,11.952,0,0,1,1.917,3.7A14.826,14.826,0,0,1,84.9,13.7Z" transform="translate(512 16572)" fill="#12263f"/>
    <path id="Trazado_656383" data-name="Trazado 656383" d="M3.866,8.905l.092,1.282A3.874,3.874,0,0,1,7.147,8.7,3.219,3.219,0,0,1,9.772,9.736a4.832,4.832,0,0,1,.882,3.1V20H7.69V12.9a1.923,1.923,0,0,0-.41-1.369,1.836,1.836,0,0,0-1.364-.426A2.039,2.039,0,0,0,4.04,12.176V20H1.077V8.905Zm19.021,5.65a6.654,6.654,0,0,1-1.164,4.107,3.731,3.731,0,0,1-3.143,1.543,3.456,3.456,0,0,1-2.717-1.169v5.229H12.9V8.905h2.748l.1,1.087A3.483,3.483,0,0,1,18.56,8.7a3.757,3.757,0,0,1,3.189,1.518A6.834,6.834,0,0,1,22.887,14.4Zm-2.963-.215a4.366,4.366,0,0,0-.549-2.389,1.787,1.787,0,0,0-1.594-.841,1.941,1.941,0,0,0-1.917,1.066v4.542a1.973,1.973,0,0,0,1.938,1.1Q19.923,17.816,19.923,14.34Zm10.162-.41a15.736,15.736,0,0,1,.625-4.471A11.8,11.8,0,0,1,32.556,5.7,6.892,6.892,0,0,1,35.2,3.43l.574,1.6a7.137,7.137,0,0,0-2.338,3.425,15.858,15.858,0,0,0-.841,5.414v.318a16.161,16.161,0,0,0,.831,5.435A7.276,7.276,0,0,0,35.776,23.1L35.2,24.666a6.9,6.9,0,0,1-2.6-2.21A11.6,11.6,0,0,1,30.762,18.8a15.643,15.643,0,0,1-.677-4.327ZM44.4,20H41.436V8.577L37.9,9.674V7.265L44.082,5.05H44.4Zm15.965-5.2H54.592V12.412h5.773Zm17.6-.246A6.654,6.654,0,0,1,76.8,18.662a3.731,3.731,0,0,1-3.143,1.543,3.456,3.456,0,0,1-2.717-1.169v5.229H67.973V8.905h2.748l.1,1.087A3.483,3.483,0,0,1,73.633,8.7a3.757,3.757,0,0,1,3.189,1.518A6.834,6.834,0,0,1,77.96,14.4ZM75,14.34a4.366,4.366,0,0,0-.549-2.389,1.787,1.787,0,0,0-1.594-.841,1.941,1.941,0,0,0-1.917,1.066v4.542a1.973,1.973,0,0,0,1.938,1.1Q75,17.816,75,14.34Zm9.905-.174a14.932,14.932,0,0,1-.667,4.46,12.108,12.108,0,0,1-1.917,3.784,6.908,6.908,0,0,1-2.676,2.256L79.068,23.1a7.21,7.21,0,0,0,2.3-3.384,15.669,15.669,0,0,0,.872-5.26v-.543a16.024,16.024,0,0,0-.836-5.4A7.516,7.516,0,0,0,79.068,5l.574-1.569a6.911,6.911,0,0,1,2.63,2.194,11.952,11.952,0,0,1,1.917,3.7A14.826,14.826,0,0,1,84.9,13.7Z" transform="translate(512 16618)" fill="#12263f"/>
    <path id="Trazado_656242" data-name="Trazado 656242" d="M-7819.9,4528.32l-7.495-18.081,1.848-.766,5.728,13.818,13.593-30.028H-7709v2h-95.933Z" transform="translate(8315 12120)" fill="#12263f"/>
  </g>
</svg>
