<svg id="Grupo_944042" data-name="Grupo 944042" xmlns="http://www.w3.org/2000/svg" width="85" height="85" viewBox="0 0 85 85">
  <rect id="Rectángulo_306095" data-name="Rectángulo 306095" width="85" height="85" fill="none"/>
  <g id="plan-de-negocios" transform="translate(9.26 10.608)">
    <g id="Grupo_91597" data-name="Grupo 91597" transform="translate(0.974 0.974)">
      <g id="Grupo_91596" data-name="Grupo 91596" transform="translate(12.24)">
        <path id="Trazado_115621" data-name="Trazado 115621" d="M244.752,373.064a1.679,1.679,0,0,0,1.678-1.678V355.741L244.752,355l-1.679.741v15.644A1.679,1.679,0,0,0,244.752,373.064Z" transform="translate(-224.725 -311.227)" fill="#678d98"/>
        <path id="Trazado_115622" data-name="Trazado 115622" d="M334.477,373.064a1.737,1.737,0,0,0,1.605-1.074l6.718-16.249L341.554,355l-2.514.741-6.169,14.921a1.737,1.737,0,0,0,1.605,2.4Z" transform="translate(-332.738 -311.227)" fill="#678d98"/>
        <path id="Trazado_115623" data-name="Trazado 115623" d="M110.09,373.064a1.737,1.737,0,0,1-1.606-1.074l-6.718-16.249,1.852-.741,1.908.741,6.169,14.921A1.737,1.737,0,0,1,110.09,373.064Z" transform="translate(-71.777 -311.227)" fill="#678d98"/>
        <path id="Trazado_115624" data-name="Trazado 115624" d="M244.752,17.883a1.679,1.679,0,0,1,1.678,1.679V24.4l-1.678.731-1.679-.731V19.562A1.679,1.679,0,0,1,244.752,17.883Z" transform="translate(-224.725 -17.883)" fill="#678d98"/>
      </g>
      <path id="Trazado_115625" data-name="Trazado 115625" d="M7.5,70.073v33.935a2.033,2.033,0,0,0,2.033,2.033H70a2.033,2.033,0,0,0,2.033-2.033V70.073A2.033,2.033,0,0,0,70,68.04H9.533A2.033,2.033,0,0,0,7.5,70.073Z" transform="translate(-7.5 -61.527)" fill="#eaf6ff"/>
      <path id="Trazado_115626" data-name="Trazado 115626" d="M460.5,70.073v33.935a2.033,2.033,0,0,0,2.033,2.033h3.68a2.034,2.034,0,0,1-2.035-2.033V70.073a2.034,2.034,0,0,1,2.035-2.033h-3.68A2.033,2.033,0,0,0,460.5,70.073Z" transform="translate(-460.5 -61.527)" fill="#c8effe"/>
      <path id="Trazado_115627" data-name="Trazado 115627" d="M52.27,112v3.937a2.587,2.587,0,0,0,2.588,2.587h7.985a2.587,2.587,0,0,0,2.587-2.587V112a2.587,2.587,0,0,0-2.587-2.586H54.858A2.587,2.587,0,0,0,52.27,112Z" transform="translate(-6.71 -97.526)" fill="#5986cb"/>
      <path id="Trazado_115628" data-name="Trazado 115628" d="M105.74,112v3.937a2.587,2.587,0,0,0,2.588,2.587h3.629a2.587,2.587,0,0,1-2.588-2.587V112a2.587,2.587,0,0,1,2.588-2.586h-3.629A2.587,2.587,0,0,0,105.74,112Z" transform="translate(-60.18 -97.526)" fill="#4278c3"/>
      <path id="Trazado_115629" data-name="Trazado 115629" d="M125.67,151.674v2.972a1.953,1.953,0,0,0,1.954,1.953h6.03a1.952,1.952,0,0,0,1.953-1.953v-2.972a1.953,1.953,0,0,0-1.953-1.954h-6.03A1.954,1.954,0,0,0,125.67,151.674Z" transform="translate(-86.418 -132.602)" fill="#fff9df"/>
      <path id="Trazado_115630" data-name="Trazado 115630" d="M164.43,151.674v2.972a1.953,1.953,0,0,0,1.954,1.953h2.95a1.952,1.952,0,0,1-1.953-1.953v-2.972a1.953,1.953,0,0,1,1.953-1.954h-2.95A1.954,1.954,0,0,0,164.43,151.674Z" transform="translate(-125.178 -132.602)" fill="#fff0ad"/>
      <path id="Trazado_115631" data-name="Trazado 115631" d="M309.778,68.04V99.2a2.146,2.146,0,0,0,2.146,2.145h16.07a2.146,2.146,0,0,0,2.145-2.145V68.04Z" transform="translate(-304.855 -61.527)" fill="#fff9df"/>
      <path id="Trazado_115632" data-name="Trazado 115632" d="M419.418,68.04V99.2a2.146,2.146,0,0,0,2.146,2.145h3.978A2.145,2.145,0,0,1,423.4,99.2V68.04Z" transform="translate(-414.495 -61.527)" fill="#fff0ad"/>
      <path id="Trazado_115633" data-name="Trazado 115633" d="M350.288,45.022v2.389a2.061,2.061,0,0,0,2.061,2.062h5.717a2.062,2.062,0,0,0,2.062-2.062V45.022a2.062,2.062,0,0,0-2.062-2.062h-5.717A2.061,2.061,0,0,0,350.288,45.022Z" transform="translate(-340.104 -39.704)" fill="#7ca1b1"/>
      <path id="Trazado_115634" data-name="Trazado 115634" d="M385.768,45.022v2.389a2.061,2.061,0,0,0,2.061,2.062H391a2.062,2.062,0,0,1-2.062-2.062V45.022A2.062,2.062,0,0,1,391,42.96h-3.172A2.061,2.061,0,0,0,385.768,45.022Z" transform="translate(-375.584 -39.704)" fill="#678d98"/>
      <path id="Trazado_115635" data-name="Trazado 115635" d="M345.193,123.868h-3.357v3.357h3.357Z" transform="translate(-324.072 -110.106)" fill="#4278c3"/>
      <path id="Trazado_115636" data-name="Trazado 115636" d="M345.193,209.421h-3.357v3.357h3.357Z" transform="translate(-324.072 -184.551)" fill="#ffd064"/>
      <path id="Trazado_115637" data-name="Trazado 115637" d="M345.193,265.124h-3.357v3.357h3.357Z" transform="translate(-324.072 -233.021)" fill="#4278c3"/>
    </g>
    <g id="Grupo_91598" data-name="Grupo 91598">
      <path id="Trazado_115638" data-name="Trazado 115638" d="M3.008,16.9h7.176a3.1,3.1,0,0,1,3.035-3.256h5.717A3.1,3.1,0,0,1,21.971,16.9h8.617v-3.86a2.652,2.652,0,0,1,5.3,0V16.9h27.58A3.011,3.011,0,0,1,66.48,19.9V53.837a3.011,3.011,0,0,1-3.008,3.008H48.42L54.033,70.42a2.711,2.711,0,0,1-5.011,2.072l-1.778-4.3a.974.974,0,0,1,1.8-.744l1.778,4.3a.764.764,0,0,0,1.411-.583l-5.92-14.32H44.661l2.6,6.286a.974.974,0,0,1-1.8.744l-2.906-7.03h-6.66v14.67a2.652,2.652,0,0,1-5.3,0V56.845h-6.66L17.459,72.492a2.711,2.711,0,0,1-5.011-2.072L18.06,56.845H12.069a.974.974,0,1,1,0-1.948h51.4a1.061,1.061,0,0,0,1.06-1.06V19.9a1.061,1.061,0,0,0-1.06-1.06H27.231V49.025a3.123,3.123,0,0,1-3.12,3.12H8.043a3.123,3.123,0,0,1-3.12-3.12V18.843H3.008a1.061,1.061,0,0,0-1.06,1.06V53.837a1.061,1.061,0,0,0,1.06,1.06H7.4a.974.974,0,1,1,0,1.948H3.008A3.011,3.011,0,0,1,0,53.837V19.9A3.011,3.011,0,0,1,3.008,16.9Zm17.16,39.949-5.92,14.32a.764.764,0,0,0,1.411.583l6.161-14.9Zm12.368,0v14.67a.705.705,0,0,0,1.409,0V56.845ZM20.023,16.675a1.089,1.089,0,0,0-1.088-1.088H13.219a1.089,1.089,0,0,0-1.088,1.088v2.39a1.089,1.089,0,0,0,1.088,1.088h5.717a1.089,1.089,0,0,0,1.088-1.088Zm13.922.221v-3.86a.705.705,0,0,0-1.409,0V16.9ZM6.871,49.025A1.174,1.174,0,0,0,8.043,50.2H24.112a1.174,1.174,0,0,0,1.172-1.172V18.843H21.971A3.1,3.1,0,0,1,18.936,22.1H13.219a3.1,3.1,0,0,1-3.035-3.256H6.87V49.025Z" transform="translate(0 -10.383)"/>
      <path id="Trazado_115639" data-name="Trazado 115639" d="M67.873,254.532H46.744a.974.974,0,1,1,0-1.948H66.9v-8.023a.974.974,0,0,1,1.948,0v9A.974.974,0,0,1,67.873,254.532Z" transform="translate(-8.31 -213.308)"/>
      <path id="Trazado_115640" data-name="Trazado 115640" d="M78.113,196.042a.974.974,0,0,1,1.377-1.377l5.553,5.553H88.8l2.471-1.361a.974.974,0,0,1,1.158.164l2.533,2.533h2.415a.973.973,0,0,1,.689.285l4.523,4.523a.974.974,0,1,1-1.377,1.377L96.972,203.5H94.557a.973.973,0,0,1-.689-.285l-2.3-2.3-2.05,1.129a.974.974,0,0,1-.47.121H84.641a.973.973,0,0,1-.689-.285Z" transform="translate(-46.497 -170.488)"/>
      <path id="Trazado_115641" data-name="Trazado 115641" d="M338.667,121.673H335.31a.974.974,0,0,1-.974-.974v-3.357a.974.974,0,0,1,.974-.974h3.357a.974.974,0,0,1,.974.974V120.7A.974.974,0,0,1,338.667,121.673Zm-.974-3.357h-1.409v1.409h1.409Z" transform="translate(-316.572 -102.606)"/>
      <path id="Trazado_115642" data-name="Trazado 115642" d="M335.31,201.92h3.357a.974.974,0,0,1,.974.974v3.357a.974.974,0,0,1-.974.974H335.31a.974.974,0,0,1-.974-.974v-3.357A.974.974,0,0,1,335.31,201.92Zm.974,3.357h1.409v-1.409h-1.409Z" transform="translate(-316.572 -177.05)"/>
      <path id="Trazado_115643" data-name="Trazado 115643" d="M335.31,257.624h3.357a.974.974,0,0,1,.974.974v3.357a.974.974,0,0,1-.974.974H335.31a.974.974,0,0,1-.974-.974V258.6A.974.974,0,0,1,335.31,257.624Zm.974,3.357h1.409v-1.409h-1.409Z" transform="translate(-316.572 -225.521)"/>
      <path id="Trazado_115644" data-name="Trazado 115644" d="M392.824,129.294a.974.974,0,1,1,0,1.948h-5.461a.974.974,0,1,1,0-1.948Z" transform="translate(-377.487 -113.854)"/>
      <path id="Trazado_115645" data-name="Trazado 115645" d="M387.363,214.848h5.461a.974.974,0,1,1,0,1.948h-5.461a.974.974,0,1,1,0-1.948Z" transform="translate(-377.487 -188.299)"/>
      <path id="Trazado_115646" data-name="Trazado 115646" d="M412.528,270.551h2.193a.974.974,0,0,1,0,1.948h-2.193a.974.974,0,0,1,0-1.948Z" transform="translate(-402.652 -236.77)"/>
      <path id="Trazado_115647" data-name="Trazado 115647" d="M344.038,174.019H335.31a.974.974,0,0,1,0-1.948h8.728a.974.974,0,1,1,0,1.948Z" transform="translate(-321.943 -151.077)"/>
      <ellipse id="Elipse_5232" data-name="Elipse 5232" cx="1.007" cy="1.007" rx="1.007" ry="1.007" transform="translate(16.088 35.945) rotate(-166.7)"/>
      <ellipse id="Elipse_5233" data-name="Elipse 5233" cx="1.007" cy="1.007" rx="1.007" ry="1.007" transform="translate(9.31 23.285) rotate(-112.514)"/>
      <path id="Trazado_115648" data-name="Trazado 115648" d="M182.141,112.167h10.128a.974.974,0,0,1,0,1.948H182.141a.974.974,0,0,1,0-1.948Z" transform="translate(-150.286 -98.951)"/>
      <path id="Trazado_115649" data-name="Trazado 115649" d="M231.834,148.474a.974.974,0,0,1,.974-.974h3.549a.974.974,0,0,1,0,1.948h-3.549A.974.974,0,0,1,231.834,148.474Z" transform="translate(-200.953 -129.696)"/>
      <path id="Trazado_115650" data-name="Trazado 115650" d="M62.623,103.858H54.638a1.608,1.608,0,0,0-1.258.6.974.974,0,1,1-1.516-1.223,3.548,3.548,0,0,1,2.773-1.326h7.985a3.564,3.564,0,0,1,3.56,3.56v3.937a3.564,3.564,0,0,1-3.56,3.56h-5.97a2.964,2.964,0,0,1-2.927,3H47.7a2.931,2.931,0,0,1-2.927-2.927v-2.973a2.931,2.931,0,0,1,2.927-2.927h6.03a2.931,2.931,0,0,1,2.927,2.927v.948h5.97a1.615,1.615,0,0,0,1.613-1.613V105.47a1.615,1.615,0,0,0-1.613-1.613Zm-15.907,6.214v2.973a.981.981,0,0,0,.98.98h6.03a1,1,0,0,0,.98-1.056,3.649,3.649,0,0,1-3.629-3.876H47.7A.981.981,0,0,0,46.717,110.072Zm7.989,0a.981.981,0,0,0-.98-.98h-.7c0,1.013.541,1.961,1.682,1.928Z" transform="translate(-5.516 -90.026)"/>
    </g>
  </g>
</svg>
