<svg xmlns="http://www.w3.org/2000/svg" width="262.49" height="254.453" viewBox="0 0 262.49 254.453">
  <g id="Grupo_973149" data-name="Grupo 973149" transform="translate(-713.305 -3548.519)">
    <g id="Grupo_973019" data-name="Grupo 973019" transform="translate(767.418 3548.519)">
      <path id="Rectángulo_308728" data-name="Rectángulo 308728" d="M2.746,0H36.474A2.746,2.746,0,0,1,39.22,2.746V36.475a2.746,2.746,0,0,1-2.746,2.746H2.747A2.747,2.747,0,0,1,0,36.474V2.746A2.746,2.746,0,0,1,2.746,0Z" fill="#f0f0f0"/>
      <path id="Trazado_650171" data-name="Trazado 650171" d="M835.031,3563.895h-.047a7.791,7.791,0,0,0-2.406.19,6.782,6.782,0,0,0,2.155.187c-.122.126-.3.313-.519.557l-1.907,2.139-6.277,7.225-2.65-1.772-1.372-.913-.139-.093-.109.127c-2.8,3.277-5.281,6.2-7.05,8.319l-2.073,2.507a7.6,7.6,0,0,0-.718.945,7.433,7.433,0,0,0,.824-.854l2.161-2.431c1.8-2.045,4.268-4.895,7.033-8.113l1.232.823c.956.635,1.888,1.257,2.79,1.856l.138.092.106-.125,6.286-7.434,1.822-2.211c.234-.29.4-.5.5-.642h.026a6.821,6.821,0,0,0,.188,2.171,7.6,7.6,0,0,0,.189-2.359v-.19Z" transform="translate(-803.959 -3554.216)" fill="#e0e0e0"/>
    </g>
    <g id="Grupo_973020" data-name="Grupo 973020" transform="translate(878.67 3550.833)">
      <path id="Trazado_650172" data-name="Trazado 650172" d="M995.205,3578.815h19.187a19.187,19.187,0,1,1-19.63-19.181Z" transform="translate(-976.019 -3554.952)" fill="#f0f0f0"/>
      <path id="Trazado_650173" data-name="Trazado 650173" d="M1014.461,3571.381l-.433-19.186a20.237,20.237,0,0,1,13.814,5.436,19.725,19.725,0,0,1,5.8,13.452Z" transform="translate(-990.103 -3552.195)" fill="#ebebeb"/>
    </g>
    <g id="Grupo_973022" data-name="Grupo 973022" transform="translate(905.637 3652.583)">
      <path id="Trazado_650174" data-name="Trazado 650174" d="M1018.894,3714.936c-.11,3.521.092,14.273.092,14.273l3.172-3.171h17.695a1.124,1.124,0,0,0,1.125-1.124v-9.945a1.124,1.124,0,0,0-1.125-1.124h-19.835A1.125,1.125,0,0,0,1018.894,3714.936Z" transform="translate(-1018.861 -3713.844)" fill="#ebebeb"/>
      <g id="Grupo_973021" data-name="Grupo 973021" transform="translate(7.42 5.284)">
        <path id="Trazado_650175" data-name="Trazado 650175" d="M1032.315,3723.072a.833.833,0,1,1-.832-.833A.833.833,0,0,1,1032.315,3723.072Z" transform="translate(-1030.649 -3722.239)" fill="#e0e0e0"/>
        <path id="Trazado_650176" data-name="Trazado 650176" d="M1036.771,3723.072a.833.833,0,1,1-.832-.833A.833.833,0,0,1,1036.771,3723.072Z" transform="translate(-1032.301 -3722.239)" fill="#e0e0e0"/>
        <path id="Trazado_650177" data-name="Trazado 650177" d="M1041.228,3723.072a.833.833,0,1,1-.833-.833A.833.833,0,0,1,1041.228,3723.072Z" transform="translate(-1033.952 -3722.239)" fill="#e0e0e0"/>
      </g>
    </g>
    <path id="Trazado_650178" data-name="Trazado 650178" d="M789.694,3760.634c.469-6.129,4.98-15.609,10.514-18.283a18.019,18.019,0,0,1,17.569,1.264c3.471,2.343,6.1,5.91,9.9,7.675,7.509,3.487,16.417-1.453,21.661-7.859s8.532-14.355,14.463-20.132a29.969,29.969,0,0,1,42.861,1.072c4.035,4.343,6.681,9.76,9.919,14.724s7.4,9.732,13.035,11.59c7.739,2.552,16.473-1.2,21.949-7.231s8.318-13.959,10.689-21.755,4.463-15.826,8.822-22.712,11.529-12.583,19.675-12.8V3760.4Z" transform="translate(-28.306 -51.012)" fill="#f0f0f0"/>
    <g id="Grupo_973023" data-name="Grupo 973023" transform="translate(713.305 3802.645)">
      <path id="Trazado_650179" data-name="Trazado 650179" d="M975.795,3952.409c0,.091-58.765.164-131.238.164-72.5,0-131.251-.074-131.251-.164s58.752-.163,131.251-.163C917.03,3952.245,975.795,3952.319,975.795,3952.409Z" transform="translate(-713.305 -3952.245)" fill="#263238"/>
    </g>
    <g id="Grupo_973024" data-name="Grupo 973024" transform="translate(895.324 3599.716)">
      <path id="Trazado_650180" data-name="Trazado 650180" d="M1033.121,3674.647a2.255,2.255,0,0,0,.377-.076,1.245,1.245,0,0,0,.771-.757,2.213,2.213,0,0,0,.07-.82q0-.465-.008-1.014c0-.735-.01-1.581-.015-2.532-.013-3.822-.03-9.331-.052-16.135-.006-3.407-.013-7.137-.02-11.141q0-3-.008-6.207,0-1.6,0-3.246c-.008-.537.016-1.128-.019-1.63a1.109,1.109,0,0,0-1.02-.914l-29.291.009a1.1,1.1,0,0,0-1.1,1.063q0,.968,0,1.927,0,1.924,0,3.824,0,3.8,0,7.476c0,4.9-.006,9.63-.009,14.134s-.011,8.783-.015,12.789q0,.751,0,1.489a5.739,5.739,0,0,0,.019.709,1.125,1.125,0,0,0,.844.89,3.248,3.248,0,0,0,.681.033l1.409,0,5.346.011,16.134.052,4.386.031,1.141.016c.258.006.389.017.389.017s-.131.01-.389.016l-1.141.016-4.386.031-16.134.052-5.346.011-1.409,0a3.45,3.45,0,0,1-.742-.038,1.391,1.391,0,0,1-1.044-1.1,5.688,5.688,0,0,1-.026-.757q0-.738,0-1.489c0-4.006-.01-8.285-.015-12.789s-.006-9.232-.009-14.134q0-3.676,0-7.476,0-1.9,0-3.824,0-.965,0-1.937a1.428,1.428,0,0,1,1.424-1.381l29.311.018a1.409,1.409,0,0,1,1.294,1.164c.043.6.011,1.122.02,1.682q0,1.645,0,3.246,0,3.2-.008,6.207c-.008,4-.014,7.734-.02,11.141-.022,6.8-.04,12.313-.052,16.135-.006.95-.011,1.8-.015,2.532q0,.548-.007,1.014a2.251,2.251,0,0,1-.09.842,1.272,1.272,0,0,1-.823.767A.976.976,0,0,1,1033.121,3674.647Z" transform="translate(-1002.476 -3629.855)" fill="#263238"/>
    </g>
    <g id="Grupo_973025" data-name="Grupo 973025" transform="translate(902.985 3608.436)">
      <path id="Trazado_650181" data-name="Trazado 650181" d="M1025.091,3643.963c-4.282-.95-8.98,1.375-10.183,5.786a8.442,8.442,0,0,0,16.174,4.827c1.527-4.526-1.377-9.4-5.754-10.845-.508-.167-.71.614-.219.794,3.731,1.367,6.413,5.4,5.3,9.43a7.692,7.692,0,0,1-15.011-3.255c.575-4.524,5.365-7.235,9.628-6.494.157.028.228-.208.067-.243Z" transform="translate(-1014.647 -3643.708)" fill="#263238"/>
    </g>
    <g id="Grupo_973026" data-name="Grupo 973026" transform="translate(908.998 3608.02)">
      <path id="Trazado_650182" data-name="Trazado 650182" d="M1024.376,3659.711a8.661,8.661,0,0,0,10.72-5.684,9.118,9.118,0,0,0-6.118-10.938c-1.034-.316-1.4,1.21-.438,1.587,3.794,1.485,6.308,5.6,4.808,9.632-1.333,3.588-5.265,5.321-8.906,4.907-.292-.033-.328.415-.067.5Z" transform="translate(-1024.2 -3643.047)" fill="#449c6e"/>
    </g>
    <g id="Grupo_973027" data-name="Grupo 973027" transform="translate(902.71 3632.045)">
      <path id="Trazado_650183" data-name="Trazado 650183" d="M1031.613,3681.379c0,.091-3.9.164-8.7.164s-8.7-.073-8.7-.164,3.9-.163,8.7-.163S1031.613,3681.289,1031.613,3681.379Z" transform="translate(-1014.211 -3681.216)" fill="#449c6e"/>
    </g>
    <g id="Grupo_973028" data-name="Grupo 973028" transform="translate(902.71 3634.684)">
      <path id="Trazado_650184" data-name="Trazado 650184" d="M1031.613,3685.573c0,.09-3.9.165-8.7.165s-8.7-.074-8.7-.165,3.9-.164,8.7-.164S1031.613,3685.483,1031.613,3685.573Z" transform="translate(-1014.211 -3685.409)" fill="#449c6e"/>
    </g>
    <g id="Grupo_973040" data-name="Grupo 973040" transform="translate(801.496 3568.129)">
      <path id="Trazado_650185" data-name="Trazado 650185" d="M853.413,3584.038v58.2a2.341,2.341,0,0,0,2.341,2.341h77.523a2.34,2.34,0,0,0,2.34-2.341v-60.222a2.34,2.34,0,0,0-2.4-2.34l-77.522,2.023A2.341,2.341,0,0,0,853.413,3584.038Z" transform="translate(-853.413 -3579.674)" fill="#e0e0e0"/>
      <g id="Grupo_973029" data-name="Grupo 973029" transform="translate(4.7 12.252)">
        <path id="Trazado_650186" data-name="Trazado 650186" d="M931.463,3601.435c-.03.061-.988-.495-2.868-1.089a18.435,18.435,0,0,0-8.226-.611,18,18,0,0,0-5.425,1.744,25.539,25.539,0,0,0-5.334,3.836c-1.749,1.544-3.485,3.3-5.488,4.916a18.917,18.917,0,0,1-7,3.79,10.581,10.581,0,0,1-4.09.247,13.231,13.231,0,0,1-3.789-1.17,66.227,66.227,0,0,1-6.348-3.775,19.787,19.787,0,0,0-5.971-2.677,17.713,17.713,0,0,0-5.679-.435,18.288,18.288,0,0,0-7.84,2.552c-1.682,1.028-2.476,1.8-2.52,1.747a3.841,3.841,0,0,1,.57-.56,13.593,13.593,0,0,1,1.825-1.389,17.889,17.889,0,0,1,13.763-2.407,20.127,20.127,0,0,1,6.145,2.689,67.859,67.859,0,0,0,6.306,3.712,10.8,10.8,0,0,0,7.48.875,18.5,18.5,0,0,0,6.78-3.666c1.971-1.584,3.715-3.325,5.49-4.872a25.684,25.684,0,0,1,5.478-3.866,18.166,18.166,0,0,1,13.952-.907,14.6,14.6,0,0,1,2.107.906A4.046,4.046,0,0,1,931.463,3601.435Z" transform="translate(-860.88 -3599.138)" fill="#455a64"/>
      </g>
      <g id="Grupo_973032" data-name="Grupo 973032" transform="translate(8.496 16.177)">
        <g id="Grupo_973030" data-name="Grupo 973030">
          <rect id="Rectángulo_308729" data-name="Rectángulo 308729" width="7.583" height="20.508" transform="translate(9.813 12.043)" fill="#455a64"/>
          <rect id="Rectángulo_308730" data-name="Rectángulo 308730" width="7.583" height="20.508" transform="translate(41.989 12.043)" fill="#455a64"/>
          <rect id="Rectángulo_308731" data-name="Rectángulo 308731" width="7.583" height="32.551" transform="translate(52.714)" fill="#455a64"/>
          <rect id="Rectángulo_308732" data-name="Rectángulo 308732" width="7.583" height="6.902" transform="translate(0 26.095)" fill="#455a64"/>
          <rect id="Rectángulo_308733" data-name="Rectángulo 308733" width="7.583" height="11.247" transform="translate(20.538 21.304)" fill="#455a64"/>
          <rect id="Rectángulo_308734" data-name="Rectángulo 308734" width="7.583" height="13.829" transform="translate(31.264 18.722)" fill="#455a64"/>
        </g>
      </g>
      <g id="Grupo_973039" data-name="Grupo 973039" transform="translate(8.567 50.839)">
        <g id="Grupo_973033" data-name="Grupo 973033" transform="translate(9.436 0.001)">
          <path id="Trazado_650188" data-name="Trazado 650188" d="M890.208,3660.748a27.734,27.734,0,0,1-8.193,0c0-.169,1.833-.3,4.1-.3S890.208,3660.579,890.208,3660.748Z" transform="translate(-882.015 -3660.443)" fill="#263238"/>
        </g>
        <g id="Grupo_973034" data-name="Grupo 973034" transform="translate(0 0.001)">
          <path id="Trazado_650189" data-name="Trazado 650189" d="M875.218,3660.748a27.739,27.739,0,0,1-8.194,0c0-.169,1.834-.3,4.1-.3S875.218,3660.579,875.218,3660.748Z" transform="translate(-867.024 -3660.443)" fill="#263238"/>
        </g>
        <g id="Grupo_973035" data-name="Grupo 973035" transform="translate(52.458 0.001)">
          <path id="Trazado_650190" data-name="Trazado 650190" d="M959.625,3660.748c0,.168-2.073.3-4.631.3s-4.631-.136-4.631-.3,2.073-.3,4.631-.3S959.625,3660.579,959.625,3660.748Z" transform="translate(-950.363 -3660.443)" fill="#263238"/>
        </g>
        <g id="Grupo_973036" data-name="Grupo 973036" transform="translate(41.193 0)">
          <ellipse id="Elipse_7757" data-name="Elipse 7757" cx="4.631" cy="0.305" rx="4.631" ry="0.305" fill="#263238"/>
        </g>
        <g id="Grupo_973037" data-name="Grupo 973037" transform="translate(30.581)">
          <path id="Trazado_650191" data-name="Trazado 650191" d="M923.8,3660.748a27.739,27.739,0,0,1-8.194,0c0-.169,1.834-.305,4.1-.305S923.8,3660.579,923.8,3660.748Z" transform="translate(-915.608 -3660.442)" fill="#263238"/>
        </g>
        <g id="Grupo_973038" data-name="Grupo 973038" transform="translate(19.499)">
          <path id="Trazado_650192" data-name="Trazado 650192" d="M906.2,3660.748a27.743,27.743,0,0,1-8.194,0c0-.169,1.835-.305,4.1-.305S906.2,3660.579,906.2,3660.748Z" transform="translate(-898.002 -3660.442)" fill="#263238"/>
        </g>
      </g>
    </g>
    <g id="Grupo_973041" data-name="Grupo 973041" transform="translate(796.698 3644.68)">
      <path id="Trazado_650193" data-name="Trazado 650193" d="M911.568,3701.445a.835.835,0,0,1,.13,0,1.013,1.013,0,0,1,.371.108,1.079,1.079,0,0,1,.454.446,1.676,1.676,0,0,1,.13.868c.008,1.337.018,3.289.031,5.8s.017,5.608.028,9.189q.006,2.689.013,5.741,0,.762,0,1.546,0,.392,0,.789a1.484,1.484,0,0,1-.152.831,1.165,1.165,0,0,1-.687.542,3.681,3.681,0,0,1-.848.048l-1.672,0,.118-.117c0,1.815.006,3.776.009,5.806v.334l-.222-.25-5.141-5.8.1.046-53.014.027h-3.7c-.211,0-.394.006-.629-.005a1.214,1.214,0,0,1-1.041-.838,1.259,1.259,0,0,1-.057-.347v-3.951q0-4.83,0-9.51t0-9.179l0-1.128a1.207,1.207,0,0,1,.66-1.027,1.252,1.252,0,0,1,.607-.131h1.657l4.349,0,30.443.035,20.524.052,5.579.031,1.451.016c.327.006.495.017.495.017s-.168.011-.495.017l-1.451.016-5.579.031-20.524.052-30.443.036-4.349,0h-1.657a.922.922,0,0,0-.467.1.9.9,0,0,0-.489.762v1.116q0,4.5,0,9.179t0,9.51v3.642a1.8,1.8,0,0,0,.043.556.89.89,0,0,0,.76.613c.173.008.4,0,.6,0h3.7l53.014.028h.062l.041.046,5.127,5.813-.221.083c0-2.03.006-3.99.009-5.806v-.118h.117l1.672,0a3.609,3.609,0,0,0,.786-.036.94.94,0,0,0,.555-.435,1.268,1.268,0,0,0,.126-.72q0-.4,0-.789,0-.784,0-1.546.007-3.048.013-5.741c.011-3.581.02-6.665.028-9.189s.024-4.468.031-5.8a1.64,1.64,0,0,0-.107-.845,1.061,1.061,0,0,0-.424-.44A1.285,1.285,0,0,0,911.568,3701.445Z" transform="translate(-845.791 -3701.289)" fill="#263238"/>
    </g>
    <path id="Trazado_650194" data-name="Trazado 650194" d="M851.4,3726.679a13.892,13.892,0,0,1,2.373-5.2,5.232,5.232,0,0,1,5.081-1.982c2.935.756,4.355,4.666,7.359,5.067a5.071,5.071,0,0,0,4.348-2.061,27.7,27.7,0,0,0,2.549-4.321,12.543,12.543,0,0,1,5.175-5.328,6.887,6.887,0,0,1,7.14.448c3.387,2.667,2.915,8.555,6.525,10.913a5.226,5.226,0,0,0,5.817-.173c1.6-1.186,2.423-3.239,4.107-4.3a5.635,5.635,0,0,1,6.426.737,9.64,9.64,0,0,1,3.026,6.054" transform="translate(-51.172 -60.608)" fill="#449c6e"/>
    <g id="Grupo_973042" data-name="Grupo 973042" transform="translate(801.446 3654.183)">
      <path id="Trazado_650195" data-name="Trazado 650195" d="M910.829,3717.689a.6.6,0,0,1-.148-.057l-.417-.2a10.954,10.954,0,0,0-1.672-.563,13.379,13.379,0,0,0-6.42.187,24.531,24.531,0,0,0-4.2,1.562c-1.466.68-2.986,1.508-4.6,2.35a36.609,36.609,0,0,1-5.245,2.325,15.307,15.307,0,0,1-6.1.852,20.251,20.251,0,0,1-5.979-1.51c-1.852-.741-3.56-1.622-5.187-2.439a31.107,31.107,0,0,0-8.986-3.394,12.846,12.846,0,0,0-6.4.467,12.259,12.259,0,0,0-2.136,1.051.585.585,0,0,1,.122-.1l.378-.267a8.777,8.777,0,0,1,1.591-.8,12.688,12.688,0,0,1,6.478-.577,30.767,30.767,0,0,1,9.086,3.353c1.633.811,3.335,1.681,5.171,2.411a20.112,20.112,0,0,0,5.885,1.482,15.088,15.088,0,0,0,5.977-.829,36.873,36.873,0,0,0,5.208-2.29c1.618-.833,3.149-1.652,4.629-2.327a24.287,24.287,0,0,1,4.256-1.54,13.194,13.194,0,0,1,6.507-.085A7.353,7.353,0,0,1,910.829,3717.689Z" transform="translate(-853.334 -3716.387)" fill="#263238"/>
    </g>
    <g id="Grupo_973043" data-name="Grupo 973043" transform="translate(805.812 3650.811)">
      <path id="Trazado_650196" data-name="Trazado 650196" d="M899.278,3711.691a.662.662,0,1,1-.662-.661A.662.662,0,0,1,899.278,3711.691Z" transform="translate(-874.233 -3711.029)" fill="#455a64"/>
      <path id="Trazado_650197" data-name="Trazado 650197" d="M861.593,3716.137a.662.662,0,1,1-.662-.662A.662.662,0,0,1,861.593,3716.137Z" transform="translate(-860.269 -3712.677)" fill="#455a64"/>
      <path id="Trazado_650198" data-name="Trazado 650198" d="M936.568,3716.143a.662.662,0,1,1-.661-.662A.662.662,0,0,1,936.568,3716.143Z" transform="translate(-888.051 -3712.678)" fill="#455a64"/>
    </g>
    <path id="Trazado_650199" data-name="Trazado 650199" d="M980.96,3861.009h5.9c2.748,0,8.647-7.236-23.357-6.409-21.037.542-22.418,3.648-21.353,5.461a2.617,2.617,0,0,0,2.462,1.229c.512-.037,1.193-.045,2-.042l-.5,2.22h0L934.4,3915.221l2.041-.177,8.646-28.5,16.5-.632.943,30.288h2.588l.624-30.447.079,0,1.744-.067,14.626-.562,8.664,31.078h2.483ZM946.315,3882.5l5.773-19.028.654-2.155h0c2.421,0,5.247-.055,8.075-.055l.647,20.763Zm21.755-.682h0l-.64.02-1.609.051.427-20.877h9.22l5.686,20.4Z" transform="translate(-81.926 -113.394)" fill="#455a64"/>
    <g id="Grupo_973044" data-name="Grupo 973044" transform="translate(838.235 3792.484)">
      <path id="Trazado_650200" data-name="Trazado 650200" d="M919.866,3942.873v-6.689l11.987-.081.1,10-.744.056c-3.306.214-16.826.628-19.042-.058C909.7,3945.339,919.866,3942.873,919.866,3942.873Z" transform="translate(-911.779 -3936.103)" fill="#449c6e"/>
    </g>
    <g id="Grupo_973046" data-name="Grupo 973046" transform="translate(838.338 3801.668)">
      <g id="Grupo_973045" data-name="Grupo 973045" transform="translate(0 0)">
        <path id="Trazado_650201" data-name="Trazado 650201" d="M911.944,3950.9c0,.113,4.484.2,10.014.2s10.015-.091,10.015-.2-4.483-.2-10.015-.2S911.944,3950.786,911.944,3950.9Z" transform="translate(-911.944 -3950.694)" fill="#263238"/>
      </g>
    </g>
    <g id="Grupo_973048" data-name="Grupo 973048" transform="translate(845.198 3799.391)">
      <g id="Grupo_973047" data-name="Grupo 973047" transform="translate(0 0)">
        <path id="Trazado_650202" data-name="Trazado 650202" d="M923.754,3948.3c.1-.052.014-.405-.244-.754s-.57-.535-.648-.457.084.375.32.7S923.653,3948.358,923.754,3948.3Z" transform="translate(-922.841 -3947.077)" fill="#263238"/>
      </g>
    </g>
    <g id="Grupo_973050" data-name="Grupo 973050" transform="translate(844.5 3799.596)">
      <g id="Grupo_973049" data-name="Grupo 973049" transform="translate(0 0)">
        <path id="Trazado_650203" data-name="Trazado 650203" d="M922.578,3948.866c.1-.039.05-.436-.186-.853s-.546-.668-.634-.6.062.412.279.8S922.472,3948.906,922.578,3948.866Z" transform="translate(-921.733 -3947.403)" fill="#263238"/>
      </g>
    </g>
    <g id="Grupo_973052" data-name="Grupo 973052" transform="translate(854.744 3799.479)">
      <g id="Grupo_973051" data-name="Grupo 973051" transform="translate(0)">
        <path id="Trazado_650204" data-name="Trazado 650204" d="M938.018,3949.565c.047.032.225-.144.485-.438a7.844,7.844,0,0,1,1.051-1.053,2.768,2.768,0,0,1,1.3-.567c.364-.048.6.008.624-.051.021-.043-.2-.21-.633-.237a2.388,2.388,0,0,0-1.536.531,4.378,4.378,0,0,0-1.035,1.207C938.066,3949.3,937.973,3949.533,938.018,3949.565Z" transform="translate(-938.007 -3947.216)" fill="#263238"/>
      </g>
    </g>
    <g id="Grupo_973054" data-name="Grupo 973054" transform="translate(846.064 3799.312)">
      <g id="Grupo_973053" data-name="Grupo 973053" transform="translate(0 0)">
        <path id="Trazado_650205" data-name="Trazado 650205" d="M924.227,3947c-.059.094.147.326.489.451s.65.083.665-.028-.225-.242-.525-.354S924.286,3946.9,924.227,3947Z" transform="translate(-924.217 -3946.951)" fill="#263238"/>
      </g>
    </g>
    <g id="Grupo_973056" data-name="Grupo 973056" transform="translate(846.262 3798.521)">
      <g id="Grupo_973055" data-name="Grupo 973055">
        <path id="Trazado_650206" data-name="Trazado 650206" d="M924.532,3945.888c-.011.113.308.208.713.214s.726-.082.719-.194-.327-.208-.714-.212S924.543,3945.776,924.532,3945.888Z" transform="translate(-924.532 -3945.695)" fill="#263238"/>
      </g>
    </g>
    <g id="Grupo_973057" data-name="Grupo 973057" transform="translate(863.539 3792.484)">
      <path id="Trazado_650207" data-name="Trazado 650207" d="M960.066,3942.873v-6.689l11.987-.081.1,10-.743.056c-3.307.214-16.827.628-19.043-.058C949.9,3945.339,960.066,3942.873,960.066,3942.873Z" transform="translate(-951.979 -3936.103)" fill="#449c6e"/>
    </g>
    <g id="Grupo_973059" data-name="Grupo 973059" transform="translate(863.642 3801.668)">
      <g id="Grupo_973058" data-name="Grupo 973058" transform="translate(0 0)">
        <path id="Trazado_650208" data-name="Trazado 650208" d="M952.144,3950.9c0,.113,4.484.2,10.014.2s10.015-.091,10.015-.2-4.483-.2-10.015-.2S952.144,3950.786,952.144,3950.9Z" transform="translate(-952.144 -3950.694)" fill="#263238"/>
      </g>
    </g>
    <g id="Grupo_973061" data-name="Grupo 973061" transform="translate(870.501 3799.391)">
      <g id="Grupo_973060" data-name="Grupo 973060" transform="translate(0 0)">
        <path id="Trazado_650209" data-name="Trazado 650209" d="M963.954,3948.3c.1-.052.014-.405-.244-.754s-.57-.535-.648-.457.084.375.32.7S963.854,3948.358,963.954,3948.3Z" transform="translate(-963.041 -3947.077)" fill="#263238"/>
      </g>
    </g>
    <g id="Grupo_973063" data-name="Grupo 973063" transform="translate(869.804 3799.596)">
      <g id="Grupo_973062" data-name="Grupo 973062" transform="translate(0 0)">
        <path id="Trazado_650210" data-name="Trazado 650210" d="M962.778,3948.866c.1-.039.05-.436-.186-.853s-.547-.668-.633-.6.061.412.278.8S962.672,3948.906,962.778,3948.866Z" transform="translate(-961.933 -3947.403)" fill="#263238"/>
      </g>
    </g>
    <g id="Grupo_973065" data-name="Grupo 973065" transform="translate(880.048 3799.479)">
      <g id="Grupo_973064" data-name="Grupo 973064" transform="translate(0)">
        <path id="Trazado_650211" data-name="Trazado 650211" d="M978.219,3949.565c.047.032.225-.144.484-.438a7.9,7.9,0,0,1,1.052-1.053,2.764,2.764,0,0,1,1.3-.567c.364-.048.6.008.624-.051.021-.043-.2-.21-.633-.237a2.387,2.387,0,0,0-1.536.531,4.384,4.384,0,0,0-1.035,1.207C978.266,3949.3,978.173,3949.533,978.219,3949.565Z" transform="translate(-978.208 -3947.216)" fill="#263238"/>
      </g>
    </g>
    <g id="Grupo_973067" data-name="Grupo 973067" transform="translate(871.368 3799.312)">
      <g id="Grupo_973066" data-name="Grupo 973066" transform="translate(0 0)">
        <path id="Trazado_650212" data-name="Trazado 650212" d="M964.427,3947c-.059.094.147.326.489.451s.65.083.666-.028-.225-.242-.525-.354S964.486,3946.9,964.427,3947Z" transform="translate(-964.417 -3946.951)" fill="#263238"/>
      </g>
    </g>
    <g id="Grupo_973069" data-name="Grupo 973069" transform="translate(871.566 3798.521)">
      <g id="Grupo_973068" data-name="Grupo 973068">
        <path id="Trazado_650213" data-name="Trazado 650213" d="M964.732,3945.888c-.011.113.308.208.713.214s.727-.082.719-.194-.327-.208-.713-.212S964.743,3945.776,964.732,3945.888Z" transform="translate(-964.732 -3945.695)" fill="#263238"/>
      </g>
    </g>
    <path id="Trazado_650214" data-name="Trazado 650214" d="M1008.7,3743.019c-.493-.109-1.105-.046-1.4-.458-.268-.374-.081-.888.075-1.322a6.27,6.27,0,0,0,.043-4.333,4.883,4.883,0,0,0-1.8-2.272,2.048,2.048,0,0,0,.3-.391,2.714,2.714,0,0,0,.34-1.375,3.034,3.034,0,0,0-.921-2.3,1.46,1.46,0,0,0-1.97-.025,1,1,0,0,0-.028,1.466.915.915,0,0,0,.957.12.447.447,0,0,0,.242-.24,1.14,1.14,0,0,1-.269.179.8.8,0,0,1-.771-1.4,1.26,1.26,0,0,1,1.691.075,2.814,2.814,0,0,1,.8,2.116,2.438,2.438,0,0,1-.315,1.229,1.771,1.771,0,0,1-.308.375,4.09,4.09,0,0,0-1.081-.442,10.576,10.576,0,0,1-2.441-.533,2.964,2.964,0,0,1-1.324-1.588c0-.074-.013-.146-.012-.22a31.2,31.2,0,0,1,.453-3.264,10.009,10.009,0,0,0-.085-3.127,5.87,5.87,0,0,0-3-4.218,4.1,4.1,0,0,0-3.5-.063,3.175,3.175,0,0,0-.809.537c-.059.058-.094.1-.13.136a2.887,2.887,0,0,0-.96.77l-1.943,17.485,14.224,8.694a10.607,10.607,0,0,0,3.242-.657,3.586,3.586,0,0,0,2.165-2.356A2.2,2.2,0,0,0,1008.7,3743.019Zm-9.34-18.311a5.487,5.487,0,0,0-2.889-3.142,3.755,3.755,0,0,0-2.876.05,3.664,3.664,0,0,1,.834-.483,4.034,4.034,0,0,1,3.341.153,5.67,5.67,0,0,1,2.805,4.068,9.827,9.827,0,0,1,.063,3.031c-.078.785-.3,1.58-.4,2.427a16.824,16.824,0,0,1-.133-1.8A13.1,13.1,0,0,0,999.363,3724.708Z" transform="translate(-102.729 -63.786)" fill="#263238"/>
    <g id="Grupo_973076" data-name="Grupo 973076" transform="translate(873.93 3649.316)">
      <path id="Trazado_650215" data-name="Trazado 650215" d="M987.339,3720.41a1.533,1.533,0,0,0-.556-.845,2.312,2.312,0,0,0-1.7-.076l-.033-4.012-7.846-6.359L973,3711.3a6.584,6.584,0,0,0-3.553,5.906c.031,3.235.112,7.623.325,10.113.366,4.278,4.7,4.631,4.7,4.631s.186,1.542.316,3.075c0,.008-.952,12.671,3.506,12.558,3.285-.083,5.493-6.99,6.428-10.621l.491-2v-.1l.017-.084-.018,0-.1-12.017.135.138a.93.93,0,0,0,1.036.126,1.917,1.917,0,0,0,1.03-1.1A2.394,2.394,0,0,0,987.339,3720.41Z" transform="translate(-968.841 -3708.826)" fill="#ffbf9d"/>
      <g id="Grupo_973071" data-name="Grupo 973071" transform="translate(1.062 10.234)">
        <path id="Trazado_650216" data-name="Trazado 650216" d="M971.057,3726.611a.548.548,0,1,0,.535-.562A.548.548,0,0,0,971.057,3726.611Z" transform="translate(-970.501 -3725.333)" fill="#263238"/>
        <g id="Grupo_973070" data-name="Grupo 973070">
          <path id="Trazado_650217" data-name="Trazado 650217" d="M970.184,3725.6c.073.07.469-.285,1.059-.331s1.039.227,1.1.148c.03-.036-.047-.165-.244-.294a1.456,1.456,0,0,0-1.723.147C970.2,3725.435,970.149,3725.575,970.184,3725.6Z" transform="translate(-970.174 -3724.913)" fill="#263238"/>
        </g>
      </g>
      <g id="Grupo_973073" data-name="Grupo 973073" transform="translate(7.613 10.041)">
        <path id="Trazado_650218" data-name="Trazado 650218" d="M981.164,3726.311a.548.548,0,1,0,.534-.562A.548.548,0,0,0,981.164,3726.311Z" transform="translate(-980.798 -3725.03)" fill="#263238"/>
        <g id="Grupo_973072" data-name="Grupo 973072">
          <path id="Trazado_650219" data-name="Trazado 650219" d="M980.593,3725.3c.072.069.469-.285,1.059-.331s1.04.227,1.1.146c.03-.036-.047-.164-.244-.293a1.457,1.457,0,0,0-1.722.147C980.611,3725.127,980.558,3725.268,980.593,3725.3Z" transform="translate(-980.583 -3724.606)" fill="#263238"/>
        </g>
      </g>
      <g id="Grupo_973074" data-name="Grupo 973074" transform="translate(4.078 10.654)">
        <path id="Trazado_650220" data-name="Trazado 650220" d="M976.5,3730.731a3.688,3.688,0,0,1-.971.077,1.01,1.01,0,0,1-.258-.017.373.373,0,0,1-.261-.209.959.959,0,0,1,.042-.624q.17-.591.356-1.239a21.522,21.522,0,0,1,1.063-3.14,21.654,21.654,0,0,1-.819,3.213l-.375,1.233a.838.838,0,0,0-.073.474c.031.105.175.125.327.129A3.736,3.736,0,0,1,976.5,3730.731Z" transform="translate(-974.966 -3725.579)" fill="#263238"/>
      </g>
      <path id="Trazado_650221" data-name="Trazado 650221" d="M978.927,3734.53a8.232,8.232,0,0,1-2.908,1.081,1.633,1.633,0,0,0,1.97.508A1.356,1.356,0,0,0,978.927,3734.53Z" transform="translate(-971.278 -3718.241)" fill="#fafafa"/>
      <path id="Trazado_650222" data-name="Trazado 650222" d="M977.422,3744.184a10.707,10.707,0,0,0,5.63-2.055s-1.21,3.177-5.511,3.1Z" transform="translate(-971.798 -3721.057)" fill="#ff9a6c"/>
      <path id="Trazado_650223" data-name="Trazado 650223" d="M968.488,3717.551c1.865.26,3.242-.251,5.069-.711a5.875,5.875,0,0,0,4.2-3.437,6.442,6.442,0,0,0,1.561,3.143c.175.192.5.37.658.161a.468.468,0,0,0,.019-.393q-.189-.749-.377-1.495a12.092,12.092,0,0,0,2.487,3.116c1.043.835,4.219,2.132,3.739.885-.121-.312.943-10.022-8.284-10.166S968.488,3717.551,968.488,3717.551Z" transform="translate(-968.488 -3708.654)" fill="#263238"/>
      <g id="Grupo_973075" data-name="Grupo 973075" transform="translate(16.347 11.452)">
        <path id="Trazado_650224" data-name="Trazado 650224" d="M994.464,3727.058c-.026-.027.16-.221.556-.21a1.032,1.032,0,0,1,0,2.062c-.4.009-.581-.185-.555-.212.023-.046.224.046.528-.019a.814.814,0,0,0,0-1.6C994.687,3727.012,994.486,3727.1,994.464,3727.058Z" transform="translate(-994.458 -3726.847)" fill="#ff9a6c"/>
      </g>
    </g>
    <path id="Trazado_650225" data-name="Trazado 650225" d="M992.4,3765.745l1.586-.321s-3.456-15.536-15.465-15.536c-.5,0-.98,0-1.443,0,0,0-.007.034-.016.081v.1l-.492,2c-.935,3.632-3.143,10.538-6.428,10.621-4.159.106-3.611-10.9-3.517-12.388a1.018,1.018,0,0,0-.3.08s-13.062.727-18.858,12.183l10.07,7.358,2.464-1.488s.8,16.2-.58,20.614c-1.565,4.989-3.981,10.51-3.981,10.51,11.077-.863,23.668-.37,37.1.871l-8.973-32.894A30.591,30.591,0,0,0,992.4,3765.745Z" transform="translate(-86.767 -74.617)" fill="#449c6e"/>
    <g id="Grupo_973096" data-name="Grupo 973096" transform="translate(868.185 3679.254)">
      <g id="Grupo_973077" data-name="Grupo 973077" transform="translate(16.632 19.278)">
        <path id="Trazado_650226" data-name="Trazado 650226" d="M995.794,3787.209c.014.015-.079.144-.28.351a5.637,5.637,0,0,1-.952.765,6.637,6.637,0,0,1-7.63-.277,5.621,5.621,0,0,1-.893-.832c-.185-.221-.269-.357-.254-.37.043-.04.449.452,1.282,1.012a6.879,6.879,0,0,0,7.375.269C995.313,3787.628,995.755,3787.167,995.794,3787.209Z" transform="translate(-985.784 -3786.844)" fill="#263238"/>
      </g>
      <g id="Grupo_973078" data-name="Grupo 973078" transform="translate(26.162 8.408)">
        <path id="Trazado_650227" data-name="Trazado 650227" d="M1007.224,3789.451a4,4,0,0,1-.274-.776c-.171-.567-.386-1.285-.642-2.14-.537-1.809-1.284-4.305-2.152-7.048s-1.7-5.216-2.3-7c-.282-.847-.519-1.557-.708-2.12a3.913,3.913,0,0,1-.221-.792,4.03,4.03,0,0,1,.342.748c.2.488.477,1.2.806,2.085.66,1.77,1.522,4.233,2.393,6.981s1.583,5.258,2.063,7.083c.24.914.424,1.656.541,2.17A3.948,3.948,0,0,1,1007.224,3789.451Z" transform="translate(-1000.925 -3769.574)" fill="#263238"/>
      </g>
      <g id="Grupo_973079" data-name="Grupo 973079" transform="translate(25.525 2.134)">
        <path id="Trazado_650228" data-name="Trazado 650228" d="M1002.95,3760.917a5.93,5.93,0,0,1-3.035-1.3,14.637,14.637,0,0,1,3.035,1.3Z" transform="translate(-999.913 -3759.606)" fill="#263238"/>
      </g>
      <g id="Grupo_973080" data-name="Grupo 973080" transform="translate(31.639 5.253)">
        <path id="Trazado_650229" data-name="Trazado 650229" d="M1009.646,3768.142a10.9,10.9,0,1,1,.75-1.737A5.551,5.551,0,0,1,1009.646,3768.142Z" transform="translate(-1009.626 -3764.562)" fill="#263238"/>
      </g>
      <g id="Grupo_973081" data-name="Grupo 973081" transform="translate(20.866 9.526)">
        <path id="Trazado_650230" data-name="Trazado 650230" d="M992.523,3774.531a14.936,14.936,0,0,1,1.542-3.18,7.114,7.114,0,0,1-1.542,3.18Z" transform="translate(-992.511 -3771.35)" fill="#263238"/>
      </g>
      <g id="Grupo_973082" data-name="Grupo 973082" transform="translate(16.426 13.355)">
        <path id="Trazado_650231" data-name="Trazado 650231" d="M987.956,3780.2a6.915,6.915,0,0,1-2.492-2.761c.075-.054.616.576,1.3,1.332A7.413,7.413,0,0,1,987.956,3780.2Z" transform="translate(-985.457 -3777.433)" fill="#263238"/>
      </g>
      <g id="Grupo_973083" data-name="Grupo 973083" transform="translate(23.377 15.604)">
        <path id="Trazado_650232" data-name="Trazado 650232" d="M999.871,3781.008a5.841,5.841,0,0,1-1.348,1.8,9.4,9.4,0,0,1-1.556,1.347l-.467.284.37-.372c.088-.088.144-.131.164-.117s0,.081-.057.193l-.1-.088c.22-.268.778-.817,1.406-1.474A11.548,11.548,0,0,1,999.871,3781.008Z" transform="translate(-996.5 -3781.005)" fill="#263238"/>
      </g>
      <g id="Grupo_973084" data-name="Grupo 973084" transform="translate(25.214 24.939)">
        <path id="Trazado_650233" data-name="Trazado 650233" d="M1002.617,3797.737a6.668,6.668,0,0,1-3.195-1.892,26.823,26.823,0,0,1,3.195,1.892Z" transform="translate(-999.419 -3795.836)" fill="#263238"/>
      </g>
      <g id="Grupo_973085" data-name="Grupo 973085" transform="translate(18.368 24.272)">
        <path id="Trazado_650234" data-name="Trazado 650234" d="M990.7,3794.779a11.06,11.06,0,0,1-2.153,3.124,11.078,11.078,0,0,1,2.153-3.124Z" transform="translate(-988.543 -3794.776)" fill="#263238"/>
      </g>
      <g id="Grupo_973086" data-name="Grupo 973086" transform="translate(12.919 22.871)">
        <path id="Trazado_650235" data-name="Trazado 650235" d="M982.32,3794.46c-.056.073-.645-.3-1.316-.821s-1.17-1.008-1.114-1.079a3.774,3.774,0,0,1,1.316.821C981.877,3793.905,982.375,3794.389,982.32,3794.46Z" transform="translate(-979.886 -3792.551)" fill="#263238"/>
      </g>
      <g id="Grupo_973087" data-name="Grupo 973087" transform="translate(10.16 17.133)">
        <path id="Trazado_650236" data-name="Trazado 650236" d="M977.893,3783.445c.053.074-.439.515-1.1.985s-1.236.791-1.289.717.439-.514,1.1-.985S977.841,3783.372,977.893,3783.445Z" transform="translate(-975.502 -3783.435)" fill="#263238"/>
      </g>
      <g id="Grupo_973088" data-name="Grupo 973088" transform="translate(9.703 10.894)">
        <path id="Trazado_650237" data-name="Trazado 650237" d="M976.558,3775.863c-.072.055-.527-.424-1.016-1.069s-.827-1.213-.755-1.267.528.424,1.017,1.069S976.63,3775.809,976.558,3775.863Z" transform="translate(-974.777 -3773.522)" fill="#263238"/>
      </g>
      <g id="Grupo_973089" data-name="Grupo 973089" transform="translate(22.691)">
        <path id="Trazado_650238" data-name="Trazado 650238" d="M995.424,3759.125a8.377,8.377,0,1,1,.923-1.376A4.278,4.278,0,0,1,995.424,3759.125Z" transform="translate(-995.411 -3756.216)" fill="#263238"/>
      </g>
      <g id="Grupo_973090" data-name="Grupo 973090" transform="translate(5.627 1.674)">
        <path id="Trazado_650239" data-name="Trazado 650239" d="M971.355,3760.764a9.893,9.893,0,1,1-1.44-1.078A5.031,5.031,0,0,1,971.355,3760.764Z" transform="translate(-968.301 -3758.876)" fill="#263238"/>
      </g>
      <g id="Grupo_973091" data-name="Grupo 973091" transform="translate(0 1.678)">
        <path id="Trazado_650240" data-name="Trazado 650240" d="M960.7,3758.885c.078.046-.155.583-.521,1.2s-.724,1.077-.8,1.032.156-.583.521-1.2S960.621,3758.84,960.7,3758.885Z" transform="translate(-959.361 -3758.882)" fill="#263238"/>
      </g>
      <g id="Grupo_973092" data-name="Grupo 973092" transform="translate(6.102 42.269)">
        <path id="Trazado_650241" data-name="Trazado 650241" d="M971.927,3825.3a9.162,9.162,0,1,1-1.343-1.1A4.686,4.686,0,0,1,971.927,3825.3Z" transform="translate(-969.055 -3823.369)" fill="#263238"/>
      </g>
      <g id="Grupo_973093" data-name="Grupo 973093" transform="translate(27.714 41.923)">
        <path id="Trazado_650242" data-name="Trazado 650242" d="M1005.691,3822.824a4.518,4.518,0,0,1-1.026,1.358c-.633.688-1.2,1.2-1.268,1.135a4.542,4.542,0,0,1,1.027-1.357C1005.057,3823.271,1005.624,3822.763,1005.691,3822.824Z" transform="translate(-1003.391 -3822.819)" fill="#263238"/>
      </g>
      <g id="Grupo_973094" data-name="Grupo 973094" transform="translate(15.672 41.766)">
        <path id="Trazado_650243" data-name="Trazado 650243" d="M984.3,3825.089c-.091-.023-.019-.579-.021-1.26s-.069-1.237.021-1.26.308.53.306,1.26S984.389,3825.114,984.3,3825.089Z" transform="translate(-984.259 -3822.569)" fill="#263238"/>
      </g>
      <g id="Grupo_973095" data-name="Grupo 973095" transform="translate(20.253 42.634)">
        <path id="Trazado_650244" data-name="Trazado 650244" d="M994.439,3825.721a8.831,8.831,0,1,1-1.365-1.021A4.526,4.526,0,0,1,994.439,3825.721Z" transform="translate(-991.537 -3823.948)" fill="#263238"/>
      </g>
    </g>
    <g id="Grupo_973097" data-name="Grupo 973097" transform="translate(868.668 3724.222)">
      <path id="Trazado_650245" data-name="Trazado 650245" d="M997.225,3829.249a1.652,1.652,0,0,1-.379-.008l-1.08-.084-3.967-.356c-3.348-.291-7.976-.7-13.1-.788s-9.772.031-13.13.16l-3.978.169-1.082.042a1.527,1.527,0,0,1-.379-.008,1.614,1.614,0,0,1,.375-.058l1.078-.1c.937-.079,2.3-.179,3.975-.274,3.359-.189,8.01-.354,13.147-.257s9.774.535,13.119.885c1.672.179,3.024.341,3.957.459l1.073.146A1.651,1.651,0,0,1,997.225,3829.249Z" transform="translate(-960.129 -3827.656)" fill="#263238"/>
    </g>
    <g id="Grupo_973098" data-name="Grupo 973098" transform="translate(894.351 3687.662)" opacity="0.2">
      <path id="Trazado_650246" data-name="Trazado 650246" d="M1000.93,3769.574l3.149,20.928s2.917-.026,3.447-.867Z" transform="translate(-1000.93 -3769.574)"/>
      <path id="Trazado_650247" data-name="Trazado 650247" d="M1000.93,3769.574l3.149,20.928s2.917-.026,3.447-.867Z" transform="translate(-1000.93 -3769.574)"/>
    </g>
    <g id="Grupo_973109" data-name="Grupo 973109" transform="translate(844.872 3724.338)">
      <path id="Trazado_650248" data-name="Trazado 650248" d="M953.565,3828.047c-7.408.573-11.457.063-19.6.827a11.636,11.636,0,0,0-10.109,11.265l-1.428,61.566H937.4l2.365-55.2,4.416.559c-.568,20.672,1.593,54.639,1.593,54.639l16.626-.812-.95-53.012s22.366,1.518,21.807-18.564C983.253,3829.317,965.64,3827.182,953.565,3828.047Z" transform="translate(-922.361 -3827.841)" fill="#263238"/>
      <g id="Grupo_973099" data-name="Grupo 973099" transform="translate(21.683 0.037)">
        <path id="Trazado_650249" data-name="Trazado 650249" d="M970.771,3827.908a8.47,8.47,0,0,1-1.133.194c-.73.109-1.786.267-3.084.505a19.032,19.032,0,0,0-4.44,1.18,8.851,8.851,0,0,0-2.26,1.445,7.285,7.285,0,0,0-1.712,2.291,12.827,12.827,0,0,0-1.068,5.464c.019,1.739.065,3.318.051,4.641s-.058,2.394-.108,3.133c-.026.369-.05.655-.072.849a1.014,1.014,0,0,1-.049.295,8.467,8.467,0,0,1-.006-1.149c.011-.739.025-1.807,0-3.127-.035-1.338-.076-2.907-.121-4.641a12.871,12.871,0,0,1,1.074-5.607,7.517,7.517,0,0,1,1.794-2.388,9.048,9.048,0,0,1,2.35-1.48,18.288,18.288,0,0,1,4.524-1.133c1.307-.209,2.372-.333,3.108-.4.368-.035.655-.057.85-.068A1.071,1.071,0,0,1,970.771,3827.908Z" transform="translate(-956.772 -3827.9)" fill="#455a64"/>
      </g>
      <g id="Grupo_973100" data-name="Grupo 973100" transform="translate(16.053 14.808)">
        <path id="Trazado_650250" data-name="Trazado 650250" d="M947.855,3851.366a12.185,12.185,0,0,1,.813,1.87,4.462,4.462,0,0,1,.508,1.99,12.222,12.222,0,0,1-.813-1.869A4.46,4.46,0,0,1,947.855,3851.366Z" transform="translate(-947.828 -3851.365)" fill="#455a64"/>
      </g>
      <g id="Grupo_973101" data-name="Grupo 973101" transform="translate(17.257 13.581)">
        <path id="Trazado_650251" data-name="Trazado 650251" d="M949.777,3849.416a7.639,7.639,0,0,1,.435,2.534,5.471,5.471,0,0,1-.328,2.553c-.1-.018.073-1.145,0-2.539A15.067,15.067,0,0,1,949.777,3849.416Z" transform="translate(-949.74 -3849.416)" fill="#455a64"/>
      </g>
      <g id="Grupo_973104" data-name="Grupo 973104" transform="translate(37.936 14.729)">
        <g id="Grupo_973102" data-name="Grupo 973102" transform="translate(0 0.008)">
          <path id="Trazado_650252" data-name="Trazado 650252" d="M982.609,3851.254a8.733,8.733,0,0,1,.727,2.62,16.175,16.175,0,0,1,.405,2.682,8.789,8.789,0,0,1-.727-2.621A16.321,16.321,0,0,1,982.609,3851.254Z" transform="translate(-982.592 -3851.254)" fill="#455a64"/>
        </g>
        <g id="Grupo_973103" data-name="Grupo 973103" transform="translate(1.201)">
          <path id="Trazado_650253" data-name="Trazado 650253" d="M984.816,3851.241a10.246,10.246,0,0,1-.29,5.311,25.249,25.249,0,0,1,.168-2.655A24.97,24.97,0,0,1,984.816,3851.241Z" transform="translate(-984.5 -3851.241)" fill="#455a64"/>
        </g>
      </g>
      <g id="Grupo_973105" data-name="Grupo 973105" transform="translate(0 70.103)">
        <path id="Trazado_650254" data-name="Trazado 650254" d="M936.974,3939.378c0,.09-3.28.163-7.325.163s-7.326-.073-7.326-.163,3.28-.165,7.326-.165S936.974,3939.287,936.974,3939.378Z" transform="translate(-922.324 -3939.213)" fill="#455a64"/>
      </g>
      <g id="Grupo_973106" data-name="Grupo 973106" transform="translate(23.166 69.829)">
        <path id="Trazado_650255" data-name="Trazado 650255" d="M975.792,3938.941c0,.091-3.731.164-8.332.164s-8.333-.073-8.333-.164,3.73-.163,8.333-.163S975.792,3938.851,975.792,3938.941Z" transform="translate(-959.127 -3938.778)" fill="#455a64"/>
      </g>
      <g id="Grupo_973107" data-name="Grupo 973107" transform="translate(33.163 10.543)">
        <path id="Trazado_650256" data-name="Trazado 650256" d="M1000.751,3844.738a.925.925,0,0,1-.212.017l-.623.016-2.393.028-8.8.043-6.075.02a14.367,14.367,0,0,0-3.322.383,5.255,5.255,0,0,0-2.915,1.806,6.043,6.043,0,0,0-1.071,3.458c-.064,1.271.071,2.578.121,3.919.073,2.673.149,5.44.226,8.274.316,11.337.58,21.6.677,29.033.05,3.716.066,6.722.063,8.8-.008,1.023-.013,1.825-.017,2.393-.005.259-.009.465-.013.622a1.034,1.034,0,0,1-.016.212.994.994,0,0,1-.018-.212c-.005-.157-.011-.363-.02-.622-.01-.569-.025-1.37-.045-2.392-.04-2.1-.1-5.1-.168-8.8-.155-7.429-.456-17.691-.772-29.028-.075-2.833-.149-5.6-.22-8.27-.046-1.329-.179-2.644-.112-3.946a6.335,6.335,0,0,1,1.145-3.627,5.539,5.539,0,0,1,3.08-1.9,14.53,14.53,0,0,1,3.39-.376l6.08.019,8.8.062,2.393.033.622.017A1.1,1.1,0,0,1,1000.751,3844.738Z" transform="translate(-975.009 -3844.591)" fill="#455a64"/>
      </g>
      <path id="Trazado_650257" data-name="Trazado 650257" d="M954.137,3851.113s-.582-7.461,2.218-11.75l-.444,11.973Z" transform="translate(-934.094 -3832.111)" opacity="0.2"/>
      <g id="Grupo_973108" data-name="Grupo 973108" transform="translate(10.468 11.286)">
        <path id="Trazado_650258" data-name="Trazado 650258" d="M949.738,3846.392a.683.683,0,0,1-.169-.02l-.49-.091c-.43-.078-1.062-.206-1.885-.3a8.068,8.068,0,0,0-2.975.174,5.08,5.08,0,0,0-1.669.784,4.191,4.191,0,0,0-1.294,1.584,11.537,11.537,0,0,0-.743,4.712c-.043,1.748-.089,3.614-.138,5.576-.1,3.93-.218,8.247-.339,12.778-.268,9.055-.511,17.251-.687,23.214-.1,2.951-.187,5.346-.246,7.033-.035.811-.064,1.451-.084,1.912-.012.2-.022.366-.03.5a.732.732,0,0,1-.021.17.657.657,0,0,1-.013-.17c0-.131,0-.3,0-.5.006-.462.013-1.1.022-1.914.034-1.688.082-4.085.142-7.036.152-5.964.361-14.16.591-23.217.129-4.531.253-8.846.364-12.776.06-1.962.116-3.828.169-5.576a11.651,11.651,0,0,1,.807-4.806,4.375,4.375,0,0,1,1.379-1.651,5.235,5.235,0,0,1,1.744-.793,8.009,8.009,0,0,1,3.037-.124,18.88,18.88,0,0,1,1.884.359l.483.121A.614.614,0,0,1,949.738,3846.392Z" transform="translate(-938.955 -3845.77)" fill="#455a64"/>
      </g>
    </g>
    <path id="Trazado_650259" data-name="Trazado 650259" d="M942.4,3771.331s-15.81,15.851-18.826,19.4c-2.572,3.025-.894,8.737,1.26,8.983s37-.228,37-.228l-.462-7.128s-22.568.1-23.232-.315,13.054-14.282,13.054-14.282Z" transform="translate(-77.432 -82.563)" fill="#ffbf9d"/>
    <path id="Trazado_650260" data-name="Trazado 650260" d="M1000.007,3774.621s4.8,14.556,5.384,16.277,3.563,9-2.1,9.607-36.071,0-36.071,0l-2.262-7.356s29.389-.074,29.24-1.644-4.464-14.718-4.464-14.718Z" transform="translate(-93.25 -83.782)" fill="#ffbf9d"/>
    <g id="Grupo_973110" data-name="Grupo 973110" transform="translate(842.598 3685.832)">
      <path id="Trazado_650261" data-name="Trazado 650261" d="M918.711,3767.131l10.922,30.254,50.276-.021-.349-1.479-18.864-.693-9.286-28.526Z" transform="translate(-918.711 -3766.667)" fill="#263238"/>
      <path id="Trazado_650262" data-name="Trazado 650262" d="M952.253,3788.26a1.779,1.779,0,1,1-2.09-1.719A1.926,1.926,0,0,1,952.253,3788.26Z" transform="translate(-929.844 -3774.022)" fill="#fafafa"/>
    </g>
    <path id="Trazado_650263" data-name="Trazado 650263" d="M985.812,3814.422H864.467v86.855h2.575v-81.738h118.77v81.8h30.357v-86.917Z" transform="translate(-56.013 -98.531)" fill="#455a64"/>
    <g id="Grupo_973111" data-name="Grupo 973111" transform="translate(771.926 3792.777)">
      <path id="Trazado_650264" data-name="Trazado 650264" d="M818.181,3943.147v-6.5l-11.65-.077-.1,9.721.722.053c3.213.208,16.353.61,18.506-.056C828.065,3945.542,818.181,3943.147,818.181,3943.147Z" transform="translate(-806.435 -3936.568)" fill="#449c6e"/>
    </g>
    <g id="Grupo_973113" data-name="Grupo 973113" transform="translate(771.965 3801.702)">
      <g id="Grupo_973112" data-name="Grupo 973112" transform="translate(0 0)">
        <path id="Trazado_650265" data-name="Trazado 650265" d="M825.962,3950.946c0,.11-4.357.2-9.732.2s-9.732-.089-9.732-.2,4.356-.2,9.732-.2S825.962,3950.836,825.962,3950.946Z" transform="translate(-806.497 -3950.747)" fill="#263238"/>
      </g>
    </g>
    <g id="Grupo_973115" data-name="Grupo 973115" transform="translate(783.838 3799.489)">
      <g id="Grupo_973114" data-name="Grupo 973114" transform="translate(0 0)">
        <path id="Trazado_650266" data-name="Trazado 650266" d="M825.4,3948.425c-.1-.05-.014-.394.237-.732s.554-.521.63-.444-.082.364-.311.678S825.5,3948.477,825.4,3948.425Z" transform="translate(-825.359 -3947.231)" fill="#263238"/>
      </g>
    </g>
    <g id="Grupo_973117" data-name="Grupo 973117" transform="translate(784.57 3799.688)">
      <g id="Grupo_973116" data-name="Grupo 973116" transform="translate(0)">
        <path id="Trazado_650267" data-name="Trazado 650267" d="M826.573,3948.971c-.1-.038-.049-.424.18-.828s.531-.65.616-.583-.059.4-.271.777S826.676,3949.01,826.573,3948.971Z" transform="translate(-826.524 -3947.548)" fill="#263238"/>
      </g>
    </g>
    <g id="Grupo_973119" data-name="Grupo 973119" transform="translate(772.114 3799.574)">
      <g id="Grupo_973118" data-name="Grupo 973118">
        <path id="Trazado_650268" data-name="Trazado 650268" d="M810.094,3949.649c-.045.032-.219-.139-.471-.425a7.635,7.635,0,0,0-1.022-1.023,2.668,2.668,0,0,0-1.26-.551c-.354-.048-.587.007-.606-.05s.2-.205.615-.23a2.31,2.31,0,0,1,1.492.517,4.239,4.239,0,0,1,1.007,1.172C810.049,3949.394,810.139,3949.619,810.094,3949.649Z" transform="translate(-806.734 -3947.367)" fill="#263238"/>
      </g>
    </g>
    <g id="Grupo_973121" data-name="Grupo 973121" transform="translate(782.789 3799.412)">
      <g id="Grupo_973120" data-name="Grupo 973120" transform="translate(0 0)">
        <path id="Trazado_650269" data-name="Trazado 650269" d="M824.816,3947.157c.057.093-.143.318-.475.44s-.631.08-.647-.028.219-.236.51-.344S824.759,3947.063,824.816,3947.157Z" transform="translate(-823.693 -3947.109)" fill="#263238"/>
      </g>
    </g>
    <g id="Grupo_973123" data-name="Grupo 973123" transform="translate(782.337 3798.644)">
      <g id="Grupo_973122" data-name="Grupo 973122" transform="translate(0)">
        <path id="Trazado_650270" data-name="Trazado 650270" d="M824.368,3946.077c.011.109-.3.2-.694.208s-.706-.08-.7-.189.317-.2.693-.207S824.357,3945.969,824.368,3946.077Z" transform="translate(-822.976 -3945.889)" fill="#263238"/>
      </g>
    </g>
    <path id="Trazado_650271" data-name="Trazado 650271" d="M878.193,3631.444l.108-1.967a16.781,16.781,0,0,0,.249-3.3,4.848,4.848,0,0,0-.29-1.616,7.425,7.425,0,0,0-.884-1.845.635.635,0,0,1,.555-1.065c.554.142,1.689,1.458,2.2,3.422s1.837-.943,2.338-1.994,2.2-4.229,2.649-4.331c.653-.15.933.522.408,1.561s-1.88,4.26-1.312,4.5a3.012,3.012,0,0,1,1.241-.053.326.326,0,0,1,.257.276,3.82,3.82,0,0,0,.183.9s.782-.251.978.081a3.445,3.445,0,0,1,.254,1.095s.594-.264.907-.06c.677.44-.052,1.365-.052,1.365a66.393,66.393,0,0,1-5.245,6.6l-4.577-3.682" transform="translate(-60.736 -26.015)" fill="#ffbf9d"/>
    <g id="Grupo_973124" data-name="Grupo 973124" transform="translate(756.705 3598.188)">
      <path id="Trazado_650272" data-name="Trazado 650272" d="M789.817,3636.907l-.077,25.107,10.772.513.311-6.106s3.826.76,4.813-2.793c.631-2.27.473-19.81.473-19.81Z" transform="translate(-785.028 -3629.796)" fill="#ffbf9d"/>
      <path id="Trazado_650273" data-name="Trazado 650273" d="M802.716,3627.557c-3.276,1.062-4.067,1.416-5.536,1.533-1.409.113-11.447.121-12.357,5.747a4.1,4.1,0,0,1-.283-.827,14.135,14.135,0,0,1-.123-1.662,2.085,2.085,0,0,0-.2,1.736,2.9,2.9,0,0,0,.108.363c-.065-.067-.128-.135-.2-.2a3.169,3.169,0,0,0-1.273-.677c-.361-.089-.593-.069-.6-.03a8.6,8.6,0,0,1,1.657.954,4.246,4.246,0,0,1,.847,1c0,.026-.005.049-.005.075,0,0-2.147-.944-1.582,2.948s3.108,7.194,3.418,13.562c0,0,8.9,1.062,10.48-2.358l1.329-3.924s-2.141-.348-1.892-2.07c.344-2.382,2.165-2.443,3.52-1.382l1.56-4.183s3.955-2.594,4.18-4.245S805.992,3626.5,802.716,3627.557Z" transform="translate(-782.253 -3627.428)" fill="#263238"/>
    </g>
    <path id="Trazado_650274" data-name="Trazado 650274" d="M741.6,3939.3l-1.578,7.023,10.875,1.344.389-6.958Z" transform="translate(-9.899 -144.804)" fill="#449c6e"/>
    <g id="Grupo_973125" data-name="Grupo 973125" transform="translate(735.544 3794.841)">
      <path id="Trazado_650275" data-name="Trazado 650275" d="M749.7,3939.847a32.164,32.164,0,0,1-1.039,6.4,32.024,32.024,0,0,1,1.039-6.4Z" transform="translate(-748.636 -3939.847)" fill="#263238"/>
    </g>
    <g id="Grupo_973126" data-name="Grupo 973126" transform="translate(730.396 3800.144)">
      <path id="Trazado_650276" data-name="Trazado 650276" d="M751.1,3950.227a8.543,8.543,0,0,1-1.575-.2l-3.772-.612c-1.474-.246-2.805-.492-3.762-.707a6.967,6.967,0,0,1-1.531-.426,8.474,8.474,0,0,1,1.574.2l3.774.611c1.473.246,2.8.494,3.762.708A6.93,6.93,0,0,1,751.1,3950.227Z" transform="translate(-740.458 -3948.273)" fill="#263238"/>
    </g>
    <g id="Grupo_973133" data-name="Grupo 973133" transform="translate(727.697 3682.644)">
      <path id="Trazado_650277" data-name="Trazado 650277" d="M756.292,3763.042l-20.123,113.1,17.236.977s18.306-97.489,20.994-97.732c1.125-.1,1.577,96.961,2.482,96.755s18.62.315,18.62.315-2.4-114.851-2.355-114.853Z" transform="translate(-736.169 -3761.602)" fill="#263238"/>
      <g id="Grupo_973132" data-name="Grupo 973132" transform="translate(1.104 15.399)">
        <g id="Grupo_973127" data-name="Grupo 973127" transform="translate(31.071)">
          <path id="Trazado_650278" data-name="Trazado 650278" d="M800.695,3786.075c.019.088-2.968.8-6.671,1.584s-6.721,1.353-6.739,1.265,2.967-.8,6.671-1.585S800.676,3785.986,800.695,3786.075Z" transform="translate(-787.285 -3786.066)" fill="#455a64"/>
        </g>
        <g id="Grupo_973128" data-name="Grupo 973128" transform="translate(0 92.891)">
          <path id="Trazado_650279" data-name="Trazado 650279" d="M755.313,3934.226c0,.09-3.9.043-8.7-.106s-8.693-.343-8.69-.434,3.9-.043,8.7.106S755.316,3934.135,755.313,3934.226Z" transform="translate(-737.923 -3933.641)" fill="#455a64"/>
        </g>
        <g id="Grupo_973129" data-name="Grupo 973129" transform="translate(39.321 92.88)">
          <path id="Trazado_650280" data-name="Trazado 650280" d="M819.169,3934.227c0,.091-4.208.039-9.393-.116s-9.387-.353-9.384-.443,4.207-.039,9.393.115S819.171,3934.137,819.169,3934.227Z" transform="translate(-800.392 -3933.623)" fill="#455a64"/>
        </g>
        <g id="Grupo_973130" data-name="Grupo 973130" transform="translate(8.252 3.14)">
          <path id="Trazado_650281" data-name="Trazado 650281" d="M770.4,3791.055c.089.019-4.175,20.2-9.522,45.059s-9.755,45.013-9.843,44.993,4.175-20.19,9.523-45.062S770.311,3791.036,770.4,3791.055Z" transform="translate(-751.033 -3791.055)" fill="#455a64"/>
        </g>
        <g id="Grupo_973131" data-name="Grupo 973131" transform="translate(47.732 2.655)">
          <path id="Trazado_650282" data-name="Trazado 650282" d="M814.805,3880.833a1.237,1.237,0,0,1-.024-.233c-.01-.171-.022-.4-.038-.685-.027-.621-.065-1.507-.113-2.636-.094-2.29-.207-5.6-.326-9.7-.239-8.191-.473-19.51-.535-32.014s.067-23.829.227-32.023c.08-4.1.161-7.411.232-9.7l.088-2.638c.013-.288.024-.514.031-.685a1.327,1.327,0,0,1,.021-.233,1.182,1.182,0,0,1,.012.234c0,.171,0,.4,0,.687-.006.623-.015,1.508-.027,2.638-.03,2.31-.074,5.619-.128,9.7-.1,8.193-.189,19.513-.131,32.018s.259,23.818.439,32.01c.093,4.082.169,7.392.222,9.7.022,1.131.04,2.016.052,2.638,0,.288,0,.515.005.686A1.229,1.229,0,0,1,814.805,3880.833Z" transform="translate(-813.755 -3790.284)" fill="#455a64"/>
        </g>
      </g>
    </g>
    <path id="Trazado_650283" data-name="Trazado 650283" d="M828.027,3638.033s-13.344,20.129-14.475,21.26-22.031,3.327-22.031,3.327c-6.416-1.448-27.161-.971-31.081,1.916h0c-3.389,1.875-7.51,6.265-9.631,16.7-3.619,17.8-7.237,24.359,0,26.847a47.655,47.655,0,0,0,8.911,2.1l-.2,8.057,37.513-2.331-1.92-20.007c-.225-5.618-.331-11.473-.469-16.658,2.346-.89,24.163-9.146,25.661-9.361,1.583-.226,15.866-26.647,15.866-26.647C836.621,3640.068,828.027,3638.033,828.027,3638.033Z" transform="translate(-12.348 -33.17)" fill="#449c6e"/>
    <g id="Grupo_973134" data-name="Grupo 973134" transform="translate(747.148 3641.293)">
      <path id="Trazado_650284" data-name="Trazado 650284" d="M768.318,3695.909c.091,0-.111,9.8-.449,21.891s-.686,21.887-.776,21.884.11-9.8.449-21.893S768.228,3695.906,768.318,3695.909Z" transform="translate(-767.071 -3695.909)" fill="#263238"/>
    </g>
    <g id="Grupo_973135" data-name="Grupo 973135" transform="translate(801.195 3626.122)">
      <path id="Trazado_650285" data-name="Trazado 650285" d="M854.821,3676.339a6.515,6.515,0,0,1-1.093-2.209,16.519,16.519,0,0,1-.786-2.323,6.525,6.525,0,0,1,1.093,2.208A16.469,16.469,0,0,1,854.821,3676.339Z" transform="translate(-852.935 -3671.805)" fill="#263238"/>
    </g>
    <g id="Grupo_973136" data-name="Grupo 973136" transform="translate(801.198 3626.119)">
      <path id="Trazado_650286" data-name="Trazado 650286" d="M856.32,3674.624a11.172,11.172,0,0,1-1.789-1.28,5.674,5.674,0,0,1-1.586-1.538,11.237,11.237,0,0,1,1.789,1.281A5.689,5.689,0,0,1,856.32,3674.624Z" transform="translate(-852.94 -3671.802)" fill="#263238"/>
    </g>
    <g id="Grupo_973137" data-name="Grupo 973137" transform="translate(814.259 3606.908)">
      <path id="Trazado_650287" data-name="Trazado 650287" d="M882.527,3646.018a7.945,7.945,0,0,1-1.265-.76c-.766-.488-1.834-1.142-3.052-1.8s-2.357-1.178-3.187-1.544a7.97,7.97,0,0,1-1.334-.631,5.646,5.646,0,0,1,1.421.416,26.518,26.518,0,0,1,6.282,3.364A5.693,5.693,0,0,1,882.527,3646.018Z" transform="translate(-873.69 -3641.281)" fill="#263238"/>
    </g>
    <g id="Grupo_973138" data-name="Grupo 973138" transform="translate(743.412 3662.281)">
      <path id="Trazado_650288" data-name="Trazado 650288" d="M765.669,3730.252a7.362,7.362,0,0,1-2.32-.238,6.214,6.214,0,0,1-2.213-.744,12.862,12.862,0,0,1,2.28.423A9.683,9.683,0,0,1,765.669,3730.252Z" transform="translate(-761.135 -3729.252)" fill="#263238"/>
    </g>
    <g id="Grupo_973139" data-name="Grupo 973139" transform="translate(774.981 3629.139)">
      <path id="Trazado_650289" data-name="Trazado 650289" d="M818.906,3676.626a18.689,18.689,0,0,0-2.012.473,7.8,7.8,0,0,0-5.364,7.519,18.676,18.676,0,0,0,.208,2.055,1.634,1.634,0,0,1-.2-.527,6.731,6.731,0,0,1-.237-1.523,7.656,7.656,0,0,1,5.525-7.746,6.719,6.719,0,0,1,1.518-.272A1.642,1.642,0,0,1,818.906,3676.626Z" transform="translate(-811.288 -3676.599)" fill="#263238"/>
    </g>
    <g id="Grupo_973140" data-name="Grupo 973140" transform="translate(747.17 3682.725)">
      <path id="Trazado_650290" data-name="Trazado 650290" d="M804.619,3761.743c.006.09-8.388.686-18.746,1.33s-18.761,1.092-18.767,1,8.386-.685,18.747-1.329S804.613,3761.653,804.619,3761.743Z" transform="translate(-767.106 -3761.731)" fill="#263238"/>
    </g>
    <g id="Grupo_973141" data-name="Grupo 973141" transform="translate(738.422 3628.771)">
      <path id="Trazado_650291" data-name="Trazado 650291" d="M784.526,3676.014a2.586,2.586,0,0,1,.111.467c.028.155.076.345.1.573s.046.5.073.792a12.28,12.28,0,0,1-.812,4.983,11.776,11.776,0,0,1-4.673,5.788,7.6,7.6,0,0,1-.956.514,8.855,8.855,0,0,1-1.022.424c-.7.252-1.423.466-2.14.72a9.64,9.64,0,0,0-2.078.972,7.453,7.453,0,0,0-1.7,1.608,43.23,43.23,0,0,0-2.48,4.021,8.487,8.487,0,0,1-3.081,3.207,7.112,7.112,0,0,1-3.959.733,9.473,9.473,0,0,1-3.376-.964,15.242,15.242,0,0,1-4.067-3c-.424-.422-.737-.763-.949-.994a2.465,2.465,0,0,1-.308-.368,2.636,2.636,0,0,1,.355.322l.99.947a15.915,15.915,0,0,0,4.079,2.882,9.309,9.309,0,0,0,3.3.9,6.867,6.867,0,0,0,3.793-.728,8.236,8.236,0,0,0,2.951-3.11,42.356,42.356,0,0,1,2.5-4.054,7.735,7.735,0,0,1,1.784-1.678,9.914,9.914,0,0,1,2.148-1l2.141-.712a8.493,8.493,0,0,0,1-.409,7.239,7.239,0,0,0,.928-.492,11.642,11.642,0,0,0,4.614-5.615,12.656,12.656,0,0,0,.9-4.893q-.024-.438-.043-.787c-.017-.228-.054-.418-.071-.573A2.683,2.683,0,0,1,784.526,3676.014Z" transform="translate(-753.208 -3676.014)" fill="#263238"/>
    </g>
    <g id="Grupo_973142" data-name="Grupo 973142" transform="translate(765.251 3650.038)">
      <path id="Trazado_650292" data-name="Trazado 650292" d="M814.525,3734.816a4.881,4.881,0,0,1-.419-.268,3.859,3.859,0,0,0-1.3-.531,18.6,18.6,0,0,0-2.241-.2c-.874-.071-1.876-.078-2.988-.118a14.773,14.773,0,0,1-3.614-.507,12.145,12.145,0,0,1-3.779-1.818,10.553,10.553,0,0,1-3.089-3.452,10.08,10.08,0,0,1-1.266-4.806,8.712,8.712,0,0,1,4.78-7.889,7.937,7.937,0,0,1,2.066-.689,12.549,12.549,0,0,1,2.036-.167,30.029,30.029,0,0,0,3.611-.107,5.227,5.227,0,0,0,4.209-2.622,3.991,3.991,0,0,0,.39-1.348c.038-.322.033-.494.05-.494s.011.042.016.126a2.748,2.748,0,0,1,0,.374,3.757,3.757,0,0,1-.341,1.4,4.47,4.47,0,0,1-1.474,1.732,6.156,6.156,0,0,1-2.818,1.065,28.945,28.945,0,0,1-3.638.148,12.54,12.54,0,0,0-1.988.18,7.68,7.68,0,0,0-1.983.676,8.433,8.433,0,0,0-4.588,7.617,9.81,9.81,0,0,0,1.22,4.653,10.314,10.314,0,0,0,2.985,3.363,12,12,0,0,0,3.677,1.8,14.7,14.7,0,0,0,3.55.535c1.1.056,2.111.079,2.993.167a17.185,17.185,0,0,1,2.253.258,3.663,3.663,0,0,1,1.306.6,3.049,3.049,0,0,1,.293.233C814.5,3734.781,814.529,3734.812,814.525,3734.816Z" transform="translate(-795.83 -3709.8)" fill="#263238"/>
    </g>
    <g id="Grupo_973143" data-name="Grupo 973143" transform="translate(748.129 3660.521)">
      <path id="Trazado_650293" data-name="Trazado 650293" d="M783.6,3750.208a6.5,6.5,0,0,0-.073-1.349,4.721,4.721,0,0,0-1.938-2.982,4.381,4.381,0,0,0-1.073-.523,6.526,6.526,0,0,0-1.286-.238,13.815,13.815,0,0,1-2.949-.4,3.756,3.756,0,0,1-1.413-.854,4.576,4.576,0,0,1-.959-1.423,6.588,6.588,0,0,1-.41-3.52c.351-2.422,1.414-4.506,1.6-6.557a6.464,6.464,0,0,0-.256-2.851,4.106,4.106,0,0,0-1.461-1.974,4.8,4.8,0,0,0-3.451-.883,6.946,6.946,0,0,0-1.3.365,3.118,3.118,0,0,1,1.28-.491,4.826,4.826,0,0,1,3.606.822,4.313,4.313,0,0,1,1.58,2.07,6.671,6.671,0,0,1,.3,2.974c-.182,2.121-1.242,4.229-1.576,6.569a6.31,6.31,0,0,0,.38,3.349,4.267,4.267,0,0,0,.883,1.326,3.463,3.463,0,0,0,1.291.792,13.907,13.907,0,0,0,2.88.415,6.838,6.838,0,0,1,1.335.268,4.6,4.6,0,0,1,1.128.574,4.765,4.765,0,0,1,1.932,3.152,3.856,3.856,0,0,1,.02,1.021A1.466,1.466,0,0,1,783.6,3750.208Z" transform="translate(-768.629 -3726.456)" fill="#263238"/>
    </g>
    <g id="Grupo_973144" data-name="Grupo 973144" transform="translate(760.787 3649.14)">
      <path id="Trazado_650294" data-name="Trazado 650294" d="M789.794,3708.676c-.009-.014.13-.134.443-.227a2.172,2.172,0,0,1,2.153.645,1.911,1.911,0,0,1,.458,1.022,2.2,2.2,0,0,1-1.089,2.2,2.177,2.177,0,0,1-2.425-.379,1.84,1.84,0,0,1-.555-.975,2.041,2.041,0,0,1,.045-.968,2,2,0,0,1,.784-1.115c.274-.18.457-.2.461-.189s-.153.094-.384.291a2.024,2.024,0,0,0-.637,1.072,1.665,1.665,0,0,0,.49,1.662,1.9,1.9,0,0,0,2.068.31,1.925,1.925,0,0,0,.941-1.874,1.745,1.745,0,0,0-1.042-1.4,2.147,2.147,0,0,0-1.24-.178C789.964,3708.623,789.806,3708.7,789.794,3708.676Z" transform="translate(-788.74 -3708.375)" fill="#263238"/>
    </g>
    <g id="Grupo_973145" data-name="Grupo 973145" transform="translate(736.106 3658.705)">
      <path id="Trazado_650295" data-name="Trazado 650295" d="M756.393,3741.144c-.07-.015.226-1.107.3-2.908a12.763,12.763,0,0,0-.016-1.47,16.71,16.71,0,0,0-.167-1.677,17.458,17.458,0,0,0-2.789-7.141,16.78,16.78,0,0,0-1.015-1.346,12.82,12.82,0,0,0-.984-1.092c-1.271-1.277-2.229-1.879-2.187-1.937a3.624,3.624,0,0,1,.676.41,6.476,6.476,0,0,1,.746.552,10.72,10.72,0,0,1,.928.81,11.979,11.979,0,0,1,1.03,1.082,16.012,16.012,0,0,1,1.056,1.352,16.789,16.789,0,0,1,2.839,7.267,15.75,15.75,0,0,1,.14,1.709,12.034,12.034,0,0,1-.024,1.494,10.742,10.742,0,0,1-.133,1.224,6.521,6.521,0,0,1-.174.913A3.668,3.668,0,0,1,756.393,3741.144Z" transform="translate(-749.528 -3723.571)" fill="#263238"/>
    </g>
    <g id="Grupo_973146" data-name="Grupo 973146" transform="translate(788.652 3633.49)">
      <path id="Trazado_650296" data-name="Trazado 650296" d="M852.638,3686.455a7.032,7.032,0,0,1-.937-.415c-.6-.278-1.465-.672-2.568-1.076a19.33,19.33,0,0,0-3.979-1.005,13.177,13.177,0,0,0-4.976.246,9.956,9.956,0,0,0-4.37,2.3,8.4,8.4,0,0,0-2.247,3.355,6.785,6.785,0,0,0-.38,2.709c.048.652.151,1.005.117,1.013a.8.8,0,0,1-.089-.251,4.743,4.743,0,0,1-.154-.75,6.469,6.469,0,0,1,.287-2.795,8.429,8.429,0,0,1,2.259-3.5,10.078,10.078,0,0,1,4.5-2.4,13.121,13.121,0,0,1,5.1-.226,18.263,18.263,0,0,1,4.02,1.087,23.824,23.824,0,0,1,2.542,1.178c.291.158.514.284.662.377S852.644,3686.446,852.638,3686.455Z" transform="translate(-833.008 -3683.512)" fill="#263238"/>
    </g>
    <g id="Grupo_973147" data-name="Grupo 973147" transform="translate(804.464 3608.235)">
      <path id="Trazado_650297" data-name="Trazado 650297" d="M867.1,3643.389c.008-.007.067.044.171.148a4.83,4.83,0,0,1,.434.48,7.33,7.33,0,0,1,1.165,2.076,8.422,8.422,0,0,1,.5,3.5,8.572,8.572,0,0,1-1.368,4.1,8.337,8.337,0,0,1-3.265,2.835,8.686,8.686,0,0,1-3.415.906,7.657,7.657,0,0,1-2.37-.217,4.918,4.918,0,0,1-.616-.2c-.138-.052-.209-.084-.205-.094a10.869,10.869,0,0,0,3.174.278,8.8,8.8,0,0,0,3.3-.945,8.2,8.2,0,0,0,3.127-2.746,8.512,8.512,0,0,0,.925-7.342A10.338,10.338,0,0,0,867.1,3643.389Z" transform="translate(-858.129 -3643.389)" fill="#263238"/>
    </g>
    <g id="Grupo_973148" data-name="Grupo 973148" transform="translate(761.401 3628.56)">
      <path id="Trazado_650298" data-name="Trazado 650298" d="M800.652,3675.806a91.148,91.148,0,0,1-10.937.083,91.287,91.287,0,0,1,10.937-.083Z" transform="translate(-789.715 -3675.678)" fill="#263238"/>
    </g>
  </g>
</svg>
