<svg xmlns="http://www.w3.org/2000/svg" xmlns:xlink="http://www.w3.org/1999/xlink" width="589" height="361" viewBox="0 0 589 361">
  <defs>
    <clipPath id="clip-path">
      <rect id="Rectángulo_351051" data-name="Rectángulo 351051" width="589" height="361" transform="translate(831 7440)" fill="#fff" stroke="#707070" stroke-width="1"/>
    </clipPath>
  </defs>
  <g id="Enmascarar_grupo_700556" data-name="Enmascarar grupo 700556" transform="translate(-831 -7440)" clip-path="url(#clip-path)">
    <g id="Grupo_973228" data-name="Grupo 973228" transform="translate(-10)">
      <path id="Trazado_654891" data-name="Trazado 654891" d="M-8035.519-3995.792h462.605" transform="translate(8961 11700)" fill="none" stroke="#8d8d8d" stroke-width="1"/>
      <path id="Trazado_654892" data-name="Trazado 654892" d="M-8035.519-3995.792h462.605" transform="translate(8962.182 11671)" fill="none" stroke="#8d8d8d" stroke-width="1"/>
      <path id="Trazado_654893" data-name="Trazado 654893" d="M-8035.519-3995.792h462.605" transform="translate(8961 11639)" fill="none" stroke="#8d8d8d" stroke-width="1"/>
      <path id="Trazado_654894" data-name="Trazado 654894" d="M-8035.519-3995.792h462.605" transform="translate(8962.182 11607)" fill="none" stroke="#8d8d8d" stroke-width="1"/>
      <path id="Trazado_654895" data-name="Trazado 654895" d="M-8035.519-3995.792h462.605" transform="translate(8961.591 11578)" fill="none" stroke="#8d8d8d" stroke-width="1"/>
      <path id="Trazado_654896" data-name="Trazado 654896" d="M-8035.519-3995.792h462.605" transform="translate(8961.591 11545)" fill="none" stroke="#8d8d8d" stroke-width="1"/>
      <path id="Trazado_654897" data-name="Trazado 654897" d="M-8035.519-3995.792h462.605" transform="translate(8961 11514)" fill="none" stroke="#8d8d8d" stroke-width="1"/>
      <path id="Trazado_654898" data-name="Trazado 654898" d="M-8035.519-3995.792h462.605" transform="translate(8961.182 11483)" fill="none" stroke="#8d8d8d" stroke-width="1"/>
      <path id="Trazado_654890" data-name="Trazado 654890" d="M-8035.519-4213.1v250.29h463.787" transform="translate(8961 11699.043)" fill="none" stroke="#000" stroke-width="2"/>
      <circle id="Elipse_7758" data-name="Elipse 7758" cx="7" cy="7" r="7" transform="translate(1099 7511)" fill="#4f81bd"/>
      <circle id="Elipse_7759" data-name="Elipse 7759" cx="7" cy="7" r="7" transform="translate(1150 7542)" fill="#4f81bd"/>
      <circle id="Elipse_7760" data-name="Elipse 7760" cx="7" cy="7" r="7" transform="translate(1177 7542)" fill="#4f81bd"/>
      <circle id="Elipse_7761" data-name="Elipse 7761" cx="7" cy="7" r="7" transform="translate(1227 7542)" fill="#4f81bd"/>
      <circle id="Elipse_7762" data-name="Elipse 7762" cx="7" cy="7" r="7" transform="translate(1176 7589)" fill="#4f81bd"/>
      <circle id="Elipse_7763" data-name="Elipse 7763" cx="7" cy="7" r="7" transform="translate(1253 7589)" fill="#4f81bd"/>
      <circle id="Elipse_7764" data-name="Elipse 7764" cx="7" cy="7" r="7" transform="translate(1241 7573)" fill="#4f81bd"/>
      <circle id="Elipse_7765" data-name="Elipse 7765" cx="7" cy="7" r="7" transform="translate(1244 7557)" fill="#4f81bd"/>
      <circle id="Elipse_7766" data-name="Elipse 7766" cx="7" cy="7" r="7" transform="translate(1317 7526)" fill="#4f81bd"/>
      <circle id="Elipse_7767" data-name="Elipse 7767" cx="7" cy="7" r="7" transform="translate(1313 7542)" fill="#4f81bd"/>
      <circle id="Elipse_7768" data-name="Elipse 7768" cx="7" cy="7" r="7" transform="translate(1305 7557)" fill="#4f81bd"/>
      <circle id="Elipse_7769" data-name="Elipse 7769" cx="7" cy="7" r="7" transform="translate(1331 7557)" fill="#4f81bd"/>
      <text id="Tiempo_de_secado_min_" data-name="Tiempo de secado (min)" transform="translate(879 7685) rotate(-90)" fill="#12263f" font-size="16" font-family="Roboto-Bold, Roboto" font-weight="700"><tspan x="0" y="0">Tiempo de secado (min)</tspan></text>
      <text id="Cantidad_de_pegante_mI_" data-name="Cantidad de pegante (mI)" transform="translate(1076 7788.982)" fill="#12263f" font-size="16" font-family="Roboto-Bold, Roboto" font-weight="700"><tspan x="0" y="0">Cantidad de pegante (mI)</tspan></text>
      <text id="_0" data-name="0" transform="translate(920.981 7762.71)" fill="#12263f" font-size="16" font-family="Roboto-Bold, Roboto" font-weight="700"><tspan x="0" y="0">0</tspan></text>
      <text id="_2" data-name="2" transform="translate(971.981 7762.71)" fill="#12263f" font-size="16" font-family="Roboto-Bold, Roboto" font-weight="700"><tspan x="0" y="0">2</tspan></text>
      <text id="_4" data-name="4" transform="translate(1022.981 7762.71)" fill="#12263f" font-size="16" font-family="Roboto-Bold, Roboto" font-weight="700"><tspan x="0" y="0">4</tspan></text>
      <text id="_6" data-name="6" transform="translate(1074.981 7762.71)" fill="#12263f" font-size="16" font-family="Roboto-Bold, Roboto" font-weight="700"><tspan x="0" y="0">6</tspan></text>
      <text id="_8" data-name="8" transform="translate(1126.981 7762.71)" fill="#12263f" font-size="16" font-family="Roboto-Bold, Roboto" font-weight="700"><tspan x="0" y="0">8</tspan></text>
      <text id="_10" data-name="10" transform="translate(1175.981 7762.71)" fill="#12263f" font-size="16" font-family="Roboto-Bold, Roboto" font-weight="700"><tspan x="0" y="0">10</tspan></text>
      <text id="_12" data-name="12" transform="translate(1225.981 7762.71)" fill="#12263f" font-size="16" font-family="Roboto-Bold, Roboto" font-weight="700"><tspan x="0" y="0">12</tspan></text>
      <text id="_14" data-name="14" transform="translate(1274.981 7762.71)" fill="#12263f" font-size="16" font-family="Roboto-Bold, Roboto" font-weight="700"><tspan x="0" y="0">14</tspan></text>
      <text id="_16" data-name="16" transform="translate(1326.981 7762.71)" fill="#12263f" font-size="16" font-family="Roboto-Bold, Roboto" font-weight="700"><tspan x="0" y="0">16</tspan></text>
      <text id="_18" data-name="18" transform="translate(1382.981 7762.71)" fill="#12263f" font-size="16" font-family="Roboto-Bold, Roboto" font-weight="700"><tspan x="0" y="0">18</tspan></text>
      <text id="_0-2" data-name="0" transform="translate(895 7741.71)" fill="#12263f" font-size="16" font-family="Roboto-Bold, Roboto" font-weight="700"><tspan x="0" y="0">0</tspan></text>
      <text id="_2-2" data-name="2" transform="translate(895 7710.708)" fill="#12263f" font-size="16" font-family="Roboto-Bold, Roboto" font-weight="700"><tspan x="0" y="0">2</tspan></text>
      <text id="_4-2" data-name="4" transform="translate(895 7679.706)" fill="#12263f" font-size="16" font-family="Roboto-Bold, Roboto" font-weight="700"><tspan x="0" y="0">4</tspan></text>
      <text id="_6-2" data-name="6" transform="translate(895 7649.708)" fill="#12263f" font-size="16" font-family="Roboto-Bold, Roboto" font-weight="700"><tspan x="0" y="0">6</tspan></text>
      <text id="_8-2" data-name="8" transform="translate(895 7618.706)" fill="#12263f" font-size="16" font-family="Roboto-Bold, Roboto" font-weight="700"><tspan x="0" y="0">8</tspan></text>
      <text id="_10-2" data-name="10" transform="translate(895 7585)" fill="#12263f" font-size="16" font-family="Roboto-Bold, Roboto" font-weight="700"><tspan x="0" y="0">10</tspan></text>
      <text id="_12-2" data-name="12" transform="translate(895 7555.002)" fill="#12263f" font-size="16" font-family="Roboto-Bold, Roboto" font-weight="700"><tspan x="0" y="0">12</tspan></text>
      <text id="_14-2" data-name="14" transform="translate(895 7524)" fill="#12263f" font-size="16" font-family="Roboto-Bold, Roboto" font-weight="700"><tspan x="0" y="0">14</tspan></text>
      <text id="_16-2" data-name="16" transform="translate(895 7492.998)" fill="#12263f" font-size="16" font-family="Roboto-Bold, Roboto" font-weight="700"><tspan x="0" y="0">16</tspan></text>
      <text id="Diagrama_de_dispersión" data-name="Diagrama de dispersión" transform="translate(1040 7461.235)" fill="#12263f" font-size="20" font-family="Roboto-Bold, Roboto" font-weight="700"><tspan x="0" y="0">Diagrama de dispersión</tspan></text>
    </g>
  </g>
</svg>
