<svg xmlns="http://www.w3.org/2000/svg" xmlns:xlink="http://www.w3.org/1999/xlink" width="610" height="894" viewBox="0 0 610 894">
  <defs>
    <clipPath id="clip-path">
      <rect id="Rectángulo_351065" data-name="Rectángulo 351065" width="610" height="894" transform="translate(810 9474)" fill="#fff" stroke="#707070" stroke-width="1"/>
    </clipPath>
    <clipPath id="clip-path-2">
      <rect id="Rectángulo_333213" data-name="Rectángulo 333213" width="279.593" height="263.37" fill="none"/>
    </clipPath>
    <clipPath id="clip-path-3">
      <rect id="Rectángulo_333206" data-name="Rectángulo 333206" width="279.593" height="301.221" fill="none"/>
    </clipPath>
    <clipPath id="clip-path-5">
      <rect id="Rectángulo_333210" data-name="Rectángulo 333210" width="100.308" height="83.967" fill="none"/>
    </clipPath>
    <clipPath id="clip-path-6">
      <rect id="Rectángulo_333211" data-name="Rectángulo 333211" width="64.288" height="50.71" fill="none"/>
    </clipPath>
    <clipPath id="clip-path-7">
      <rect id="Rectángulo_333199" data-name="Rectángulo 333199" width="599.072" height="524.39" transform="translate(0 -53)" fill="none"/>
    </clipPath>
    <clipPath id="clip-path-8">
      <rect id="Rectángulo_333205" data-name="Rectángulo 333205" width="504.691" height="463.475" fill="none"/>
    </clipPath>
    <clipPath id="clip-path-9">
      <rect id="Rectángulo_333218" data-name="Rectángulo 333218" width="181.23" height="260.681" fill="none"/>
    </clipPath>
    <clipPath id="clip-path-11">
      <rect id="Rectángulo_333214" data-name="Rectángulo 333214" width="39.87" height="68.423" fill="none"/>
    </clipPath>
    <clipPath id="clip-path-12">
      <rect id="Rectángulo_333215" data-name="Rectángulo 333215" width="74.519" height="37.576" fill="none"/>
    </clipPath>
    <clipPath id="clip-path-13">
      <rect id="Rectángulo_333220" data-name="Rectángulo 333220" width="147.223" height="261.659" fill="none"/>
    </clipPath>
    <clipPath id="clip-path-14">
      <rect id="Rectángulo_333219" data-name="Rectángulo 333219" width="284.993" height="165.172" fill="none"/>
    </clipPath>
    <clipPath id="clip-path-15">
      <rect id="Rectángulo_333241" data-name="Rectángulo 333241" width="235.103" height="175.576" fill="none"/>
    </clipPath>
    <clipPath id="clip-path-16">
      <rect id="Rectángulo_333222" data-name="Rectángulo 333222" width="132.649" height="134.199" fill="none"/>
    </clipPath>
    <clipPath id="clip-path-17">
      <rect id="Rectángulo_333198" data-name="Rectángulo 333198" width="257.506" height="672.268" fill="none"/>
    </clipPath>
    <clipPath id="clip-path-19">
      <rect id="Rectángulo_333195" data-name="Rectángulo 333195" width="49.772" height="46.961" fill="none"/>
    </clipPath>
    <clipPath id="clip-path-20">
      <rect id="Rectángulo_333196" data-name="Rectángulo 333196" width="27.301" height="34.843" fill="none"/>
    </clipPath>
  </defs>
  <g id="Enmascarar_grupo_924786" data-name="Enmascarar grupo 924786" transform="translate(-810 -9474)" clip-path="url(#clip-path)">
    <g id="Grupo_925227" data-name="Grupo 925227" transform="translate(729.234 9474)">
      <g id="Grupo_924786" data-name="Grupo 924786" transform="translate(451.96 0)">
        <g id="Enmascarar_grupo_924785" data-name="Enmascarar grupo 924785" clip-path="url(#clip-path-2)">
          <g id="Grupo_924776" data-name="Grupo 924776" transform="translate(0 -37.852)">
            <g id="Grupo_924775" data-name="Grupo 924775" clip-path="url(#clip-path-3)">
              <path id="Trazado_623328" data-name="Trazado 623328" d="M37.621,8.539a24.059,24.059,0,0,1,5.873-2.553L44.7.172,54.527,0l1.414,5.768A24.062,24.062,0,0,1,61.9,8.113l4.964-3.255,7.067,6.825-3.077,5.075a24.078,24.078,0,0,1,2.553,5.875l5.812,1.21.174,9.822-5.768,1.415a24.052,24.052,0,0,1-2.345,5.959L74.536,46l-6.823,7.068-5.075-3.077a24.127,24.127,0,0,1-5.875,2.552l-1.21,5.814-9.823.172-1.414-5.768a24.14,24.14,0,0,1-5.959-2.345l-4.964,3.253L26.324,46.85,29.4,41.775A24.073,24.073,0,0,1,26.849,35.9l-5.814-1.21-.172-9.822,5.768-1.415a24.052,24.052,0,0,1,2.345-5.959l-3.255-4.964,6.825-7.068Zm5.236,13.085a10.539,10.539,0,1,0,14.9-.262,10.539,10.539,0,0,0-14.9.262" transform="translate(206.786 296.908)" fill="#e0e0e0"/>
            </g>
          </g>
          <rect id="Rectángulo_333207" data-name="Rectángulo 333207" width="278.929" height="208.509" transform="translate(0.364 54.53)" fill="#fff"/>
          <rect id="Rectángulo_333208" data-name="Rectángulo 333208" width="278.929" height="25.772" transform="translate(0.364 54.531)" fill="#e0e0e0"/>
          <g id="Grupo_924784" data-name="Grupo 924784" transform="translate(0 -37.852)">
            <g id="Grupo_924783" data-name="Grupo 924783" clip-path="url(#clip-path-3)">
              <path id="Trazado_623329" data-name="Trazado 623329" d="M15.943,76.258a3.715,3.715,0,1,1-3.714-3.714,3.714,3.714,0,0,1,3.714,3.714" transform="translate(3.405 29.012)" fill="#fff"/>
              <path id="Trazado_623330" data-name="Trazado 623330" d="M24.889,76.258a3.715,3.715,0,1,1-3.714-3.714,3.714,3.714,0,0,1,3.714,3.714" transform="translate(6.983 29.012)" fill="#fff"/>
              <path id="Trazado_623331" data-name="Trazado 623331" d="M33.834,76.258a3.715,3.715,0,1,1-3.714-3.714,3.714,3.714,0,0,1,3.714,3.714" transform="translate(10.56 29.012)" fill="#fff"/>
              <path id="Trazado_623332" data-name="Trazado 623332" d="M279.295,274.605s-.022-1.307-.032-3.813-.02-6.224-.035-11.072c-.017-9.7-.043-23.937-.076-42.118-.038-36.332-.091-88.423-.155-151.506l.3.3c-78.656.02-174.985.042-278.907.066H.365L.729,66.1C.717,141.032.7,212.014.694,274.605l-.329-.329,201.342.164,57.178.088,15.167.039,3.907.018c.879.007,1.335.02,1.335.02s-.431.013-1.3.02l-3.871.018-15.1.039-57.1.088L.365,274.934H.035v-.329C.025,212.014.013,141.032,0,66.1v-.364H.388c103.921.024,200.251.046,278.907.066h.3v.3c-.064,63.16-.118,115.315-.155,151.694-.032,18.151-.059,32.365-.076,42.051-.015,4.823-.027,8.516-.035,11.016-.01,2.485-.032,3.749-.032,3.749" transform="translate(0 26.287)" fill="#263238"/>
              <path id="Trazado_623333" data-name="Trazado 623333" d="M259.365,155.858c0,.2-55.51.364-123.968.364-68.481,0-123.979-.162-123.979-.364s55.5-.364,123.979-.364c68.459,0,123.968.162,123.968.364" transform="translate(4.566 62.185)" fill="#e0e0e0"/>
              <path id="Trazado_623334" data-name="Trazado 623334" d="M259.365,140.568c0,.2-55.51.364-123.968.364-68.481,0-123.979-.162-123.979-.364s55.5-.364,123.979-.364c68.459,0,123.968.162,123.968.364" transform="translate(4.566 56.07)" fill="#e0e0e0"/>
              <path id="Trazado_623335" data-name="Trazado 623335" d="M259.365,125.277c0,.2-55.51.364-123.968.364-68.481,0-123.979-.162-123.979-.364s55.5-.364,123.979-.364c68.459,0,123.968.162,123.968.364" transform="translate(4.566 49.955)" fill="#e0e0e0"/>
              <path id="Trazado_623336" data-name="Trazado 623336" d="M259.365,109.987c0,.2-55.51.364-123.968.364-68.481,0-123.979-.162-123.979-.364s55.5-.364,123.979-.364c68.459,0,123.968.162,123.968.364" transform="translate(4.566 43.84)" fill="#e0e0e0"/>
              <path id="Trazado_623337" data-name="Trazado 623337" d="M242.04,176.414c-4.833-11.661-8.145-24.4-11.852-36.48-3.225-10.515-3.525-15.428-6.293-24.31-4.359-13.989-15.9-15.539-24.291-11.747-7.477,3.378-10.7,12.168-13.184,20.078q-4.452,14.187-8.9,28.375c-1.406,4.481-2.843,9.031-5.429,12.935s-6.522,7.144-11.121,7.751c-7.582,1-14.372-5.348-17.614-12.368s-4.14-14.934-7.037-22.109-8.861-14.055-16.506-14.194c-9.413-.171-15.809,9.435-19.723,18.116a207.065,207.065,0,0,0-11.869,33.933c-1.011,3.963-1.928,8.022-3.942,11.569s-5.357,6.581-9.365,7.074c-5.168.634-9.966-3.05-12.973-7.359s-4.855-9.368-7.932-13.627-8.035-7.791-13.166-6.9c-4.609.8-7.905,4.841-10.63,8.693a203.692,203.692,0,0,0-19.043,33.146H267.633c-11.812-4.068-20.761-20.919-25.593-32.58" transform="translate(4.466 40.831)" fill="#529d2e"/>
              <rect id="Rectángulo_333209" data-name="Rectángulo 333209" width="12.111" height="12.111" transform="translate(75.579 266.62)" fill="#ff725e"/>
              <path id="Trazado_623338" data-name="Trazado 623338" d="M135.188,195.574H72.027a1.392,1.392,0,0,1,0-2.783h63.16a1.392,1.392,0,1,1,0,2.783" transform="translate(28.249 77.1)" fill="#263238"/>
              <path id="Trazado_623339" data-name="Trazado 623339" d="M256.6,210.47s-.312.025-.923.038c-.636.008-1.536.02-2.709.036l-10.413.067-38.3.116-126.351.106-66.649-.025h-.339v-.339c.053-32.859.1-60.867.132-80.687.041-9.879.074-17.717.1-23.111.022-2.667.041-4.725.053-6.146.013-.68.021-1.2.028-1.582.01-.356.028-.536.028-.536s.02.181.029.536c.006.379.015.9.028,1.582.011,1.421.029,3.479.053,6.146.022,5.394.055,13.232.1,23.111.032,19.82.078,47.828.132,80.687l-.339-.339,66.649-.025,126.351.106,38.3.116,10.413.069,2.709.035c.61.013.923.038.923.038" transform="translate(4.369 39.355)" fill="#263238"/>
              <g id="Grupo_924779" data-name="Grupo 924779" transform="translate(139.829 165.857)" opacity="0.3">
                <g id="Grupo_924778" data-name="Grupo 924778">
                  <g id="Grupo_924777" data-name="Grupo 924777" clip-path="url(#clip-path-5)">
                    <path id="Trazado_623340" data-name="Trazado 623340" d="M190.907,118.477,99.884,202.444H145.4l54.8-50.729Z" transform="translate(-99.884 -118.477)" fill="#fff"/>
                  </g>
                </g>
              </g>
              <g id="Grupo_924782" data-name="Grupo 924782" transform="translate(87.69 199.114)" opacity="0.3">
                <g id="Grupo_924781" data-name="Grupo 924781">
                  <g id="Grupo_924780" data-name="Grupo 924780" clip-path="url(#clip-path-6)">
                    <path id="Trazado_623341" data-name="Trazado 623341" d="M125.614,149.352,75.537,192.943H62.64l59.137-50.711,5.152,8.727" transform="translate(-62.639 -142.233)" fill="#fff"/>
                  </g>
                </g>
              </g>
              <path id="Trazado_623342" data-name="Trazado 623342" d="M11.167,209.083a161.615,161.615,0,0,1,8.422-16.744,190.35,190.35,0,0,1,11.912-18.5,23.53,23.53,0,0,1,4.677-4.778,10.616,10.616,0,0,1,6.749-2.171,12.846,12.846,0,0,1,7.012,2.733,21.731,21.731,0,0,1,5.315,5.9c2.957,4.543,4.844,10.036,8.762,14.387a15.493,15.493,0,0,0,7.348,4.691,9.667,9.667,0,0,0,4.453.055,10.73,10.73,0,0,0,4.1-1.982,17.419,17.419,0,0,0,5.454-7.645,79.658,79.658,0,0,0,2.775-9.545,206.682,206.682,0,0,1,6.241-19.915q1.854-5.027,4.029-10.071a71.6,71.6,0,0,1,4.974-9.946,29.514,29.514,0,0,1,7.543-8.519,15.631,15.631,0,0,1,5.262-2.528,13.987,13.987,0,0,1,5.9-.171,17.6,17.6,0,0,1,9.9,6.326,31.479,31.479,0,0,1,5.663,10.574c1.285,3.826,2.174,7.778,3.287,11.671a39.686,39.686,0,0,0,4.694,11.162,20.458,20.458,0,0,0,8.962,7.8,12.342,12.342,0,0,0,11.292-.92,20.69,20.69,0,0,0,7.586-8.742,74.658,74.658,0,0,0,4.029-10.957l6.851-21.809c1.138-3.554,2.166-7.1,3.434-10.553a37.452,37.452,0,0,1,4.982-9.685,18.372,18.372,0,0,1,3.8-3.825,17.711,17.711,0,0,1,4.737-2.433,20.929,20.929,0,0,1,5.146-1.036,18.855,18.855,0,0,1,5.169.431,15.827,15.827,0,0,1,8.432,5.392,24.822,24.822,0,0,1,4.364,8.695c1.877,6.091,2.9,12.155,4.411,17.831.732,2.847,1.586,5.6,2.4,8.3q1.2,4.063,2.345,7.946c3.02,10.352,5.936,19.677,9.332,27.539A94.921,94.921,0,0,0,253.533,197.2a39.177,39.177,0,0,0,9.794,9.7,22.9,22.9,0,0,0,3.182,1.68c.746.323,1.123.508,1.123.508s-.392-.137-1.149-.44a20.941,20.941,0,0,1-3.234-1.624,38.663,38.663,0,0,1-9.942-9.654,94.023,94.023,0,0,1-10.764-19.161c-3.444-7.873-6.4-17.208-9.452-27.555q-1.155-3.876-2.366-7.935c-.822-2.7-1.687-5.461-2.429-8.316-1.533-5.7-2.567-11.755-4.446-17.8a24.222,24.222,0,0,0-4.264-8.472,15.192,15.192,0,0,0-8.1-5.168,18.194,18.194,0,0,0-4.975-.406,20.374,20.374,0,0,0-4.975,1.009,16.6,16.6,0,0,0-8.217,6.042,36.806,36.806,0,0,0-4.875,9.515c-1.25,3.412-2.278,6.967-3.413,10.525q-3.349,10.693-6.833,21.814a75.126,75.126,0,0,1-4.067,11.068,21.4,21.4,0,0,1-7.856,9.041,13.021,13.021,0,0,1-11.939.973,21.163,21.163,0,0,1-9.3-8.071,40.319,40.319,0,0,1-4.788-11.365c-1.12-3.921-2-7.862-3.274-11.64a30.733,30.733,0,0,0-5.528-10.341,16.9,16.9,0,0,0-9.486-6.088,13.294,13.294,0,0,0-5.59.158,14.919,14.919,0,0,0-5.026,2.413,28.877,28.877,0,0,0-7.362,8.314,71.126,71.126,0,0,0-4.937,9.848q-2.167,5.021-4.026,10.033a206.19,206.19,0,0,0-6.251,19.842,80.635,80.635,0,0,1-2.814,9.616,18.055,18.055,0,0,1-5.671,7.894,11.319,11.319,0,0,1-4.331,2.08,10.237,10.237,0,0,1-4.725-.067,16.027,16.027,0,0,1-7.623-4.877c-4.014-4.494-5.873-10-8.786-14.491a21.194,21.194,0,0,0-5.171-5.787,12.385,12.385,0,0,0-6.739-2.661,10.179,10.179,0,0,0-6.475,2.062,23.223,23.223,0,0,0-4.61,4.673,194.85,194.85,0,0,0-11.987,18.391c-3.013,5.225-5.128,9.407-6.54,12.251q-1.031,2.125-1.576,3.252c-.354.734-.552,1.1-.552,1.1" transform="translate(4.466 40.742)" fill="#263238"/>
            </g>
          </g>
        </g>
      </g>
      <g id="Grupo_924774" data-name="Grupo 924774" transform="translate(0 17.179)">
        <g id="Grupo_924771" data-name="Grupo 924771" transform="translate(0 36.246)">
          <g id="Grupo_924770" data-name="Grupo 924770" clip-path="url(#clip-path-7)">
            <path id="Trazado_623302" data-name="Trazado 623302" d="M118.23,14.743a41.508,41.508,0,0,1,10.141-4.407L130.46.3,147.419,0l2.439,9.957a41.554,41.554,0,0,1,10.292,4.049l8.57-5.618,12.2,11.781-5.312,8.762a41.554,41.554,0,0,1,4.407,10.143l10.036,2.089.3,16.958-9.957,2.441a41.555,41.555,0,0,1-4.049,10.288l5.618,8.572-11.781,12.2-8.762-5.312a41.546,41.546,0,0,1-10.143,4.4l-2.089,10.038-16.958.3L129.789,91.1A41.476,41.476,0,0,1,119.5,87.049l-8.572,5.618-12.2-11.781,5.314-8.762a41.447,41.447,0,0,1-4.407-10.143L89.595,59.892l-.3-16.958,9.959-2.441A41.553,41.553,0,0,1,103.3,30.2l-5.618-8.572,11.781-12.2Zm9.04,22.592A18.195,18.195,0,1,0,153,36.882a18.193,18.193,0,0,0-25.728.453" transform="translate(-0.352 -46.999)" fill="#e0e0e0"/>
            <path id="Trazado_623303" data-name="Trazado 623303" d="M119.416,180.476a65.5,65.5,0,0,1,15.985-6.947l3.293-15.823,26.732-.468,3.848,15.7a65.458,65.458,0,0,1,16.219,6.38L199,170.457l19.235,18.574-8.375,13.811a65.511,65.511,0,0,1,6.947,15.987l15.821,3.293.468,26.732L217.4,252.7a65.457,65.457,0,0,1-6.38,16.219l8.854,13.511-18.57,19.235L187.5,293.291a65.509,65.509,0,0,1-15.987,6.947l-3.293,15.823-26.732.468-3.848-15.7a65.637,65.637,0,0,1-16.219-6.38l-13.511,8.856L88.674,284.736l8.373-13.813A65.479,65.479,0,0,1,90.1,254.937l-15.821-3.293-.47-26.732,15.7-3.848a65.641,65.641,0,0,1,6.38-16.219l-8.854-13.511L105.6,172.1Zm14.25,35.611a28.681,28.681,0,1,0,40.556-.714,28.682,28.682,0,0,0-40.556.714" transform="translate(193.272 148.553)" fill="#ebebeb"/>
            <path id="Trazado_655418" data-name="Trazado 655418" d="M118.23,14.743a41.508,41.508,0,0,1,10.141-4.407L130.46.3,147.419,0l2.439,9.957a41.554,41.554,0,0,1,10.292,4.049l8.57-5.618,12.2,11.781-5.312,8.762a41.554,41.554,0,0,1,4.407,10.143l10.036,2.089.3,16.958-9.957,2.441a41.555,41.555,0,0,1-4.049,10.288l5.618,8.572-11.781,12.2-8.762-5.312a41.546,41.546,0,0,1-10.143,4.4l-2.089,10.038-16.958.3L129.789,91.1A41.476,41.476,0,0,1,119.5,87.049l-8.572,5.618-12.2-11.781,5.314-8.762a41.447,41.447,0,0,1-4.407-10.143L89.595,59.892l-.3-16.958,9.959-2.441A41.553,41.553,0,0,1,103.3,30.2l-5.618-8.572,11.781-12.2Zm9.04,22.592A18.195,18.195,0,1,0,153,36.882a18.193,18.193,0,0,0-25.728.453" transform="translate(205.703 -15)" fill="#e0e0e0"/>
          </g>
        </g>
        <rect id="Rectángulo_333200" data-name="Rectángulo 333200" width="503.776" height="363.554" transform="translate(94.884 74.056)" fill="#fff"/>
        <g id="Grupo_924773" data-name="Grupo 924773" transform="translate(94.381)">
          <g id="Grupo_924772" data-name="Grupo 924772" clip-path="url(#clip-path-8)">
            <path id="Trazado_623304" data-name="Trazado 623304" d="M288.788,164.7H169.417a35.946,35.946,0,0,1-35.946-35.946V116.829a35.946,35.946,0,0,1,35.946-35.946H288.788a35.946,35.946,0,0,1,35.946,35.946v11.928A35.946,35.946,0,0,1,288.788,164.7" transform="translate(124.735 75.589)" fill="#ebebeb"/>
            <path id="Trazado_623305" data-name="Trazado 623305" d="M18.925,167.691C18.236,124.523,52.632,88.84,95.6,88.146s78.489,33.862,79.179,77.03S141.072,244.024,98.1,244.719s-78.489-33.862-79.179-77.028m115.187-1.859A37.265,37.265,0,1,0,97.45,203.865a37.385,37.385,0,0,0,36.662-38.033" transform="translate(17.677 82.367)" fill="#f5f5f5"/>
            <path id="Trazado_623306" data-name="Trazado 623306" d="M18.926,167.686c-.691-43.168,33.706-78.85,76.674-79.545L96.254,129a37.437,37.437,0,0,0,1.2,74.863l.652,40.854c-42.968.693-78.487-33.86-79.177-77.028" transform="translate(17.678 82.372)" fill="#455a64"/>
            <path id="Trazado_623307" data-name="Trazado 623307" d="M114.7,146.279a2.737,2.737,0,0,1,.031.605c0,.457-.008,1.043-.012,1.782a17.405,17.405,0,0,1-.2,2.888,26.269,26.269,0,0,1-.65,3.9A35.484,35.484,0,0,1,110,165.576a37.335,37.335,0,0,1-44.853,17.088,39.253,39.253,0,0,1-4.964-2.091,39.821,39.821,0,0,1-4.68-2.911,41.875,41.875,0,0,1-4.339-3.587,42.383,42.383,0,0,1-3.772-4.329A36.829,36.829,0,0,1,41.822,159.4a37.593,37.593,0,0,1-.385-23.882A36.883,36.883,0,0,1,46.668,125a42.212,42.212,0,0,1,3.631-4.449,41.994,41.994,0,0,1,4.223-3.726,39.793,39.793,0,0,1,4.583-3.062,39.6,39.6,0,0,1,4.9-2.252,37.451,37.451,0,0,1,45.381,15.631,35.518,35.518,0,0,1,4.2,9.986,26.6,26.6,0,0,1,.774,3.881,17.366,17.366,0,0,1,.29,2.882c.027.737.05,1.323.068,1.78a2.665,2.665,0,0,1-.012.605,2.715,2.715,0,0,1-.091-.6c-.044-.455-.1-1.037-.168-1.768a18.678,18.678,0,0,0-.383-2.852,27.423,27.423,0,0,0-.857-3.825,35.892,35.892,0,0,0-4.3-9.795,37.159,37.159,0,0,0-9.58-10.352,36.541,36.541,0,0,0-34.988-4.707,38.9,38.9,0,0,0-4.767,2.209,39.23,39.23,0,0,0-4.457,3A41.027,41.027,0,0,0,51,121.229a41.584,41.584,0,0,0-3.529,4.343,35.97,35.97,0,0,0-5.08,10.249,39.647,39.647,0,0,0-1.706,11.658,37.2,37.2,0,0,0,7.487,21.673,41.506,41.506,0,0,0,3.666,4.225,40.9,40.9,0,0,0,4.221,3.5,33.78,33.78,0,0,0,9.386,4.908,36.547,36.547,0,0,0,34.816-5.835,37.146,37.146,0,0,0,9.241-10.655,35.908,35.908,0,0,0,3.989-9.928,27.191,27.191,0,0,0,.733-3.852,18.488,18.488,0,0,0,.292-2.861c.046-.735.083-1.317.112-1.772a2.814,2.814,0,0,1,.072-.605" transform="translate(37.085 101.919)" fill="#263238"/>
            <path id="Trazado_623308" data-name="Trazado 623308" d="M18.926,167.887s.064.428.135,1.261c.07.872.168,2.1.3,3.7.062.816.13,1.724.205,2.728.12,1,.352,2.078.546,3.254s.428,2.439.664,3.79a41.506,41.506,0,0,0,1.083,4.242A74.965,74.965,0,0,0,30.8,207.458a77.8,77.8,0,0,0,20.065,21.8l3.4,2.461c1.182.772,2.441,1.453,3.68,2.2,1.263.7,2.468,1.54,3.817,2.147s2.693,1.246,4.061,1.877l2.062.954c.718.248,1.439.5,2.165.752q2.176.76,4.4,1.532c1.488.482,3.049.764,4.593,1.163a39.736,39.736,0,0,0,4.715,1,71.614,71.614,0,0,0,9.835.989c1.675.029,3.366.17,5.065.112q2.548-.171,5.134-.35c.861-.074,1.731-.079,2.59-.215l2.583-.441c1.722-.319,3.478-.544,5.206-.944a84.713,84.713,0,0,0,20.33-7.874c1.611-.934,3.171-1.989,4.773-2.985a40.5,40.5,0,0,0,4.618-3.322,86.525,86.525,0,0,0,8.651-7.657l3.865-4.417.973-1.112.863-1.2,1.735-2.409,1.741-2.42,1.511-2.585,1.515-2.6.76-1.3.635-1.372q1.265-2.751,2.54-5.519,1-2.879,2-5.782a83.305,83.305,0,0,0,3.6-24.546,83.32,83.32,0,0,0-4.378-24.43q-1.1-2.867-2.19-5.715-1.361-2.731-2.714-5.436l-.677-1.352-.8-1.279-1.6-2.546-1.594-2.536-1.82-2.364-1.809-2.352-.9-1.172-1.008-1.079-4.006-4.291a86.539,86.539,0,0,0-8.9-7.376,40.944,40.944,0,0,0-4.722-3.175c-1.635-.942-3.227-1.946-4.869-2.826a84.359,84.359,0,0,0-20.576-7.214c-1.741-.342-3.5-.513-5.237-.776l-2.594-.358c-.863-.106-1.733-.083-2.6-.13-1.728-.066-3.442-.124-5.142-.186-1.7,0-3.385.193-5.059.279a72.061,72.061,0,0,0-9.8,1.306,40.226,40.226,0,0,0-4.682,1.153c-1.528.447-3.08.782-4.552,1.314q-2.191.844-4.341,1.673-1.077.412-2.142.824l-2.029,1.018-4,2.01c-1.325.65-2.505,1.528-3.745,2.269-1.213.784-2.451,1.5-3.606,2.316q-1.677,1.3-3.314,2.565a77.875,77.875,0,0,0-19.351,22.435,74.93,74.93,0,0,0-8.28,20.868A41.327,41.327,0,0,0,20.3,153.1q-.29,2.037-.542,3.809c-.157,1.182-.354,2.267-.441,3.269q-.064,1.506-.118,2.732-.116,2.409-.178,3.709c-.046.838-.095,1.265-.095,1.265s-.019-.426-.008-1.265c.017-.871.045-2.107.077-3.718q.032-1.233.07-2.741c.072-1.008.253-2.1.395-3.287s.321-2.467.5-3.832a41.3,41.3,0,0,1,.907-4.3,74.518,74.518,0,0,1,8.173-21.056,78.106,78.106,0,0,1,19.4-22.715l3.335-2.6c1.163-.824,2.409-1.557,3.631-2.352,1.248-.753,2.438-1.642,3.772-2.306l4.032-2.043c.679-.346,1.36-.689,2.047-1.035l2.159-.84,4.384-1.7c1.486-.542,3.053-.886,4.6-1.343a40.582,40.582,0,0,1,4.728-1.178,72.917,72.917,0,0,1,9.9-1.346c1.691-.091,3.393-.288,5.113-.3q2.583.087,5.2.176c.873.044,1.753.023,2.627.128l2.625.356c1.753.261,3.536.431,5.3.774a85.454,85.454,0,0,1,20.837,7.264c1.666.892,3.279,1.9,4.933,2.855a41.362,41.362,0,0,1,4.786,3.206,87.06,87.06,0,0,1,9.013,7.46q2.023,2.159,4.061,4.341l1.021,1.091.915,1.184,1.836,2.383,1.842,2.391,1.617,2.567,1.619,2.579.813,1.294.687,1.368q1.373,2.742,2.753,5.5,1.106,2.884,2.221,5.792a84.149,84.149,0,0,1,4.44,24.741,84.21,84.21,0,0,1-3.651,24.861L169.6,196.1q-1.291,2.806-2.575,5.587l-.644,1.389-.77,1.319-1.536,2.629-1.532,2.616-1.766,2.447-1.757,2.439-.876,1.215-.985,1.124q-1.97,2.243-3.919,4.465a86.789,86.789,0,0,1-8.767,7.746,41.179,41.179,0,0,1-4.68,3.354c-1.623,1.008-3.2,2.07-4.836,3.014a82.5,82.5,0,0,1-10.166,4.685,81.593,81.593,0,0,1-10.423,3.248c-1.749.4-3.527.629-5.27.946l-2.612.441c-.871.134-1.751.137-2.621.211q-2.615.177-5.192.344c-1.718.052-3.428-.091-5.121-.128a73.078,73.078,0,0,1-9.942-1.023,40.643,40.643,0,0,1-4.765-1.025c-1.557-.406-3.134-.7-4.637-1.192l-4.434-1.559q-1.1-.389-2.186-.77l-2.082-.969q-2.066-.963-4.093-1.911c-1.358-.617-2.573-1.47-3.846-2.182-1.248-.756-2.517-1.449-3.7-2.234q-1.729-1.259-3.418-2.492a78.068,78.068,0,0,1-20.119-22.079,74.426,74.426,0,0,1-8.845-20.785,41.009,41.009,0,0,1-1.045-4.272q-.334-2.04-.621-3.815c-.178-1.184-.395-2.269-.5-3.271q-.087-1.512-.159-2.739c-.083-1.61-.149-2.844-.2-3.716-.039-.84-.033-1.267-.033-1.267" transform="translate(17.676 82.169)" fill="#263238"/>
            <path id="Trazado_623309" data-name="Trazado 623309" d="M54.938,84.9c50.269-.811,90.372,38.2,91.179,88.7l-47.576.766c-.387-24.145-18.759-39.349-42.8-38.96Z" transform="translate(51.342 79.331)" fill="#529d2e"/>
            <path id="Trazado_623310" data-name="Trazado 623310" d="M54.95,84.9s.031.331.054.934c.021.65.048,1.534.083,2.662.06,2.376.147,5.779.255,10.127.19,8.771.458,21.344.789,36.782l-.381-.37a53.128,53.128,0,0,1,14.308,1.753,40.888,40.888,0,0,1,14.173,6.906A36.846,36.846,0,0,1,94.98,156.809a41.412,41.412,0,0,1,4.061,17.554l-.5-.48,36.842-.609,10.735-.172-.493.511a99.866,99.866,0,0,0-4.85-28.148q-1.216-3.244-2.409-6.423c-.9-2.076-1.96-4.055-2.915-6.055a46.771,46.771,0,0,0-3.244-5.707,53,53,0,0,0-3.525-5.357q-1.921-2.519-3.792-4.972c-1.329-1.565-2.761-3.008-4.105-4.486q-1.019-1.094-2.025-2.176-1.1-.978-2.192-1.94l-4.281-3.78A91.615,91.615,0,0,0,94.634,93.683q-2.162-1-4.215-1.95c-1.406-.546-2.807-.99-4.152-1.472s-2.658-.925-3.927-1.368c-1.281-.406-2.565-.644-3.782-.96l-3.536-.855-1.671-.4c-.551-.1-1.1-.161-1.631-.24l-5.827-.818a36.16,36.16,0,0,0-4.641-.368l-3.418-.17L55.7,84.96a7.289,7.289,0,0,1-.753-.06,5,5,0,0,1,.687-.014c.518.008,1.211.014,2.1.025q1.431.02,3.463.056a33.989,33.989,0,0,1,4.734.273l5.866.739c.536.074,1.087.124,1.644.221l1.683.387,3.567.82c1.227.306,2.523.532,3.815.929q1.921.653,3.966,1.343c1.356.472,2.772.911,4.192,1.449q2.078.94,4.262,1.933A91.469,91.469,0,0,1,112.8,103.934l4.341,3.8q1.1.966,2.219,1.95,1.021,1.085,2.056,2.19c1.362,1.484,2.813,2.937,4.161,4.513l3.848,5.01a53.491,53.491,0,0,1,3.579,5.4,47.367,47.367,0,0,1,3.293,5.761c.971,2.018,2.049,4.016,2.96,6.111q1.213,3.212,2.447,6.488a100.305,100.305,0,0,1,4.933,28.444l.014.5-.509.01c-3.411.054-7.057.114-10.735.174l-36.842.578-.489.008-.008-.489a40.516,40.516,0,0,0-3.931-17.159A36,36,0,0,0,83.692,144.4a40.15,40.15,0,0,0-13.853-6.815,52.564,52.564,0,0,0-14.074-1.8h-.377l0-.368c-.164-15.534-.3-28.188-.393-37.018-.027-4.312-.05-7.69-.066-10.044v-2.6a6.671,6.671,0,0,1,.025-.859" transform="translate(51.33 79.33)" fill="#263238"/>
            <rect id="Rectángulo_333201" data-name="Rectángulo 333201" width="503.776" height="48.559" transform="translate(0.505 74.056)" fill="#e0e0e0"/>
            <path id="Trazado_623311" data-name="Trazado 623311" d="M290.57,98.336H148.986a3.021,3.021,0,0,1,0-6.042H290.57a3.021,3.021,0,1,1,0,6.042" transform="translate(136.412 86.253)" fill="#263238"/>
            <path id="Trazado_623312" data-name="Trazado 623312" d="M290.57,106.635H148.986a3.02,3.02,0,0,1,0-6.04H290.57a3.02,3.02,0,1,1,0,6.04" transform="translate(136.412 94.011)" fill="#263238"/>
            <path id="Trazado_623313" data-name="Trazado 623313" d="M213.331,114.937H148.986a3.021,3.021,0,0,1,0-6.042h64.345a3.021,3.021,0,1,1,0,6.042" transform="translate(136.412 101.768)" fill="#263238"/>
            <path id="Trazado_623314" data-name="Trazado 623314" d="M288.788,217.706H169.417a35.946,35.946,0,0,1-35.946-35.946V169.832a35.946,35.946,0,0,1,35.946-35.946H288.788a35.946,35.946,0,0,1,35.946,35.946V181.76a35.946,35.946,0,0,1-35.946,35.946" transform="translate(124.735 125.123)" fill="#ebebeb"/>
            <path id="Trazado_623315" data-name="Trazado 623315" d="M307.127,220.249H149a16.569,16.569,0,1,1,0-33.139H307.127a16.569,16.569,0,1,1,0,33.139" transform="translate(123.765 174.864)" fill="#ebebeb"/>
            <path id="Trazado_623316" data-name="Trazado 623316" d="M290.087,151.73H148.5a3.021,3.021,0,0,1,0-6.042H290.087a3.021,3.021,0,1,1,0,6.042" transform="translate(135.961 136.153)" fill="#263238"/>
            <path id="Trazado_623317" data-name="Trazado 623317" d="M286.97,200.343H145.386a3.021,3.021,0,0,1,0-6.042H286.97a3.021,3.021,0,1,1,0,6.042" transform="translate(133.048 181.584)" fill="#263238"/>
            <path id="Trazado_623318" data-name="Trazado 623318" d="M290.087,160.031H148.5a3.021,3.021,0,0,1,0-6.042H290.087a3.021,3.021,0,1,1,0,6.042" transform="translate(135.961 143.91)" fill="#263238"/>
            <path id="Trazado_623319" data-name="Trazado 623319" d="M212.848,168.332H148.5a3.021,3.021,0,0,1,0-6.042h64.345a3.021,3.021,0,1,1,0,6.042" transform="translate(135.961 151.668)" fill="#263238"/>
            <path id="Trazado_623320" data-name="Trazado 623320" d="M157.67,90.379a13.405,13.405,0,0,1-2.646.2l-7.218.161c-6.1.091-14.515.147-23.814.147-3.811-.01-7.469-.017-10.841-.027l.337-.139c-4.73,4.684-8.814,8.676-11.733,11.478q-2.052,1.938-3.442,3.248A6.991,6.991,0,0,1,97,106.529a6.991,6.991,0,0,1,1.087-1.312l3.248-3.442c2.8-2.919,6.794-7,11.478-11.733l.137-.139h.2c3.372-.01,7.03-.019,10.841-.027,9.3,0,17.719.056,23.814.147l7.218.161a13.407,13.407,0,0,1,2.646.2" transform="translate(90.649 83.994)" fill="#263238"/>
            <path id="Trazado_623321" data-name="Trazado 623321" d="M133.249,92.157a4.022,4.022,0,1,1-4.022-4.022,4.022,4.022,0,0,1,4.022,4.022" transform="translate(117.01 82.367)" fill="#263238"/>
            <path id="Trazado_623322" data-name="Trazado 623322" d="M133.249,154.674a4.022,4.022,0,1,1-4.022-4.022,4.022,4.022,0,0,1,4.022,4.022" transform="translate(117.01 140.792)" fill="#263238"/>
            <path id="Trazado_623323" data-name="Trazado 623323" d="M148.171,153.415c0,.139-2.583.242-6.753.3s-9.936.077-16.3.05l-16.3-.161-4.937-.1a13.612,13.612,0,0,1-1.813-.091c-.048-.205,2.592-.416,6.746-.518,4.173-.114,9.938-.161,16.306-.135s12.128.124,16.3.246,6.752.269,6.75.408" transform="translate(95.389 142.757)" fill="#263238"/>
            <rect id="Rectángulo_333202" data-name="Rectángulo 333202" width="13.186" height="13.186" transform="translate(61.809 384.585)" fill="#455a64"/>
            <rect id="Rectángulo_333203" data-name="Rectángulo 333203" width="13.186" height="13.186" transform="translate(106.052 384.585)" fill="#e0e0e0"/>
            <rect id="Rectángulo_333204" data-name="Rectángulo 333204" width="13.186" height="13.186" transform="translate(154.062 384.585)" fill="#529d2e"/>
            <path id="Trazado_623324" data-name="Trazado 623324" d="M24.466,54.212a6.859,6.859,0,0,1-6.709,7,7.005,7.005,0,0,1,0-14,6.859,6.859,0,0,1,6.709,7" transform="translate(10.325 44.123)" fill="#fff"/>
            <path id="Trazado_623325" data-name="Trazado 623325" d="M36.158,54.212a6.861,6.861,0,0,1-6.709,7,7.005,7.005,0,0,1,0-14,6.861,6.861,0,0,1,6.709,7" transform="translate(21.252 44.123)" fill="#fff"/>
            <path id="Trazado_623326" data-name="Trazado 623326" d="M47.849,54.212a6.715,6.715,0,1,1-6.709-7,6.859,6.859,0,0,1,6.709,7" transform="translate(32.178 44.123)" fill="#fff"/>
            <path id="Trazado_623327" data-name="Trazado 623327" d="M504.281,402.079c0-3.374-.16-143.043-.41-363.556l.41.41L.546,39.028H.5l.5-.5C.992,168.832.975,292.417.961,402.079L.5,401.622c297.89.269,499.725.453,503.776.457-4.047,0-205.886.188-503.776.457H.046v-.457C.033,292.417.017,168.832,0,38.523v-.5H.546l503.735.095h.41v.408c-.25,220.513-.406,360.184-.41,363.556" transform="translate(0 35.532)" fill="#263238"/>
          </g>
        </g>
      </g>
      <g id="Grupo_924796" data-name="Grupo 924796" transform="translate(69.146 615.659)">
        <g id="Grupo_924795" data-name="Grupo 924795" clip-path="url(#clip-path-9)">
          <g id="Grupo_924794" data-name="Grupo 924794" transform="translate(0)">
            <g id="Grupo_924793" data-name="Grupo 924793" clip-path="url(#clip-path-9)">
              <path id="Trazado_623343" data-name="Trazado 623343" d="M46.164,181.427s-9.33-51.691-8.553-81.766-.046-63.909-.046-63.909h4.3s-2.911,59.7.258,95.7c3.165,35.977,11.51,49.976,11.51,49.976Z" transform="translate(45.391 27.867)" fill="#263238"/>
              <path id="Trazado_623344" data-name="Trazado 623344" d="M77.587,5.458A9.366,9.366,0,0,0,73.669.837c-2.727-1.393-6.3-.815-9.348.053-12.992,3.7-24.508,23.22-29.76,33.486L51.809,81.2C82.94,57.932,88.333,27.4,77.587,5.458" transform="translate(41.763 0)" fill="#455a64"/>
              <path id="Trazado_623345" data-name="Trazado 623345" d="M63.232,1.535a2.333,2.333,0,0,1-.25.61c-.223.448-.5,1.014-.846,1.706-.755,1.473-1.817,3.618-3.085,6.276a206.417,206.417,0,0,0-8.668,21.127A197.571,197.571,0,0,0,44.3,52.965c-.616,2.806-1.078,5.082-1.371,6.659-.15.737-.272,1.336-.369,1.813a2.31,2.31,0,0,1-.177.626,2.213,2.213,0,0,1,.035-.642c.062-.48.139-1.085.234-1.827.212-1.587.6-3.876,1.151-6.7A167.628,167.628,0,0,1,49.7,31.1,175.415,175.415,0,0,1,58.583,9.98c1.332-2.646,2.465-4.769,3.3-6.216L62.85,2.1a2.679,2.679,0,0,1,.382-.564" transform="translate(51.193 1.196)" fill="#263238"/>
              <path id="Trazado_623346" data-name="Trazado 623346" d="M53.482,81.914c-16.167-7.2-25.694-20.74-26.584-35.6-.621-10.394,3.341-20.588,7.831-30.345a3.994,3.994,0,0,1,1.826-2.2c1.356-.619,3.052-.069,4.408.552,11.746,5.392,18.864,15.666,22.651,26.122,2.522,6.961,3.825,14.3,2.661,21.485S60.01,76.93,53.482,81.914" transform="translate(32.424 10.517)" fill="#455a64"/>
              <path id="Trazado_623347" data-name="Trazado 623347" d="M45.175,78.571a2.106,2.106,0,0,1-.064-.628c-.011-.472-.024-1.068-.042-1.8,0-1.561-.084-3.815-.243-6.6a146.646,146.646,0,0,0-3-21.631c-1.793-8.388-3.968-15.9-5.572-21.329-.791-2.657-1.44-4.833-1.915-6.426-.2-.714-.367-1.294-.5-1.755a2.262,2.262,0,0,1-.128-.621,2.357,2.357,0,0,1,.267.593c.166.456.371,1.025.627,1.724.53,1.5,1.265,3.685,2.133,6.386,1.729,5.41,3.986,12.919,5.786,21.329a128.643,128.643,0,0,1,2.8,21.715c.095,2.794.095,5.055.015,6.618-.035.731-.066,1.324-.091,1.8a2.145,2.145,0,0,1-.079.626" transform="translate(40.731 13.861)" fill="#263238"/>
              <g id="Grupo_924789" data-name="Grupo 924789" transform="translate(59.259 24.01)" opacity="0.3">
                <g id="Grupo_924788" data-name="Grupo 924788">
                  <g id="Grupo_924787" data-name="Grupo 924787" clip-path="url(#clip-path-11)">
                    <path id="Trazado_623348" data-name="Trazado 623348" d="M53.482,81.914c-16.167-7.2-25.694-20.74-26.584-35.6-.621-10.394,3.341-20.588,7.831-30.345a3.994,3.994,0,0,1,1.826-2.2c1.356-.619,3.052-.069,4.408.552,11.746,5.392,18.864,15.666,22.651,26.122,2.522,6.961,3.825,14.3,2.661,21.485S60.01,76.93,53.482,81.914" transform="translate(-26.835 -13.493)"/>
                  </g>
                </g>
              </g>
              <path id="Trazado_623349" data-name="Trazado 623349" d="M47.16,96.875c15.911,2.817,29.013,11.86,44.363,16.257,10.154,2.909,21.64,3.938,29.749,9.661-1.946-3.959-6.559-6.595-11.04-8.851A221.888,221.888,0,0,0,70.023,98.475c-7.221-2.009-15.056-3.689-22.415-2.034" transform="translate(56.985 74.648)" fill="#455a64"/>
              <path id="Trazado_623350" data-name="Trazado 623350" d="M69.978,110.232C50.053,109.974,29.071,96.3,9.238,95.487c20.756-5.4,50.476-.989,60.74,14.745" transform="translate(11.163 72.714)" fill="#455a64"/>
              <path id="Trazado_623351" data-name="Trazado 623351" d="M40.269,89.732c10.119-2.94,21.229-3.078,31.855-1.747s20.893,4.077,31.1,6.812c-1.022-5.572-6.621-9.76-11.881-13.469a83.723,83.723,0,0,0-12.488-7.733,32.979,32.979,0,0,0-14.977-3.4A26.04,26.04,0,0,0,47.349,76.9c-4.156,3.861-6.391,7.748-7.08,12.83" transform="translate(48.659 54.698)" fill="#455a64"/>
              <path id="Trazado_623352" data-name="Trazado 623352" d="M48.031,74.556C35.488,65.927,16.49,66.771,0,67.07c25.347,9.766,52.66,23.152,74.49,37.4.671-9.392-10.613-19.017-26.458-29.918" transform="translate(0 52.145)" fill="#455a64"/>
              <g id="Grupo_924792" data-name="Grupo 924792" transform="translate(0 119.043)" opacity="0.3">
                <g id="Grupo_924791" data-name="Grupo 924791">
                  <g id="Grupo_924790" data-name="Grupo 924790" clip-path="url(#clip-path-12)">
                    <path id="Trazado_623353" data-name="Trazado 623353" d="M48.031,74.556C35.488,65.927,16.49,66.771,0,67.07c25.347,9.766,52.66,23.152,74.49,37.4.671-9.392-10.613-19.017-26.458-29.918" transform="translate(0 -66.899)"/>
                  </g>
                </g>
              </g>
              <path id="Trazado_623354" data-name="Trazado 623354" d="M42.86,82.7a150.613,150.613,0,0,1,19.29-9.034c6.6-2.418,12.762-6.267,19.137-9.05C89.555,61,96.719,55.99,104.309,51.517s15.927-8.509,25.213-9.694a61.166,61.166,0,0,0-22.945,1.069,171.377,171.377,0,0,0-21.6,6.771c-9.785,3.552-19.74,7.191-27.739,12.956S42.014,74.075,42.86,82.7" transform="translate(51.708 32.093)" fill="#455a64"/>
              <path id="Trazado_623355" data-name="Trazado 623355" d="M100.166,108.116a2.826,2.826,0,0,1-.632-.219c-.47-.2-1.045-.436-1.738-.726-1.5-.644-3.655-1.6-6.369-2.7-1.343-.571-2.829-1.167-4.445-1.778-1.6-.641-3.335-1.271-5.174-1.913a88.783,88.783,0,0,0-12.27-3.445,32.538,32.538,0,0,0-12.782-.26,43.382,43.382,0,0,0-5.415,1.3,30.6,30.6,0,0,0-4.373,1.808,27.465,27.465,0,0,0-5.494,3.657c-1.153,1-1.716,1.607-1.767,1.577-.02-.012.1-.174.358-.473a15.655,15.655,0,0,1,1.2-1.251A24.7,24.7,0,0,1,46.7,99.852a29.756,29.756,0,0,1,4.419-1.908,42.448,42.448,0,0,1,5.49-1.377,32.765,32.765,0,0,1,13.1.215,84.941,84.941,0,0,1,12.369,3.52c1.842.657,3.577,1.308,5.17,1.968,1.612.632,3.09,1.249,4.421,1.845,2.69,1.148,4.81,2.157,6.272,2.861.667.327,1.221.6,1.674.819a2.516,2.516,0,0,1,.559.32" transform="translate(47.978 74.83)" fill="#263238"/>
              <path id="Trazado_623356" data-name="Trazado 623356" d="M30.014,98.341a5.46,5.46,0,0,1,1.248.294,31.858,31.858,0,0,1,3.246,1.139,40.666,40.666,0,0,1,9.52,5.438,33.692,33.692,0,0,1,7.129,7.449,20.937,20.937,0,0,1,1.541,2.57c.309.625.459.977.413.993-.113.041-.857-1.32-2.389-3.358a38.873,38.873,0,0,0-7.186-7.239,45.948,45.948,0,0,0-9.262-5.495c-2.59-1.151-4.306-1.7-4.26-1.79" transform="translate(36.265 76.647)" fill="#263238"/>
              <path id="Trazado_623357" data-name="Trazado 623357" d="M10.049,70.75a4.976,4.976,0,0,1,.848.2l2.392.685,3.772,1.121c1.469.44,3.065,1.089,4.872,1.73A121.853,121.853,0,0,1,47.874,87.808a118.142,118.142,0,0,1,12.1,9.6,115.358,115.358,0,0,1,8.586,8.766c2.275,2.6,4,4.76,5.183,6.257.559.706,1.011,1.278,1.363,1.723a3.265,3.265,0,0,1,.442.619,3.483,3.483,0,0,1-.559-.553c-.349-.374-.855-.932-1.477-1.664-1.254-1.461-3.039-3.586-5.36-6.144-2.306-2.566-5.234-5.513-8.668-8.652a123.845,123.845,0,0,0-12.069-9.513A128.1,128.1,0,0,0,21.718,74.855c-1.784-.662-3.361-1.335-4.81-1.8l-3.717-1.208-2.341-.785a4.768,4.768,0,0,1-.8-.311" transform="translate(12.143 55.144)" fill="#263238"/>
              <path id="Trazado_623358" data-name="Trazado 623358" d="M71.616,76.6a8.723,8.723,0,0,1-1.588-.165c-.55-.082-1.157-.171-1.831-.272-.713-.11-1.544-.112-2.449-.189A30.326,30.326,0,0,0,52.054,78.15a25.1,25.1,0,0,0-6.232,3.724,24.522,24.522,0,0,0-4.006,3.991,31.224,31.224,0,0,0-2.738,4.214,3.917,3.917,0,0,1,.4-1.253,16.759,16.759,0,0,1,1.908-3.175A22.574,22.574,0,0,1,45.356,81.5a24.539,24.539,0,0,1,6.367-3.861,29.494,29.494,0,0,1,14.069-2.075c.916.1,1.758.135,2.471.278l1.824.37a8.094,8.094,0,0,1,1.528.383" transform="translate(47.211 58.806)" fill="#263238"/>
              <path id="Trazado_623359" data-name="Trazado 623359" d="M92.137,47.96a4.392,4.392,0,0,1-.753.374c-.574.253-1.312.575-2.224.973-1.935.84-4.715,2.078-8.1,3.683-3.363,1.625-7.327,3.623-11.543,6.052a94.6,94.6,0,0,0-12.888,8.7,28,28,0,0,0-5.271,5.5c-1.305,2.02-2.553,3.972-3.7,5.846a97.122,97.122,0,0,0-5.536,10.155,53.48,53.48,0,0,0-2.692,7.15c-.51,1.719-.693,2.689-.764,2.68a2.74,2.74,0,0,1,.08-.712c.073-.463.192-1.144.413-2.014a45.385,45.385,0,0,1,2.491-7.241,88.943,88.943,0,0,1,5.422-10.251c1.135-1.886,2.372-3.845,3.67-5.87a28.149,28.149,0,0,1,5.377-5.641,92.006,92.006,0,0,1,13.02-8.732c4.258-2.418,8.264-4.386,11.671-5.972,3.421-1.564,6.245-2.751,8.219-3.53l2.288-.879a4.822,4.822,0,0,1,.817-.27" transform="translate(46.715 37.381)" fill="#263238"/>
              <path id="Trazado_623360" data-name="Trazado 623360" d="M44.859,89.907a5.458,5.458,0,0,1-.4-1.352c-.232-.991-.526-2.233-.872-3.71A88.256,88.256,0,0,0,39.824,72.8a94.538,94.538,0,0,0-5.691-11.552c-.773-1.368-1.424-2.518-1.943-3.436a5.745,5.745,0,0,1-.638-1.292,6.42,6.42,0,0,1,.888,1.192c.528.785,1.272,1.931,2.149,3.363A76.239,76.239,0,0,1,40.5,72.619a70.421,70.421,0,0,1,3.584,12.152c.314,1.58.537,2.86.651,3.749a5.269,5.269,0,0,1,.121,1.386" transform="translate(38.119 44.051)" fill="#263238"/>
              <path id="Trazado_623361" data-name="Trazado 623361" d="M66.805,75.013a37.661,37.661,0,0,0-6.479-17.335C50.654,42.944,32.477,32.021,12.191,28.756Q34.474,55.515,56.753,82.273l5.755,9.554c3.926-5.192,4.8-10.748,4.3-16.814" transform="translate(14.731 22.414)" fill="#455a64"/>
              <rect id="Rectángulo_333216" data-name="Rectángulo 333216" width="103.62" height="14.798" transform="translate(41.839 202.9)" fill="#727997"/>
              <path id="Trazado_623362" data-name="Trazado 623362" d="M22.45,120.69l8.825,45.919h68.79l10.529-45.919Z" transform="translate(27.127 94.072)" fill="#12263f"/>
              <path id="Trazado_623363" data-name="Trazado 623363" d="M122.968,122.479c0,.162-23.373.294-52.2.294s-52.2-.132-52.2-.294,23.369-.294,52.2-.294,52.2.132,52.2.294" transform="translate(22.434 95.237)" fill="#263238"/>
            </g>
          </g>
        </g>
      </g>
      <g id="Grupo_924800" data-name="Grupo 924800" transform="translate(584.543 616.439)">
        <g id="Grupo_924799" data-name="Grupo 924799" clip-path="url(#clip-path-13)">
          <path id="Trazado_623371" data-name="Trazado 623371" d="M31.436,107.672a42.8,42.8,0,0,0-18.313-6.3c-2.992-.307-6.261-.219-8.662,1.593a1.78,1.78,0,0,0-.891,1.582,1.935,1.935,0,0,0,.847,1.082c7.45,5.683,18.721,6.4,27.019,2.046" transform="translate(1.195 34.048)" fill="#e0e0e0"/>
          <path id="Trazado_623372" data-name="Trazado 623372" d="M28.965,112.889a89.324,89.324,0,0,1-11.828-10.407A29.909,29.909,0,0,1,9.721,88.768c-.318-1.562-.417-3.349.585-4.589,9.429,7.363,16.835,16.887,18.658,28.71" transform="translate(3.196 28.313)" fill="#e0e0e0"/>
          <path id="Trazado_623373" data-name="Trazado 623373" d="M24.5,113.132a42.793,42.793,0,0,1,.219-15.53c1.184-5.07,3.942-9.922,8.272-12.814,1.629,3.809.929,8.2-.219,12.175a59.152,59.152,0,0,1-8.2,17.268" transform="translate(8.037 28.518)" fill="#e0e0e0"/>
          <path id="Trazado_623374" data-name="Trazado 623374" d="M37.072,118.39c-5.61.682-10.5,3.639-14.686,7.433a27.782,27.782,0,0,0-8.4,14.42c5.5-.339,10.172-4.22,13.558-8.573s5.732-9.126,9.452-13.2" transform="translate(4.704 39.819)" fill="#e0e0e0"/>
          <path id="Trazado_623375" data-name="Trazado 623375" d="M33.4,129a36.221,36.221,0,0,1,4.183-34.262C40.778,106.1,39.6,118.947,33.4,129" transform="translate(10.384 31.863)" fill="#e0e0e0"/>
          <path id="Trazado_623376" data-name="Trazado 623376" d="M48.3,131.266a26.194,26.194,0,0,0-25.044,14.416c-.31.62-.584,1.408-.168,1.963a1.864,1.864,0,0,0,1.661.489c4.935-.321,9.31-3.29,12.92-6.671s6.754-7.288,10.743-10.212" transform="translate(7.694 44.134)" fill="#e0e0e0"/>
          <path id="Trazado_623377" data-name="Trazado 623377" d="M42.138,139.395a46.639,46.639,0,0,1-.465-26.055c.918-3.354,2.459-6.885,5.559-8.458a1.1,1.1,0,0,1,.851-.15,1.124,1.124,0,0,1,.537.623,15.694,15.694,0,0,1,1.311,7.475,46.936,46.936,0,0,1-1.171,7.568c-.977,4.624-1.5,9.595-4.033,13.583a27.663,27.663,0,0,0-1.613,2.984c-.48,1.014-.484,1.371-.923,2.177" transform="translate(13.467 35.213)" fill="#e0e0e0"/>
          <path id="Trazado_623378" data-name="Trazado 623378" d="M66.025,141.489c-2.395-9.11.147-20.153,5.888-27.622.422-.549.984-1.139,1.673-1.076,1.058.1,1.331,1.507,1.284,2.568a49.912,49.912,0,0,1-8.845,26.129" transform="translate(21.905 37.935)" fill="#e0e0e0"/>
          <path id="Trazado_623379" data-name="Trazado 623379" d="M67.98,138.16c11.068,2.88,23.765.08,32.97-6.706a26.688,26.688,0,0,0-17.848-2.19c-5.963,1.363-11.411,4.034-15.122,8.9" transform="translate(22.864 43.257)" fill="#e0e0e0"/>
          <path id="Trazado_623380" data-name="Trazado 623380" d="M69.82,135.572c6.2-10.105,18.082-16.7,29.923-17.3-1.364,4.816-5.321,8.559-9.787,10.822s-9.449,3.246-14.363,4.2c-1.912.372-4.534.779-5.773,2.281" transform="translate(23.483 39.779)" fill="#e0e0e0"/>
          <path id="Trazado_623381" data-name="Trazado 623381" d="M67.342,117.965c1.678-5.75,3.366-11.551,3.827-17.525s-.392-12.207-3.491-17.334c-5.79,11.2-6.376,24.295-.51,35.46" transform="translate(21.204 27.952)" fill="#e0e0e0"/>
          <path id="Trazado_623382" data-name="Trazado 623382" d="M80.848,107.737c6.771-12.306,20.585-22.136,34.564-23.514-5.392,13.426-20.1,23.8-34.564,23.514" transform="translate(27.192 28.328)" fill="#e0e0e0"/>
          <path id="Trazado_623383" data-name="Trazado 623383" d="M77.66,104.131c10.1,1.538,18.7,7.987,28.139,11.9a12.609,12.609,0,0,0,6.361,1.219,4.98,4.98,0,0,0,3.118-8.809,13.612,13.612,0,0,0-4.621-2.8c-10.278-4.279-21.3-4.386-32.128-1.791" transform="translate(26.12 34.344)" fill="#e0e0e0"/>
          <path id="Trazado_623384" data-name="Trazado 623384" d="M73.287,109.046c2.286.655,3.067,1.839,4.878,3.38A52.617,52.617,0,0,0,99.5,123.388c.815.2,1.886.283,2.289-.453.353-.644-.094-1.423-.552-2a29.363,29.363,0,0,0-12.884-8.746c-4.924-1.835-9.191-4.044-15.069-3.571" transform="translate(24.649 36.512)" fill="#e0e0e0"/>
          <path id="Trazado_623385" data-name="Trazado 623385" d="M68.353,77.188a40.386,40.386,0,0,0,30.96,10.533,2.122,2.122,0,0,0,1.409-.505c.779-.849-.155-2.157-1.064-2.865-9.1-7.1-20.127-10.039-31.305-7.163" transform="translate(22.99 25.594)" fill="#e0e0e0"/>
          <path id="Trazado_623386" data-name="Trazado 623386" d="M74.2,76.888a43.151,43.151,0,0,1,38.632-6.374c-4.866,4.795-11.615,7.374-18.409,8.082A58.283,58.283,0,0,1,74.2,76.888" transform="translate(24.957 23.033)" fill="#e0e0e0"/>
          <path id="Trazado_623387" data-name="Trazado 623387" d="M73.191,66.939c-.894-9.086-.314-16.257-.945-25.385-.049-.73-.207-1.606-.889-1.87-.95-.366-1.743.8-2.054,1.771a29.1,29.1,0,0,0,3.874,25.284" transform="translate(22.862 13.324)" fill="#e0e0e0"/>
          <path id="Trazado_623388" data-name="Trazado 623388" d="M71.389,68c6.158-3.807,10.778-8.781,15.05-14.628,2.972-4.066,5.479-8.939,4.8-13.93-4.175-.084-8.141,2.217-10.856,5.391a30.306,30.306,0,0,0-5.534,11.134c-1.205,4-2.049,8.1-3.462,12.032" transform="translate(24.011 13.266)" fill="#e0e0e0"/>
          <path id="Trazado_623389" data-name="Trazado 623389" d="M82.5,63.466a121.349,121.349,0,0,0,37.037-21.838c-4.423-1.783-9.489-.716-13.911,1.069-10.107,4.08-18.363,10.965-23.319,20.671" transform="translate(27.684 13.693)" fill="#e0e0e0"/>
          <path id="Trazado_623390" data-name="Trazado 623390" d="M74.5,67.229c6.837.747,13.782,1.233,20.566.1,6.667-1.115,12.968-3.756,19.2-6.38a2.248,2.248,0,0,0,1.3-.99,1.5,1.5,0,0,0-.468-1.642,3.952,3.952,0,0,0-1.637-.767c-6.774-1.895-14.084-1.009-20.748,1.239A96.239,96.239,0,0,0,74.5,67.229" transform="translate(25.057 19.009)" fill="#e0e0e0"/>
          <path id="Trazado_623391" data-name="Trazado 623391" d="M46.148,84.723c-4.665-9.416-4.362-20.4-.333-30.108,2.837,4.322,3.183,9.826,2.665,14.97S46.4,80.021,46.294,85.19" transform="translate(14.369 18.369)" fill="#e0e0e0"/>
          <path id="Trazado_623392" data-name="Trazado 623392" d="M39.195,70.114A42,42,0,0,0,7.99,83.406c5.813.914,11.8-.585,17.088-3.167s9.985-6.2,14.642-9.8" transform="translate(2.687 23.58)" fill="#e0e0e0"/>
          <path id="Trazado_623393" data-name="Trazado 623393" d="M29.354,67.115c-5.7-.462-11.18-1.168-16.657.512S2.233,73.115,0,78.391a30.1,30.1,0,0,0,15.616-2.948,89.946,89.946,0,0,0,13.738-8.328" transform="translate(0 22.389)" fill="#e0e0e0"/>
          <path id="Trazado_623394" data-name="Trazado 623394" d="M44.254,69.321c-5.125-3.358-10.389-6.778-16.357-8.169s-12.884-.363-17.045,4.135c4.831,2.834,10.692,3.17,16.294,3.166s12.468-.068,17.748,1.8" transform="translate(3.65 20.374)" fill="#e0e0e0"/>
          <path id="Trazado_623395" data-name="Trazado 623395" d="M38.373,76.34c-8.762-8.6-12.084-24.061-8.559-35.825A54.585,54.585,0,0,1,38.373,76.34" transform="translate(9.561 13.627)" fill="#e0e0e0"/>
          <path id="Trazado_623396" data-name="Trazado 623396" d="M53.9,56.195c1.653-3.842,2.814-7.872,4.3-11.785a33.824,33.824,0,0,1,6.127-10.862,16.126,16.126,0,0,1,10.852-5.625A43.711,43.711,0,0,1,54.114,56.257" transform="translate(18.129 9.392)" fill="#e0e0e0"/>
          <path id="Trazado_623397" data-name="Trazado 623397" d="M56.343,56.768c-2.737-3.764-5.9-8.873-9.6-11.684s-8.537-4.51-13.064-3.43A30.431,30.431,0,0,0,56.343,56.768" transform="translate(11.326 13.899)" fill="#e0e0e0"/>
          <path id="Trazado_623398" data-name="Trazado 623398" d="M52.457,56.42c-1.792-4.554-3.6-9.158-4.323-14s-.283-10.012,2.192-14.235c4.811,9.092,6.36,18.852,2.377,28.336" transform="translate(16.083 9.48)" fill="#e0e0e0"/>
          <path id="Trazado_623399" data-name="Trazado 623399" d="M53.933,33.037c2.725-9.014,10.978-15.65,19.889-18.7a7.418,7.418,0,0,1,3.486-.523,3.026,3.026,0,0,1,2.57,2.145c.325,1.533-.941,2.908-2.133,3.926A67.7,67.7,0,0,1,53.933,33.037" transform="translate(18.14 4.63)" fill="#e0e0e0"/>
          <path id="Trazado_623400" data-name="Trazado 623400" d="M54.043,30.295c.346-5.812.708-11.706,2.6-17.213S62.176,2.409,67.475,0c.9,5.869-1.688,11.709-4.811,16.759S55.776,26.577,53.9,32.211" transform="translate(18.129)" fill="#e0e0e0"/>
          <path id="Trazado_623401" data-name="Trazado 623401" d="M58.154,33.617C55.9,27.047,55.67,18.7,51.735,12.981c-2.749-4-7.152-6.724-9.521-10.962a16.681,16.681,0,0,0,.553,12.445,36.009,36.009,0,0,0,7.278,10.417c2.911,3.108,5.4,5.447,8.109,8.736" transform="translate(13.875 0.679)" fill="#e0e0e0"/>
          <path id="Trazado_623402" data-name="Trazado 623402" d="M54.018,219.687c-.175,0-.326-43.82-.338-97.863-.013-54.062.119-97.874.294-97.874s.326,43.811.339,97.872c.012,54.044-.12,97.864-.3,97.864" transform="translate(18.054 8.056)" fill="#e0e0e0"/>
          <path id="Trazado_623403" data-name="Trazado 623403" d="M92.241,72.2a9.376,9.376,0,0,1-1.648.619l-4.534,1.53c-3.823,1.3-9.075,3.187-14.775,5.524-5.645,2.42-10.967,4.386-14,7.013a10.287,10.287,0,0,0-2.813,3.72c-.434,1.029-.513,1.658-.571,1.648a1.276,1.276,0,0,1,.019-.46,7.087,7.087,0,0,1,.322-1.278,9.9,9.9,0,0,1,2.745-3.966,24.625,24.625,0,0,1,6.074-3.772c2.429-1.135,5.122-2.317,7.982-3.492,5.717-2.343,11.01-4.168,14.876-5.364,1.932-.6,3.509-1.046,4.6-1.34a9.444,9.444,0,0,1,1.719-.382" transform="translate(18.125 24.281)" fill="#e0e0e0"/>
          <path id="Trazado_623404" data-name="Trazado 623404" d="M104.035,49.125a2.7,2.7,0,0,1-.461.493l-1.407,1.32-5.249,4.769L79.446,71.264c-6.821,6.071-12.715,11.872-16.8,16.239-2.046,2.181-3.656,3.989-4.755,5.249-.513.587-.933,1.066-1.27,1.45a2.755,2.755,0,0,1-.474.481,2.7,2.7,0,0,1,.374-.56c.266-.353.652-.878,1.18-1.529,1.042-1.312,2.606-3.168,4.614-5.395A221.272,221.272,0,0,1,79.024,70.793c6.843-6.058,13.072-11.5,17.6-15.42L102,50.754l1.485-1.232a2.717,2.717,0,0,1,.547-.4" transform="translate(18.884 16.522)" fill="#e0e0e0"/>
          <path id="Trazado_623405" data-name="Trazado 623405" d="M68.076,74.131c-.179-.08,1.245-3.369,2.666-7.53s2.106-7.671,2.288-7.641c.166.017-.238,3.631-1.688,7.844A51.251,51.251,0,0,1,69.22,72.07a8.169,8.169,0,0,1-1.144,2.061" transform="translate(22.891 19.83)" fill="#e0e0e0"/>
          <path id="Trazado_623406" data-name="Trazado 623406" d="M60.356,98.214a7.974,7.974,0,0,1-1.052-1.22c-.712-.914-1.616-2.071-2.691-3.453-2.262-2.923-5.388-6.958-8.893-11.374s-6.727-8.378-9.06-11.244c-1.1-1.362-2.022-2.5-2.752-3.406a7.741,7.741,0,0,1-.949-1.3,7.9,7.9,0,0,1,1.136,1.141c.7.76,1.7,1.879,2.908,3.277,2.423,2.8,5.7,6.716,9.214,11.138s6.583,8.5,8.754,11.5c1.086,1.5,1.951,2.719,2.532,3.576a7.916,7.916,0,0,1,.853,1.366" transform="translate(11.757 22.271)" fill="#e0e0e0"/>
          <path id="Trazado_623407" data-name="Trazado 623407" d="M48.777,85.427c-.1.111-2.344-2.547-3.517-6.586a18.794,18.794,0,0,1-.8-6.639l.279.023c-.126.508-.216.775-.267.767s-.052-.291-.011-.812l.279.023a30.3,30.3,0,0,0,1.124,6.459c1.133,3.913,3.08,6.659,2.911,6.766" transform="translate(14.94 24.277)" fill="#e0e0e0"/>
          <path id="Trazado_623408" data-name="Trazado 623408" d="M44.342,72.566a11.333,11.333,0,0,0-2.456-1.426,16.411,16.411,0,0,0-6.818-.543A42.041,42.041,0,0,0,28.2,71.706a21.116,21.116,0,0,1-2.826.679,9.832,9.832,0,0,1,2.706-1.109,31.361,31.361,0,0,1,6.938-1.31,14.9,14.9,0,0,1,7.034.759,4.361,4.361,0,0,1,2.288,1.841" transform="translate(8.534 23.502)" fill="#e0e0e0"/>
          <path id="Trazado_623409" data-name="Trazado 623409" d="M44.354,70.431c-.049.1-1.433-.573-3.764-1.37a37.867,37.867,0,0,0-18.96-1.446c-2.425.434-3.893.889-3.928.784a3.627,3.627,0,0,1,1-.426,23.741,23.741,0,0,1,2.844-.8,33.458,33.458,0,0,1,19.2,1.465,23.461,23.461,0,0,1,2.687,1.219,3.638,3.638,0,0,1,.923.572" transform="translate(5.954 22.334)" fill="#e0e0e0"/>
          <path id="Trazado_623410" data-name="Trazado 623410" d="M55.132,63.8c-.17.043-1.4-4.224-2.743-9.531s-2.3-9.646-2.13-9.688S51.656,48.8,53,54.109s2.3,9.644,2.13,9.687" transform="translate(16.897 14.993)" fill="#e0e0e0"/>
          <path id="Trazado_623411" data-name="Trazado 623411" d="M55.924,61.56c-.188.061-.978-2.79-3.041-5.706a25.074,25.074,0,0,0-4.477-4.62,4.158,4.158,0,0,1,1.728.891A13.885,13.885,0,0,1,53.4,55.491c2.141,3.034,2.677,6.059,2.523,6.07" transform="translate(16.28 17.229)" fill="#e0e0e0"/>
          <path id="Trazado_623412" data-name="Trazado 623412" d="M64.037,169.041c-.068.011-.2-1.053-.691-2.915a41.5,41.5,0,0,0-2.928-7.586c-3.028-6.187-8.537-14.032-15.538-21.889-3.468-3.962-6.834-7.7-9.69-11.281a78.978,78.978,0,0,1-6.929-9.993,47.985,47.985,0,0,1-3.5-7.417c-.322-.914-.557-1.628-.687-2.121a3.535,3.535,0,0,1-.18-.756c.057-.019.376,1,1.1,2.789a54.333,54.333,0,0,0,3.655,7.279,83.862,83.862,0,0,0,7,9.854c2.868,3.541,6.238,7.26,9.712,11.231,7.02,7.878,12.515,15.821,15.464,22.11a37.9,37.9,0,0,1,2.764,7.723,21.188,21.188,0,0,1,.388,2.2,3.623,3.623,0,0,1,.064.775" transform="translate(8.036 35.343)" fill="#e0e0e0"/>
          <path id="Trazado_623413" data-name="Trazado 623413" d="M88.537,123.7a15.784,15.784,0,0,1-1.813,1.018,39.607,39.607,0,0,0-4.7,3.11,54.013,54.013,0,0,0-6.178,5.634c-2.168,2.29-4.4,4.951-6.682,7.8-4.557,5.718-8.82,10.779-11.372,14.817-1.3,2-2.238,3.694-2.854,4.879a16.017,16.017,0,0,1-1,1.825,1.718,1.718,0,0,1,.167-.515c.136-.326.318-.816.609-1.421a46.011,46.011,0,0,1,2.7-5.007c2.48-4.137,6.708-9.267,11.259-14.976,2.284-2.856,4.545-5.52,6.754-7.808a50.211,50.211,0,0,1,6.33-5.59,33.052,33.052,0,0,1,4.858-2.968c.6-.3,1.092-.488,1.417-.627a1.731,1.731,0,0,1,.512-.174" transform="translate(18.139 41.603)" fill="#e0e0e0"/>
          <path id="Trazado_623414" data-name="Trazado 623414" d="M86.353,133.195a26.466,26.466,0,0,1-3.833.557,50.417,50.417,0,0,0-9.091,1.791,27.328,27.328,0,0,0-8.141,4.271c-1.876,1.45-2.761,2.65-2.848,2.579a2.938,2.938,0,0,1,.568-.882,14.465,14.465,0,0,1,2-2.045,24.688,24.688,0,0,1,8.229-4.528,41.126,41.126,0,0,1,9.241-1.633,21.311,21.311,0,0,1,3.878-.111" transform="translate(21 44.783)" fill="#e0e0e0"/>
          <path id="Trazado_623415" data-name="Trazado 623415" d="M63.282,142.293c-.2-.114,1.527-2.752,2.868-6.3,1.257-3.581,1.551-6.722,1.777-6.686a6.065,6.065,0,0,1-.064,2.057,21.953,21.953,0,0,1-1.118,4.844,23.441,23.441,0,0,1-2.222,4.445,6.207,6.207,0,0,1-1.24,1.641" transform="translate(21.279 43.491)" fill="#e0e0e0"/>
          <path id="Trazado_623416" data-name="Trazado 623416" d="M99.741,98.223a2.871,2.871,0,0,1-.613.326l-1.8.819c-.79.338-1.747.767-2.826,1.336s-2.347,1.135-3.662,1.924l-2.091,1.189c-.726.417-1.443.911-2.206,1.39-1.542.934-3.086,2.086-4.735,3.262a81.222,81.222,0,0,0-18.233,18.868c-1.119,1.688-2.217,3.271-3.1,4.844-.452.779-.922,1.513-1.314,2.252l-1.117,2.13c-.744,1.343-1.276,2.625-1.8,3.727s-.927,2.069-1.239,2.869c-.306.74-.556,1.346-.756,1.828a2.871,2.871,0,0,1-.3.624,2.84,2.84,0,0,1,.184-.667c.171-.494.385-1.115.647-1.874.278-.816.641-1.807,1.144-2.923s1-2.423,1.723-3.786L58.73,134.2c.384-.75.846-1.5,1.291-2.285.869-1.6,1.958-3.2,3.071-4.91A78.269,78.269,0,0,1,81.459,108c1.67-1.171,3.237-2.315,4.8-3.237.774-.472,1.5-.959,2.238-1.368l2.125-1.16c1.338-.77,2.622-1.32,3.724-1.851s2.075-.939,2.881-1.244l1.852-.711a2.893,2.893,0,0,1,.66-.207" transform="translate(18.142 33.035)" fill="#e0e0e0"/>
          <path id="Trazado_623417" data-name="Trazado 623417" d="M67.722,113.1a4.4,4.4,0,0,1,1.506-2.242,9.5,9.5,0,0,1,6.067-2.328,16.606,16.606,0,0,1,6.385,1.247,9.136,9.136,0,0,1,2.415,1.173,14.853,14.853,0,0,1-2.562-.75,19.253,19.253,0,0,0-6.218-1.037,9.882,9.882,0,0,0-5.8,2.034,17.977,17.977,0,0,0-1.8,1.9" transform="translate(22.775 36.503)" fill="#e0e0e0"/>
          <path id="Trazado_623418" data-name="Trazado 623418" d="M64.66,118c-.174-.1,1.371-2.361,1.723-5.6.4-3.239-.577-5.8-.386-5.852a3.708,3.708,0,0,1,.712,1.632,11.586,11.586,0,0,1-.981,8.4c-.535.969-1.006,1.469-1.068,1.425" transform="translate(21.743 35.833)" fill="#e0e0e0"/>
          <path id="Trazado_623419" data-name="Trazado 623419" d="M31.285,157.641c.945,16.747,5.991,33.777,13.752,51H78.792c7.4-17.049,12.1-34.054,12.936-51Z" transform="translate(10.522 53.021)" fill="#e0e0e0"/>
          <path id="Trazado_623420" data-name="Trazado 623420" d="M84.915,178c0,.175-11.113.317-24.82.317s-24.822-.142-24.822-.317,11.112-.317,24.822-.317,24.82.142,24.82.317" transform="translate(11.864 59.762)" fill="#fafafa"/>
          <path id="Trazado_623421" data-name="Trazado 623421" d="M83.57,182.539c0,.175-10.418.317-23.268.317s-23.27-.142-23.27-.317,10.417-.317,23.27-.317,23.268.142,23.268.317" transform="translate(12.455 61.289)" fill="#fafafa"/>
          <path id="Trazado_623422" data-name="Trazado 623422" d="M42.064,165.869c.175,0,.317,3.481.317,7.775s-.142,7.775-.317,7.775-.317-3.481-.317-7.775.142-7.775.317-7.775" transform="translate(14.041 55.788)" fill="#fafafa"/>
          <path id="Trazado_623423" data-name="Trazado 623423" d="M55.6,165.869c.174,0,.317,3.605.317,8.051s-.143,8.051-.317,8.051-.318-3.6-.318-8.051.143-8.051.318-8.051" transform="translate(18.593 55.788)" fill="#fafafa"/>
          <path id="Trazado_623424" data-name="Trazado 623424" d="M68.3,165.767c.175,0,.317,3.678.317,8.212s-.142,8.212-.317,8.212-.317-3.675-.317-8.212.142-8.212.317-8.212" transform="translate(22.866 55.754)" fill="#fafafa"/>
          <path id="Trazado_623425" data-name="Trazado 623425" d="M90.367,165.949c0,.175-13.035.317-29.111.317s-29.113-.142-29.113-.317,13.032-.317,29.113-.317,29.111.142,29.111.317" transform="translate(10.811 55.709)" fill="#fafafa"/>
        </g>
      </g>
      <path id="Trazado_623438" data-name="Trazado 623438" d="M110.8,176.088a53.133,53.133,0,0,1,12.967-5.635l2.671-12.835,21.684-.38,3.121,12.732a53.1,53.1,0,0,1,13.157,5.176l10.96-7.184,15.6,15.067-6.793,11.2A53.142,53.142,0,0,1,189.81,207.2l12.834,2.671.38,21.684-12.732,3.121a53.1,53.1,0,0,1-5.175,13.157l7.183,10.96-15.064,15.6-11.2-6.793a53.139,53.139,0,0,1-12.969,5.635l-2.671,12.835-21.684.38-3.121-12.733a53.243,53.243,0,0,1-13.157-5.176l-10.96,7.184-15.6-15.065,6.792-11.2a53.118,53.118,0,0,1-5.635-12.969L74.19,233.819l-.381-21.684,12.733-3.121a53.246,53.246,0,0,1,5.176-13.157L84.535,184.9l15.064-15.6Zm11.559,28.887a23.266,23.266,0,1,0,32.9-.579,23.266,23.266,0,0,0-32.9.579" transform="translate(59.744 352.697)" fill="#ebebeb"/>
      <g id="Grupo_924808" data-name="Grupo 924808" transform="translate(281.978 792.362)">
        <path id="Trazado_623439" data-name="Trazado 623439" d="M3.5,42.242V76.455H108.713V42.242Z" transform="translate(0.915 11.057)" fill="#f5f5f5"/>
        <path id="Trazado_623440" data-name="Trazado 623440" d="M54.446,34.661H0v9.565H113.308V34.661Z" transform="translate(0 9.073)" fill="#e0e0e0"/>
        <path id="Trazado_623441" data-name="Trazado 623441" d="M43.152,34.661v8.681l2.208,35.1H98.335V44.226h3.679V34.661Z" transform="translate(11.294 9.073)" fill="#e0e0e0"/>
        <rect id="Rectángulo_333225" data-name="Rectángulo 333225" width="21.337" height="5.15" transform="translate(19.129 58.817)" fill="#e0e0e0"/>
        <rect id="Rectángulo_333226" data-name="Rectángulo 333226" width="27.398" height="10.875" transform="translate(16.383 70.406)" fill="#fff"/>
        <path id="Trazado_623442" data-name="Trazado 623442" d="M16.328,7.581V41.794H121.542V7.581Z" transform="translate(4.273 1.985)" fill="#f5f5f5"/>
        <rect id="Rectángulo_333227" data-name="Rectángulo 333227" width="113.308" height="9.566" transform="translate(16.186 0)" fill="#e0e0e0"/>
        <path id="Trazado_623443" data-name="Trazado 623443" d="M55.982,0V8.68l2.208,35.1h52.975V9.566h3.679V0Z" transform="translate(14.652 0.001)" fill="#e0e0e0"/>
        <rect id="Rectángulo_333228" data-name="Rectángulo 333228" width="21.337" height="5.15" transform="translate(35.317 15.083)" fill="#e0e0e0"/>
        <rect id="Rectángulo_333229" data-name="Rectángulo 333229" width="27.398" height="10.875" transform="translate(32.57 26.673)" fill="#fff"/>
      </g>
      <g id="Grupo_924798" data-name="Grupo 924798" transform="translate(235.549 683.525)">
        <g id="Grupo_924797" data-name="Grupo 924797" transform="translate(0 0)" clip-path="url(#clip-path-14)">
          <path id="Trazado_623364" data-name="Trazado 623364" d="M100.241,159.857A80.882,80.882,0,1,1,114.609,6.51a80.87,80.87,0,0,1-14.368,153.347M66.549,7.217a75.414,75.414,0,1,0,45.93,4.275,75.434,75.434,0,0,0-45.93-4.275" transform="translate(0.891 0)" fill="#455a64"/>
          <path id="Trazado_623365" data-name="Trazado 623365" d="M100.241,159.857A80.882,80.882,0,1,1,114.609,6.51a80.87,80.87,0,0,1-14.368,153.347M66.549,7.217a75.414,75.414,0,1,0,45.93,4.275,75.434,75.434,0,0,0-45.93-4.275" transform="translate(0.891 0)" fill="#263238"/>
          <path id="Trazado_623366" data-name="Trazado 623366" d="M98.368,162.152A80.882,80.882,0,1,1,112.736,8.8,80.87,80.87,0,0,1,98.368,162.152M64.676,9.512a75.414,75.414,0,1,0,45.93,4.275,75.439,75.439,0,0,0-45.93-4.275" transform="translate(0 1.092)" fill="#455a64"/>
          <path id="Trazado_623367" data-name="Trazado 623367" d="M235.362,125.619l-1.3,3.338c-1.16,2.977-6.34,3.756-9.547,2.49L103.4,84.3l6.1-15.668,120.937,47.082c3.936,1.651,6.421,6.077,4.928,9.91" transform="translate(49.193 32.65)" fill="#455a64"/>
          <path id="Trazado_623368" data-name="Trazado 623368" d="M101.388,36.332c.133.165-15.243,12.842-34.341,28.312S32.354,92.525,32.219,92.361s15.24-12.841,34.344-28.315,34.692-27.88,34.825-27.715" transform="translate(15.328 17.284)" fill="#263238"/>
          <path id="Trazado_623369" data-name="Trazado 623369" d="M81.412,33.155c.136.164-11.235,9.839-25.393,21.608S30.267,75.946,30.131,75.782s11.232-9.836,25.4-21.609S81.277,32.991,81.412,33.155" transform="translate(14.335 15.772)" fill="#263238"/>
          <path id="Trazado_623370" data-name="Trazado 623370" d="M89.3,53.066c.136.164-7.646,6.856-17.38,14.946S54.184,82.534,54.049,82.37s7.644-6.855,17.381-14.948S89.166,52.9,89.3,53.066" transform="translate(25.713 25.245)" fill="#263238"/>
        </g>
      </g>
      <g id="Grupo_924811" data-name="Grupo 924811" transform="translate(496.45 365.109)">
        <rect id="Rectángulo_333230" data-name="Rectángulo 333230" width="234.037" height="174.95" transform="translate(1.066 0.328)" fill="#fff"/>
        <rect id="Rectángulo_333231" data-name="Rectángulo 333231" width="234.037" height="21.625" transform="translate(0.328 0.328)" fill="#e0e0e0"/>
        <g id="Grupo_924810" data-name="Grupo 924810" transform="translate(0)">
          <g id="Grupo_924809" data-name="Grupo 924809" clip-path="url(#clip-path-15)">
            <path id="Trazado_623444" data-name="Trazado 623444" d="M14.178,9.476A3.116,3.116,0,1,1,11.061,6.36a3.117,3.117,0,0,1,3.116,3.116" transform="translate(2.079 1.665)" fill="#fff"/>
            <path id="Trazado_623445" data-name="Trazado 623445" d="M22.506,9.476A3.116,3.116,0,1,1,19.389,6.36a3.117,3.117,0,0,1,3.116,3.116" transform="translate(4.259 1.665)" fill="#fff"/>
            <path id="Trazado_623446" data-name="Trazado 623446" d="M30.834,9.476A3.116,3.116,0,1,1,27.717,6.36a3.117,3.117,0,0,1,3.116,3.116" transform="translate(6.439 1.665)" fill="#fff"/>
            <path id="Trazado_623447" data-name="Trazado 623447" d="M234.365,175.279s-.02-1.1-.029-3.2-.018-5.225-.032-9.293c-.015-8.142-.039-20.085-.068-35.341-.034-30.485-.082-74.19-.141-127.115l.27.27L.348.658H.329L.657.329C.646,63.2.635,122.761.626,175.279l-.3-.3,168.928.148,47.98.08,12.726.035,3.281.016c.738.006,1.122.018,1.122.018s-.361.011-1.088.018l-3.246.016-12.668.035-47.912.079L.329,175.575h-.3v-.3C.023,122.761.011,63.2,0,.329V0H.348L234.365.06h.27V.329c-.058,53-.106,96.759-.14,127.284-.029,15.229-.053,27.152-.069,35.28-.013,4.045-.023,7.144-.03,9.241s-.029,3.144-.029,3.144" transform="translate(0 0)" fill="#263238"/>
            <path id="Trazado_623448" data-name="Trazado 623448" d="M218.687,83.893c0,.182-46.575.328-104.014.328-57.46,0-104.026-.146-104.026-.328s46.565-.328,104.026-.328c57.439,0,104.014.146,104.014.328" transform="translate(2.787 21.871)" fill="#e0e0e0"/>
            <path id="Trazado_623449" data-name="Trazado 623449" d="M218.687,69.658c0,.182-46.575.329-104.014.329-57.46,0-104.026-.148-104.026-.329s46.565-.328,104.026-.328c57.439,0,104.014.146,104.014.328" transform="translate(2.787 18.146)" fill="#e0e0e0"/>
            <path id="Trazado_623450" data-name="Trazado 623450" d="M218.687,55.423c0,.183-46.575.329-104.014.329-57.46,0-104.026-.146-104.026-.329S57.212,55.1,114.673,55.1c57.439,0,104.014.146,104.014.327" transform="translate(2.787 14.42)" fill="#e0e0e0"/>
            <path id="Trazado_623451" data-name="Trazado 623451" d="M218.687,41.189c0,.182-46.575.328-104.014.328-57.46,0-104.026-.146-104.026-.328s46.565-.328,104.026-.328c57.439,0,104.014.146,104.014.328" transform="translate(2.787 10.694)" fill="#e0e0e0"/>
            <rect id="Rectángulo_333232" data-name="Rectángulo 333232" width="17.307" height="34.807" transform="translate(31.038 97.622)" fill="#529d2e"/>
            <rect id="Rectángulo_333233" data-name="Rectángulo 333233" width="17.307" height="34.807" transform="translate(93.158 97.622)" fill="#455a64"/>
            <rect id="Rectángulo_333234" data-name="Rectángulo 333234" width="17.307" height="22.942" transform="translate(187.384 109.489)" fill="#455a64"/>
            <rect id="Rectángulo_333235" data-name="Rectángulo 333235" width="17.307" height="51.292" transform="translate(155.277 81.139)" fill="#e0e0e0"/>
            <rect id="Rectángulo_333236" data-name="Rectángulo 333236" width="17.307" height="71.26" transform="translate(123.519 61.17)" fill="#529d2e"/>
            <rect id="Rectángulo_333237" data-name="Rectángulo 333237" width="17.307" height="51.292" transform="translate(60.859 81.139)" fill="#e0e0e0"/>
            <path id="Trazado_623452" data-name="Trazado 623452" d="M216.331,124.463s-.262.024-.775.034c-.535.009-1.289.018-2.272.033l-8.736.062-32.134.1-106.015.1-55.921-.024h-.305v-.305c.048-27.567.09-51.066.119-67.7.037-8.286.067-14.861.087-19.39.02-2.233.037-3.962.048-5.157.011-.569.019-1.007.025-1.327.009-.3.025-.45.025-.45s.018.153.026.45c.006.32.014.758.025,1.327.011,1.195.027,2.923.048,5.157.02,4.53.049,11.1.087,19.39.029,16.635.071,40.133.119,67.7l-.305-.3,55.921-.023,106.015.1,32.134.1,8.736.061,2.272.033c.512.011.775.033.775.033" transform="translate(2.662 7.966)" fill="#263238"/>
            <rect id="Rectángulo_333238" data-name="Rectángulo 333238" width="7.604" height="7.604" transform="translate(49.516 150.088)" fill="#ff725e"/>
            <rect id="Rectángulo_333239" data-name="Rectángulo 333239" width="7.604" height="7.604" transform="translate(96.001 149.847)" fill="#e0e0e0"/>
            <rect id="Rectángulo_333240" data-name="Rectángulo 333240" width="7.604" height="7.604" transform="translate(146.287 150.088)" fill="#455a64"/>
            <path id="Trazado_623453" data-name="Trazado 623453" d="M69.532,121.844c0,.182-4.637.328-10.355.328s-10.356-.146-10.356-.328,4.636-.328,10.356-.328,10.355.146,10.355.328" transform="translate(12.778 31.804)" fill="#263238"/>
            <path id="Trazado_623454" data-name="Trazado 623454" d="M106.093,121.844c0,.182-4.637.328-10.355.328s-10.356-.146-10.356-.328,4.636-.328,10.356-.328,10.355.146,10.355.328" transform="translate(22.347 31.804)" fill="#263238"/>
            <path id="Trazado_623455" data-name="Trazado 623455" d="M145.017,121.844c0,.182-4.637.328-10.355.328s-10.356-.146-10.356-.328,4.636-.328,10.356-.328,10.355.146,10.355.328" transform="translate(32.534 31.804)" fill="#263238"/>
          </g>
        </g>
      </g>
      <g id="Grupo_924804" data-name="Grupo 924804" transform="translate(532.748 591.23)">
        <g id="Grupo_924803" data-name="Grupo 924803" transform="translate(0 0)" clip-path="url(#clip-path-16)">
          <path id="Trazado_623432" data-name="Trazado 623432" d="M130.758,63.514A64.044,64.044,0,1,1,65.7.217a64.275,64.275,0,0,1,65.062,63.3M36.106,65.042A30.622,30.622,0,1,0,66.231,33.789,30.722,30.722,0,0,0,36.106,65.042" transform="translate(1.878 0.146)" fill="#f5f5f5"/>
          <path id="Trazado_623433" data-name="Trazado 623433" d="M104.787,63.513a64.275,64.275,0,0,1-63.006,65.364l-.538-33.571a30.763,30.763,0,0,0-.983-61.518L39.725.216a64.252,64.252,0,0,1,65.062,63.3" transform="translate(27.848 0.145)" fill="#455a64"/>
          <path id="Trazado_623434" data-name="Trazado 623434" d="M22.342,51.349a2.027,2.027,0,0,1-.029-.5c0-.381.005-.862.007-1.465a14.054,14.054,0,0,1,.16-2.375,21.648,21.648,0,0,1,.531-3.21,29.193,29.193,0,0,1,3.186-8.32,30.7,30.7,0,0,1,36.88-14.059,29,29,0,0,1,7.932,4.115,34.1,34.1,0,0,1,3.57,2.95,34.794,34.794,0,0,1,3.1,3.56,31.042,31.042,0,0,1,.592,36.8,34.85,34.85,0,0,1-2.987,3.659,34.561,34.561,0,0,1-3.473,3.064,29.057,29.057,0,0,1-7.8,4.37A30.794,30.794,0,0,1,26.7,67.082a29.175,29.175,0,0,1-3.45-8.213,21.887,21.887,0,0,1-.634-3.191,14.3,14.3,0,0,1-.235-2.37c-.022-.6-.039-1.082-.053-1.461a2.1,2.1,0,0,1,.012-.5,47.849,47.849,0,0,0,1.243,7.43,29.473,29.473,0,0,0,3.538,8.042,30.533,30.533,0,0,0,7.869,8.5,30.02,30.02,0,0,0,28.73,3.858A28.306,28.306,0,0,0,71.3,74.9a33.76,33.76,0,0,0,3.371-2.99,33.889,33.889,0,0,0,2.9-3.564,30.252,30.252,0,0,0-.575-35.778A34.235,34.235,0,0,0,73.98,29.1a33.69,33.69,0,0,0-3.467-2.878,28.266,28.266,0,0,0-7.706-4.03A30.015,30.015,0,0,0,34.22,26.982a30.52,30.52,0,0,0-7.593,8.747,29.487,29.487,0,0,0-3.28,8.153,48.182,48.182,0,0,0-1.005,7.468" transform="translate(15.642 13.839)" fill="#263238"/>
          <path id="Trazado_623435" data-name="Trazado 623435" d="M130.937,63.661s-.054-.35-.114-1.038c-.058-.718-.139-1.727-.247-3.041q-.077-1.008-.17-2.24c-.1-.82-.289-1.708-.449-2.674a46.806,46.806,0,0,0-1.439-6.6,61.558,61.558,0,0,0-7.354-16.915,63.95,63.95,0,0,0-16.486-17.907A63.234,63.234,0,0,0,77.667,1.682a59.091,59.091,0,0,0-8.08-.811C68.211.847,66.822.733,65.426.779l-4.217.287c-.706.063-1.422.065-2.126.177l-2.121.364c-1.415.262-2.858.446-4.276.776a66.5,66.5,0,0,0-8.454,2.654,67.247,67.247,0,0,0-8.245,3.815c-1.323.767-2.6,1.633-3.921,2.451a33.279,33.279,0,0,0-3.792,2.728,70.764,70.764,0,0,0-7.107,6.29L17.993,23.95l-.8.912-.709.987L15.06,27.827,13.63,29.815l-1.242,2.121-1.243,2.135-.624,1.07L10,36.267Q8.959,38.523,7.913,40.8q-.819,2.365-1.647,4.751A68.469,68.469,0,0,0,3.31,65.71a68.427,68.427,0,0,0,3.6,20.064q.9,2.358,1.8,4.7,1.12,2.243,2.23,4.465l.556,1.109.658,1.05,1.313,2.094,1.308,2.082,1.493,1.941,1.488,1.932.74.964.828.886q1.651,1.771,3.29,3.525a70.824,70.824,0,0,0,7.306,6.059,33.012,33.012,0,0,0,3.878,2.606c1.342.776,2.65,1.6,4,2.324a69.5,69.5,0,0,0,16.9,5.926c1.431.282,2.878.42,4.3.636l2.131.3c.709.087,1.424.068,2.133.107l4.224.151c1.4,0,2.781-.158,4.156-.228a59.52,59.52,0,0,0,8.049-1.072,63.3,63.3,0,0,0,26.624-12.436,63.933,63.933,0,0,0,15.9-18.429,61.54,61.54,0,0,0,6.807-17.14,46.655,46.655,0,0,0,1.226-6.641c.129-.971.291-1.864.364-2.686q.054-1.235.1-2.245c.065-1.317.114-2.329.148-3.048.039-.687.082-1.039.082-1.039s.019.352.01,1.039c-.015.721-.036,1.737-.061,3.057q-.026,1.013-.056,2.254c-.06.827-.208,1.725-.323,2.7a46.032,46.032,0,0,1-1.152,6.687,61.235,61.235,0,0,1-6.714,17.308,64.53,64.53,0,0,1-42.806,31.338,59.73,59.73,0,0,1-8.141,1.107c-1.39.075-2.791.236-4.2.242l-4.275-.143c-.718-.037-1.442-.019-2.16-.1l-2.159-.293c-1.441-.216-2.907-.354-4.356-.636a70.267,70.267,0,0,1-17.129-5.972c-1.369-.731-2.694-1.563-4.055-2.347a33.886,33.886,0,0,1-3.934-2.633,71.291,71.291,0,0,1-7.41-6.132q-1.664-1.776-3.339-3.569l-.839-.9-.752-.976-1.511-1.956-1.514-1.966-1.33-2.109L11.4,97.538l-.668-1.063-.565-1.124Q9.035,93.1,7.9,90.824q-.908-2.37-1.825-4.759A69.213,69.213,0,0,1,2.425,65.724a69.191,69.191,0,0,1,3-20.438Q6.265,42.87,7.1,40.47l2.118-4.593.529-1.141.633-1.085,1.262-2.16,1.262-2.15,1.451-2.014L15.8,25.321l.721-1,.81-.924q1.618-1.845,3.22-3.673a72.017,72.017,0,0,1,7.209-6.365A34.164,34.164,0,0,1,31.6,10.6c1.335-.827,2.633-1.7,3.977-2.477A70.227,70.227,0,0,1,52.5,1.605c1.439-.332,2.9-.515,4.333-.777L58.986.464C59.7.353,60.425.352,61.139.29L65.409.01c1.412-.043,2.817.075,4.21.1a59.839,59.839,0,0,1,8.172.844,64.494,64.494,0,0,1,43.8,29.938,61.2,61.2,0,0,1,7.265,17.083,45.992,45.992,0,0,1,1.366,6.648c.146.973.323,1.864.408,2.689q.071,1.24.129,2.252c.068,1.318.121,2.332.158,3.053.031.687.024,1.039.024,1.039" transform="translate(1.7 0)" fill="#263238"/>
          <path id="Trazado_623436" data-name="Trazado 623436" d="M75.192,109.186C33.884,109.853.93,77.793.267,36.293l39.095-.629C39.68,55.506,54.778,68,74.529,67.679Z" transform="translate(0.187 25.001)" fill="#529d2e"/>
          <path id="Trazado_623437" data-name="Trazado 623437" d="M75.379,109.366a7.182,7.182,0,0,1-.048-.771c-.017-.539-.041-1.264-.07-2.189-.051-1.958-.124-4.754-.216-8.323-.158-7.214-.383-17.541-.66-30.217l.335.323A43.627,43.627,0,0,1,62.958,66.75,33.609,33.609,0,0,1,51.3,61.074a30.314,30.314,0,0,1-8.842-10.786A34.063,34.063,0,0,1,39.12,35.851l.435.422c-9.58.16-19.776.328-30.273.5l-8.822.141.434-.449A81.973,81.973,0,0,0,4.879,59.589q1,2.664,1.978,5.277c.737,1.7,1.609,3.331,2.393,4.972a38.3,38.3,0,0,0,2.664,4.69,43.355,43.355,0,0,0,2.9,4.4l3.115,4.086C19.016,84.3,20.191,85.484,21.3,86.7l1.664,1.789,1.8,1.594,3.518,3.106a75.251,75.251,0,0,0,14.5,8.946l3.462,1.6c1.155.447,2.307.815,3.411,1.209l3.227,1.126c1.051.333,2.106.529,3.106.789q1.505.365,2.905.7l1.373.333c.452.085.9.133,1.34.2q2.62.37,4.787.675a29.776,29.776,0,0,0,3.81.3l2.808.145,1.75.1a5.5,5.5,0,0,1,.621.051,3.768,3.768,0,0,1-.561.012l-1.721-.015q-1.179-.018-2.848-.043a27.9,27.9,0,0,1-3.892-.225q-2.179-.27-4.822-.6c-.441-.061-.893-.1-1.351-.182L58.8,108l-2.933-.674c-1.009-.25-2.074-.437-3.135-.764l-3.261-1.1c-1.116-.388-2.279-.748-3.446-1.191l-3.5-1.587a75.055,75.055,0,0,1-14.692-8.937q-1.755-1.531-3.569-3.118-.906-.794-1.825-1.6l-1.691-1.8c-1.119-1.221-2.312-2.414-3.421-3.71l-3.164-4.118a44.278,44.278,0,0,1-2.941-4.438A38.936,38.936,0,0,1,8.514,70.22c-.8-1.659-1.684-3.3-2.432-5.025q-1-2.638-2.014-5.333A82.468,82.468,0,0,1,.012,36.482L0,36.04l.447-.007c2.8-.046,5.8-.1,8.822-.143l30.273-.476.43-.007.007.43a33.275,33.275,0,0,0,3.227,14.09,29.569,29.569,0,0,0,8.571,10.526,32.971,32.971,0,0,0,11.373,5.6,43.153,43.153,0,0,0,11.56,1.48h.33l0,.323c.131,12.765.236,23.163.311,30.425.02,3.54.037,6.313.049,8.253,0,.9,0,1.606,0,2.13a5.2,5.2,0,0,1-.024.7" transform="translate(0 24.821)" fill="#263238"/>
        </g>
      </g>
      <path id="Trazado_623456" data-name="Trazado 623456" d="M99.4,170.278a36.755,36.755,0,0,1,8.97-3.9l1.848-8.879,15-.263,2.159,8.808a36.734,36.734,0,0,1,9.1,3.58l7.582-4.97,10.794,10.423-4.7,7.75a36.765,36.765,0,0,1,3.9,8.971l8.878,1.848.263,15-8.808,2.159a36.729,36.729,0,0,1-3.58,9.1l4.969,7.582-10.421,10.794-7.751-4.7a36.763,36.763,0,0,1-8.971,3.9l-1.848,8.879-15,.263-2.159-8.809a36.829,36.829,0,0,1-9.1-3.58l-7.582,4.97L82.151,228.786l4.7-7.751a36.743,36.743,0,0,1-3.9-8.971l-8.878-1.848-.264-15,8.809-2.159a36.837,36.837,0,0,1,3.58-9.1l-4.969-7.582L91.65,165.578Zm8,19.984a16.095,16.095,0,1,0,22.759-.4,16.1,16.1,0,0,0-22.759.4" transform="translate(312.883 439.948)" fill="#ebebeb"/>
      <g id="Grupo_924769" data-name="Grupo 924769" transform="translate(334.109 207.607)">
        <g id="Grupo_924768" data-name="Grupo 924768" clip-path="url(#clip-path-17)">
          <g id="Grupo_924767" data-name="Grupo 924767">
            <g id="Grupo_924766" data-name="Grupo 924766" clip-path="url(#clip-path-17)">
              <path id="Trazado_623256" data-name="Trazado 623256" d="M155.824,23.489a4.5,4.5,0,0,0-3.08-1.333,16.332,16.332,0,0,0-9.579,1.853c4.347-4.23,5.061-11.557,1.936-16.755A15.808,15.808,0,0,0,129.47.17a18.194,18.194,0,0,0-13.6,10.882,21.468,21.468,0,0,0,.77,17.626l10,2.623a28.011,28.011,0,0,0,15.735,4.838c2.24-.005,4.685-.383,6.2-2.037s1.256-4.9-.878-5.58c2.062.459,4.284.907,6.231.088s3.232-3.478,1.905-5.123" transform="translate(91.381 -0.001)" fill="#263238"/>
              <path id="Trazado_623257" data-name="Trazado 623257" d="M146.45,7.374a24.414,24.414,0,0,0-18.8,1.943,14.513,14.513,0,0,0-25.051,3.832A12.7,12.7,0,0,0,87.414,18.3,12.7,12.7,0,0,0,90.26,34.077a15.776,15.776,0,0,0-6.6,23.993c-4.727,2.292-5.536,8.691-4.838,13.9s2.2,10.785-.139,15.492c-1.8,3.635-5.522,5.882-8.066,9.043s-3.433,8.606.013,10.747A10.974,10.974,0,1,0,74.6,128.811c-1.92,4.1-1.092,9.148,1.43,12.9a21.664,21.664,0,0,0,10.788,7.865,32.244,32.244,0,0,0,35.225-9.934L160.875,19.591A24.418,24.418,0,0,0,146.45,7.374" transform="translate(48.873 2.977)" fill="#263238"/>
              <path id="Trazado_623258" data-name="Trazado 623258" d="M148.841,31.552l.516-6.477-38.5-9.752c-11.933-1.994-25.643,9.263-27.128,21.269-1.65,13.34-3.136,29.692-2.152,39.779C83.554,96.654,98.8,100.137,98.8,100.137l-1.112,19.949,44.4,3.232Z" transform="translate(64.95 12.063)" fill="#ae7461"/>
              <path id="Trazado_623259" data-name="Trazado 623259" d="M85.251,37.886a2.581,2.581,0,0,0,2.328,2.749,2.471,2.471,0,0,0,2.8-2.163,2.583,2.583,0,0,0-2.325-2.751,2.471,2.471,0,0,0-2.8,2.165" transform="translate(68.131 28.538)" fill="#263238"/>
              <path id="Trazado_623260" data-name="Trazado 623260" d="M84.721,33c.3.354,2.339-.972,5.11-.8,2.773.133,4.721,1.682,5.042,1.36.158-.14-.131-.767-.979-1.466a7.073,7.073,0,0,0-4.011-1.5,6.8,6.8,0,0,0-4.093,1.054c-.892.6-1.216,1.193-1.069,1.353" transform="translate(67.689 24.444)" fill="#263238"/>
              <path id="Trazado_623261" data-name="Trazado 623261" d="M99.24,38.644a2.583,2.583,0,0,0,2.328,2.749,2.471,2.471,0,0,0,2.8-2.163,2.584,2.584,0,0,0-2.326-2.751,2.47,2.47,0,0,0-2.8,2.165" transform="translate(79.312 29.144)" fill="#263238"/>
              <path id="Trazado_623262" data-name="Trazado 623262" d="M99.851,34.2c.3.354,2.341-.972,5.11-.8,2.773.135,4.721,1.684,5.043,1.362.155-.142-.13-.766-.981-1.465a7.06,7.06,0,0,0-4.011-1.506,6.8,6.8,0,0,0-4.093,1.054c-.889.6-1.216,1.193-1.069,1.353" transform="translate(79.782 25.403)" fill="#263238"/>
              <path id="Trazado_623263" data-name="Trazado 623263" d="M96.642,54.446c.022-.157-1.684-.558-4.455-1.083-.7-.115-1.366-.3-1.456-.786a3.624,3.624,0,0,1,.6-2.071l2.418-5.265c3.37-7.5,5.855-13.685,5.551-13.819s-3.28,5.839-6.65,13.34q-1.22,2.774-2.332,5.3a4.106,4.106,0,0,0-.534,2.757,1.778,1.778,0,0,0,1.1,1.1,4.774,4.774,0,0,0,1.191.239c2.8.32,4.545.437,4.565.281" transform="translate(71.691 25.113)" fill="#263238"/>
              <path id="Trazado_623264" data-name="Trazado 623264" d="M91.14,64.857A53.306,53.306,0,0,0,119.167,59.3s-7.633,13.658-28.315,10.567Z" transform="translate(72.617 47.397)" fill="#6f4439"/>
              <path id="Trazado_623265" data-name="Trazado 623265" d="M100.2,28.732c.273.756,3.048.4,6.307.79,3.266.327,5.894,1.281,6.326.6.193-.326-.264-1.035-1.328-1.767a11.051,11.051,0,0,0-9.624-1.062c-1.2.482-1.8,1.076-1.681,1.434" transform="translate(80.075 21.301)" fill="#263238"/>
              <path id="Trazado_623266" data-name="Trazado 623266" d="M85.1,29.245c.444.662,2.4.14,4.7.268,2.3.047,4.21.716,4.7.088.218-.306-.045-.957-.853-1.612a6.815,6.815,0,0,0-7.573-.288c-.856.592-1.168,1.222-.973,1.544" transform="translate(67.977 21.333)" fill="#263238"/>
              <path id="Trazado_623267" data-name="Trazado 623267" d="M85.72,24.609A33.728,33.728,0,0,1,104.062,12.5l32.527,4.092,2.771-.049c.61-2.049,4.066-3.124,4.066-3.124,3.057-2.344,13.646-2.472,21.025,5.243,2.663,2.782,4.554,9.781,4.615,13.631.023,1.457-1.538,3.456-.32,4.257.426.281,3.942.207,4.441.315,8.273,1.812,13.444,9.148,11.945,20.116a5.583,5.583,0,0,0-.178,1.655,4.529,4.529,0,0,0,1.45,2.156,14.355,14.355,0,0,1,2.278,15.978c-.806,1.576-1.931,3.048-2.211,4.8-.5,3.129,1.783,5.918,3.554,8.545,5.308,7.881,6.447,19.33.218,26.5-1.515,1.745-3.467,3.3-4.034,5.538a13.279,13.279,0,0,0-.178,3.372c.04,5.723-2.98,12.129-8.574,13.336-3.107.669-6.879-.207-9.088,2.076a13.487,13.487,0,0,0-1.983,3.626,11.611,11.611,0,0,1-13.378,5.758c-5.047-1.556-6.72-22.036-5.99-27.266-6.112-2.222-10.637-2.616-10.351-9.115,0,0,.945-11.184-.865-16.633s1.821-17.043,3.89-22.675-.4-18.74-.95-23.952a18.974,18.974,0,0,1,.432-4.459l0,.005,0-.016c.227-1.267.524-2.694.873-4.223.128-1.425,1.3-9.032,1.281-10.364-.081-4.926-6.2-2.292-10.868-.723a11.974,11.974,0,0,1-3.5.632,12.473,12.473,0,0,1-10.045-4.761,17.96,17.96,0,0,1-17.727,4.847c-2.512,3.505-5.065,7.057-8.408,9.781s-7.629,4.576-11.915,4.1A33.732,33.732,0,0,1,85.72,24.609" transform="translate(63.03 9.599)" fill="#263238"/>
              <path id="Trazado_623268" data-name="Trazado 623268" d="M94.781,48.864a4.9,4.9,0,0,1,4.3-2.04,4.486,4.486,0,0,1,3.172,1.5,2.843,2.843,0,0,1,.378,3.23,3.294,3.294,0,0,1-3.521,1.08,10.271,10.271,0,0,1-3.577-1.9,2.977,2.977,0,0,1-.819-.766.912.912,0,0,1-.047-1.011" transform="translate(75.56 37.419)" fill="#6f4439"/>
              <path id="Trazado_623269" data-name="Trazado 623269" d="M102.04,45.167c-.443,0-.3,2.947-2.722,5.169s-5.581,2.055-5.583,2.469c-.032.187.729.538,2.06.507a7.36,7.36,0,0,0,4.666-1.893,6.4,6.4,0,0,0,2.094-4.325c.05-1.24-.313-1.954-.515-1.927" transform="translate(74.92 36.101)" fill="#263238"/>
              <path id="Trazado_623270" data-name="Trazado 623270" d="M81.079,340.143l3.66,38.125s-41.554,15.524-42.006,23.205l78.564.214-.045-5.745-3.294-19.614-4.856-38.1Z" transform="translate(34.156 270.343)" fill="#455a64"/>
              <path id="Trazado_623271" data-name="Trazado 623271" d="M80.964,357.255A3.284,3.284,0,0,1,83.244,361a3.154,3.154,0,0,1-3.689,2.292c-1.564-.392-2.924-2.451-2.393-3.975s2.677-2.717,4.1-1.959" transform="translate(61.581 285.44)" fill="#e0e0e0"/>
              <path id="Trazado_623272" data-name="Trazado 623272" d="M121.311,376.051l-.043-5.745-75.356,1.445s-3.575,1.567-3.165,4.086Z" transform="translate(34.141 295.979)" fill="#263238"/>
              <path id="Trazado_623273" data-name="Trazado 623273" d="M65.356,360.421c.014.392,1.977.565,3.912,1.823,1.968,1.207,2.969,2.906,3.329,2.749.362-.077-.229-2.424-2.6-3.9-2.355-1.5-4.729-1.027-4.642-.668" transform="translate(52.236 287.785)" fill="#263238"/>
              <path id="Trazado_623274" data-name="Trazado 623274" d="M60.674,362.279c-.088.382,1.612,1.044,2.951,2.7,1.385,1.617,1.727,3.413,2.118,3.393.369.063.635-2.238-1.067-4.266-1.684-2.044-3.994-2.2-4-1.828" transform="translate(48.493 289.436)" fill="#263238"/>
              <path id="Trazado_623275" data-name="Trazado 623275" d="M59.429,370.83c.356.083.9-1.88-.115-4.027s-2.852-3-3.017-2.672c-.221.322.973,1.474,1.779,3.249.846,1.756.963,3.411,1.353,3.449" transform="translate(44.975 290.99)" fill="#263238"/>
              <path id="Trazado_623276" data-name="Trazado 623276" d="M63.812,355.794c.166.358,1.965-.189,4.185-.043,2.222.1,3.951.84,4.155.5.227-.286-1.463-1.735-4.081-1.868-2.614-.155-4.453,1.1-4.259,1.407" transform="translate(50.993 283.245)" fill="#263238"/>
              <path id="Trazado_623277" data-name="Trazado 623277" d="M134.6,340.641l3.366,37.475s-40.918,15-41.409,22.545l77.18.684-.009-5.644-3.118-19.288-4.541-37.456Z" transform="translate(77.178 270.923)" fill="#455a64"/>
              <path id="Trazado_623278" data-name="Trazado 623278" d="M134.223,357.632a3.225,3.225,0,0,1,2.217,3.689,3.1,3.1,0,0,1-3.636,2.229c-1.535-.4-2.859-2.426-2.328-3.919s2.647-2.652,4.041-1.9" transform="translate(104.191 285.74)" fill="#e0e0e0"/>
              <path id="Trazado_623279" data-name="Trazado 623279" d="M173.752,376.138l-.009-5.644-74.037.964s-3.521,1.517-3.133,4Z" transform="translate(77.165 296.13)" fill="#263238"/>
              <path id="Trazado_623280" data-name="Trazado 623280" d="M118.864,360.653c.011.387,1.94.567,3.832,1.814,1.925,1.2,2.9,2.874,3.253,2.72.356-.074-.211-2.38-2.53-3.85-2.3-1.49-4.639-1.038-4.556-.684" transform="translate(95.004 287.982)" fill="#263238"/>
              <path id="Trazado_623281" data-name="Trazado 623281" d="M114.253,362.453c-.09.373,1.578,1.035,2.882,2.672,1.351,1.6,1.677,3.363,2.06,3.347.362.063.637-2.2-1.024-4.2-1.641-2.017-3.91-2.186-3.919-1.819" transform="translate(91.317 289.579)" fill="#263238"/>
              <path id="Trazado_623282" data-name="Trazado 623282" d="M112.977,370.846c.351.083.894-1.841-.088-3.957s-2.784-2.963-2.949-2.643c-.218.317.948,1.454,1.729,3.2.82,1.731.925,3.357,1.308,3.4" transform="translate(87.852 291.083)" fill="#263238"/>
              <path id="Trazado_623283" data-name="Trazado 623283" d="M117.378,356.091c.16.353,1.932-.173,4.111-.018,2.183.112,3.876.851,4.079.52.223-.279-1.427-1.711-4-1.859-2.566-.167-4.381,1.053-4.192,1.357" transform="translate(93.808 283.52)" fill="#263238"/>
              <path id="Trazado_623284" data-name="Trazado 623284" d="M71.812,155.02s-18.623,53.932-19.263,94.052S51.264,352.99,59.611,423.365s12.2,98.656,12.2,98.656h42.38s4.495-44.066,3.852-83.53-3.726-51.958.063-95.367,9.788-69.483,16.1-82.636c0,0,17.493-20.794,18.777-49.32s-8.811-53.039-8.811-53.039Z" transform="translate(41.727 123.905)" fill="#263238"/>
              <path id="Trazado_623285" data-name="Trazado 623285" d="M84.033,229.6c.7,2.166,13.279,90.587,22.453,129.586s19.384,49.322,21.172,81.047c2.06,36.489,12.079,80.7,12.079,80.7h45.126s-6.344-67.446-12.692-120.169-15.513-117.724-14.1-137.222,4.937-43.582,0-70.9-15.605-34.523-15.605-34.523l-38.285-1.733Z" transform="translate(67.166 124.994)" fill="#263238"/>
              <path id="Trazado_623286" data-name="Trazado 623286" d="M121.5,168.965a9.47,9.47,0,0,1,.7,1.373,27.2,27.2,0,0,1,1.531,4.151,54.989,54.989,0,0,1,1.488,16.163,106.618,106.618,0,0,1-3.71,23.794,76.471,76.471,0,0,1-4.925,13.387,95.333,95.333,0,0,1-8.154,12.939c-6.134,8.449-9.164,18.074-11.458,26.766a190.746,190.746,0,0,0-4.282,23.592c-.833,6.787-1.333,12.3-1.708,16.112q-.275,2.756-.441,4.387a9.319,9.319,0,0,1-.216,1.524,9.484,9.484,0,0,1,.027-1.538q.1-1.638.264-4.4c.261-3.82.659-9.349,1.409-16.161a181.374,181.374,0,0,1,4.1-23.729,115.371,115.371,0,0,1,4.27-13.6,67.443,67.443,0,0,1,3.151-6.879,71.147,71.147,0,0,1,4.1-6.612,95.937,95.937,0,0,0,8.1-12.814,76.528,76.528,0,0,0,4.916-13.208,109.263,109.263,0,0,0,3.883-23.589,57.475,57.475,0,0,0-1.177-16.044,32.219,32.219,0,0,0-1.351-4.167,9.578,9.578,0,0,1-.524-1.448" transform="translate(72.178 135.051)" fill="#455a64"/>
              <path id="Trazado_623287" data-name="Trazado 623287" d="M14.263,113.057c7.782,4.655,21.838,9.009,21.838,9.009l15.756-12.593s-11.271-20.6-14.9-26.435a31.2,31.2,0,0,1-2.938-6.231c-1.218-4.385-4.435-2.519-5.029.936a18.785,18.785,0,0,0,.981,5.558,16.293,16.293,0,0,1,1.1,6.679S29.922,89,27.089,87.095C24,85.018,13.576,76.324,9.171,72.684c-6.58-5.439-9.9-2.067-9.038.034,1.067,2.614,17.4,14.052,16.818,16.01,0,0-3.145,1.787-3.59,3.823a10.332,10.332,0,0,0,.031,4.052s-2.947.288-3.735,2.181.223,4.558.223,4.558-2.731.255-3.046,1.74,1.576,4.475,7.429,7.974" transform="translate(0 55.743)" fill="#ae7461"/>
              <path id="Trazado_623288" data-name="Trazado 623288" d="M37.708,105.186c.237.713,33.785,35.061,33.785,35.061s28-31.536,36.518-43.138,21.449-25.827,32.576-28.492,26.59,4.5,26.59,4.5l-19.709,40.527-24.882,34.21S95.7,181.629,82.915,186.838s-25.309-2.272-30.753-7.955S14.413,124.1,14.413,124.1Z" transform="translate(11.52 54.371)" fill="#529d2e"/>
              <path id="Trazado_623289" data-name="Trazado 623289" d="M186.24,81.732l-77.2-13.378s-21.435,37.738-29.454,77.393-17.158,79.271-17.158,79.271l71.309,8.786a82.185,82.185,0,0,0,22.336-.308l7.431-1.123L157.4,207.194c10.193-25.449,17.629-47.192,22.047-65.147,9.583-38.958,6.8-60.316,6.8-60.316" transform="translate(49.898 54.634)" fill="#529d2e"/>
              <path id="Trazado_623290" data-name="Trazado 623290" d="M102.476,96.747a9.036,9.036,0,0,1-1.254,1.69l-3.62,4.423c-3.059,3.732-7.2,8.951-11.793,14.716s-8.827,10.929-12.023,14.56c-1.594,1.817-2.911,3.264-3.854,4.234a9.067,9.067,0,0,1-1.531,1.447,8.966,8.966,0,0,1,1.254-1.69l3.62-4.423c3.059-3.732,7.2-8.951,11.794-14.718s8.825-10.927,12.021-14.558c1.594-1.817,2.911-3.264,3.854-4.234a9.073,9.073,0,0,1,1.531-1.447" transform="translate(54.669 77.326)" fill="#263238"/>
              <path id="Trazado_623291" data-name="Trazado 623291" d="M129.663,146.168a20.862,20.862,0,0,1-4.842,1.393,71.793,71.793,0,0,1-24.227.934,20.963,20.963,0,0,1-4.935-1.015,37.256,37.256,0,0,1,5.007.356,97.011,97.011,0,0,0,24.033-.927,37.375,37.375,0,0,1,4.964-.741" transform="translate(76.458 116.806)" fill="#263238"/>
              <path id="Trazado_623292" data-name="Trazado 623292" d="M45.874,128.217c-.259,0-.407-4.383-.329-9.781s.349-9.774.608-9.77.407,4.383.329,9.783-.349,9.772-.608,9.768" transform="translate(36.387 86.855)" fill="#263238"/>
              <g id="Grupo_924762" data-name="Grupo 924762" transform="translate(184.862 140.823)" opacity="0.3">
                <g id="Grupo_924761" data-name="Grupo 924761">
                  <g id="Grupo_924760" data-name="Grupo 924760" clip-path="url(#clip-path-19)">
                    <path id="Trazado_623293" data-name="Trazado 623293" d="M151.534,82.568l-48.237-4.3a8.049,8.049,0,0,0,5.108,10.511A15.615,15.615,0,0,0,120.8,112.064a14.431,14.431,0,0,1,3.845.479c2.674.963,3.953,3.9,5.558,6.244a14.608,14.608,0,0,0,8.993,6.238,10.665,10.665,0,0,0,10.148-3.366c2.362-2.875,2.758-6.848,2.942-10.565a188.042,188.042,0,0,0-.748-28.524" transform="translate(-102.743 -78.266)"/>
                  </g>
                </g>
              </g>
              <g id="Grupo_924765" data-name="Grupo 924765" transform="translate(126.568 176.879)" opacity="0.3">
                <g id="Grupo_924764" data-name="Grupo 924764">
                  <g id="Grupo_924763" data-name="Grupo 924763" clip-path="url(#clip-path-20)">
                    <path id="Trazado_623294" data-name="Trazado 623294" d="M70.343,133.148A34.069,34.069,0,0,0,97.615,98.305C87.517,109.254,79,123.283,70.343,133.148" transform="translate(-70.344 -98.305)"/>
                  </g>
                </g>
              </g>
              <path id="Trazado_623295" data-name="Trazado 623295" d="M163.019,84.483l-41.162-45.81c1.506,11.625-2.875,23.193-8.138,33.666-3,5.961-6.339,13.052-3.192,18.936-2.571,2.868-5.18,5.792-6.8,9.286s-2.136,7.708-.443,11.166,5.99,5.727,9.585,4.345a12.556,12.556,0,0,0,17.318,15.576c1.123,4.729,3.678,9.259,7.7,11.992s9.6,3.37,13.788.9,6.31-8.27,4.065-12.579c9.056-2,14.715-11.764,14.983-21.035s-3.626-18.113-7.7-26.446" transform="translate(81.716 30.911)" fill="#263238"/>
              <path id="Trazado_623296" data-name="Trazado 623296" d="M93.142,33.968c.011.031-.22.122-.68.272a5.734,5.734,0,0,1-2.1.146A8.324,8.324,0,0,1,84.135,30.1a8.049,8.049,0,0,1-.862-5.313,10.78,10.78,0,0,1,2.828-5.49A11.715,11.715,0,0,1,92.009,15.9a15.865,15.865,0,0,1,7.3.074,20.379,20.379,0,0,1,4.009,1.423l-.633.247A16.865,16.865,0,0,1,111.3,8.76a16.248,16.248,0,0,1,16.048,1.659,10.835,10.835,0,0,1,1.38,1.161c.29.293.43.455.408.477-.052.059-.682-.525-1.979-1.357a16.99,16.99,0,0,0-6.038-2.364,15.563,15.563,0,0,0-9.473,1.179,16.2,16.2,0,0,0-8.1,8.478l-.185.457-.448-.212a19.755,19.755,0,0,0-3.82-1.349,15.12,15.12,0,0,0-6.87-.094,10.92,10.92,0,0,0-5.5,3.1,10.075,10.075,0,0,0-2.688,5.031,7.411,7.411,0,0,0,.682,4.863,8.09,8.09,0,0,0,5.693,4.239,9.589,9.589,0,0,0,2.73-.056" transform="translate(66.461 5.881)" fill="#455a64"/>
              <path id="Trazado_623297" data-name="Trazado 623297" d="M155.159,59.084c-.074-.036.345-.849.784-2.427a16.287,16.287,0,0,0,.363-6.875,14.841,14.841,0,0,0-4.82-8.878A15.623,15.623,0,0,0,139.7,37.066l-.689.072.194-.669a18.489,18.489,0,0,0,.707-4.228,19.188,19.188,0,0,0-4.469-13.27,18.428,18.428,0,0,0-9.9-5.923,19.843,19.843,0,0,0-7.915-.245c-1.86.335-2.852.722-2.882.635a2.421,2.421,0,0,1,.7-.336,13.792,13.792,0,0,1,2.114-.657A19.309,19.309,0,0,1,136.1,18.409a19.84,19.84,0,0,1,4.752,13.878,19.319,19.319,0,0,1-.754,4.45l-.495-.6a16.307,16.307,0,0,1,12.438,4.146,15.281,15.281,0,0,1,4.887,9.4,15.607,15.607,0,0,1-.657,7.066,10.791,10.791,0,0,1-.752,1.765c-.211.383-.331.576-.358.563" transform="translate(91.714 9.577)" fill="#455a64"/>
              <path id="Trazado_623298" data-name="Trazado 623298" d="M103.362,29.128c-.023.04-.475-.126-1.15-.66a8.029,8.029,0,0,1-2.2-2.884,9.437,9.437,0,0,1-.741-5.351A10.049,10.049,0,0,1,102.5,14.46a11.423,11.423,0,0,1,5.963-2.839,13.084,13.084,0,0,1,8.669,1.785c.721.45,1.065.775,1.033.82a34.421,34.421,0,0,0-4.5-1.612,13.21,13.21,0,0,0-5.065-.14,10.971,10.971,0,0,0-5.473,2.681,9.483,9.483,0,0,0-3.007,5.222,9.161,9.161,0,0,0,.5,4.944,11.5,11.5,0,0,0,2.74,3.807" transform="translate(79.256 9.179)" fill="#455a64"/>
              <path id="Trazado_623299" data-name="Trazado 623299" d="M118.405,104.017c-.02.025-.216-.1-.574-.353a11.749,11.749,0,0,1-1.463-1.256,16.887,16.887,0,0,1-4.146-16.476,17.339,17.339,0,0,1,8.088-9.916,16.412,16.412,0,0,1,5.056-1.846l-.259.767a13.089,13.089,0,0,1-3.143-10.47,12.212,12.212,0,0,1,4.3-7.67,12.41,12.41,0,0,1,5.234-2.632,8.326,8.326,0,0,1,1.564-.225c.36-.013.547-.007.551.023.007.076-.741.137-2.028.52a13.038,13.038,0,0,0-4.919,2.775,11.756,11.756,0,0,0-3.892,7.318,12.377,12.377,0,0,0,3.019,9.738l.556.615-.813.153a15.631,15.631,0,0,0-4.764,1.754,16.677,16.677,0,0,0-7.723,9.353,16.29,16.29,0,0,0,.171,10.008,17.68,17.68,0,0,0,3.417,5.965c1.092,1.225,1.826,1.787,1.77,1.857" transform="translate(89.158 43.108)" fill="#455a64"/>
              <path id="Trazado_623300" data-name="Trazado 623300" d="M122.695,28.331l-1.285-5.808a42.422,42.422,0,0,0-4.133,27.261c.794,4.281,2.219,8.872.365,12.811-1.267,2.69-3.861,4.532-5.346,7.107-1.88,3.259-.493,11.841-.977,13.531-1.1,3.85-4.827,6.308-5.706,10.959s.239,10.27,4.417,12.494C117.9,93.712,125.948,80.23,127.8,65.17c1.524-12.4-1.3-24.934-5.1-36.839" transform="translate(84.192 18.002)" fill="#263238"/>
              <path id="Trazado_623301" data-name="Trazado 623301" d="M135.7,58.346a1.769,1.769,0,0,1-.671.038,14.439,14.439,0,0,1-1.911-.2,13.135,13.135,0,0,1-6.443-2.9,9.986,9.986,0,0,1-2.816-4.092,7.627,7.627,0,0,1,.1-5.722,6.99,6.99,0,0,1,4.858-4.047,5.094,5.094,0,0,1,3.465.495,3.246,3.246,0,0,1,1.681,3.267,2.645,2.645,0,0,1-1.056,1.7,3.492,3.492,0,0,1-1.812.572,6.738,6.738,0,0,1-3.354-.8,16.11,16.11,0,0,1-4.921-3.886,15.922,15.922,0,0,1-2.652-16.652,13.138,13.138,0,0,1,.887-1.706c.243-.367.381-.551.408-.534.074.041-.4.831-.955,2.373a16.7,16.7,0,0,0-.919,6.781,15.762,15.762,0,0,0,8.566,12.8,5.873,5.873,0,0,0,2.891.691,1.914,1.914,0,0,0,1.99-1.49,2.313,2.313,0,0,0-1.218-2.31,4.208,4.208,0,0,0-2.828-.4,6.151,6.151,0,0,0-4.245,3.5,6.862,6.862,0,0,0-.149,5.108,9.448,9.448,0,0,0,2.526,3.858,13.549,13.549,0,0,0,6.073,3.034c1.6.371,2.515.439,2.508.518" transform="translate(95.04 19.085)" fill="#455a64"/>
            </g>
          </g>
        </g>
      </g>
    </g>
  </g>
</svg>
