<svg xmlns="http://www.w3.org/2000/svg" width="715" height="140.438" viewBox="0 0 715 140.438">
  <g id="Grupo_980854" data-name="Grupo 980854" transform="translate(-705 -13801.075)">
    <path id="Trazado_656383" data-name="Trazado 656383" d="M0,0H715V108H0Z" transform="translate(705 13828.075)" fill="#c2e8b0"/>
    <g id="Floor" transform="translate(732.792 13856.779)">
      <ellipse id="Floor-2" data-name="Floor" cx="73.942" cy="42.367" rx="73.942" ry="42.367" fill="#6ba74d"/>
    </g>
    <g id="Shadows" transform="translate(738.37 13886.431)">
      <ellipse id="Shadow" cx="6.49" cy="3.747" rx="6.49" ry="3.747" transform="translate(0 19.79)" fill="#5f9a42"/>
      <ellipse id="Shadow-2" data-name="Shadow" cx="6.49" cy="3.747" rx="6.49" ry="3.747" transform="translate(16.123 30.782)" fill="#5f9a42"/>
      <path id="Shadow-3" data-name="Shadow" d="M245.116,348.794c-7.382-4.262-19.351-4.262-26.733,0-6.257,3.613-7.208,9.128-2.857,13.321a3.144,3.144,0,0,0-.7.286L191.5,375.865a1.093,1.093,0,0,0,0,2.07l1.46.843a3.684,3.684,0,0,0,3.524-.1l21.72-14.215a2.19,2.19,0,0,0,.25-.2c7.387,4.221,19.3,4.209,26.661-.04C252.5,359.966,252.5,353.056,245.116,348.794Z" transform="translate(-140.366 -333.124)" fill="#5f9a42"/>
      <path id="Shadow-4" data-name="Shadow" d="M409.364,307.577c5.849,3.3,5.908,8.738.131,12.158s-15.2,3.522-21.056.227-5.911-8.738-.131-12.158S403.514,304.282,409.364,307.577Z" transform="translate(-273.992 -305.17)" fill="#5f9a42"/>
    </g>
    <g id="Grid" transform="translate(746.604 13809.043)">
      <g id="Grid-2" data-name="Grid">
        <g id="Grupo_105028" data-name="Grupo 105028">
          <g id="Grupo_105011" data-name="Grupo 105011" transform="translate(0.095 7.812)">
            <rect id="Rectángulo_36747" data-name="Rectángulo 36747" width="74.7" height="0.326" transform="translate(0 37.399) rotate(-30.043)" fill="#e0e0e0"/>
          </g>
          <g id="Grupo_105012" data-name="Grupo 105012" transform="translate(0.095 15.655)">
            <rect id="Rectángulo_36748" data-name="Rectángulo 36748" width="74.7" height="0.326" transform="translate(0 37.396) rotate(-30.041)" fill="#e0e0e0"/>
          </g>
          <g id="Grupo_105013" data-name="Grupo 105013" transform="translate(0.087 23.51)">
            <rect id="Rectángulo_36749" data-name="Rectángulo 36749" width="74.7" height="0.326" transform="translate(0 37.368) rotate(-30.016)" fill="#e0e0e0"/>
          </g>
          <g id="Grupo_105014" data-name="Grupo 105014" transform="translate(0.086 31.353)">
            <rect id="Rectángulo_36750" data-name="Rectángulo 36750" width="74.7" height="0.326" transform="translate(0 37.365) rotate(-30.014)" fill="#e0e0e0"/>
          </g>
          <g id="Grupo_105015" data-name="Grupo 105015" transform="translate(0.087 39.193)">
            <rect id="Rectángulo_36751" data-name="Rectángulo 36751" width="74.7" height="0.326" transform="translate(0 37.368) rotate(-30.016)" fill="#e0e0e0"/>
          </g>
          <g id="Grupo_105016" data-name="Grupo 105016" transform="translate(0.087 47.034)">
            <rect id="Rectángulo_36752" data-name="Rectángulo 36752" width="74.7" height="0.326" transform="translate(0 37.368) rotate(-30.016)" fill="#e0e0e0"/>
          </g>
          <g id="Grupo_105017" data-name="Grupo 105017" transform="translate(5.881 34.118)">
            <rect id="Rectángulo_36753" data-name="Rectángulo 36753" width="0.326" height="54.89" fill="#e0e0e0"/>
          </g>
          <g id="Grupo_105018" data-name="Grupo 105018" transform="translate(11.762 30.722)">
            <rect id="Rectángulo_36754" data-name="Rectángulo 36754" width="0.326" height="54.89" fill="#e0e0e0"/>
          </g>
          <g id="Grupo_105019" data-name="Grupo 105019" transform="translate(17.643 27.327)">
            <rect id="Rectángulo_36755" data-name="Rectángulo 36755" width="0.326" height="54.89" fill="#e0e0e0"/>
          </g>
          <g id="Grupo_105020" data-name="Grupo 105020" transform="translate(23.524 23.931)">
            <rect id="Rectángulo_36756" data-name="Rectángulo 36756" width="0.326" height="54.89" fill="#e0e0e0"/>
          </g>
          <g id="Grupo_105021" data-name="Grupo 105021" transform="translate(29.405 20.536)">
            <rect id="Rectángulo_36757" data-name="Rectángulo 36757" width="0.326" height="54.89" fill="#e0e0e0"/>
          </g>
          <g id="Grupo_105022" data-name="Grupo 105022" transform="translate(35.287 17.14)">
            <rect id="Rectángulo_36758" data-name="Rectángulo 36758" width="0.326" height="54.89" fill="#e0e0e0"/>
          </g>
          <g id="Grupo_105023" data-name="Grupo 105023" transform="translate(41.168 13.745)">
            <rect id="Rectángulo_36759" data-name="Rectángulo 36759" width="0.326" height="54.89" fill="#e0e0e0"/>
          </g>
          <g id="Grupo_105024" data-name="Grupo 105024" transform="translate(47.049 10.349)">
            <rect id="Rectángulo_36760" data-name="Rectángulo 36760" width="0.326" height="54.89" fill="#e0e0e0"/>
          </g>
          <g id="Grupo_105025" data-name="Grupo 105025" transform="translate(52.93 6.954)">
            <rect id="Rectángulo_36761" data-name="Rectángulo 36761" width="0.326" height="54.89" fill="#e0e0e0"/>
          </g>
          <g id="Grupo_105026" data-name="Grupo 105026" transform="translate(58.811 3.558)">
            <rect id="Rectángulo_36762" data-name="Rectángulo 36762" width="0.326" height="54.89" fill="#e0e0e0"/>
          </g>
          <g id="Grupo_105027" data-name="Grupo 105027">
            <path id="Trazado_134674" data-name="Trazado 134674" d="M54.278,146.888a.168.168,0,0,1-.082-.022.164.164,0,0,1-.081-.141V91.862a.163.163,0,0,1,.081-.141l64.692-37.35a.163.163,0,0,1,.245.141v54.863a.163.163,0,0,1-.081.141L54.36,146.866A.168.168,0,0,1,54.278,146.888Zm.163-54.932v54.487l64.366-37.162V54.794Z" transform="translate(-54.115 -54.349)" fill="#e0e0e0"/>
          </g>
        </g>
        <g id="Grupo_105044" data-name="Grupo 105044" transform="translate(0 54.863)">
          <g id="Grupo_105029" data-name="Grupo 105029" transform="translate(5.949 3.394)">
            <rect id="Rectángulo_36763" data-name="Rectángulo 36763" width="74.7" height="0.326" transform="translate(0 37.374) rotate(-30.021)" fill="#e0e0e0"/>
          </g>
          <g id="Grupo_105030" data-name="Grupo 105030" transform="translate(11.829 6.791)">
            <rect id="Rectángulo_36764" data-name="Rectángulo 36764" width="74.7" height="0.326" transform="translate(0 37.371) rotate(-30.018)" fill="#e0e0e0"/>
          </g>
          <g id="Grupo_105031" data-name="Grupo 105031" transform="translate(17.711 10.185)">
            <rect id="Rectángulo_36765" data-name="Rectángulo 36765" width="74.7" height="0.326" transform="translate(0 37.374) rotate(-30.021)" fill="#e0e0e0"/>
          </g>
          <g id="Grupo_105032" data-name="Grupo 105032" transform="translate(23.592 13.58)">
            <rect id="Rectángulo_36766" data-name="Rectángulo 36766" width="74.7" height="0.326" transform="translate(0 37.374) rotate(-30.021)" fill="#e0e0e0"/>
          </g>
          <g id="Grupo_105033" data-name="Grupo 105033" transform="translate(5.963 33.976)">
            <rect id="Rectángulo_36767" data-name="Rectángulo 36767" width="0.326" height="33.954" transform="matrix(0.5, -0.866, 0.866, 0.5, 0, 0.283)" fill="#e0e0e0"/>
          </g>
          <g id="Grupo_105034" data-name="Grupo 105034" transform="translate(11.843 30.581)">
            <rect id="Rectángulo_36768" data-name="Rectángulo 36768" width="0.326" height="33.954" transform="translate(0 0.283) rotate(-60)" fill="#e0e0e0"/>
          </g>
          <g id="Grupo_105035" data-name="Grupo 105035" transform="translate(17.725 27.186)">
            <rect id="Rectángulo_36769" data-name="Rectángulo 36769" width="0.326" height="33.954" transform="translate(0 0.283) rotate(-60)" fill="#e0e0e0"/>
          </g>
          <g id="Grupo_105036" data-name="Grupo 105036" transform="translate(23.606 23.79)">
            <rect id="Rectángulo_36770" data-name="Rectángulo 36770" width="0.326" height="33.954" transform="matrix(0.5, -0.866, 0.866, 0.5, 0, 0.283)" fill="#e0e0e0"/>
          </g>
          <g id="Grupo_105037" data-name="Grupo 105037" transform="translate(29.487 20.394)">
            <rect id="Rectángulo_36771" data-name="Rectángulo 36771" width="0.326" height="33.954" transform="translate(0 0.283) rotate(-60)" fill="#e0e0e0"/>
          </g>
          <g id="Grupo_105038" data-name="Grupo 105038" transform="translate(35.368 16.999)">
            <rect id="Rectángulo_36772" data-name="Rectángulo 36772" width="0.326" height="33.954" transform="translate(0 0.283) rotate(-60)" fill="#e0e0e0"/>
          </g>
          <g id="Grupo_105039" data-name="Grupo 105039" transform="translate(41.249 13.604)">
            <rect id="Rectángulo_36773" data-name="Rectángulo 36773" width="0.326" height="33.954" transform="translate(0 0.283) rotate(-60)" fill="#e0e0e0"/>
          </g>
          <g id="Grupo_105040" data-name="Grupo 105040" transform="translate(47.13 10.208)">
            <rect id="Rectángulo_36774" data-name="Rectángulo 36774" width="0.326" height="33.954" transform="translate(0 0.283) rotate(-60)" fill="#e0e0e0"/>
          </g>
          <g id="Grupo_105041" data-name="Grupo 105041" transform="translate(53.011 6.813)">
            <rect id="Rectángulo_36775" data-name="Rectángulo 36775" width="0.326" height="33.954" transform="translate(0 0.283) rotate(-60)" fill="#e0e0e0"/>
          </g>
          <g id="Grupo_105042" data-name="Grupo 105042" transform="translate(58.892 3.417)">
            <rect id="Rectángulo_36776" data-name="Rectángulo 36776" width="0.326" height="33.954" transform="translate(0 0.283) rotate(-60)" fill="#e0e0e0"/>
          </g>
          <g id="Grupo_105043" data-name="Grupo 105043">
            <path id="Trazado_134675" data-name="Trazado 134675" d="M83.663,286.806a.163.163,0,0,1-.081-.022L54.2,269.819a.164.164,0,0,1,0-.283l64.692-37.35a.163.163,0,0,1,.164,0l29.385,16.965a.164.164,0,0,1,0,.283l-64.692,37.35A.164.164,0,0,1,83.663,286.806ZM54.6,269.678l29.059,16.777,64.366-37.162L118.97,232.516Z" transform="translate(-54.115 -232.165)" fill="#e0e0e0"/>
          </g>
        </g>
      </g>
    </g>
    <g id="Charts" transform="translate(753.915 13819.42)">
      <g id="Charts-2" data-name="Charts">
        <g id="Grupo_105048" data-name="Grupo 105048" transform="translate(0 23.673)">
          <g id="Grupo_105047" data-name="Grupo 105047" transform="translate(0 1.568)">
            <g id="Grupo_105046" data-name="Grupo 105046">
              <g id="Grupo_105045" data-name="Grupo 105045">
                <path id="Trazado_134676" data-name="Trazado 134676" d="M86.8,173.428c0,3.549-2.013,7.671-4.5,9.209s-4.495-.1-4.495-3.641,2.013-7.671,4.495-9.209V176.6l4.278-5.017A7.239,7.239,0,0,1,86.8,173.428Z" transform="translate(-77.812 -169.787)" fill="#529d2e"/>
              </g>
            </g>
          </g>
          <path id="Trazado_134677" data-name="Trazado 134677" d="M98,167.076c-.586-2.214-2.279-3.029-4.277-1.793v6.808Z" transform="translate(-88.815 -164.705)" fill="#a4dc88"/>
        </g>
        <g id="Grupo_105053" data-name="Grupo 105053" transform="translate(14.79 16.045)">
          <g id="Grupo_105051" data-name="Grupo 105051" transform="translate(0 0.855)">
            <g id="Grupo_105050" data-name="Grupo 105050">
              <g id="Grupo_105049" data-name="Grupo 105049">
                <path id="Trazado_134678" data-name="Trazado 134678" d="M130.242,149.18l2.644,3.565a8.525,8.525,0,0,1-2.644,2.86c-2.482,1.538-4.494-.092-4.494-3.641s2.013-7.671,4.494-9.209Z" transform="translate(-125.748 -142.755)" fill="#529d2e"/>
              </g>
            </g>
          </g>
          <g id="Grupo_105052" data-name="Grupo 105052" transform="translate(5.18)">
            <path id="Trazado_134679" data-name="Trazado 134679" d="M145.179,150.55a12.828,12.828,0,0,0,1.853-6.345c0-3.549-2.013-5.179-4.5-3.643v6.425Z" transform="translate(-142.536 -139.984)" fill="#85d161"/>
          </g>
        </g>
        <g id="Grupo_105058" data-name="Grupo 105058" transform="translate(43.936)">
          <g id="Grupo_105056" data-name="Grupo 105056">
            <g id="Grupo_105055" data-name="Grupo 105055">
              <g id="Grupo_105054" data-name="Grupo 105054">
                <path id="Trazado_134680" data-name="Trazado 134680" d="M224.491,87.98v6.425l-4.278.661C220.8,92.127,222.493,89.216,224.491,87.98Z" transform="translate(-220.213 -87.98)" fill="#529d2e"/>
              </g>
            </g>
          </g>
          <g id="Grupo_105057" data-name="Grupo 105057" transform="translate(0.541 0.159)">
            <path id="Trazado_134681" data-name="Trazado 134681" d="M222.184,96.16a10.9,10.9,0,0,0-.219,2.122c0,3.549,2.013,5.179,4.5,3.643s4.5-5.659,4.5-9.207-2.013-5.179-4.5-3.643V95.5Z" transform="translate(-221.965 -88.496)" fill="#85d161"/>
          </g>
        </g>
        <g id="Grupo_105063" data-name="Grupo 105063" transform="translate(29.473 7.733)">
          <g id="Grupo_105061" data-name="Grupo 105061" transform="translate(0 0.373)">
            <g id="Grupo_105060" data-name="Grupo 105060">
              <g id="Grupo_105059" data-name="Grupo 105059">
                <path id="Trazado_134682" data-name="Trazado 134682" d="M177.836,114.255v6.425l-2.642,6.835c-1.124-.474-1.856-1.916-1.856-4.054C173.338,119.914,175.351,115.79,177.836,114.255Z" transform="translate(-173.338 -114.255)" fill="#529d2e"/>
              </g>
            </g>
          </g>
          <g id="Grupo_105062" data-name="Grupo 105062" transform="translate(2.577)">
            <path id="Trazado_134683" data-name="Trazado 134683" d="M181.69,126.882a2.861,2.861,0,0,0,2.643-.409c2.483-1.537,4.5-5.659,4.5-9.207s-2.013-5.179-4.5-3.643v6.426Z" transform="translate(-181.69 -113.045)" fill="#85d161"/>
          </g>
        </g>
        <g id="Grupo_105064" data-name="Grupo 105064" transform="translate(1.779 15.897)">
          <path id="Trazado_134684" data-name="Trazado 134684" d="M83.578,227.12v-2.1a.172.172,0,0,1,.078-.135l5.309-3.1c.043-.025.078,0,.078.045v2.1a.173.173,0,0,1-.078.135l-5.309,3.1C83.613,227.19,83.578,227.17,83.578,227.12Z" transform="translate(-83.578 -196.389)" fill="#529d2e"/>
          <path id="Trazado_134685" data-name="Trazado 134685" d="M131.319,199.7v-2.1a.172.172,0,0,1,.078-.135l5.309-3.1c.043-.025.078,0,.078.045v2.1a.172.172,0,0,1-.078.135l-5.309,3.1C131.354,199.767,131.319,199.747,131.319,199.7Z" transform="translate(-116.589 -177.427)" fill="#529d2e"/>
          <path id="Trazado_134686" data-name="Trazado 134686" d="M179.06,172.274v-2.1a.172.172,0,0,1,.078-.135l5.309-3.1c.043-.025.078,0,.078.045v2.1a.171.171,0,0,1-.078.135l-5.309,3.1C179.095,172.344,179.06,172.324,179.06,172.274Z" transform="translate(-149.6 -158.465)" fill="#529d2e"/>
          <path id="Trazado_134687" data-name="Trazado 134687" d="M226.8,144.851v-2.1a.172.172,0,0,1,.078-.135l5.309-3.1c.043-.025.078,0,.078.045v2.1a.171.171,0,0,1-.078.135l-5.309,3.1C226.836,144.921,226.8,144.9,226.8,144.851Z" transform="translate(-182.611 -139.503)" fill="#529d2e"/>
        </g>
      </g>
      <g id="Graph" transform="translate(3.269 4.693)">
        <g id="Grupo_105065" data-name="Grupo 105065" transform="translate(0 7.12)">
          <path id="Trazado_134688" data-name="Trazado 134688" d="M153.1,126.266l-5.881,10.112-5.881,17.344-5.881-3.219-5.881,16.18-5.881-3.219-5.881,3.524-5.881,8.144-5.881-.426-5.881,12.074-5.881-.333-5.881,8.178v7.841l1.325.765,64.692-37.359V127.031Z" transform="translate(-88.406 -126.266)" fill="#8d8d8d"/>
          <path id="Trazado_134689" data-name="Trazado 134689" d="M92.7,197.105l5.881-8.178,5.881.333,5.881-12.074,5.881.426,5.881-8.144,5.881-3.524,5.881,3.219,5.881-16.18,5.881,3.219,5.881-17.344,5.881-10.112v38.842L92.7,204.947Z" transform="translate(-91.375 -127.981)" fill="#afafaf"/>
          <path id="Trazado_134690" data-name="Trazado 134690" d="M88.406,329.5l1.325.765,5.881-8.178-1.325-.765Z" transform="translate(-88.406 -261.139)" fill="#c1c1c1"/>
          <path id="Trazado_134691" data-name="Trazado 134691" d="M132.409,283.266l1.325.765-5.881,12.074-1.325-.765Z" transform="translate(-114.766 -234.826)" fill="#c1c1c1"/>
          <path id="Trazado_134692" data-name="Trazado 134692" d="M164.651,266.394l1.325.765,5.881-8.144-1.325-.765Z" transform="translate(-141.126 -217.528)" fill="#c1c1c1"/>
          <path id="Trazado_134693" data-name="Trazado 134693" d="M227.715,204.82l1.325.765-5.881,16.18L221.834,221Z" transform="translate(-180.666 -180.583)" fill="#c1c1c1"/>
          <path id="Trazado_134694" data-name="Trazado 134694" d="M265.838,159.04l1.325.765-5.881,17.344-1.325-.765Z" transform="translate(-207.027 -148.928)" fill="#c1c1c1"/>
        </g>
        <g id="Grupo_105090" data-name="Grupo 105090" transform="translate(0.653)">
          <g id="Grupo_105077" data-name="Grupo 105077" transform="translate(0 2.404)">
            <g id="Grupo_105066" data-name="Grupo 105066" transform="translate(59.007)">
              <path id="Trazado_134695" data-name="Trazado 134695" d="M281.9,118.839a.139.139,0,0,1-.076-.023.137.137,0,0,1-.038-.189l5.025-7.583a.136.136,0,1,1,.227.15l-5.025,7.583A.135.135,0,0,1,281.9,118.839Z" transform="translate(-281.767 -110.984)" fill="#455a64"/>
            </g>
            <g id="Grupo_105067" data-name="Grupo 105067" transform="translate(52.892 9.976)">
              <path id="Trazado_134696" data-name="Trazado 134696" d="M262.085,158.417a.137.137,0,0,1-.129-.18l5.028-14.828a.136.136,0,0,1,.258.087l-5.028,14.828A.136.136,0,0,1,262.085,158.417Z" transform="translate(-261.949 -143.316)" fill="#455a64"/>
            </g>
            <g id="Grupo_105068" data-name="Grupo 105068" transform="translate(47.713 23.465)">
              <path id="Trazado_134697" data-name="Trazado 134697" d="M249.389,189.542a.138.138,0,0,1-.065-.017l-4.088-2.234a.136.136,0,0,1,.131-.239l4.088,2.233a.136.136,0,0,1-.065.256Z" transform="translate(-245.165 -187.036)" fill="#455a64"/>
            </g>
            <g id="Grupo_105069" data-name="Grupo 105069" transform="translate(41.623 24.353)">
              <path id="Trazado_134698" data-name="Trazado 134698" d="M225.562,203.862a.138.138,0,0,1-.047-.008.136.136,0,0,1-.081-.174l4.971-13.675a.136.136,0,0,1,.256.093l-4.971,13.675A.136.136,0,0,1,225.562,203.862Z" transform="translate(-225.425 -189.915)" fill="#455a64"/>
            </g>
            <g id="Grupo_105070" data-name="Grupo 105070" transform="translate(35.952 36.426)">
              <path id="Trazado_134699" data-name="Trazado 134699" d="M211.731,231.809a.134.134,0,0,1-.065-.017l-4.552-2.492a.136.136,0,1,1,.131-.238l4.552,2.491a.136.136,0,0,1-.065.256Z" transform="translate(-207.044 -229.044)" fill="#455a64"/>
            </g>
            <g id="Grupo_105071" data-name="Grupo 105071" transform="translate(30.275 36.585)">
              <path id="Trazado_134700" data-name="Trazado 134700" d="M188.78,232.311a.136.136,0,0,1-.07-.253l4.14-2.481a.136.136,0,0,1,.14.234l-4.14,2.481A.134.134,0,0,1,188.78,232.311Z" transform="translate(-188.644 -229.558)" fill="#455a64"/>
            </g>
            <g id="Grupo_105072" data-name="Grupo 105072" transform="translate(24.29 40.555)">
              <path id="Trazado_134701" data-name="Trazado 134701" d="M169.384,248.814a.136.136,0,0,1-.11-.216l4.415-6.115a.136.136,0,0,1,.221.16l-4.416,6.115A.135.135,0,0,1,169.384,248.814Z" transform="translate(-169.248 -242.427)" fill="#455a64"/>
            </g>
            <g id="Grupo_105073" data-name="Grupo 105073" transform="translate(18.438 47.362)">
              <path id="Trazado_134702" data-name="Trazado 134702" d="M154.7,265.072h-.01l-4.282-.31a.136.136,0,0,1-.126-.146.131.131,0,0,1,.145-.126l4.282.31a.136.136,0,0,1-.01.272Z" transform="translate(-150.282 -264.49)" fill="#455a64"/>
            </g>
            <g id="Grupo_105074" data-name="Grupo 105074" transform="translate(12.369 48.534)">
              <path id="Trazado_134703" data-name="Trazado 134703" d="M130.747,278.157a.138.138,0,0,1-.06-.014.136.136,0,0,1-.063-.182l4.675-9.6a.136.136,0,0,1,.245.119l-4.675,9.6A.137.137,0,0,1,130.747,278.157Z" transform="translate(-130.611 -268.287)" fill="#455a64"/>
            </g>
            <g id="Grupo_105075" data-name="Grupo 105075" transform="translate(6.669 59.091)">
              <path id="Trazado_134704" data-name="Trazado 134704" d="M116.559,303.018h-.008l-4.289-.243a.136.136,0,0,1-.128-.144.134.134,0,0,1,.144-.128l4.288.243a.136.136,0,0,1-.008.272Z" transform="translate(-112.134 -302.503)" fill="#455a64"/>
            </g>
            <g id="Grupo_105076" data-name="Grupo 105076" transform="translate(0 60.081)">
              <path id="Trazado_134705" data-name="Trazado 134705" d="M90.657,313.127a.139.139,0,0,1-.08-.026.137.137,0,0,1-.031-.19l5.137-7.144a.136.136,0,1,1,.221.159l-5.137,7.144A.137.137,0,0,1,90.657,313.127Z" transform="translate(-90.521 -305.711)" fill="#455a64"/>
            </g>
          </g>
          <g id="Grupo_105089" data-name="Grupo 105089" transform="translate(5.008)">
            <g id="Grupo_105078" data-name="Grupo 105078" transform="translate(0 60.182)">
              <path id="Trazado_134706" data-name="Trazado 134706" d="M107.415,301.056a.576.576,0,0,1-.292-.077.905.905,0,0,1-.37-.824,2.21,2.21,0,0,1,.941-1.786.691.691,0,0,1,.707-.046.9.9,0,0,1,.37.823,2.21,2.21,0,0,1-.941,1.785A.84.84,0,0,1,107.415,301.056Zm.693-2.537a.578.578,0,0,0-.278.087,1.943,1.943,0,0,0-.8,1.55.653.653,0,0,0,.234.588.439.439,0,0,0,.435-.046,1.943,1.943,0,0,0,.8-1.55.654.654,0,0,0-.234-.588A.311.311,0,0,0,108.108,298.518Z" transform="translate(-106.753 -298.246)" fill="#455a64"/>
            </g>
            <g id="Grupo_105079" data-name="Grupo 105079" transform="translate(11.762 48.478)">
              <path id="Trazado_134707" data-name="Trazado 134707" d="M145.537,263.123a.576.576,0,0,1-.292-.077.906.906,0,0,1-.37-.823,2.211,2.211,0,0,1,.941-1.786.691.691,0,0,1,.707-.046.905.905,0,0,1,.37.824,2.209,2.209,0,0,1-.941,1.785A.835.835,0,0,1,145.537,263.123Zm.693-2.537a.578.578,0,0,0-.278.087,1.944,1.944,0,0,0-.8,1.55.655.655,0,0,0,.234.588.441.441,0,0,0,.435-.046,1.943,1.943,0,0,0,.8-1.55.654.654,0,0,0-.234-.588A.308.308,0,0,0,146.23,260.586Z" transform="translate(-144.875 -260.314)" fill="#455a64"/>
            </g>
            <g id="Grupo_105080" data-name="Grupo 105080" transform="translate(5.881 60.453)">
              <path id="Trazado_134708" data-name="Trazado 134708" d="M126.476,301.936a.577.577,0,0,1-.292-.077.906.906,0,0,1-.37-.824,2.21,2.21,0,0,1,.941-1.785.69.69,0,0,1,.707-.046.906.906,0,0,1,.37.823,2.209,2.209,0,0,1-.941,1.785A.835.835,0,0,1,126.476,301.936Zm.694-2.538a.578.578,0,0,0-.278.087,1.944,1.944,0,0,0-.8,1.55.654.654,0,0,0,.233.588.441.441,0,0,0,.435-.046,1.944,1.944,0,0,0,.8-1.55.653.653,0,0,0-.234-.588A.308.308,0,0,0,127.169,299.4Z" transform="translate(-125.814 -299.126)" fill="#455a64"/>
            </g>
            <g id="Grupo_105081" data-name="Grupo 105081" transform="translate(17.643 48.797)">
              <path id="Trazado_134709" data-name="Trazado 134709" d="M164.6,264.157a.579.579,0,0,1-.293-.077.906.906,0,0,1-.37-.823,2.209,2.209,0,0,1,.941-1.785.691.691,0,0,1,.707-.046.907.907,0,0,1,.37.824,2.21,2.21,0,0,1-.941,1.785A.836.836,0,0,1,164.6,264.157Zm.693-2.538a.58.58,0,0,0-.278.087,1.943,1.943,0,0,0-.8,1.55.653.653,0,0,0,.234.588.441.441,0,0,0,.435-.046,1.945,1.945,0,0,0,.8-1.55.653.653,0,0,0-.234-.588A.308.308,0,0,0,165.291,261.619Z" transform="translate(-163.936 -261.347)" fill="#455a64"/>
            </g>
            <g id="Grupo_105082" data-name="Grupo 105082" transform="translate(23.524 40.593)">
              <path id="Trazado_134710" data-name="Trazado 134710" d="M183.66,237.567a.576.576,0,0,1-.292-.077.906.906,0,0,1-.37-.824,2.209,2.209,0,0,1,.941-1.786.69.69,0,0,1,.707-.046.906.906,0,0,1,.37.824,2.21,2.21,0,0,1-.941,1.786A.836.836,0,0,1,183.66,237.567Zm.693-2.538a.579.579,0,0,0-.278.087,1.944,1.944,0,0,0-.8,1.55.654.654,0,0,0,.234.588.442.442,0,0,0,.435-.046,1.944,1.944,0,0,0,.8-1.55.654.654,0,0,0-.234-.588A.311.311,0,0,0,184.353,235.029Z" transform="translate(-182.998 -234.757)" fill="#455a64"/>
            </g>
            <g id="Grupo_105083" data-name="Grupo 105083" transform="translate(29.406 37.198)">
              <path id="Trazado_134711" data-name="Trazado 134711" d="M202.721,226.562a.579.579,0,0,1-.292-.077.906.906,0,0,1-.37-.824,2.211,2.211,0,0,1,.941-1.786.692.692,0,0,1,.707-.046.906.906,0,0,1,.37.824,2.209,2.209,0,0,1-.941,1.785A.835.835,0,0,1,202.721,226.562Zm.694-2.537a.578.578,0,0,0-.278.087,1.944,1.944,0,0,0-.8,1.55.653.653,0,0,0,.234.588A.441.441,0,0,0,203,226.2a1.945,1.945,0,0,0,.8-1.55.653.653,0,0,0-.234-.588A.308.308,0,0,0,203.414,224.024Z" transform="translate(-202.059 -223.752)" fill="#455a64"/>
            </g>
            <g id="Grupo_105084" data-name="Grupo 105084" transform="translate(35.287 40.417)">
              <path id="Trazado_134712" data-name="Trazado 134712" d="M221.782,237a.576.576,0,0,1-.292-.077.906.906,0,0,1-.37-.824,2.209,2.209,0,0,1,.941-1.786.691.691,0,0,1,.707-.046.906.906,0,0,1,.37.824,2.21,2.21,0,0,1-.941,1.786A.839.839,0,0,1,221.782,237Zm.693-2.538a.578.578,0,0,0-.278.087,1.973,1.973,0,0,0-.8,1.55.653.653,0,0,0,.234.588.442.442,0,0,0,.435-.046,1.944,1.944,0,0,0,.8-1.55.653.653,0,0,0-.234-.588A.308.308,0,0,0,222.475,234.459Z" transform="translate(-221.12 -234.187)" fill="#455a64"/>
            </g>
            <g id="Grupo_105085" data-name="Grupo 105085" transform="translate(41.168 24.237)">
              <path id="Trazado_134713" data-name="Trazado 134713" d="M240.843,184.554a.577.577,0,0,1-.292-.077.906.906,0,0,1-.37-.824,2.21,2.21,0,0,1,.941-1.786.69.69,0,0,1,.707-.046.907.907,0,0,1,.37.824,2.209,2.209,0,0,1-.941,1.786A.839.839,0,0,1,240.843,184.554Zm.693-2.537a.579.579,0,0,0-.278.087,1.944,1.944,0,0,0-.8,1.55.653.653,0,0,0,.234.588.442.442,0,0,0,.435-.046,1.944,1.944,0,0,0,.8-1.55.654.654,0,0,0-.233-.588A.308.308,0,0,0,241.536,182.017Z" transform="translate(-240.181 -181.744)" fill="#455a64"/>
            </g>
            <g id="Grupo_105086" data-name="Grupo 105086" transform="translate(46.584 27.197)">
              <path id="Trazado_134714" data-name="Trazado 134714" d="M258.4,194.15a.578.578,0,0,1-.292-.077.907.907,0,0,1-.37-.824,2.21,2.21,0,0,1,.941-1.786.689.689,0,0,1,.707-.046.905.905,0,0,1,.37.824,2.21,2.21,0,0,1-.941,1.786A.835.835,0,0,1,258.4,194.15Zm.693-2.538a.58.58,0,0,0-.278.087,1.944,1.944,0,0,0-.8,1.55.654.654,0,0,0,.233.588.441.441,0,0,0,.435-.046,1.944,1.944,0,0,0,.8-1.55.653.653,0,0,0-.234-.588A.308.308,0,0,0,259.092,191.612Z" transform="translate(-257.737 -191.34)" fill="#455a64"/>
            </g>
            <g id="Grupo_105087" data-name="Grupo 105087" transform="translate(52.465 9.853)">
              <path id="Trazado_134715" data-name="Trazado 134715" d="M277.46,137.937a.58.58,0,0,1-.292-.077.907.907,0,0,1-.37-.823,2.21,2.21,0,0,1,.941-1.786.691.691,0,0,1,.707-.046.906.906,0,0,1,.37.824,2.21,2.21,0,0,1-.941,1.786A.837.837,0,0,1,277.46,137.937Zm.693-2.538a.579.579,0,0,0-.278.087,1.944,1.944,0,0,0-.8,1.55.654.654,0,0,0,.234.588.44.44,0,0,0,.435-.046,1.973,1.973,0,0,0,.8-1.55.653.653,0,0,0-.234-.588A.308.308,0,0,0,278.153,135.4Z" transform="translate(-276.798 -135.127)" fill="#455a64"/>
            </g>
            <g id="Grupo_105088" data-name="Grupo 105088" transform="translate(58.811)">
              <path id="Trazado_134716" data-name="Trazado 134716" d="M298.027,106a.578.578,0,0,1-.292-.077.907.907,0,0,1-.37-.824,2.209,2.209,0,0,1,.941-1.786.691.691,0,0,1,.708-.046.908.908,0,0,1,.37.824,2.21,2.21,0,0,1-.941,1.786A.835.835,0,0,1,298.027,106Zm.693-2.538a.578.578,0,0,0-.278.087,1.943,1.943,0,0,0-.8,1.55.654.654,0,0,0,.234.588.439.439,0,0,0,.435-.046,1.944,1.944,0,0,0,.8-1.55.653.653,0,0,0-.234-.588A.308.308,0,0,0,298.72,103.463Z" transform="translate(-297.365 -103.191)" fill="#455a64"/>
            </g>
          </g>
        </g>
      </g>
      <g id="Graph-2" data-name="Graph" transform="translate(14.895 2.831)">
        <g id="Grupo_105115" data-name="Grupo 105115">
          <g id="Grupo_105102" data-name="Grupo 105102" transform="translate(0 2.448)">
            <g id="Grupo_105091" data-name="Grupo 105091" transform="translate(59.428)">
              <path id="Trazado_134717" data-name="Trazado 134717" d="M318.835,114.242a.137.137,0,0,1-.121-.2l4.647-8.878a.136.136,0,1,1,.241.126l-4.647,8.878A.137.137,0,0,1,318.835,114.242Z" transform="translate(-318.699 -105.091)" fill="#fc8116"/>
            </g>
            <g id="Grupo_105092" data-name="Grupo 105092" transform="translate(53.32 11.323)">
              <path id="Trazado_134718" data-name="Trazado 134718" d="M299.037,158.609a.139.139,0,0,1-.04-.006.137.137,0,0,1-.09-.17l5.1-16.548a.136.136,0,0,1,.26.08l-5.1,16.548A.136.136,0,0,1,299.037,158.609Z" transform="translate(-298.901 -141.789)" fill="#fc8116"/>
            </g>
            <g id="Grupo_105093" data-name="Grupo 105093" transform="translate(47.666 25.156)">
              <path id="Trazado_134719" data-name="Trazado 134719" d="M285.36,190.41a.135.135,0,0,1-.082-.027l-4.647-3.513a.136.136,0,1,1,.164-.217l4.647,3.513a.136.136,0,0,1-.082.245Z" transform="translate(-280.577 -186.625)" fill="#fc8116"/>
            </g>
            <g id="Grupo_105094" data-name="Grupo 105094" transform="translate(41.625 25.943)">
              <path id="Trazado_134720" data-name="Trazado 134720" d="M261.133,203.07a.136.136,0,0,1-.128-.183l4.967-13.624a.136.136,0,0,1,.256.093l-4.967,13.624A.135.135,0,0,1,261.133,203.07Z" transform="translate(-260.997 -189.174)" fill="#fc8116"/>
            </g>
            <g id="Grupo_105095" data-name="Grupo 105095" transform="translate(36.026 39.511)">
              <path id="Trazado_134721" data-name="Trazado 134721" d="M247.389,234.543a.124.124,0,0,1-.033,0l-4.4-1.121a.136.136,0,1,1,.067-.263l4.4,1.121a.136.136,0,0,1-.033.268Z" transform="translate(-242.851 -233.149)" fill="#fc8116"/>
            </g>
            <g id="Grupo_105096" data-name="Grupo 105096" transform="translate(29.884 40.578)">
              <path id="Trazado_134722" data-name="Trazado 134722" d="M223.081,251.175a.139.139,0,0,1-.044-.007.137.137,0,0,1-.084-.173l4.966-14.294a.136.136,0,0,1,.257.089l-4.966,14.294A.136.136,0,0,1,223.081,251.175Z" transform="translate(-222.944 -236.608)" fill="#fc8116"/>
            </g>
            <g id="Grupo_105097" data-name="Grupo 105097" transform="translate(24.082 51.504)">
              <path id="Trazado_134723" data-name="Trazado 134723" d="M208.967,276.474a.136.136,0,0,1-.091-.035l-4.691-4.183a.136.136,0,1,1,.181-.2l4.691,4.183a.136.136,0,0,1-.09.238Z" transform="translate(-204.139 -272.019)" fill="#fc8116"/>
            </g>
            <g id="Grupo_105098" data-name="Grupo 105098" transform="translate(18.394 49.7)">
              <path id="Trazado_134724" data-name="Trazado 134724" d="M190.206,267.558a.136.136,0,0,1-.033,0l-4.368-1.112a.136.136,0,1,1,.067-.264l4.368,1.113a.136.136,0,0,1-.034.268Z" transform="translate(-185.703 -266.173)" fill="#fc8116"/>
            </g>
            <g id="Grupo_105099" data-name="Grupo 105099" transform="translate(12.306 50.769)">
              <path id="Trazado_134725" data-name="Trazado 134725" d="M166.109,281.207a.136.136,0,0,1-.126-.189l4.8-11.295a.136.136,0,1,1,.251.106l-4.8,11.295A.136.136,0,0,1,166.109,281.207Z" transform="translate(-165.972 -269.64)" fill="#fc8116"/>
            </g>
            <g id="Grupo_105100" data-name="Grupo 105100" transform="translate(6.709 63.458)">
              <path id="Trazado_134726" data-name="Trazado 134726" d="M147.967,311.607a.136.136,0,0,1-.018-.271l4.213-.571a.139.139,0,0,1,.153.117.137.137,0,0,1-.117.153l-4.212.571Z" transform="translate(-147.831 -310.764)" fill="#fc8116"/>
            </g>
            <g id="Grupo_105101" data-name="Grupo 105101" transform="translate(0 65.32)">
              <path id="Trazado_134727" data-name="Trazado 134727" d="M126.223,327.13a.134.134,0,0,1-.063-.016.136.136,0,0,1-.058-.184l5.264-10.057a.136.136,0,1,1,.241.126l-5.264,10.057A.135.135,0,0,1,126.223,327.13Z" transform="translate(-126.087 -316.8)" fill="#fc8116"/>
            </g>
          </g>
          <g id="Grupo_105114" data-name="Grupo 105114" transform="translate(5.008)">
            <g id="Grupo_105103" data-name="Grupo 105103" transform="translate(0 65.321)">
              <path id="Trazado_134728" data-name="Trazado 134728" d="M142.981,311.675a.576.576,0,0,1-.292-.077.906.906,0,0,1-.37-.824,2.21,2.21,0,0,1,.941-1.785.691.691,0,0,1,.707-.046.906.906,0,0,1,.37.824,2.21,2.21,0,0,1-.941,1.785A.838.838,0,0,1,142.981,311.675Zm.693-2.537a.578.578,0,0,0-.278.087,1.944,1.944,0,0,0-.8,1.55.654.654,0,0,0,.233.588.441.441,0,0,0,.435-.046,1.944,1.944,0,0,0,.8-1.55.654.654,0,0,0-.234-.588A.31.31,0,0,0,143.674,309.138Z" transform="translate(-142.319 -308.866)" fill="#fc8116"/>
            </g>
            <g id="Grupo_105104" data-name="Grupo 105104" transform="translate(11.762 50.726)">
              <path id="Trazado_134729" data-name="Trazado 134729" d="M181.1,264.373a.577.577,0,0,1-.292-.077.907.907,0,0,1-.37-.824,2.21,2.21,0,0,1,.941-1.785.692.692,0,0,1,.707-.046.906.906,0,0,1,.37.823,2.209,2.209,0,0,1-.941,1.786A.836.836,0,0,1,181.1,264.373Zm.693-2.538a.582.582,0,0,0-.278.087,1.944,1.944,0,0,0-.8,1.55.654.654,0,0,0,.234.588.441.441,0,0,0,.435-.046,1.943,1.943,0,0,0,.8-1.55.652.652,0,0,0-.234-.588A.308.308,0,0,0,181.8,261.836Z" transform="translate(-180.441 -261.564)" fill="#fc8116"/>
            </g>
            <g id="Grupo_105105" data-name="Grupo 105105" transform="translate(5.881 64.462)">
              <path id="Trazado_134730" data-name="Trazado 134730" d="M162.042,308.892a.578.578,0,0,1-.292-.077.907.907,0,0,1-.37-.824,2.21,2.21,0,0,1,.941-1.785.689.689,0,0,1,.707-.046.906.906,0,0,1,.37.824,2.209,2.209,0,0,1-.941,1.785A.839.839,0,0,1,162.042,308.892Zm.693-2.538a.578.578,0,0,0-.278.087,1.975,1.975,0,0,0-.8,1.55.654.654,0,0,0,.234.588.439.439,0,0,0,.435-.046,1.973,1.973,0,0,0,.8-1.55.654.654,0,0,0-.234-.588A.311.311,0,0,0,162.735,306.354Z" transform="translate(-161.38 -306.082)" fill="#fc8116"/>
            </g>
            <g id="Grupo_105106" data-name="Grupo 105106" transform="translate(17.643 52.117)">
              <path id="Trazado_134731" data-name="Trazado 134731" d="M200.164,268.881a.576.576,0,0,1-.292-.077.906.906,0,0,1-.37-.824,2.209,2.209,0,0,1,.941-1.786.69.69,0,0,1,.707-.046.906.906,0,0,1,.37.824,2.211,2.211,0,0,1-.941,1.785A.835.835,0,0,1,200.164,268.881Zm.693-2.537a.578.578,0,0,0-.278.087,1.972,1.972,0,0,0-.8,1.55.655.655,0,0,0,.234.588.441.441,0,0,0,.435-.046,1.944,1.944,0,0,0,.8-1.55.654.654,0,0,0-.234-.588A.308.308,0,0,0,200.857,266.344Z" transform="translate(-199.502 -266.072)" fill="#fc8116"/>
            </g>
            <g id="Grupo_105107" data-name="Grupo 105107" transform="translate(23.524 57.301)">
              <path id="Trazado_134732" data-name="Trazado 134732" d="M219.226,285.683a.578.578,0,0,1-.292-.077.906.906,0,0,1-.37-.824A2.209,2.209,0,0,1,219.5,283a.69.69,0,0,1,.707-.046.907.907,0,0,1,.37.823,2.211,2.211,0,0,1-.941,1.786A.838.838,0,0,1,219.226,285.683Zm.693-2.538a.577.577,0,0,0-.278.087,1.973,1.973,0,0,0-.8,1.55.653.653,0,0,0,.233.588.441.441,0,0,0,.435-.046,1.944,1.944,0,0,0,.8-1.55.654.654,0,0,0-.234-.588A.307.307,0,0,0,219.919,283.145Z" transform="translate(-218.564 -282.873)" fill="#fc8116"/>
            </g>
            <g id="Grupo_105108" data-name="Grupo 105108" transform="translate(29.405 40.502)">
              <path id="Trazado_134733" data-name="Trazado 134733" d="M238.286,231.236a.576.576,0,0,1-.292-.077.905.905,0,0,1-.37-.824,2.21,2.21,0,0,1,.941-1.786.692.692,0,0,1,.708-.046.907.907,0,0,1,.37.824,2.21,2.21,0,0,1-.941,1.786A.836.836,0,0,1,238.286,231.236Zm.693-2.537a.578.578,0,0,0-.278.087,1.974,1.974,0,0,0-.8,1.55.654.654,0,0,0,.234.588.441.441,0,0,0,.435-.046,1.973,1.973,0,0,0,.8-1.55.654.654,0,0,0-.234-.588A.308.308,0,0,0,238.979,228.7Z" transform="translate(-237.624 -228.426)" fill="#fc8116"/>
            </g>
            <g id="Grupo_105109" data-name="Grupo 105109" transform="translate(35.287 42)">
              <path id="Trazado_134734" data-name="Trazado 134734" d="M257.348,236.09a.582.582,0,0,1-.293-.077.907.907,0,0,1-.37-.824,2.209,2.209,0,0,1,.941-1.786.69.69,0,0,1,.707-.046.906.906,0,0,1,.37.824,2.21,2.21,0,0,1-.941,1.786A.835.835,0,0,1,257.348,236.09Zm.693-2.537a.579.579,0,0,0-.278.087,1.944,1.944,0,0,0-.8,1.55.653.653,0,0,0,.234.588.44.44,0,0,0,.435-.046,1.945,1.945,0,0,0,.8-1.55.653.653,0,0,0-.234-.588A.311.311,0,0,0,258.041,233.553Z" transform="translate(-256.686 -233.281)" fill="#fc8116"/>
            </g>
            <g id="Grupo_105110" data-name="Grupo 105110" transform="translate(41.167 25.869)">
              <path id="Trazado_134735" data-name="Trazado 134735" d="M276.408,183.81a.578.578,0,0,1-.292-.077.906.906,0,0,1-.37-.823,2.21,2.21,0,0,1,.941-1.786.69.69,0,0,1,.707-.046.906.906,0,0,1,.37.824,2.21,2.21,0,0,1-.941,1.786A.835.835,0,0,1,276.408,183.81Zm.693-2.538a.579.579,0,0,0-.278.087,1.974,1.974,0,0,0-.8,1.55.654.654,0,0,0,.234.588.44.44,0,0,0,.435-.046,1.973,1.973,0,0,0,.8-1.55.653.653,0,0,0-.234-.588A.308.308,0,0,0,277.1,181.272Z" transform="translate(-275.746 -181)" fill="#fc8116"/>
            </g>
            <g id="Grupo_105111" data-name="Grupo 105111" transform="translate(47.049 30.315)">
              <path id="Trazado_134736" data-name="Trazado 134736" d="M295.47,198.22a.58.58,0,0,1-.292-.077.907.907,0,0,1-.37-.824,2.21,2.21,0,0,1,.941-1.786.69.69,0,0,1,.707-.046.906.906,0,0,1,.37.824,2.21,2.21,0,0,1-.941,1.786A.836.836,0,0,1,295.47,198.22Zm.694-2.538a.579.579,0,0,0-.278.087,1.944,1.944,0,0,0-.8,1.55.653.653,0,0,0,.234.588.44.44,0,0,0,.435-.046,1.945,1.945,0,0,0,.8-1.55.653.653,0,0,0-.234-.588A.307.307,0,0,0,296.163,195.682Z" transform="translate(-294.808 -195.41)" fill="#fc8116"/>
            </g>
            <g id="Grupo_105112" data-name="Grupo 105112" transform="translate(52.93 11.237)">
              <path id="Trazado_134737" data-name="Trazado 134737" d="M314.532,136.385a.581.581,0,0,1-.292-.077.906.906,0,0,1-.37-.824,2.208,2.208,0,0,1,.941-1.786.689.689,0,0,1,.707-.046.906.906,0,0,1,.37.824,2.21,2.21,0,0,1-.941,1.786A.835.835,0,0,1,314.532,136.385Zm.693-2.537a.579.579,0,0,0-.278.087,1.944,1.944,0,0,0-.8,1.55.653.653,0,0,0,.234.588.44.44,0,0,0,.435-.046,1.944,1.944,0,0,0,.8-1.55.654.654,0,0,0-.234-.588A.311.311,0,0,0,315.225,133.848Z" transform="translate(-313.87 -133.576)" fill="#fc8116"/>
            </g>
            <g id="Grupo_105113" data-name="Grupo 105113" transform="translate(58.811)">
              <path id="Trazado_134738" data-name="Trazado 134738" d="M333.592,99.965a.582.582,0,0,1-.292-.077.907.907,0,0,1-.37-.824,2.209,2.209,0,0,1,.941-1.786.69.69,0,0,1,.707-.046.906.906,0,0,1,.37.824,2.21,2.21,0,0,1-.941,1.786A.835.835,0,0,1,333.592,99.965Zm.693-2.537a.58.58,0,0,0-.278.087,1.944,1.944,0,0,0-.8,1.55.653.653,0,0,0,.234.588.439.439,0,0,0,.435-.046,1.945,1.945,0,0,0,.8-1.55.654.654,0,0,0-.233-.588A.312.312,0,0,0,334.285,97.428Z" transform="translate(-332.93 -97.156)" fill="#fc8116"/>
            </g>
          </g>
        </g>
        <g id="Grupo_105116" data-name="Grupo 105116" transform="translate(0.136 7.575)">
          <path id="Trazado_134739" data-name="Trazado 134739" d="M191.22,121.707l-5.881,11.237-5.822,18.886-4.616-3.489-1.325-.765-5.881,16.13-5.881-1.5-5.771,16.61-4.667-4.161-1.325-.765-5.881-1.5L138.29,186.23l-5.881.8-5.881,11.237v7.841l1.325.765,64.692-37.35V122.472Z" transform="translate(-126.528 -121.707)" fill="#27debf" opacity="0.4"/>
          <path id="Trazado_134740" data-name="Trazado 134740" d="M130.822,200.743l5.881-11.237,5.881-.8,5.881-13.835,5.881,1.5,5.881,5.244,5.881-16.928,5.881,1.5,5.881-16.13,5.881,4.446,5.881-19.078,5.881-11.237v47.049l-64.692,37.35Z" transform="translate(-129.497 -123.421)" fill="#b5b5b5" opacity="0.3"/>
          <path id="Trazado_134741" data-name="Trazado 134741" d="M126.528,369.836l1.325.765v7.841l-1.325-.765Z" transform="translate(-126.528 -293.279)" fill="#27debf"/>
          <path id="Trazado_134742" data-name="Trazado 134742" d="M126.528,369.836l1.325.765v7.841l-1.325-.765Z" transform="translate(-126.528 -293.279)" opacity="0.05"/>
          <path id="Trazado_134743" data-name="Trazado 134743" d="M164.65,299.826l1.325.765,5.881-13.835-1.325-.765Z" transform="translate(-152.888 -235.303)" fill="#27debf" opacity="0.3"/>
          <path id="Trazado_134744" data-name="Trazado 134744" d="M164.65,299.826l1.325.765,5.881-13.835-1.325-.765Z" transform="translate(-152.888 -235.303)" opacity="0.15"/>
          <path id="Trazado_134745" data-name="Trazado 134745" d="M132.409,333.416l1.325.765-5.881,11.237-1.325-.765Z" transform="translate(-126.528 -268.096)" fill="#27debf" opacity="0.3"/>
          <path id="Trazado_134746" data-name="Trazado 134746" d="M132.409,333.416l1.325.765-5.881,11.237-1.325-.765Z" transform="translate(-126.528 -268.096)" opacity="0.15"/>
          <path id="Trazado_134747" data-name="Trazado 134747" d="M229.287,253.741l-1.325-.765-5.771,16.61,1.214,1.083Z" transform="translate(-192.676 -212.475)" fill="#27debf" opacity="0.3"/>
          <path id="Trazado_134748" data-name="Trazado 134748" d="M229.287,253.741l-1.325-.765-5.771,16.61,1.214,1.083Z" transform="translate(-192.676 -212.475)" opacity="0.15"/>
          <path id="Trazado_134749" data-name="Trazado 134749" d="M259.956,221.682l1.325.765,5.881-16.13-1.325-.765Z" transform="translate(-218.788 -179.682)" fill="#27debf" opacity="0.3"/>
          <path id="Trazado_134750" data-name="Trazado 134750" d="M259.956,221.682l1.325.765,5.881-16.13-1.325-.765Z" transform="translate(-218.788 -179.682)" opacity="0.15"/>
          <path id="Trazado_134751" data-name="Trazado 134751" d="M305.417,158.892l-1.325-.765-5.822,18.886,1.266.957Z" transform="translate(-245.281 -146.89)" fill="#27debf" opacity="0.3"/>
          <path id="Trazado_134752" data-name="Trazado 134752" d="M305.417,158.892l-1.325-.765-5.822,18.886,1.266.957Z" transform="translate(-245.281 -146.89)" opacity="0.15"/>
        </g>
      </g>
    </g>
    <g id="Arrow" transform="translate(835.655 13819.449)">
      <g id="Arrow-2" data-name="Arrow" transform="translate(0 0)">
        <path id="Trazado_134753" data-name="Trazado 134753" d="M347.373,88.84l-1.325-.765-3.312,7.648,1.325.765.663-.383v47.241l1.325.765,2.649-1.53V93.811l1.987-1.147Z" transform="translate(-342.737 -88.075)" fill="#fc8116"/>
        <path id="Trazado_134754" data-name="Trazado 134754" d="M353.654,94.378l-3.312-3.824L347.03,98.2l1.987-1.147v48.77l2.649-1.53V95.525Z" transform="translate(-345.706 -89.789)" fill="#fdab64"/>
        <path id="Trazado_134756" data-name="Trazado 134756" d="M349.178,159.629l1.325.765v-48.77l-1.325.765Z" transform="translate(-347.191 -104.358)" opacity="0.15"/>
      </g>
    </g>
    <g id="Magnifying_glass" data-name="Magnifying glass" transform="translate(790.034 13895.134)">
      <g id="Glass" transform="translate(0)">
        <g id="Grupo_105118" data-name="Grupo 105118" transform="translate(22.527)">
          <path id="Trazado_134757" data-name="Trazado 134757" d="M301.633,343.118c0-2.493-1.647-4.986-4.941-6.888-6.589-3.8-17.271-3.8-23.859,0-3.294,1.9-4.942,4.395-4.942,6.888h0v4.592c0,2.493,1.647,4.986,4.942,6.887,6.589,3.8,17.27,3.8,23.859,0,3.294-1.9,4.941-4.395,4.941-6.887v-4.592Zm-27.985-5.474a24.761,24.761,0,0,1,22.227,0c2.661,1.536,4.125,3.48,4.125,5.475s-1.465,3.938-4.125,5.474a24.758,24.758,0,0,1-22.227,0c-2.66-1.536-4.125-3.48-4.125-5.474S270.987,339.18,273.648,337.644Z" transform="translate(-267.89 -333.378)" fill="#fdab64"/>
          <path id="Trazado_134758" data-name="Trazado 134758" d="M272.829,350.006c6.588,3.8,17.27,3.8,23.859,0s6.589-9.971,0-13.775-17.27-3.8-23.859,0S266.241,346.2,272.829,350.006Zm-3.31-6.887c0-1.994,1.465-3.939,4.125-5.475a24.761,24.761,0,0,1,22.227,0c2.661,1.536,4.125,3.48,4.125,5.475s-1.465,3.938-4.125,5.474a24.758,24.758,0,0,1-22.227,0C270.985,347.057,269.52,345.113,269.52,343.119Z" transform="translate(-267.888 -333.378)" fill="#fff" opacity="0.3"/>
          <g id="Grupo_105117" data-name="Grupo 105117" transform="translate(1.63 1.631)">
            <path id="Trazado_134759" data-name="Trazado 134759" d="M273.172,346.774a4.527,4.527,0,0,0,.659,2.3,9.193,9.193,0,0,1,3.469-3.178,24.735,24.735,0,0,1,22.225,0A9.231,9.231,0,0,1,303,349.071a4.553,4.553,0,0,0,.656-2.3c0-1.994-1.465-3.938-4.128-5.476a24.766,24.766,0,0,0-22.225,0C274.637,342.835,273.172,344.78,273.172,346.774Z" transform="translate(-273.172 -338.665)" fill="#fc8116"/>
          </g>
          <path id="Trazado_134761" data-name="Trazado 134761" d="M277.606,348.038a24.761,24.761,0,0,1,22.227,0c2.2,1.267,3.574,2.813,3.99,4.435-.416,1.622-1.795,3.168-3.99,4.435a24.758,24.758,0,0,1-22.227,0c-2.195-1.267-3.574-2.813-3.99-4.435C274.032,350.851,275.41,349.306,277.606,348.038Z" transform="translate(-271.849 -341.694)" fill="#fff" opacity="0.4"/>
          <path id="Trazado_134762" data-name="Trazado 134762" d="M280.784,371.044v4.588a22.094,22.094,0,0,1-7.952-2.578c-3.3-1.9-4.943-4.4-4.943-6.888v-4.591a5.806,5.806,0,0,1,.2-1.5h0c-.8,2.966.78,6.105,4.738,8.393A22.157,22.157,0,0,0,280.784,371.044Z" transform="translate(-267.888 -351.835)" opacity="0.1"/>
        </g>
        <g id="Grupo_105122" data-name="Grupo 105122" transform="translate(0 17.335)">
          <g id="Grupo_105119" data-name="Grupo 105119" transform="translate(19.931)">
            <path id="Trazado_134763" data-name="Trazado 134763" d="M267.514,391.779a2.613,2.613,0,0,0-1.174-2.052.832.832,0,0,0-.832-.087h0l0,0h0l-5.679,3.241,0,0h0a.832.832,0,0,0-.346.761,2.612,2.612,0,0,0,1.174,2.052.83.83,0,0,0,.836.086h0l5.678-3.24h0A.828.828,0,0,0,267.514,391.779Z" transform="translate(-259.474 -389.563)" fill="#37474f"/>
            <path id="Trazado_134764" data-name="Trazado 134764" d="M268.317,395.526a.828.828,0,0,0,.353-.765,2.25,2.25,0,0,0-.2-.885l-7.323,4.188a2.242,2.242,0,0,0,.658.616.83.83,0,0,0,.835.086l5.678-3.24Z" transform="translate(-260.63 -392.545)" fill="#263238"/>
          </g>
          <path id="Trazado_134765" data-name="Trazado 134765" d="M218.315,402.936a3.4,3.4,0,0,0-1.527-2.671,1.088,1.088,0,0,0-1.07-.119v0l-.016.009h0l-18.833,10.058,2.81,4.966,18.182-11.247A1.08,1.08,0,0,0,218.315,402.936Z" transform="translate(-196.252 -396.817)" fill="#fd963d"/>
          <path id="Trazado_134766" data-name="Trazado 134766" d="M202.726,418l18.182-11.247a1.08,1.08,0,0,0,.457-1,3.2,3.2,0,0,0-.511-1.621l-19.577,11.3Z" transform="translate(-199.302 -399.643)" opacity="0.1"/>
          <g id="Grupo_105120" data-name="Grupo 105120" transform="translate(0 13.272)">
            <path id="Trazado_134767" data-name="Trazado 134767" d="M196.88,437.518a4.457,4.457,0,0,1-2-3.5c.005-1.287.911-1.806,2.022-1.158a4.46,4.46,0,0,1,2,3.5C198.9,437.647,197.992,438.166,196.88,437.518Z" transform="translate(-194.877 -432.578)" fill="#fc8116"/>
          </g>
        </g>
      </g>
    </g>
    <g id="Gears" transform="translate(743.027 13810.919)">
      <g id="Gears-2" data-name="Gears">
        <g id="Grupo_105123" data-name="Grupo 105123">
          <path id="Trazado_134769" data-name="Trazado 134769" d="M47.634,83.987a.813.813,0,0,1-.126-.01l-1.27-.2a.7.7,0,0,1-.574-.908l.7-2.347a.549.549,0,0,0-.168-.491,3.669,3.669,0,0,1-.379-.406.206.206,0,0,0-.287-.058l-1.589,1.2a.578.578,0,0,1-.953-.341l-.432-1.792a1.287,1.287,0,0,1,.295-1.1L44.407,75.9a1.243,1.243,0,0,0,.275-.67,11.51,11.51,0,0,1,.131-1.257.326.326,0,0,0-.194-.339l-1-.351a.767.767,0,0,1-.467-.99l.966-2.618a1.049,1.049,0,0,1,.924-.655L46.251,69a.694.694,0,0,0,.5-.3c.255-.431.527-.846.81-1.234a1.134,1.134,0,0,0,.183-.681l-.23-1.777a1.325,1.325,0,0,1,.4-1.065l1.778-1.6a.593.593,0,0,1,.993.243l.516,1.377a.144.144,0,0,0,.08.089.177.177,0,0,0,.143-.013,6.287,6.287,0,0,1,.79-.32.962.962,0,0,0,.505-.428l1.029-2.321a.966.966,0,0,1,.989-.54l1.27.2a.7.7,0,0,1,.574.908l-.7,2.347a.548.548,0,0,0,.167.491,3.686,3.686,0,0,1,.379.406.2.2,0,0,0,.287.058l1.588-1.2a.579.579,0,0,1,.954.341l.432,1.792a1.283,1.283,0,0,1-.3,1.1l-1.56,1.638a1.237,1.237,0,0,0-.275.67,11.566,11.566,0,0,1-.131,1.257.325.325,0,0,0,.194.339l1,.351a.766.766,0,0,1,.466.99l-.965,2.617a1.051,1.051,0,0,1-.925.656l-1.21.021a.694.694,0,0,0-.5.3c-.253.429-.526.844-.81,1.234a1.131,1.131,0,0,0-.182.68l.23,1.778a1.331,1.331,0,0,1-.395,1.065l-1.778,1.6a.593.593,0,0,1-.993-.243l-.516-1.377a.145.145,0,0,0-.08-.089.173.173,0,0,0-.143.013,6.43,6.43,0,0,1-.789.32.969.969,0,0,0-.507.428L48.5,83.438A.972.972,0,0,1,47.634,83.987Zm-2-5.018a.793.793,0,0,1,.616.307,3.181,3.181,0,0,0,.321.345,1.106,1.106,0,0,1,.326,1.065l-.7,2.347a.138.138,0,0,0,.12.19l1.27.2a.4.4,0,0,0,.387-.211l1.029-2.321a1.511,1.511,0,0,1,.847-.736,5.8,5.8,0,0,0,.719-.292.735.735,0,0,1,.6-.029.7.7,0,0,1,.4.415l.516,1.377a.115.115,0,0,0,.035.056.171.171,0,0,0,.053-.035l1.778-1.6a.777.777,0,0,0,.213-.574l-.23-1.777a1.692,1.692,0,0,1,.287-1.085c.273-.375.536-.774.78-1.188a1.252,1.252,0,0,1,.976-.576l1.209-.02a.5.5,0,0,0,.405-.287l.965-2.617a.2.2,0,0,0-.123-.263l-1-.351a.891.891,0,0,1-.564-.96,10.99,10.99,0,0,0,.126-1.2,1.79,1.79,0,0,1,.43-1.031l1.56-1.638a.727.727,0,0,0,.155-.576h0l-.432-1.793a.146.146,0,0,0-.021-.052.4.4,0,0,0-.045.028l-1.588,1.2a.762.762,0,0,1-1.067-.154,3.076,3.076,0,0,0-.321-.344,1.106,1.106,0,0,1-.326-1.066l.7-2.347a.153.153,0,0,0-.011-.126.151.151,0,0,0-.11-.064l-1.27-.2a.4.4,0,0,0-.387.211L53.23,63.526a1.51,1.51,0,0,1-.847.736,5.8,5.8,0,0,0-.719.291.733.733,0,0,1-.6.029.706.706,0,0,1-.4-.416l-.516-1.377a.114.114,0,0,0-.035-.056.163.163,0,0,0-.053.035l-1.778,1.6a.772.772,0,0,0-.213.574l.23,1.778a1.7,1.7,0,0,1-.287,1.085c-.272.373-.535.773-.78,1.188a1.251,1.251,0,0,1-.976.576l-1.209.02a.494.494,0,0,0-.4.286l-.966,2.618a.2.2,0,0,0,.123.263l1,.351a.891.891,0,0,1,.564.959,10.942,10.942,0,0,0-.126,1.2,1.8,1.8,0,0,1-.429,1.031l-1.562,1.639a.73.73,0,0,0-.155.577l.432,1.792a.145.145,0,0,0,.021.052s.02-.01.044-.028l1.589-1.2A.741.741,0,0,1,45.635,78.969Zm3.983-1.534a2.237,2.237,0,0,1-.666-.1,2.47,2.47,0,0,1-1.6-1.925c-.53-2.2.661-5.444,2.654-7.237a3.53,3.53,0,0,1,3.278-1.1A2.471,2.471,0,0,1,54.884,69c.53,2.2-.661,5.444-2.654,7.237h0A4.073,4.073,0,0,1,49.618,77.435Zm3-9.893a3.53,3.53,0,0,0-2.23,1.051c-1.856,1.669-2.97,4.668-2.483,6.686A1.91,1.91,0,0,0,49.118,76.8a3.01,3.01,0,0,0,2.735-.978c1.856-1.668,2.97-4.668,2.483-6.686a1.91,1.91,0,0,0-1.214-1.519A1.706,1.706,0,0,0,52.617,67.542Z" transform="translate(-42.524 -60.427)" fill="#85d161"/>
        </g>
        <g id="Grupo_105124" data-name="Grupo 105124" transform="translate(19.623 0.563)">
          <path id="Trazado_134770" data-name="Trazado 134770" d="M109.874,79.43a.649.649,0,0,1-.1-.007l-.92-.143a.557.557,0,0,1-.456-.72l.5-1.7a.35.35,0,0,0-.107-.306,2.7,2.7,0,0,1-.28-.3c-.026-.032-.087-.076-.141-.034l-1.152.872a.468.468,0,0,1-.767-.274l-.313-1.3a.984.984,0,0,1,.226-.841l1.131-1.188a.86.86,0,0,0,.186-.455,8.2,8.2,0,0,1,.1-.917.187.187,0,0,0-.109-.192l-.726-.255a.6.6,0,0,1-.369-.779l.7-1.9a.813.813,0,0,1,.714-.507l.877-.014a.455.455,0,0,0,.322-.193c.183-.31.381-.612.589-.9a.778.778,0,0,0,.124-.459l-.167-1.289a1.016,1.016,0,0,1,.3-.814l1.289-1.159a.478.478,0,0,1,.8.195l.374,1c.048.044.072.041.1.029a4.641,4.641,0,0,1,.579-.234.651.651,0,0,0,.336-.284l.747-1.683a.741.741,0,0,1,.769-.42l.921.143a.558.558,0,0,1,.455.72l-.5,1.7a.35.35,0,0,0,.107.306,2.676,2.676,0,0,1,.28.3.1.1,0,0,0,.141.034l1.152-.872a.467.467,0,0,1,.767.274l.313,1.3a.984.984,0,0,1-.225.841l-1.131,1.188a.856.856,0,0,0-.186.454,8.64,8.64,0,0,1-.1.917.185.185,0,0,0,.108.193l.726.255a.6.6,0,0,1,.368.78l-.7,1.9a.811.811,0,0,1-.714.507l-.877.015a.454.454,0,0,0-.322.193c-.183.31-.382.612-.59.9a.778.778,0,0,0-.124.459l.167,1.289a1.017,1.017,0,0,1-.3.815l-1.289,1.159a.505.505,0,0,1-.455.129.5.5,0,0,1-.343-.324l-.374-1c-.049-.045-.072-.04-.1-.029a4.632,4.632,0,0,1-.579.235.647.647,0,0,0-.336.284L110.545,79A.754.754,0,0,1,109.874,79.43Zm-1.447-3.735a.623.623,0,0,1,.484.241,2.186,2.186,0,0,0,.228.244.852.852,0,0,1,.251.822l-.5,1.7.049.077.92.143a.239.239,0,0,0,.228-.125l.747-1.683a1.141,1.141,0,0,1,.642-.56,4.08,4.08,0,0,0,.515-.209.579.579,0,0,1,.473-.022.559.559,0,0,1,.316.329l.374,1,1.275-1.162a.523.523,0,0,0,.139-.374l-.167-1.289a1.281,1.281,0,0,1,.217-.821c.2-.272.388-.561.562-.857a.96.96,0,0,1,.749-.442l.876-.015a.312.312,0,0,0,.248-.176l.7-1.9a.1.1,0,0,0,0-.076.1.1,0,0,0-.058-.052l-.726-.255a.693.693,0,0,1-.44-.75,8.064,8.064,0,0,0,.09-.861,1.353,1.353,0,0,1,.325-.779l1.13-1.188a.484.484,0,0,0,.1-.373h0l-.313-1.3-1.123.883a.6.6,0,0,1-.84-.12,2.244,2.244,0,0,0-.228-.244.852.852,0,0,1-.251-.822l.5-1.7.013-.065-.061-.011-.921-.143a.233.233,0,0,0-.228.124l-.747,1.683a1.145,1.145,0,0,1-.642.56,4.127,4.127,0,0,0-.516.209.581.581,0,0,1-.473.022.558.558,0,0,1-.316-.329l-.374-1-1.275,1.163a.523.523,0,0,0-.139.374l.167,1.289a1.285,1.285,0,0,1-.217.822c-.2.272-.388.561-.562.857a.961.961,0,0,1-.749.442l-.877.014a.316.316,0,0,0-.249.176l-.7,1.9a.1.1,0,0,0,0,.077.1.1,0,0,0,.057.051l.726.255a.7.7,0,0,1,.442.749,7.638,7.638,0,0,0-.091.861,1.343,1.343,0,0,1-.325.779l-1.131,1.188a.486.486,0,0,0-.1.373l.313,1.3,1.123-.883A.586.586,0,0,1,108.427,75.694Zm2.887-1.015a1.678,1.678,0,0,1-.5-.073,1.836,1.836,0,0,1-1.189-1.431,6.1,6.1,0,0,1,1.939-5.293,2.6,2.6,0,0,1,2.423-.806,1.836,1.836,0,0,1,1.189,1.43,6.1,6.1,0,0,1-1.938,5.294h0A3,3,0,0,1,111.314,74.68Zm2.173-7.172a2.511,2.511,0,0,0-1.583.75,5.55,5.55,0,0,0-1.786,4.8,1.339,1.339,0,0,0,.848,1.066,2.132,2.132,0,0,0,1.935-.7h0a5.554,5.554,0,0,0,1.785-4.8,1.339,1.339,0,0,0-.848-1.066A1.18,1.18,0,0,0,113.488,67.508Z" transform="translate(-106.123 -62.253)" fill="#85d161"/>
        </g>
      </g>
    </g>
    <g id="Speech_bubbles" data-name="Speech bubbles" transform="translate(750.311 13801.075)">
      <g id="Speech_Bubble" data-name="Speech Bubble" transform="translate(38.28)">
        <g id="Grupo_105125" data-name="Grupo 105125" transform="translate(0)">
          <path id="Trazado_134771" data-name="Trazado 134771" d="M190.762,44.252a.5.5,0,0,1-.27-.077.75.75,0,0,1-.295-.67V36.593a1.992,1.992,0,0,1,.822-1.55l10.157-6.385a.623.623,0,0,1,.68-.057.75.75,0,0,1,.295.67v6.913a1.992,1.992,0,0,1-.822,1.549l-1.505.946-1.016,3.76a.36.36,0,0,1-.319.278.354.354,0,0,1-.349-.233l-.874-2.2-6.094,3.831A.782.782,0,0,1,190.762,44.252Zm10.567-15.3-10.157,6.385a1.668,1.668,0,0,0-.668,1.26v6.912a.44.44,0,0,0,.141.381.361.361,0,0,0,.373-.057l6.392-4.018,1.01,2.541a.044.044,0,0,0,.049.032.047.047,0,0,0,.044-.038l1.05-3.888,1.612-1.013a1.67,1.67,0,0,0,.668-1.26V29.271a.439.439,0,0,0-.141-.38.361.361,0,0,0-.373.057Z" transform="translate(-190.197 -28.525)" fill="#67c53a"/>
        </g>
        <g id="Grupo_105126" data-name="Grupo 105126" transform="translate(2.329 4.027)">
          <path id="Trazado_134772" data-name="Trazado 134772" d="M197.9,46.3a.152.152,0,0,1-.133-.084.175.175,0,0,1,.056-.228l6.988-4.393a.147.147,0,0,1,.21.061.175.175,0,0,1-.056.228l-6.988,4.393A.144.144,0,0,1,197.9,46.3Z" transform="translate(-197.746 -41.577)" fill="#67c53a"/>
        </g>
        <g id="Grupo_105127" data-name="Grupo 105127" transform="translate(2.329 5.5)">
          <path id="Trazado_134773" data-name="Trazado 134773" d="M197.9,51.079a.151.151,0,0,1-.133-.083.176.176,0,0,1,.056-.229l6.988-4.393a.147.147,0,0,1,.21.061.175.175,0,0,1-.056.228l-6.988,4.393A.144.144,0,0,1,197.9,51.079Z" transform="translate(-197.746 -46.352)" fill="#67c53a"/>
        </g>
        <g id="Grupo_105128" data-name="Grupo 105128" transform="translate(2.329 6.973)">
          <path id="Trazado_134774" data-name="Trazado 134774" d="M197.9,55.853a.151.151,0,0,1-.133-.084.175.175,0,0,1,.056-.228l6.988-4.393a.147.147,0,0,1,.21.061.176.176,0,0,1-.056.229l-6.988,4.393A.144.144,0,0,1,197.9,55.853Z" transform="translate(-197.746 -51.126)" fill="#67c53a"/>
        </g>
      </g>
      <g id="Speech_Bubble-2" data-name="Speech Bubble" transform="translate(76.686 2.575)">
        <g id="Speech_Bubble-3" data-name="Speech Bubble" transform="translate(0 0)">
          <g id="Grupo_105129" data-name="Grupo 105129" transform="translate(4.554 9.066)">
            <path id="Trazado_134775" data-name="Trazado 134775" d="M331.941,66.253l-2.508,1.452,1,2.24a.226.226,0,0,0,.1.107c.119.067.823.475.862.5a.23.23,0,0,0,.337-.134l1.082-3.664Z" transform="translate(-329.433 -66.253)" fill="#bf7534"/>
            <path id="Trazado_134777" data-name="Trazado 134777" d="M332.231,69.321l1,2.239a.23.23,0,0,0,.43-.028l1.082-3.664Z" transform="translate(-331.368 -67.37)" fill="#fdab64"/>
          </g>
          <g id="Grupo_105130" data-name="Grupo 105130">
            <path id="Trazado_134778" data-name="Trazado 134778" d="M325.274,36.927l-10.363,5.983a.525.525,0,0,0-.238.412v6.411a.519.519,0,0,0,.239.409l.852.478a.533.533,0,0,0,.477,0L326.6,44.635a.526.526,0,0,0,.238-.412V37.812a.519.519,0,0,0-.239-.409l-.852-.478A.533.533,0,0,0,325.274,36.927Z" transform="translate(-314.674 -36.869)" fill="#bf7534"/>
            <path id="Trazado_134779" data-name="Trazado 134779" d="M318.986,52.212V45.8a.525.525,0,0,1,.238-.412l10.362-5.983c.131-.076.238-.014.238.137v6.411a.526.526,0,0,1-.238.412L319.224,52.35C319.092,52.426,318.986,52.364,318.986,52.212Z" transform="translate(-317.655 -38.601)" fill="#fdab64"/>
            <path id="Trazado_134780" data-name="Trazado 134780" d="M316.242,64.533a.545.545,0,0,1-.478,0l-.852-.479a.517.517,0,0,1-.239-.409V57.237a.488.488,0,0,1,.076-.243l1.325.756a.475.475,0,0,0-.07.234V64.4C316,64.534,316.1,64.614,316.242,64.533Z" transform="translate(-314.673 -50.785)" opacity="0.2"/>
          </g>
        </g>
        <g id="Grupo_105131" data-name="Grupo 105131" transform="translate(3.102 4.913)">
          <path id="Trazado_134782" data-name="Trazado 134782" d="M324.881,57.521a.152.152,0,0,1-.133-.084.175.175,0,0,1,.056-.228l6.988-4.393a.147.147,0,0,1,.21.061.176.176,0,0,1-.056.229L324.957,57.5A.144.144,0,0,1,324.881,57.521Z" transform="translate(-324.727 -52.794)" fill="#fff"/>
        </g>
      </g>
      <g id="Speech_Bubble-4" data-name="Speech Bubble" transform="translate(0 68.261)">
        <g id="Speech_Bubble-5" data-name="Speech Bubble" transform="translate(0 0)">
          <g id="Grupo_105132" data-name="Grupo 105132" transform="translate(4.554 9.066)">
            <path id="Trazado_134783" data-name="Trazado 134783" d="M83.4,279.148,80.887,280.6l1,2.24a.226.226,0,0,0,.1.107c.119.067.823.475.861.5a.23.23,0,0,0,.337-.134l1.082-3.664Z" transform="translate(-80.887 -279.148)" fill="#fcd03e"/>
            <path id="Trazado_134785" data-name="Trazado 134785" d="M83.686,282.216l1,2.24a.23.23,0,0,0,.43-.028l1.082-3.664Z" transform="translate(-82.822 -280.265)" fill="#fdd85e"/>
          </g>
          <g id="Grupo_105133" data-name="Grupo 105133">
            <path id="Trazado_134786" data-name="Trazado 134786" d="M76.728,249.822,66.366,255.8a.525.525,0,0,0-.238.412v6.411a.518.518,0,0,0,.239.409l.852.478a.533.533,0,0,0,.477,0l10.362-5.982a.526.526,0,0,0,.238-.412v-6.412a.519.519,0,0,0-.239-.409l-.852-.478A.532.532,0,0,0,76.728,249.822Z" transform="translate(-66.128 -249.764)" fill="#fee89f"/>
            <path id="Trazado_134787" data-name="Trazado 134787" d="M70.44,265.107V258.7a.526.526,0,0,1,.238-.412L81.04,252.3c.131-.076.238-.014.238.137v6.412a.526.526,0,0,1-.238.412l-10.362,5.982C70.546,265.321,70.44,265.259,70.44,265.107Z" transform="translate(-69.109 -251.496)" fill="#fdd85e"/>
            <path id="Trazado_134788" data-name="Trazado 134788" d="M67.7,277.428a.545.545,0,0,1-.478,0l-.852-.479a.517.517,0,0,1-.239-.409v-6.412a.488.488,0,0,1,.076-.243l1.325.757a.473.473,0,0,0-.07.234v6.411C67.458,277.429,67.556,277.509,67.7,277.428Z" transform="translate(-66.127 -263.68)" opacity="0.2"/>
          </g>
        </g>
        <g id="Grupo_105134" data-name="Grupo 105134" transform="translate(3.102 4.913)">
          <path id="Trazado_134790" data-name="Trazado 134790" d="M76.335,270.416a.152.152,0,0,1-.133-.084.175.175,0,0,1,.056-.228l6.988-4.393a.147.147,0,0,1,.21.061A.176.176,0,0,1,83.4,266l-6.988,4.393A.142.142,0,0,1,76.335,270.416Z" transform="translate(-76.181 -265.689)" fill="#529d2e"/>
        </g>
      </g>
    </g>
    <g id="Light_bulb" data-name="Light bulb" transform="translate(855.021 13806.854)">
      <g id="Idea">
        <g id="Light" transform="translate(3.729 3.679)">
          <g id="Grupo_105145" data-name="Grupo 105145">
            <g id="Grupo_105144" data-name="Grupo 105144">
              <g id="Grupo_105135" data-name="Grupo 105135" transform="translate(3.34 10.996)">
                <path id="Trazado_134791" data-name="Trazado 134791" d="M430.233,95.735a.909.909,0,1,1-.9-.919A.909.909,0,0,1,430.233,95.735Z" transform="translate(-428.416 -94.817)" fill="#37474f"/>
              </g>
              <g id="Grupo_105136" data-name="Grupo 105136" transform="translate(2.714 10.446)">
                <path id="Trazado_134792" data-name="Trazado 134792" d="M426.831,94.541a.664.664,0,0,1,.013-1.258,2.408,2.408,0,0,1,2.179.023.664.664,0,0,1-.013,1.258A2.41,2.41,0,0,1,426.831,94.541Z" transform="translate(-426.386 -93.033)" fill="#455a64"/>
              </g>
              <g id="Grupo_105137" data-name="Grupo 105137" transform="translate(2.67 10.071)">
                <path id="Trazado_134793" data-name="Trazado 134793" d="M426.7,93.372a.684.684,0,0,1,.014-1.3,2.482,2.482,0,0,1,2.246.024.685.685,0,0,1-.014,1.3A2.483,2.483,0,0,1,426.7,93.372Z" transform="translate(-426.245 -91.818)" fill="#37474f"/>
              </g>
              <g id="Grupo_105138" data-name="Grupo 105138" transform="translate(2.625 9.685)">
                <path id="Trazado_134794" data-name="Trazado 134794" d="M426.571,92.168a.706.706,0,0,1,.014-1.337,2.56,2.56,0,0,1,2.315.025.705.705,0,0,1-.014,1.337A2.56,2.56,0,0,1,426.571,92.168Z" transform="translate(-426.099 -90.566)" fill="#455a64"/>
              </g>
              <g id="Grupo_105139" data-name="Grupo 105139" transform="translate(2.579 9.287)">
                <path id="Trazado_134795" data-name="Trazado 134795" d="M426.435,90.927a.727.727,0,0,1,.014-1.378,2.636,2.636,0,0,1,2.386.025.727.727,0,0,1-.014,1.378A2.637,2.637,0,0,1,426.435,90.927Z" transform="translate(-425.948 -89.276)" fill="#37474f"/>
              </g>
              <g id="Grupo_105140" data-name="Grupo 105140" transform="translate(2.549 8.887)">
                <path id="Trazado_134796" data-name="Trazado 134796" d="M426.347,89.665a.742.742,0,0,1,.015-1.406,2.692,2.692,0,0,1,2.435.026.742.742,0,0,1-.015,1.406A2.691,2.691,0,0,1,426.347,89.665Z" transform="translate(-425.85 -87.98)" fill="#455a64"/>
              </g>
              <g id="Grupo_105141" data-name="Grupo 105141">
                <path id="Trazado_134797" data-name="Trazado 134797" d="M421.965,59.177a4.329,4.329,0,0,0-4.375,4.283c-.036,3.436,2.793,4.037,2.778,5.422a.742.742,0,0,0,.431.614,2.334,2.334,0,0,0,2.112.022.741.741,0,0,0,.444-.605h0c.015-1.385,2.856-1.926,2.892-5.362A4.329,4.329,0,0,0,421.965,59.177Z" transform="translate(-417.59 -59.177)" fill="#fff"/>
              </g>
              <g id="Grupo_105143" data-name="Grupo 105143" transform="translate(3.149 9.036)">
                <path id="Trazado_134799" data-name="Trazado 134799" d="M428.121,89.564a.484.484,0,0,1,.01-.917,1.755,1.755,0,0,1,1.588.017.484.484,0,0,1-.01.917A1.756,1.756,0,0,1,428.121,89.564Z" transform="translate(-427.797 -88.465)" fill="#37474f"/>
              </g>
            </g>
          </g>
          <g id="Grupo_105146" data-name="Grupo 105146" transform="translate(2.111 4.25)">
            <path id="Trazado_134800" data-name="Trazado 134800" d="M427.171,78.286a.147.147,0,0,1-.145-.145,10.493,10.493,0,0,1,.33-2.47,5.35,5.35,0,0,1,.223-.686,2,2,0,0,1-.374-.188.582.582,0,0,0-1.148-.012,1.976,1.976,0,0,1-.378.18,5.309,5.309,0,0,1,.209.69,10.493,10.493,0,0,1,.277,2.477.149.149,0,0,1-.152.142.147.147,0,0,1-.142-.151,10.429,10.429,0,0,0-.27-2.4,4.867,4.867,0,0,0-.211-.687.918.918,0,0,1-.816-.249.47.47,0,0,1-.057-.607.389.389,0,0,1,.4-.163c.231.048.454.288.644.678a1.658,1.658,0,0,0,.343-.16,2.242,2.242,0,0,0,.553-.466,1.089,1.089,0,0,1-.206-.828.413.413,0,0,1,.79.009,1.087,1.087,0,0,1-.223.823,2.249,2.249,0,0,0,.543.477,1.652,1.652,0,0,0,.339.167c.2-.385.426-.621.658-.665a.392.392,0,0,1,.4.172.47.47,0,0,1-.069.606.919.919,0,0,1-.821.232,4.826,4.826,0,0,0-.226.683,10.369,10.369,0,0,0-.32,2.394.147.147,0,0,1-.146.148ZM424.837,74.3c-.025,0-.052.011-.085.054-.073.1.011.2.039.234a.587.587,0,0,0,.468.162c-.153-.289-.3-.426-.4-.447Zm3.166.478a.59.59,0,0,0,.471-.152c.028-.03.114-.134.044-.233-.04-.057-.075-.059-.1-.054C428.315,74.359,428.162,74.493,428,74.779Zm-1.356-1.532a.1.1,0,0,0-.113.078.254.254,0,1,0,.225,0A.1.1,0,0,0,426.647,73.247Z" transform="translate(-424.43 -72.953)" fill="#727997"/>
          </g>
        </g>
        <g id="Grupo_105156" data-name="Grupo 105156">
          <g id="Grupo_105147" data-name="Grupo 105147" transform="translate(7.792)">
            <path id="Trazado_134801" data-name="Trazado 134801" d="M431.113,49.284a.279.279,0,0,1-.075.01.283.283,0,0,1-.281-.284l.006-1.474a.283.283,0,0,1,.566,0l-.007,1.474A.283.283,0,0,1,431.113,49.284Z" transform="translate(-430.756 -47.254)" fill="#fff"/>
          </g>
          <g id="Grupo_105148" data-name="Grupo 105148" transform="translate(3.91 1.024)">
            <path id="Trazado_134802" data-name="Trazado 134802" d="M419.265,52.41a.283.283,0,0,1-.319-.133L418.215,51a.283.283,0,0,1,.491-.281l.732,1.28a.284.284,0,0,1-.172.414Z" transform="translate(-418.177 -50.574)" fill="#fff"/>
          </g>
          <g id="Grupo_105149" data-name="Grupo 105149" transform="translate(1.056 3.855)">
            <path id="Trazado_134803" data-name="Trazado 134803" d="M410.557,61.045a.28.28,0,0,1-.216-.028l-1.274-.743a.283.283,0,1,1,.284-.489l1.274.743a.282.282,0,0,1-.069.517Z" transform="translate(-408.927 -59.747)" fill="#fff"/>
          </g>
          <g id="Grupo_105150" data-name="Grupo 105150" transform="translate(0 7.733)">
            <path id="Trazado_134804" data-name="Trazado 134804" d="M407.334,72.879a.274.274,0,0,1-.075.01l-1.474-.006a.283.283,0,0,1,0-.566l1.474.006a.283.283,0,0,1,.073.556Z" transform="translate(-405.503 -72.317)" fill="#fff"/>
          </g>
          <g id="Grupo_105151" data-name="Grupo 105151" transform="translate(13.2 10.934)">
            <path id="Trazado_134805" data-name="Trazado 134805" d="M449.916,83.989a.282.282,0,0,1-.216-.029l-1.274-.742a.283.283,0,0,1,.285-.489l1.274.743a.282.282,0,0,1-.069.517Z" transform="translate(-448.286 -82.691)" fill="#fff"/>
          </g>
          <g id="Grupo_105152" data-name="Grupo 105152" transform="translate(1.106 10.934)">
            <path id="Trazado_134806" data-name="Trazado 134806" d="M409.3,83.989a.283.283,0,0,0,.216-.029l1.274-.742a.283.283,0,1,0-.284-.489l-1.274.743a.283.283,0,0,0,.068.517Z" transform="translate(-409.089 -82.691)" fill="#fff"/>
          </g>
          <g id="Grupo_105153" data-name="Grupo 105153" transform="translate(14.056 7.792)">
            <path id="Trazado_134807" data-name="Trazado 134807" d="M452.892,73.07a.275.275,0,0,1-.075.01l-1.474-.006a.283.283,0,1,1,0-.565l1.474.006a.283.283,0,0,1,.073.556Z" transform="translate(-451.061 -72.508)" fill="#fff"/>
          </g>
          <g id="Grupo_105154" data-name="Grupo 105154" transform="translate(13.226 3.911)">
            <path id="Trazado_134808" data-name="Trazado 134808" d="M448.728,61.217a.283.283,0,0,1-.214-.519l1.28-.732a.283.283,0,0,1,.281.491l-1.28.732A.286.286,0,0,1,448.728,61.217Z" transform="translate(-448.371 -59.929)" fill="#fff"/>
          </g>
          <g id="Grupo_105155" data-name="Grupo 105155" transform="translate(10.933 1.057)">
            <path id="Trazado_134809" data-name="Trazado 134809" d="M441.3,52.508a.283.283,0,0,1-.318-.415l.743-1.274a.283.283,0,1,1,.488.284l-.742,1.274A.284.284,0,0,1,441.3,52.508Z" transform="translate(-440.939 -50.679)" fill="#fff"/>
          </g>
        </g>
      </g>
    </g>
    <g id="Character" transform="translate(845.016 13820.393)">
      <g id="Character-2" data-name="Character" transform="translate(0 0)">
        <g id="Grupo_105157" data-name="Grupo 105157">
          <path id="Trazado_134810" data-name="Trazado 134810" d="M376.17,91.14c.5-.083.541.882.576,1.9.032.935.1,2.739.3,2.765s.779-.384,1.279-.419.877.38.515.566c-.207.107-.828.6-1.121.805s-.676.512-.7.922,2.236,6.958,2.236,6.958,5.28,3.236,6.425,3.863,1.723.571,2.354,1.041a27.007,27.007,0,0,0-3.922,3.355s.227.131-1.327-1.139c-1.881-1.537-5.307-3.706-6.442-5.253-.8-1.988-2.036-7.692-2.213-8.22-.213-.634-.521-.944-.688-1.456a4.708,4.708,0,0,1-.365-1.8.665.665,0,0,1,.209-.513c.078-.058.176-.085.254-.143.122-.089.224-.258.358-.327.185-.1.468.016.647-.091.079-.047.234-.284.324-.3a1.563,1.563,0,0,1,.435.02c.086,0,.264.05.3-.065.043-.139.01-.442.1-1.184S375.83,91.2,376.17,91.14Z" transform="translate(-373.078 -91.135)" fill="#b16668"/>
          <path id="Trazado_134811" data-name="Trazado 134811" d="M391.411,127.608a18.729,18.729,0,0,0-2.245-1c-1.082-.442-6.475-3.885-6.475-3.885l-1.963-5.312a2.014,2.014,0,0,1-1.263.846,1.983,1.983,0,0,1-1.659-.182s1.185,5.017,1.4,5.85a3.2,3.2,0,0,0,1.229,1.924c.819.744,7,5.607,7,5.607Z" transform="translate(-376.348 -109.302)" fill="#455a64"/>
          <path id="Trazado_134812" data-name="Trazado 134812" d="M376.738,102.381c-.055.605.048,1.278-.247,1.47a.557.557,0,0,0-1.012.1.442.442,0,0,1-.436-.144.454.454,0,0,1-.653.112c.081.174.357.445.621.17,0,0,.461.284.732-.075a1.16,1.16,0,0,0-.072,1.118,1.688,1.688,0,0,1,.33-1.067.7.7,0,0,0,.7-.124C376.994,103.657,376.738,102.381,376.738,102.381Z" transform="translate(-373.985 -98.911)" fill="#9a4a4d"/>
        </g>
        <g id="Grupo_105172" data-name="Grupo 105172" transform="translate(5.93 6.003)">
          <g id="Bottom" transform="translate(0 23.02)">
            <path id="Trazado_134813" data-name="Trazado 134813" d="M419.54,224.4c-.586-2.581-.485-7.251-.779-9.585a13.533,13.533,0,0,0-2.388-5.439s.864-6.978,1.195-10.088c.776-7.3-.585-10.129-1.354-11.227a15.227,15.227,0,0,1-.839-1.329,11.929,11.929,0,0,1-.753-1.529l-10.132.1a13.092,13.092,0,0,0-1.29,5.628c-1.055,3.8-.877,15.878-.711,20.246.1,2.618,1.793,14.141,1.83,14.5a1.28,1.28,0,0,0,1.516.641c1.04-.175,1.318-.537,1.319-.647,0-.378.052-.8.085-1.176.214-2.463,1.16-7.732,1.464-10.243a6.5,6.5,0,0,0-.837-3.964l1.533-6.759a49.994,49.994,0,0,0,2.232,9.43c1.16,3.313,5.162,13.126,5.162,13.126.365,1.031,2.555.509,2.84-1.253Z" transform="translate(-399.258 -185.201)" fill="#b16668"/>
            <path id="Trazado_134814" data-name="Trazado 134814" d="M450.82,312.231c.548-.094.472,1.811.8,2.967.347,1.239.968,2.076,1.265,3.089a3.814,3.814,0,0,1-.045,2.745c-.264.83-2.02,2.226-2.915,1.276a5.368,5.368,0,0,1-1.342-3.358,18.622,18.622,0,0,0-.48-2.983c-.231-.984-.751-2.71-.349-2.841l.23.566c.323.394,2.776-.125,2.932-1.027Z" transform="translate(-430.538 -273.035)" fill="#37474f"/>
            <g id="Grupo_105159" data-name="Grupo 105159" transform="translate(0 37.835)">
              <g id="Grupo_105158" data-name="Grupo 105158">
                <path id="Trazado_134815" data-name="Trazado 134815" d="M416.266,316.618a10.854,10.854,0,0,1-.032,2.237,2.182,2.182,0,0,1-1.193.928l-.387-2.285Z" transform="translate(-407.756 -313.906)" fill="#263238"/>
                <path id="Trazado_134816" data-name="Trazado 134816" d="M410.317,321.267l-2.026-.692-.468-1.811,2.258,1.1Z" transform="translate(-403.032 -315.39)"/>
                <path id="Trazado_134817" data-name="Trazado 134817" d="M397.086,308.522l-.076-.536c-.278.131-.264,2.34-1.741,3.9-1.089,1.148-2.329,1.823-2.819,2.424-.656.8.88,2.158,2.9,1.751a5.434,5.434,0,0,0,2.944-1.494c.419-.67.708-1.765,1.05-2.258s1.283-.869,1.506-1.416a3.255,3.255,0,0,0-.113-1.983c-.151-.516-.057-1.067-.292-1.08l-.054.417a2.756,2.756,0,0,1-1.967.677C397.94,308.942,397.3,308.966,397.086,308.522Z" transform="translate(-392.297 -307.828)" fill="#37474f"/>
              </g>
            </g>
            <g id="Grupo_105160" data-name="Grupo 105160" transform="translate(2.8 2.858)">
              <path id="Trazado_134818" data-name="Trazado 134818" d="M402.673,195.333s2.254,1.607,6.606,1.314,6.25-2.184,6.25-2.184a9.629,9.629,0,0,1,1.678,4.093c.232,1.861-.217,7.54-.655,11.612s-.623,5.476-.623,5.476.975,1.7,1.685,3.2c.913,1.936.848,8.264,1.01,10.594a4.213,4.213,0,0,1-3.278,1.175c-.984-2.074-4.134-10.1-4.638-11.619a32.974,32.974,0,0,1-2-9.065l-1.232,6.795a9.685,9.685,0,0,1,.66,2.461c.223,1.474-.9,7.481-1.3,9.354a3.448,3.448,0,0,1-3.7,0c-.227-1.738-1.265-8.305-1.411-10.145a90.228,90.228,0,0,1-.325-10.923A77.719,77.719,0,0,1,402.673,195.333Z" transform="translate(-401.373 -194.464)" fill="#455a64"/>
              <path id="Trazado_134819" data-name="Trazado 134819" d="M416.211,222.472l-.576-6.81s-2.752-1.6-3.418-3.063a4.69,4.69,0,0,0,2.149,3.533l.94,6.891-.328,6.244Z" transform="translate(-408.871 -207.004)" fill="#37474f"/>
            </g>
          </g>
          <g id="Top" transform="translate(3.806)">
            <g id="Grupo_105170" data-name="Grupo 105170" transform="translate(2.277)">
              <g id="Grupo_105167" data-name="Grupo 105167">
                <path id="Trazado_134820" data-name="Trazado 134820" d="M415.684,118.222a1.347,1.347,0,0,0-.21-.415,1.908,1.908,0,0,0-.455-.344,6.131,6.131,0,0,0-1.02-.424,2.5,2.5,0,0,1-1.516-1.056.7.7,0,0,1-.07-.52.37.37,0,0,1,.412-.261,1.932,1.932,0,0,1-.549-.584.886.886,0,0,1-.065-.776.584.584,0,0,1,.657-.34,2.9,2.9,0,0,1-.8-1.028.855.855,0,0,1,.258-.992,2.673,2.673,0,0,1,1.07-.195,17.045,17.045,0,0,0,2.689-.54,9.531,9.531,0,0,1,3.29-.026,2.781,2.781,0,0,1,2.089,1.481c.1.225.115.329.34.427a4.318,4.318,0,0,1,.679.27,2.591,2.591,0,0,1,.989,1.28,7.294,7.294,0,0,1,.3,2.45,5.8,5.8,0,0,0,.4,2.428,6.769,6.769,0,0,1,.7,1.44,1.6,1.6,0,0,1-2.209,1.788,2.337,2.337,0,0,0,.2-1.322,2.092,2.092,0,0,1-1.732,1.44c-1.872.371-3.568-.945-4.527-2.44A13.6,13.6,0,0,1,415.684,118.222Z" transform="translate(-412.011 -110.591)" fill="#263238"/>
                <path id="Trazado_134821" data-name="Trazado 134821" d="M414.726,126.794c.031,0-.449,1.293-.505,1.408-.574,1.164-1.085,2.21-.552,3.451a2.706,2.706,0,0,0,1.939,1.518,5.5,5.5,0,0,0,1.324.081,1.672,1.672,0,0,0,1-.332c.181-.147.116-.62.122-.849q.04-1.313.08-2.625c0-.156.077-2.555.078-2.555Z" transform="translate(-413.002 -121.795)" fill="#263238"/>
                <g id="Grupo_105161" data-name="Grupo 105161" transform="translate(1.083 1.958)">
                  <path id="Trazado_134822" data-name="Trazado 134822" d="M417.458,116.937c-.64.3-1.963,1.676-1.938,4.955.02,2.725.492,3.378,1.23,3.716a4.584,4.584,0,0,0,2,.138l-.034,1.646s-2.441,1.663-.562,2.083a4.188,4.188,0,0,0,3-.622,4.126,4.126,0,0,0,1.217-1.11l.3-3.659s.443.519,1.337-.127a1.551,1.551,0,0,0,.58-2.106,1.233,1.233,0,0,0-1.967.189s-.47.249-.872-.7a12.325,12.325,0,0,1-2.234-1.271A4.749,4.749,0,0,1,417.458,116.937Z" transform="translate(-415.52 -116.937)" fill="#b16668"/>
                </g>
                <g id="Grupo_105162" data-name="Grupo 105162" transform="translate(3.413 8.3)">
                  <path id="Trazado_134823" data-name="Trazado 134823" d="M424.564,137.493l-1.491.374a.755.755,0,0,0,.917.584A.805.805,0,0,0,424.564,137.493Z" transform="translate(-423.073 -137.493)" fill="#9a4a4d"/>
                </g>
                <path id="Trazado_134824" data-name="Trazado 134824" d="M424.956,139.165a.713.713,0,0,1,.77-.642.7.7,0,0,1,.14.026.791.791,0,0,1-.574.612A.734.734,0,0,1,424.956,139.165Z" transform="translate(-420.962 -129.903)" fill="#f28f8f"/>
                <g id="Grupo_105163" data-name="Grupo 105163" transform="translate(1.74 4.447)">
                  <path id="Trazado_134825" data-name="Trazado 134825" d="M417.662,125.54l.815-.217a.4.4,0,0,0-.5-.306A.443.443,0,0,0,417.662,125.54Z" transform="translate(-417.651 -125.003)" fill="#263238"/>
                </g>
                <g id="Grupo_105164" data-name="Grupo 105164" transform="translate(5.441 4.928)">
                  <path id="Trazado_134826" data-name="Trazado 134826" d="M429.645,126.792l.756.374a.4.4,0,0,0-.175-.561A.443.443,0,0,0,429.645,126.792Z" transform="translate(-429.645 -126.561)" fill="#263238"/>
                </g>
                <g id="Grupo_105165" data-name="Grupo 105165" transform="translate(1.999 5.486)">
                  <path id="Trazado_134827" data-name="Trazado 134827" d="M420.082,128.372l-.377,2.27-1.214-.364Z" transform="translate(-418.491 -128.372)" fill="#9a4a4d"/>
                </g>
                <g id="Grupo_105166" data-name="Grupo 105166" transform="translate(4.299 9.383)">
                  <path id="Trazado_134828" data-name="Trazado 134828" d="M425.956,142.387c.883-.033,2.831-.7,3.176-1.384a1.838,1.838,0,0,1-.768,1.135,9.708,9.708,0,0,1-2.419.782Z" transform="translate(-425.945 -141.003)" fill="#9a4a4d"/>
                </g>
                <path id="Trazado_134829" data-name="Trazado 134829" d="M436.442,129.152l-.133,1.427h0a.976.976,0,0,1-.881-1.062l.123-1.318Z" transform="translate(-428.2 -122.767)" fill="#263238"/>
              </g>
              <g id="Grupo_105168" data-name="Grupo 105168" transform="translate(1.563 5.493)">
                <path id="Trazado_134830" data-name="Trazado 134830" d="M417.832,128.733a.389.389,0,0,1-.352.408.364.364,0,0,1-.4-.338.388.388,0,0,1,.352-.408A.364.364,0,0,1,417.832,128.733Z" transform="translate(-417.077 -128.394)" fill="#263238"/>
              </g>
              <g id="Grupo_105169" data-name="Grupo 105169" transform="translate(4.443 5.607)">
                <path id="Trazado_134831" data-name="Trazado 134831" d="M427.166,129.1a.388.388,0,0,1-.352.408.364.364,0,0,1-.4-.338.388.388,0,0,1,.352-.408A.364.364,0,0,1,427.166,129.1Z" transform="translate(-426.412 -128.765)" fill="#263238"/>
              </g>
            </g>
            <g id="Grupo_105171" data-name="Grupo 105171" transform="translate(0 12.275)">
              <path id="Trazado_134832" data-name="Trazado 134832" d="M416.424,161.183l1.294-4.481a7.363,7.363,0,0,0,.338-4.06c-.232-.9-2.988-1.715-2.988-1.715-.421-.133-1.664-.141-2.046-.205l-2.829-.256a13.112,13.112,0,0,0-4.2,3.662c-.922,1.2-1.793,2.9.077,4.732a5.684,5.684,0,0,0,.217,2.428" transform="translate(-404.865 -150.438)" fill="#b16668"/>
              <path id="Trazado_134833" data-name="Trazado 134833" d="M411.185,150.515s-3.888,4.02-1.71,4.289c2.434.3,4.559-2.237,5.361-3.938,0,0,2.162.608,2.71.792s.77,1.9.33,3.905-1.505,5.481-1.505,5.481l1.412,2.936a9.4,9.4,0,0,1-6.705,2.569c-4.256-.069-6.15-1.7-6.15-1.7l.9-3.667a5.979,5.979,0,0,1-.109-2.34,3.4,3.4,0,0,1-1.089-2.256c-.016-1.383.7-2.31,2.05-3.776a16.879,16.879,0,0,1,3.093-2.433Z" transform="translate(-404.632 -150.376)" fill="#263238"/>
              <path id="Trazado_134834" data-name="Trazado 134834" d="M423.4,176.469a2.91,2.91,0,0,1-2.876,1.31,3.07,3.07,0,0,1-2.47-1.835,2.341,2.341,0,0,0,2.429,2.346A2.5,2.5,0,0,0,423.4,176.469Z" transform="translate(-413.916 -168.055)" opacity="0.2"/>
            </g>
          </g>
        </g>
        <g id="Grupo_105179" data-name="Grupo 105179" transform="translate(18.03 19.288)">
          <g id="Grupo_105173" data-name="Grupo 105173" transform="translate(1.07 11.932)">
            <path id="Trazado_134835" data-name="Trazado 134835" d="M434.985,199.049v9.5a.2.2,0,0,0,.075.177l.43.25a.142.142,0,0,0,.067.013.255.255,0,0,0,.123-.035l10.772-6.22a.614.614,0,0,0,.276-.483l0-9.489a.2.2,0,0,0-.078-.177.054.054,0,0,0-.018-.011h0l-.4-.236a.164.164,0,0,0-.073-.018.27.27,0,0,0-.123.037l-5.646,3.254-.668.387s-.821.472-1,.571l-.027.016-3.427,1.978a.39.39,0,0,0-.056.04.583.583,0,0,0-.139.169A.553.553,0,0,0,434.985,199.049Z" transform="translate(-434.985 -192.322)" fill="#fc8116"/>
            <path id="Trazado_134836" data-name="Trazado 134836" d="M435.246,198.775l.416.242h0c.014-.021.027-.043.04-.062a.651.651,0,0,1,.1-.107.37.37,0,0,1,.056-.04l3.427-1.975c.086-.051.859-.494,1.014-.582l.411-.236,5.914-3.41a.2.2,0,0,1,.18-.027l-.4-.236a.164.164,0,0,0-.073-.018.233.233,0,0,0-.123.037l-5.646,3.254-.668.387s-.821.472-1,.571l-.027.016-3.427,1.978a.389.389,0,0,0-.056.04A.581.581,0,0,0,435.246,198.775Z" transform="translate(-435.165 -192.322)" fill="#fff" opacity="0.5"/>
            <path id="Trazado_134837" data-name="Trazado 134837" d="M447.657,193.31l0,9.492a.613.613,0,0,1-.279.483l-10.8,6.236a.164.164,0,0,1-.247-.142v-9.541a.564.564,0,0,1,.081-.274.6.6,0,0,1,.2-.208l3.427-1.978,1.015-.581,6.324-3.647a.206.206,0,0,1,.182-.027l.011.006.006,0,0,0A.2.2,0,0,1,447.657,193.31Z" transform="translate(-435.918 -192.868)" fill="#fd963d"/>
            <path id="Trazado_134838" data-name="Trazado 134838" d="M436.594,213.882h0c.014-.021.027-.043.04-.062A.507.507,0,0,0,436.594,213.882Z" transform="translate(-436.098 -207.187)" fill="#27debf"/>
          </g>
          <g id="Grupo_105175" data-name="Grupo 105175" transform="translate(3.345)">
            <g id="Grupo_105174" data-name="Grupo 105174" transform="translate(0.114 0.777)">
              <path id="Trazado_134840" data-name="Trazado 134840" d="M449.361,168.457c-2.308-9.433-3.5-12.328-6.3-12.291-.818.978.045,4.022.586,5.5a83.16,83.16,0,0,1,2.94,8.22,30.474,30.474,0,0,1,.833,5.924,1.183,1.183,0,0,1-.321.777,6.141,6.141,0,0,0-.87,1.662c-.267.494-.559.679-.476.79a.639.639,0,0,0,.866.064,3.264,3.264,0,0,0,.656-.629,7.313,7.313,0,0,1-.512,2.168l-.587.338s.18.61,1.6.2c1.6-.459,2.173-.657,2.342-3.37a20.956,20.956,0,0,0,.03-3A52.021,52.021,0,0,0,449.361,168.457Z" transform="translate(-442.726 -156.166)" fill="#b16668"/>
            </g>
            <path id="Trazado_134841" data-name="Trazado 134841" d="M442.738,153.648s2.828.631,3.5,1.668c.782,1.2,1.08,2.744,2.4,7.424a40.6,40.6,0,0,1,1.5,10.781,3.716,3.716,0,0,1-3.169-.109s-.674-4.071-1.271-6.237-2.513-6.859-2.513-6.859A10.442,10.442,0,0,1,442.738,153.648Z" transform="translate(-442.357 -153.648)" fill="#455a64"/>
          </g>
          <g id="Grupo_105176" data-name="Grupo 105176" transform="translate(0 20.54)">
            <path id="Trazado_134842" data-name="Trazado 134842" d="M432.387,226.168c-.13.08-.185-.163-.216-.52l-.011-.66s-.5.452-.628-1.074c-.136-1.679.616-1.987.616-1.987s0-.279,0-.832.117-.687.245-.78l.189-.1v5.83S432.517,226.088,432.387,226.168Z" transform="translate(-431.516 -220.22)" fill="#37474f"/>
          </g>
          <g id="Grupo_105177" data-name="Grupo 105177" transform="translate(1.003 21.024)">
            <path id="Trazado_134843" data-name="Trazado 134843" d="M435.251,226.423c0-.5.048-.8.368-.993.366-.225.525-.3.525-.3l.094-3.092s-.53.356-.711.462-.285-.524-.276-.71l-.434.2-.051,4.775Z" transform="translate(-434.767 -221.789)" fill="#37474f"/>
          </g>
          <g id="Grupo_105178" data-name="Grupo 105178" transform="translate(1.857 19.998)">
            <path id="Trazado_134844" data-name="Trazado 134844" d="M438.21,223.824l-.379.228c-.209.126-.3-.516-.206-1.434l-.089-2.043c.1-.918.111-1.759.32-1.884l.379-.228Z" transform="translate(-437.535 -218.463)" fill="#37474f"/>
          </g>
        </g>
      </g>
    </g>
    <path id="Trazado_656384" data-name="Trazado 656384" d="M7.346,12.829a1.278,1.278,0,0,0-.5-1.083,6.533,6.533,0,0,0-1.793-.8A12.71,12.71,0,0,1,3,10.123a3.35,3.35,0,0,1-2.059-3A2.919,2.919,0,0,1,1.5,5.379a3.6,3.6,0,0,1,1.585-1.2A5.967,5.967,0,0,1,5.4,3.748a5.432,5.432,0,0,1,2.308.469A3.674,3.674,0,0,1,9.284,5.541a3.464,3.464,0,0,1,.56,1.942H7.354a1.63,1.63,0,0,0-.523-1.291,2.15,2.15,0,0,0-1.469-.461,2.3,2.3,0,0,0-1.419.386,1.217,1.217,0,0,0-.506,1.017,1.166,1.166,0,0,0,.594.988,6.705,6.705,0,0,0,1.747.747,7.55,7.55,0,0,1,3.1,1.585,3.157,3.157,0,0,1,.971,2.357,2.909,2.909,0,0,1-1.187,2.461,5.2,5.2,0,0,1-3.2.892,6.171,6.171,0,0,1-2.54-.51,4.019,4.019,0,0,1-1.747-1.4,3.582,3.582,0,0,1-.6-2.059h2.5q0,2,2.391,2a2.326,2.326,0,0,0,1.386-.361A1.175,1.175,0,0,0,7.346,12.829ZM23.234,9.808H15.813V7.849h7.421Zm0,3.594H15.813V11.443h7.421Z" transform="translate(945 13875.775)" fill="#12263f"/>
    <path id="Trazado_655580" data-name="Trazado 655580" d="M-8505.783,1317.922l7.216,27.641,5.688-78.129H-8138" transform="translate(9489 12577.775)" fill="none" stroke="#0f2440" stroke-width="2"/>
    <path id="Trazado_655581" data-name="Trazado 655581" d="M-8486,1312.073h346.04" transform="translate(9489 12577.775)" fill="none" stroke="#0f2440" stroke-width="2"/>
    <path id="Trazado_656385" data-name="Trazado 656385" d="M1.029,11.086a12.739,12.739,0,0,1,.506-3.619A9.551,9.551,0,0,1,3.03,4.425,5.579,5.579,0,0,1,5.171,2.586l.465,1.295A5.778,5.778,0,0,0,3.744,6.653a12.837,12.837,0,0,0-.681,4.383v.257a13.082,13.082,0,0,0,.672,4.4,5.89,5.89,0,0,0,1.9,2.814l-.465,1.27a5.581,5.581,0,0,1-2.1-1.789,9.391,9.391,0,0,1-1.49-2.959,12.663,12.663,0,0,1-.548-3.5Zm10.343-3,2.266-4.167H16.5l-3.52,5.993L16.593,16H13.7l-2.324-4.233L9.048,16h-2.9L9.762,9.907,6.242,3.914H9.106ZM37.6,11.053H26.141V9.094H37.6ZM52.079,8.081l2.266-4.167h2.864l-3.52,5.993L57.3,16H54.4l-2.324-4.233L49.755,16h-2.9l3.611-6.093-3.52-5.993h2.864Zm10.451,3.2a12.088,12.088,0,0,1-.54,3.611,9.8,9.8,0,0,1-1.552,3.063,5.592,5.592,0,0,1-2.167,1.826l-.465-1.27a5.837,5.837,0,0,0,1.859-2.739,12.685,12.685,0,0,0,.706-4.258v-.44A12.972,12.972,0,0,0,59.7,6.695a6.084,6.084,0,0,0-1.888-2.839l.465-1.27A5.594,5.594,0,0,1,60.4,4.362a9.675,9.675,0,0,1,1.552,3A12,12,0,0,1,62.53,10.9Z" transform="translate(1016 13860.775)" fill="#12263f"/>
    <path id="Trazado_656386" data-name="Trazado 656386" d="M5.084,0H3.25V-7.071l-2.19.679V-7.884L4.888-9.255h.2Z" transform="translate(1033 13885.775)" fill="#12263f"/>
    <path id="Trazado_656387" data-name="Trazado 656387" d="M6.963,0H.628V-1.257l2.99-3.187a7.376,7.376,0,0,0,.911-1.174,1.887,1.887,0,0,0,.3-.952,1.412,1.412,0,0,0-.311-.968,1.123,1.123,0,0,0-.889-.352,1.211,1.211,0,0,0-.981.428,1.7,1.7,0,0,0-.359,1.127H.444a3.03,3.03,0,0,1,.4-1.542A2.841,2.841,0,0,1,1.987-8.972a3.463,3.463,0,0,1,1.669-.4,3.279,3.279,0,0,1,2.219.686,2.425,2.425,0,0,1,.79,1.936,3.108,3.108,0,0,1-.355,1.4A7.76,7.76,0,0,1,5.091-3.694L2.99-1.479H6.963Z" transform="translate(1078 13865.775)" fill="#12263f"/>
    <path id="Trazado_655582" data-name="Trazado 655582" d="M-8426.733,1284.967h12.714" transform="translate(9489 12578.775)" fill="none" stroke="#12263f" stroke-width="1"/>
    <path id="Trazado_656388" data-name="Trazado 656388" d="M1.029,11.086a12.739,12.739,0,0,1,.506-3.619A9.551,9.551,0,0,1,3.03,4.425,5.579,5.579,0,0,1,5.171,2.586l.465,1.295A5.778,5.778,0,0,0,3.744,6.653a12.837,12.837,0,0,0-.681,4.383v.257a13.082,13.082,0,0,0,.672,4.4,5.89,5.89,0,0,0,1.9,2.814l-.465,1.27a5.581,5.581,0,0,1-2.1-1.789,9.391,9.391,0,0,1-1.49-2.959,12.663,12.663,0,0,1-.548-3.5Zm10.343-3,2.266-4.167H16.5l-3.52,5.993L16.593,16H13.7l-2.324-4.233L9.048,16h-2.9L9.762,9.907,6.242,3.914H9.106ZM37.6,11.053H26.141V9.094H37.6ZM52.079,8.081l2.266-4.167h2.864l-3.52,5.993L57.3,16H54.4l-2.324-4.233L49.755,16h-2.9l3.611-6.093-3.52-5.993h2.864Zm10.451,3.2a12.088,12.088,0,0,1-.54,3.611,9.8,9.8,0,0,1-1.552,3.063,5.592,5.592,0,0,1-2.167,1.826l-.465-1.27a5.837,5.837,0,0,0,1.859-2.739,12.685,12.685,0,0,0,.706-4.258v-.44A12.972,12.972,0,0,0,59.7,6.695a6.084,6.084,0,0,0-1.888-2.839l.465-1.27A5.594,5.594,0,0,1,60.4,4.362a9.675,9.675,0,0,1,1.552,3A12,12,0,0,1,62.53,10.9Z" transform="translate(1123 13860.775)" fill="#12263f"/>
    <path id="Trazado_656389" data-name="Trazado 656389" d="M6.963,0H.628V-1.257l2.99-3.187a7.376,7.376,0,0,0,.911-1.174,1.887,1.887,0,0,0,.3-.952,1.412,1.412,0,0,0-.311-.968,1.123,1.123,0,0,0-.889-.352,1.211,1.211,0,0,0-.981.428,1.7,1.7,0,0,0-.359,1.127H.444a3.03,3.03,0,0,1,.4-1.542A2.841,2.841,0,0,1,1.987-8.972a3.463,3.463,0,0,1,1.669-.4,3.279,3.279,0,0,1,2.219.686,2.425,2.425,0,0,1,.79,1.936,3.108,3.108,0,0,1-.355,1.4A7.76,7.76,0,0,1,5.091-3.694L2.99-1.479H6.963Z" transform="translate(1140 13885.775)" fill="#12263f"/>
    <path id="Trazado_656390" data-name="Trazado 656390" d="M6.963,0H.628V-1.257l2.99-3.187a7.376,7.376,0,0,0,.911-1.174,1.887,1.887,0,0,0,.3-.952,1.412,1.412,0,0,0-.311-.968,1.123,1.123,0,0,0-.889-.352,1.211,1.211,0,0,0-.981.428,1.7,1.7,0,0,0-.359,1.127H.444a3.03,3.03,0,0,1,.4-1.542A2.841,2.841,0,0,1,1.987-8.972a3.463,3.463,0,0,1,1.669-.4,3.279,3.279,0,0,1,2.219.686,2.425,2.425,0,0,1,.79,1.936,3.108,3.108,0,0,1-.355,1.4A7.76,7.76,0,0,1,5.091-3.694L2.99-1.479H6.963Z" transform="translate(1185 13865.775)" fill="#12263f"/>
    <path id="Trazado_655583" data-name="Trazado 655583" d="M-8426.733,1284.967h12.714" transform="translate(9596 12578.775)" fill="none" stroke="#12263f" stroke-width="1"/>
    <path id="Trazado_656391" data-name="Trazado 656391" d="M5.761-6.765h3V-4.6h-3v3.387H3.478V-4.6h-3V-6.765h3v-3.246H5.761Z" transform="translate(1098 13879.775)" fill="#12263f"/>
    <path id="Trazado_656392" data-name="Trazado 656392" d="M5.761-6.765h3V-4.6h-3v3.387H3.478V-4.6h-3V-6.765h3v-3.246H5.761Z" transform="translate(1202 13879.775)" fill="#12263f"/>
    <path id="Trazado_656393" data-name="Trazado 656393" d="M5.761-6.765h3V-4.6h-3v3.387H3.478V-4.6h-3V-6.765h3v-3.246H5.761Z" transform="translate(1252 13879.775)" fill="#12263f"/>
    <path id="Trazado_656394" data-name="Trazado 656394" d="M1.029,11.086a12.739,12.739,0,0,1,.506-3.619A9.551,9.551,0,0,1,3.03,4.425,5.579,5.579,0,0,1,5.171,2.586l.465,1.295A5.778,5.778,0,0,0,3.744,6.653a12.837,12.837,0,0,0-.681,4.383v.257a13.082,13.082,0,0,0,.672,4.4,5.89,5.89,0,0,0,1.9,2.814l-.465,1.27a5.581,5.581,0,0,1-2.1-1.789,9.391,9.391,0,0,1-1.49-2.959,12.663,12.663,0,0,1-.548-3.5Zm10.343-3,2.266-4.167H16.5l-3.52,5.993L16.593,16H13.7l-2.324-4.233L9.048,16h-2.9L9.762,9.907,6.242,3.914H9.106ZM37.6,11.053H26.141V9.094H37.6ZM52.079,8.081l2.266-4.167h2.864l-3.52,5.993L57.3,16H54.4l-2.324-4.233L49.755,16h-2.9l3.611-6.093-3.52-5.993h2.864Zm10.451,3.2a12.088,12.088,0,0,1-.54,3.611,9.8,9.8,0,0,1-1.552,3.063,5.592,5.592,0,0,1-2.167,1.826l-.465-1.27a5.837,5.837,0,0,0,1.859-2.739,12.685,12.685,0,0,0,.706-4.258v-.44A12.972,12.972,0,0,0,59.7,6.695a6.084,6.084,0,0,0-1.888-2.839l.465-1.27A5.594,5.594,0,0,1,60.4,4.362a9.675,9.675,0,0,1,1.552,3A12,12,0,0,1,62.53,10.9Z" transform="translate(1269 13860.775)" fill="#12263f"/>
    <path id="Trazado_656395" data-name="Trazado 656395" d="M2.393-6.868l.057.793A2.4,2.4,0,0,1,4.424-7a1.993,1.993,0,0,1,1.625.641A2.991,2.991,0,0,1,6.6-4.437V0H4.761V-4.393a1.19,1.19,0,0,0-.254-.847A1.137,1.137,0,0,0,3.663-5.5a1.262,1.262,0,0,0-1.162.66V0H.667V-6.868Z" transform="translate(1286 13885.775)" fill="#12263f"/>
    <path id="Trazado_656396" data-name="Trazado 656396" d="M6.963,0H.628V-1.257l2.99-3.187a7.376,7.376,0,0,0,.911-1.174,1.887,1.887,0,0,0,.3-.952,1.412,1.412,0,0,0-.311-.968,1.123,1.123,0,0,0-.889-.352,1.211,1.211,0,0,0-.981.428,1.7,1.7,0,0,0-.359,1.127H.444a3.03,3.03,0,0,1,.4-1.542A2.841,2.841,0,0,1,1.987-8.972a3.463,3.463,0,0,1,1.669-.4,3.279,3.279,0,0,1,2.219.686,2.425,2.425,0,0,1,.79,1.936,3.108,3.108,0,0,1-.355,1.4A7.76,7.76,0,0,1,5.091-3.694L2.99-1.479H6.963Z" transform="translate(1331 13865.775)" fill="#12263f"/>
    <path id="Trazado_655584" data-name="Trazado 655584" d="M-8426.733,1284.967h12.714" transform="translate(9742 12578.775)" fill="none" stroke="#12263f" stroke-width="1"/>
    <path id="Trazado_656397" data-name="Trazado 656397" d="M3.129,7.019,3.2,8.056a3.136,3.136,0,0,1,2.582-1.2,2.606,2.606,0,0,1,2.125.838A3.912,3.912,0,0,1,8.625,10.2V16h-2.4V10.256a1.556,1.556,0,0,0-.332-1.108A1.486,1.486,0,0,0,4.79,8.8a1.65,1.65,0,0,0-1.519.863V16H.872V7.019Zm22.993,4.034H14.661V9.094H26.122ZM37.611,16h-2.4V6.753l-2.864.888V5.69L37.354,3.9h.257Z" transform="translate(1160 13894.775)" fill="#12263f"/>
    <path id="Trazado_656398" data-name="Trazado 656398" d="M3.9,14.821a1.208,1.208,0,0,1,.386-.93,1.37,1.37,0,0,1,.967-.357,1.381,1.381,0,0,1,.975.357,1.208,1.208,0,0,1,.386.93,1.191,1.191,0,0,1-.382.917,1.387,1.387,0,0,1-.979.353,1.375,1.375,0,0,1-.971-.353A1.191,1.191,0,0,1,3.9,14.821Zm9.172,0a1.208,1.208,0,0,1,.386-.93,1.5,1.5,0,0,1,1.942,0,1.208,1.208,0,0,1,.386.93,1.191,1.191,0,0,1-.382.917,1.525,1.525,0,0,1-1.951,0A1.191,1.191,0,0,1,13.076,14.821Zm9.172,0a1.208,1.208,0,0,1,.386-.93,1.5,1.5,0,0,1,1.942,0,1.208,1.208,0,0,1,.386.93,1.191,1.191,0,0,1-.382.917,1.525,1.525,0,0,1-1.951,0A1.191,1.191,0,0,1,22.249,14.821Z" transform="translate(1218 13856.775)" fill="#12263f"/>
  </g>
</svg>
