<svg xmlns="http://www.w3.org/2000/svg" width="85" height="79" viewBox="0 0 85 79">
  <g id="Grupo_957856" data-name="Grupo 957856" transform="translate(-180 -1434)">
    <rect id="Rectángulo_307000" data-name="Rectángulo 307000" width="85" height="79" transform="translate(180 1434)" fill="none"/>
    <g id="Grupo_957399" data-name="Grupo 957399" transform="translate(188 1439)">
      <path id="Trazado_632289" data-name="Trazado 632289" d="M-256.228,38.726c1.058-1.064,2.08-2.111,3.128-3.132a.892.892,0,0,0,.223-.746c0-2.768.018-5.536-.015-8.3-.007-.538.156-.636.646-.619,1.074.038,2.151,0,3.226.02.388.009.582-.042.549-.505-.039-.54-.193-1.276.084-1.583.328-.363,1.074-.094,1.638-.111.731-.021,1.464-.019,2.2,0,.332.009.491-.049.473-.439-.026-.565-.2-1.362.09-1.643.383-.37,1.166-.108,1.776-.115,1.418-.016,2.838,0,4.256-.012.339,0,.469.063.468.443q-.021,7.24,0,14.48c0,.525-.268.458-.589.458-4.21,0-8.42.006-12.63-.011a1.341,1.341,0,0,0-1.069.45c-.935.973-1.9,1.921-2.862,2.863a.461.461,0,0,0-.083.684,19.157,19.157,0,0,1,2.829,8.7c.027.371.139.518.531.5.57-.034,1.144-.015,1.716-.007A3.286,3.286,0,0,1-246.29,53.5q.014,7.858-.007,15.715c0,.511.073.721.66.817a9.877,9.877,0,0,1,8.133,10A9.9,9.9,0,0,1-245.93,89.5a9.892,9.892,0,0,1-11.2-8.066A9.857,9.857,0,0,1-248.909,70c.362-.063.432-.2.431-.528-.008-5.33,0-10.66-.011-15.99a1.09,1.09,0,0,0-1.2-1.185,4.625,4.625,0,0,0-1.9.05c-.622.291-.3,1.14-.4,1.731a19.671,19.671,0,0,1-8.867,13.734c-.093.062-.183.128-.306.214.158.128.3.24.436.353a3.258,3.258,0,0,1-.664,5.552c-.337.16-.483.263-.383.682a3.177,3.177,0,0,1-1.838,3.721c-.316.146-.454.245-.367.63a3.137,3.137,0,0,1-1.679,3.671.662.662,0,0,0-.4.745,5.932,5.932,0,0,1-1.12,4.071,5.489,5.489,0,0,1-6,1.917,5.485,5.485,0,0,1-3.854-5.056,2.589,2.589,0,0,1,0-.411,1.32,1.32,0,0,0-.767-1.5,3.052,3.052,0,0,1-1.33-3.4c.061-.274.115-.463-.243-.635a3.162,3.162,0,0,1-1.927-3.85c.051-.259.052-.414-.235-.52a3.277,3.277,0,0,1-.476-5.878c.016-.01.019-.04.053-.114a23.177,23.177,0,0,1-3.256-2.535,18.941,18.941,0,0,1-3.174-3.94.808.808,0,0,0-.808-.461c-1.716.023-3.432.006-5.148.012-.979,0-1.358.387-1.358,1.379,0,3.751.008,7.5-.013,11.255,0,.467.164.493.569.561a2.305,2.305,0,0,0,2.98-1.824,6.059,6.059,0,0,1,.67-1.344,2.408,2.408,0,0,1,2.687-1.175,2.454,2.454,0,0,1,1.889,2.322c0,.114,0,.229,0,.343a4.75,4.75,0,0,0,.031,1.431c.171.513.815.263,1.225.465a3.212,3.212,0,0,1,2.021,2.938c.046,3,.036,5.993.007,8.99a3.231,3.231,0,0,1-3.2,3.2q-7.756.035-15.513,0a3.241,3.241,0,0,1-3.23-3.243q-.035-4.426,0-8.853a3.266,3.266,0,0,1,3.282-3.265c1.258-.018,2.518-.03,3.775.009.5.016.643-.1.639-.626-.026-3.706-.015-7.412-.013-11.117a3.325,3.325,0,0,1,3.67-3.641l4.256,0a1.24,1.24,0,0,0,.188-.039,20.954,20.954,0,0,1-1.316-4.866c-.009-.068-.027-.135-.035-.2-.058-.476.048-1.195-.211-1.368-.369-.247-1.006-.106-1.528-.107-2.169-.005-3.471-.888-3.85-2.643a4.614,4.614,0,0,1-.071-.954c-.005-2.288-.014-4.575.007-6.863,0-.443-.092-.607-.573-.682a9.884,9.884,0,0,1-8.22-9.925,9.894,9.894,0,0,1,8.405-9.561,9.877,9.877,0,0,1,11.357,10.161,9.909,9.909,0,0,1-8.268,9.334c-.4.063-.525.181-.522.588.019,2.356,0,4.712.012,7.068a1.12,1.12,0,0,0,1.256,1.275c.641.01,1.412.219,1.887-.062.508-.3.258-1.161.363-1.772a19.578,19.578,0,0,1,15.865-16.45c7.276-1.353,13.488.851,18.5,6.332C-256.571,38.321-256.414,38.511-256.228,38.726Zm-15.334,33.328h1.921c2.265,0,4.529.007,6.793-.005a1.092,1.092,0,0,0,1.18-1.073,1.112,1.112,0,0,0-1-1.113c-.392-.057-.933.2-1.144-.146-.182-.3-.044-.8-.046-1.212a3.485,3.485,0,0,0-.006-.616c-.123-.66.171-.994.75-1.311a17.456,17.456,0,0,0,9.037-17.149,17.536,17.536,0,0,0-20.4-15.554A17.645,17.645,0,0,0-288.8,47.784a17.318,17.318,0,0,0,7.937,18.226,2.815,2.815,0,0,1,1.656,3.088c-.061.589-.139.856-.78.77a1.156,1.156,0,0,0-1.325.621c-.385.793.179,1.56,1.173,1.563C-277.28,72.06-274.421,72.055-271.562,72.055Zm-24.151-32.942a7.714,7.714,0,0,0,7.69-7.665,7.711,7.711,0,0,0-7.65-7.7,7.711,7.711,0,0,0-7.724,7.7A7.714,7.714,0,0,0-295.714,39.113ZM-239.7,79.736a7.714,7.714,0,0,0-7.674-7.68,7.712,7.712,0,0,0-7.7,7.654,7.715,7.715,0,0,0,7.707,7.716A7.717,7.717,0,0,0-239.7,79.736Zm-54.925,7.691c2.493,0,4.987,0,7.48,0,.9,0,1.313-.4,1.315-1.288q.011-4.185,0-8.37c0-.926-.407-1.309-1.355-1.318-.457,0-.917-.028-1.372.007-.434.033-.594-.086-.578-.554.037-1.051.018-2.1.007-3.155,0-.23.124-.569-.22-.635-.329-.063-.36.294-.465.5-.56,1.1-1.126,2.193-1.647,3.31a.818.818,0,0,1-.885.537c-3.2-.022-6.405-.013-9.608-.011-1.082,0-1.445.36-1.447,1.432q0,4.048,0,8.1c0,1.08.364,1.448,1.43,1.45Q-298.3,87.43-294.624,87.427Zm23-10.98c2.147,0,4.294,0,6.44,0,.813,0,1.3-.412,1.317-1.074.014-.686-.492-1.118-1.341-1.118q-6.338,0-12.675,0c-.86,0-1.358.418-1.35,1.108s.505,1.083,1.374,1.085Q-274.739,76.451-271.622,76.447Zm.059,6.589c-.936,0-1.872-.006-2.807.005-.175,0-.394-.107-.477.22a3.485,3.485,0,0,0,3.142,4.162,3.455,3.455,0,0,0,3.46-4.124c-.06-.326-.254-.26-.442-.261C-269.645,83.033-270.6,83.036-271.563,83.036Zm29.67-53.866v3.9c0,1.676,0,1.656,1.651,1.662.465,0,.556-.147.554-.577-.018-2.922-.009-5.844-.009-8.765,0-1.705,0-1.69-1.72-1.66-.4.007-.488.134-.484.507C-241.883,25.882-241.893,27.526-241.893,29.169Zm-29.673,51.67c1.415,0,2.83.007,4.245,0,.785-.005,1.281-.464,1.26-1.129a1.114,1.114,0,0,0-1.258-1.061q-4.211-.01-8.422,0c-.8,0-1.292.427-1.293,1.094s.488,1.092,1.292,1.1C-274.351,80.844-272.958,80.839-271.566,80.839Zm25.28-50.534v2.806c0,1.629,0,1.606,1.62,1.624.5.006.592-.154.586-.615-.024-2.167-.011-4.335-.011-6.5,0-1.758,0-1.744-1.757-1.69-.376.012-.45.135-.445.476C-246.276,27.7-246.286,29-246.286,30.3Zm-4.393,1.07v1.71c0,1.667,0,1.645,1.66,1.651.48,0,.55-.17.544-.586-.022-1.459-.008-2.918-.008-4.378,0-1.666,0-1.644-1.66-1.651-.481,0-.556.17-.544.586C-250.661,29.6-250.68,30.486-250.68,31.375Z" transform="translate(305.605 -21.467)" fill="#020202"/>
      <path id="Trazado_632290" data-name="Trazado 632290" d="M-228.189,104.11c-2.859,0-5.718.005-8.577,0-.995,0-1.558-.77-1.173-1.563a1.156,1.156,0,0,1,1.325-.621c.641.086.719-.18.78-.77a2.815,2.815,0,0,0-1.656-3.088,17.318,17.318,0,0,1-7.937-18.226A17.645,17.645,0,0,1-231.1,65.93a17.537,17.537,0,0,1,20.4,15.554,17.456,17.456,0,0,1-9.037,17.149c-.578.317-.873.651-.749,1.311a3.491,3.491,0,0,1,.006.616c0,.411-.136.908.046,1.212.21.35.751.088,1.144.146a1.112,1.112,0,0,1,1,1.113,1.092,1.092,0,0,1-1.18,1.073c-2.265.012-4.529,0-6.793.005ZM-240.24,77.959c-.113.3-.2.542-.522.629-.418.113-.817.29-1.231.416a.542.542,0,0,0-.471.608c.021,2.425.017,4.849,0,7.274,0,.325.09.5.406.585.373.1.737.242,1.1.374.735.268.824.477.5,1.16a4.686,4.686,0,0,1-.391.8c-.367.5-.175.825.221,1.208,1.3,1.255,2.564,2.548,3.843,3.825.437.436.811,1.059,1.339,1.246.552.2,1.1-.408,1.662-.636.494-.2.78-.065.944.421a10.277,10.277,0,0,1,.382,1.1c.1.476.355.576.814.569,1.967-.027,3.935-.012,5.9-.012,1.613,0,1.613,0,2.176-1.531.024-.064.037-.133.064-.195a.6.6,0,0,1,.926-.348,10.276,10.276,0,0,1,1.044.51c.439.29.71.15,1.044-.193,1.34-1.377,2.71-2.725,4.069-4.084,1.188-1.187,1.188-1.187.481-2.739-.019-.042-.032-.086-.051-.127-.212-.451-.054-.739.4-.9.409-.144.811-.311,1.229-.421.378-.1.474-.3.469-.681-.022-1.9-.007-3.8-.012-5.7,0-.639.186-1.4-.1-1.878-.237-.4-1.039-.455-1.591-.663a.6.6,0,0,1-.369-.965c.175-.346.312-.715.514-1.043.252-.409.15-.668-.184-.991-1.348-1.3-2.661-2.645-3.989-3.969-.421-.42-.783-1.032-1.289-1.2-.557-.182-1.1.4-1.663.64a.616.616,0,0,1-.946-.423c-.138-.387-.3-.767-.4-1.163s-.319-.508-.723-.5c-1.922.022-3.844.008-5.766.011-.594,0-1.294-.176-1.752.078s-.459,1.036-.672,1.582c-.187.479-.469.643-.948.408-.348-.171-.715-.308-1.045-.509a.685.685,0,0,0-1,.148q-2.418,2.483-4.9,4.9a.723.723,0,0,0-.149,1.052C-240.619,77.062-240.44,77.532-240.24,77.959Z" transform="translate(262.232 -53.523)" fill="#fae8ad"/>
      <path id="Trazado_632291" data-name="Trazado 632291" d="M-289.894,45.112a7.714,7.714,0,0,1-7.684-7.671,7.711,7.711,0,0,1,7.724-7.7,7.711,7.711,0,0,1,7.65,7.7A7.714,7.714,0,0,1-289.894,45.112Zm5.136-10.186a3.257,3.257,0,0,0-.209-.269c-.19-.2-.386-.39-.58-.584-.723-.723-.723-.723-1.422-.024-1.585,1.585-3.176,3.165-4.752,4.759-.255.258-.408.323-.709.033-.363-.35-.645-1.046-1.143-.935-.436.1-.752.693-1.146,1.039-.288.253-.3.429-.01.7.778.741,1.546,1.5,2.278,2.282.312.334.473.255.751-.026q3.284-3.315,6.593-6.6C-285,35.189-284.892,35.07-284.759,34.926Z" transform="translate(299.786 -27.467)" fill="#ed8773"/>
      <path id="Trazado_632292" data-name="Trazado 632292" d="M-106.512,213.07a7.717,7.717,0,0,1-7.666,7.69,7.715,7.715,0,0,1-7.707-7.716,7.712,7.712,0,0,1,7.7-7.654A7.714,7.714,0,0,1-106.512,213.07Zm-2.6-2.45c.009-.2-.125-.272-.215-.366-.238-.247-.51-.466-.72-.734-.358-.456-.609-.491-1.053-.028-1.6,1.667-3.256,3.277-4.885,4.916-.243.245-.407.438-.758.08s-.639-1.048-1.141-.933c-.437.1-.751.695-1.146,1.041-.292.256-.29.432,0,.7q1.167,1.112,2.281,2.28c.257.268.412.312.7.021,2.22-2.244,4.458-4.47,6.69-6.7C-109.268,210.8-109.181,210.7-109.11,210.62Z" transform="translate(172.418 -154.801)" fill="#ed8773"/>
      <path id="Trazado_632293" data-name="Trazado 632293" d="M-288.809,220.888q-3.672,0-7.343,0c-1.066,0-1.429-.37-1.43-1.45q0-4.048,0-8.1c0-1.071.365-1.431,1.446-1.432,3.2,0,6.405-.011,9.608.011a.818.818,0,0,0,.885-.537c.52-1.117,1.087-2.212,1.647-3.31.105-.206.136-.563.465-.5.344.066.218.4.22.635.01,1.052.03,2.1-.007,3.155-.016.468.144.587.578.554.455-.035.914-.011,1.372-.007.948.009,1.353.392,1.355,1.318q.009,4.185,0,8.37c0,.886-.413,1.286-1.315,1.288C-283.823,220.892-286.316,220.888-288.809,220.888Zm.016-6.588h5c1.595,0,1.568,0,1.6-1.581.01-.53-.15-.63-.647-.627-3.632.022-7.264.012-10.9.012-1.678,0-1.659,0-1.664,1.65,0,.463.143.56.576.555C-292.814,214.288-290.8,214.3-288.793,214.3ZM-291,216.5h-2.739c-1.676,0-1.656,0-1.662,1.651,0,.463.144.559.576.555,2.191-.021,4.382-.01,6.574-.01,1.7,0,1.69,0,1.66-1.719-.007-.4-.131-.49-.506-.485C-288.4,216.509-289.7,216.5-291,216.5Zm6.595,1.052c0,1.143,0,1.143,1.121,1.143,1.075,0,1.075,0,1.075-1.052,0-1.143,0-1.143-1.121-1.143C-284.4,216.5-284.4,216.5-284.4,217.549Z" transform="translate(299.79 -154.929)" fill="#bbda89"/>
      <path id="Trazado_632294" data-name="Trazado 632294" d="M-202.109,215.564q-3.117,0-6.235,0c-.869,0-1.366-.4-1.374-1.085s.49-1.107,1.35-1.108q6.338,0,12.675,0c.849,0,1.355.432,1.341,1.118-.014.662-.5,1.072-1.317,1.074C-197.816,215.567-199.962,215.564-202.109,215.564Z" transform="translate(236.092 -160.584)" fill="#cbcfd6"/>
      <path id="Trazado_632295" data-name="Trazado 632295" d="M-190.73,245.279c.959,0,1.917,0,2.876,0,.188,0,.381-.065.442.261a3.455,3.455,0,0,1-3.46,4.124,3.485,3.485,0,0,1-3.143-4.162c.083-.327.3-.218.477-.22C-192.6,245.273-191.666,245.279-190.73,245.279Z" transform="translate(224.773 -183.711)" fill="#a9b0ba"/>
      <path id="Trazado_632296" data-name="Trazado 632296" d="M-73.992,35.119c0-1.643.01-3.287-.008-4.93,0-.373.084-.5.484-.507,1.72-.03,1.72-.045,1.72,1.66,0,2.922-.009,5.844.009,8.765,0,.43-.088.579-.554.577-1.651-.006-1.651.014-1.651-1.662Q-73.993,37.071-73.992,35.119Z" transform="translate(137.704 -27.417)" fill="#bbda89"/>
      <path id="Trazado_632297" data-name="Trazado 632297" d="M-196.265,231.529c-1.392,0-2.784.005-4.177,0-.8,0-1.292-.43-1.292-1.1s.489-1.092,1.293-1.094q4.211-.009,8.422,0a1.114,1.114,0,0,1,1.258,1.061c.021.665-.475,1.123-1.26,1.129C-193.435,231.535-194.849,231.529-196.265,231.529Z" transform="translate(230.303 -172.157)" fill="#cbcfd6"/>
      <path id="Trazado_632298" data-name="Trazado 632298" d="M-89.962,42.02c0-1.3.01-2.6-.007-3.9,0-.341.069-.464.445-.476,1.757-.053,1.757-.067,1.757,1.69,0,2.168-.013,4.335.011,6.5.005.461-.087.621-.586.615-1.62-.018-1.62,0-1.62-1.624Q-89.962,43.423-89.962,42.02Z" transform="translate(149.28 -33.183)" fill="#bbda89"/>
      <path id="Trazado_632299" data-name="Trazado 632299" d="M-105.941,48.912c0-.889.019-1.779-.008-2.667-.013-.416.063-.588.544-.586,1.66.007,1.66-.015,1.66,1.651,0,1.459-.013,2.919.008,4.378.006.416-.064.588-.544.586-1.66-.006-1.66.016-1.66-1.651Z" transform="translate(160.866 -39.004)" fill="#bbda89"/>
      <path id="Trazado_632300" data-name="Trazado 632300" d="M-231.512,86.473c-.2-.427-.38-.9-.632-1.325a.723.723,0,0,1,.149-1.052q2.487-2.414,4.9-4.9a.685.685,0,0,1,1-.148c.33.2.7.338,1.045.509.479.235.761.071.948-.408.213-.545.208-1.325.672-1.582s1.158-.076,1.752-.078c1.922,0,3.844.011,5.766-.011.4,0,.62.1.723.5s.265.776.4,1.163a.616.616,0,0,0,.946.423c.558-.235,1.106-.821,1.663-.64.506.165.868.777,1.289,1.2,1.328,1.325,2.642,2.664,3.989,3.969.334.323.436.583.184.991-.2.328-.338.7-.514,1.043a.6.6,0,0,0,.369.965c.552.208,1.354.266,1.591.663.285.476.1,1.239.1,1.878,0,1.9-.01,3.8.012,5.7,0,.381-.091.581-.47.681-.418.11-.82.277-1.229.421-.45.158-.608.447-.4.9.02.041.032.086.051.127.707,1.552.707,1.552-.481,2.739-1.359,1.359-2.729,2.707-4.069,4.084-.334.343-.6.483-1.044.193a10.277,10.277,0,0,0-1.044-.51.6.6,0,0,0-.926.348c-.028.062-.041.131-.064.195-.563,1.531-.563,1.531-2.176,1.531-1.968,0-3.936-.016-5.9.012-.459.007-.712-.093-.814-.569a10.263,10.263,0,0,0-.382-1.1c-.164-.486-.45-.622-.944-.421-.561.228-1.11.831-1.662.636-.527-.186-.9-.81-1.339-1.246-1.279-1.277-2.543-2.569-3.843-3.825-.4-.383-.588-.706-.221-1.208a4.689,4.689,0,0,0,.391-.8c.321-.683.232-.893-.5-1.16-.364-.133-.728-.27-1.1-.374-.316-.088-.408-.26-.406-.585.014-2.425.018-4.85,0-7.274a.542.542,0,0,1,.471-.608c.415-.125.814-.3,1.231-.416C-231.71,87.015-231.624,86.774-231.512,86.473Zm12.049,17.366c.709,0,1.418,0,2.128,0,.241,0,.468,0,.51-.312.132-.988.806-1.364,1.666-1.72a1.909,1.909,0,0,1,2.072.076.47.47,0,0,0,.7-.09c.967-1.006,1.962-1.985,2.955-2.965.194-.191.356-.362.146-.633a2.063,2.063,0,0,1-.04-2.321c.322-.75.657-1.306,1.5-1.44a.476.476,0,0,0,.463-.547c-.024-1.418-.018-2.836,0-4.254,0-.306-.093-.479-.395-.524-.9-.134-1.247-.74-1.589-1.527a2.018,2.018,0,0,1,.063-2.258c.171-.226.1-.4-.1-.586q-1.541-1.515-3.059-3.056c-.163-.165-.308-.262-.526-.1a2.2,2.2,0,0,1-2.452.023c-.7-.315-1.224-.629-1.337-1.424-.06-.422-.318-.517-.724-.509-1.3.026-2.609.031-3.912,0-.441-.011-.665.117-.78.542-.093.346-.115.881-.416.971-1.033.307-1.977,1.407-3.2.463-.273-.211-.5-.16-.758.107-.969,1-1.964,1.983-2.955,2.965-.175.173-.326.327-.133.577a2.156,2.156,0,0,1,.039,2.385,1.952,1.952,0,0,1-1.522,1.422.436.436,0,0,0-.429.5c.018,1.441.01,2.882.006,4.323,0,.224.02.416.3.45,1.031.125,1.388.861,1.753,1.722a1.762,1.762,0,0,1-.062,1.946c-.256.343-.148.587.146.866.78.74,1.528,1.513,2.288,2.273.866.868.873.883,2.008.355.628-.292,1,.278,1.508.376a1.629,1.629,0,0,1,1.462,1.458c.056.388.289.5.676.478C-220.791,103.815-220.126,103.84-219.462,103.84Z" transform="translate(253.503 -62.037)" fill="#030302"/>
      <path id="Trazado_632301" data-name="Trazado 632301" d="M-277.808,44.9c-.133.144-.237.263-.348.375q-3.3,3.3-6.593,6.6c-.278.281-.44.36-.751.026-.732-.786-1.5-1.541-2.278-2.282-.288-.275-.277-.451.01-.7.394-.346.709-.942,1.146-1.039.5-.111.78.585,1.143.935.3.29.454.225.709-.033,1.576-1.594,3.166-3.174,4.752-4.759.7-.7.7-.7,1.422.024.194.194.391.386.58.584A3.256,3.256,0,0,1-277.808,44.9Z" transform="translate(292.835 -37.443)" fill="#060403"/>
      <path id="Trazado_632302" data-name="Trazado 632302" d="M-102.16,220.558c-.071.079-.157.183-.253.278-2.232,2.232-4.47,4.458-6.69,6.7-.288.291-.443.247-.7-.021q-1.116-1.164-2.281-2.28c-.285-.272-.287-.448,0-.7.395-.346.708-.94,1.146-1.041.5-.115.791.575,1.141.933s.515.165.758-.079c1.629-1.639,3.286-3.249,4.885-4.916.444-.463.7-.429,1.053.028.21.268.483.487.72.734C-102.285,220.286-102.151,220.357-102.16,220.558Z" transform="translate(165.468 -164.74)" fill="#060403"/>
      <path id="Trazado_632303" data-name="Trazado 632303" d="M-283.036,231.5c-2.01,0-4.021-.012-6.03.01-.433,0-.578-.092-.576-.555.006-1.65-.014-1.65,1.664-1.65,3.632,0,7.264.01,10.9-.012.5,0,.657.1.647.627-.03,1.581,0,1.581-1.6,1.581Z" transform="translate(294.033 -172.131)"/>
      <path id="Trazado_632304" data-name="Trazado 632304" d="M-285.241,245.284c1.3,0,2.6.013,3.9-.008.375-.006.5.087.506.485.03,1.719.045,1.719-1.66,1.719-2.191,0-4.383-.011-6.574.01-.432,0-.578-.092-.576-.555.006-1.651-.014-1.651,1.662-1.651Z" transform="translate(294.033 -183.717)"/>
      <path id="Trazado_632305" data-name="Trazado 632305" d="M-249.666,246.358c0-1.052,0-1.052,1.075-1.052,1.121,0,1.121,0,1.121,1.143,0,1.052,0,1.052-1.075,1.052C-249.666,247.5-249.666,247.5-249.666,246.358Z" transform="translate(265.052 -183.738)"/>
      <path id="Trazado_632306" data-name="Trazado 632306" d="M-213.663,109.75c-.664,0-1.328-.025-1.99.01-.386.02-.62-.09-.676-.478a1.629,1.629,0,0,0-1.462-1.458c-.508-.1-.88-.668-1.508-.376-1.135.528-1.142.512-2.008-.355-.76-.761-1.508-1.534-2.288-2.273-.294-.279-.4-.523-.146-.866a1.762,1.762,0,0,0,.062-1.946c-.365-.861-.722-1.6-1.753-1.722-.276-.034-.3-.226-.3-.45,0-1.441.012-2.882-.006-4.323a.436.436,0,0,1,.429-.5,1.952,1.952,0,0,0,1.522-1.422,2.156,2.156,0,0,0-.039-2.385c-.193-.25-.042-.4.133-.577.991-.982,1.986-1.961,2.955-2.965.257-.266.485-.318.758-.107,1.219.943,2.163-.157,3.2-.463.3-.09.323-.625.416-.971.115-.425.338-.553.78-.542,1.3.034,2.608.028,3.912,0,.406-.008.664.088.724.509.113.8.634,1.108,1.337,1.424a2.2,2.2,0,0,0,2.452-.023c.218-.162.363-.065.526.1q1.521,1.536,3.059,3.056c.194.19.267.36.1.586a2.018,2.018,0,0,0-.063,2.258c.342.788.693,1.393,1.589,1.527.3.045.4.218.395.524-.014,1.418-.02,2.837,0,4.254a.476.476,0,0,1-.463.547c-.845.134-1.18.69-1.5,1.44a2.063,2.063,0,0,0,.04,2.321c.21.271.048.441-.146.633-.993.98-1.988,1.959-2.955,2.965a.47.47,0,0,1-.7.09,1.909,1.909,0,0,0-2.072-.076c-.86.355-1.534.731-1.666,1.72-.042.314-.268.314-.51.312C-212.244,109.746-212.954,109.75-213.663,109.75Zm-8.77-12.124a8.812,8.812,0,0,0,8.707,8.83,8.808,8.808,0,0,0,8.866-8.739,8.807,8.807,0,0,0-8.707-8.828A8.808,8.808,0,0,0-222.433,97.626Z" transform="translate(247.704 -67.947)" fill="#f4c54e"/>
      <path id="Trazado_632307" data-name="Trazado 632307" d="M-213.729,106.34a8.808,8.808,0,0,1,8.866-8.738,8.807,8.807,0,0,1,8.707,8.828,8.808,8.808,0,0,1-8.866,8.739A8.812,8.812,0,0,1-213.729,106.34Zm8.774-6.541a6.609,6.609,0,0,0-6.577,6.6,6.612,6.612,0,0,0,6.6,6.576,6.609,6.609,0,0,0,6.577-6.6A6.606,6.606,0,0,0-204.955,99.8Z" transform="translate(239 -76.661)" fill="#040301"/>
      <path id="Trazado_632308" data-name="Trazado 632308" d="M-199.162,105.59a6.606,6.606,0,0,1,6.6,6.575,6.609,6.609,0,0,1-6.577,6.6,6.612,6.612,0,0,1-6.6-6.576A6.609,6.609,0,0,1-199.162,105.59Zm-.006,10.978a4.4,4.4,0,0,0,4.409-4.391,4.4,4.4,0,0,0-4.34-4.391,4.4,4.4,0,0,0-4.443,4.356A4.407,4.407,0,0,0-199.169,116.568Z" transform="translate(233.208 -82.452)" fill="#f1d37d"/>
      <path id="Trazado_632309" data-name="Trazado 632309" d="M-193.379,122.354a4.407,4.407,0,0,1-4.373-4.426,4.4,4.4,0,0,1,4.443-4.356,4.4,4.4,0,0,1,4.34,4.391A4.4,4.4,0,0,1-193.379,122.354Zm-.005-6.586a2.205,2.205,0,0,0-2.172,2.183,2.212,2.212,0,0,0,2.217,2.207,2.215,2.215,0,0,0,2.173-2.185A2.212,2.212,0,0,0-193.384,115.768Z" transform="translate(227.418 -88.238)" fill="#030302"/>
      <path id="Trazado_632310" data-name="Trazado 632310" d="M-187.6,121.556a2.212,2.212,0,0,1,2.219,2.206,2.215,2.215,0,0,1-2.173,2.184,2.212,2.212,0,0,1-2.218-2.207A2.205,2.205,0,0,1-187.6,121.556Z" transform="translate(221.629 -94.026)" fill="#f6e5ab"/>
    </g>
  </g>
</svg>
